%TF.GenerationSoftware,KiCad,Pcbnew,8.0.4*%
%TF.CreationDate,2025-01-29T17:32:31-05:00*%
%TF.ProjectId,EauRouge,45617552-6f75-4676-952e-6b696361645f,rev?*%
%TF.SameCoordinates,Original*%
%TF.FileFunction,Paste,Top*%
%TF.FilePolarity,Positive*%
%FSLAX46Y46*%
G04 Gerber Fmt 4.6, Leading zero omitted, Abs format (unit mm)*
G04 Created by KiCad (PCBNEW 8.0.4) date 2025-01-29 17:32:31*
%MOMM*%
%LPD*%
G01*
G04 APERTURE LIST*
G04 Aperture macros list*
%AMRoundRect*
0 Rectangle with rounded corners*
0 $1 Rounding radius*
0 $2 $3 $4 $5 $6 $7 $8 $9 X,Y pos of 4 corners*
0 Add a 4 corners polygon primitive as box body*
4,1,4,$2,$3,$4,$5,$6,$7,$8,$9,$2,$3,0*
0 Add four circle primitives for the rounded corners*
1,1,$1+$1,$2,$3*
1,1,$1+$1,$4,$5*
1,1,$1+$1,$6,$7*
1,1,$1+$1,$8,$9*
0 Add four rect primitives between the rounded corners*
20,1,$1+$1,$2,$3,$4,$5,0*
20,1,$1+$1,$4,$5,$6,$7,0*
20,1,$1+$1,$6,$7,$8,$9,0*
20,1,$1+$1,$8,$9,$2,$3,0*%
G04 Aperture macros list end*
%ADD10RoundRect,0.250000X-0.350000X-0.450000X0.350000X-0.450000X0.350000X0.450000X-0.350000X0.450000X0*%
%ADD11RoundRect,0.250000X-0.337500X-0.475000X0.337500X-0.475000X0.337500X0.475000X-0.337500X0.475000X0*%
%ADD12RoundRect,0.250000X0.337500X0.475000X-0.337500X0.475000X-0.337500X-0.475000X0.337500X-0.475000X0*%
%ADD13RoundRect,0.250000X-0.475000X0.337500X-0.475000X-0.337500X0.475000X-0.337500X0.475000X0.337500X0*%
%ADD14RoundRect,0.250000X-0.450000X0.350000X-0.450000X-0.350000X0.450000X-0.350000X0.450000X0.350000X0*%
%ADD15RoundRect,0.250000X0.475000X-0.337500X0.475000X0.337500X-0.475000X0.337500X-0.475000X-0.337500X0*%
%ADD16RoundRect,0.110000X-0.890000X-0.440000X0.890000X-0.440000X0.890000X0.440000X-0.890000X0.440000X0*%
%ADD17RoundRect,0.080000X-0.320000X-0.320000X0.320000X-0.320000X0.320000X0.320000X-0.320000X0.320000X0*%
%ADD18RoundRect,0.250000X-0.550000X1.250000X-0.550000X-1.250000X0.550000X-1.250000X0.550000X1.250000X0*%
%ADD19RoundRect,0.250000X0.450000X-0.350000X0.450000X0.350000X-0.450000X0.350000X-0.450000X-0.350000X0*%
%ADD20RoundRect,0.250000X0.650000X-1.125000X0.650000X1.125000X-0.650000X1.125000X-0.650000X-1.125000X0*%
%ADD21RoundRect,0.500000X-1.000000X-0.500000X1.000000X-0.500000X1.000000X0.500000X-1.000000X0.500000X0*%
%ADD22RoundRect,0.275000X0.975000X0.275000X-0.975000X0.275000X-0.975000X-0.275000X0.975000X-0.275000X0*%
%ADD23C,1.700000*%
%ADD24RoundRect,0.250000X-0.450000X0.325000X-0.450000X-0.325000X0.450000X-0.325000X0.450000X0.325000X0*%
%ADD25RoundRect,0.295455X-0.354545X-0.404545X0.354545X-0.404545X0.354545X0.404545X-0.354545X0.404545X0*%
%ADD26RoundRect,0.375000X-0.375000X0.625000X-0.375000X-0.625000X0.375000X-0.625000X0.375000X0.625000X0*%
%ADD27RoundRect,0.500000X-1.400000X0.500000X-1.400000X-0.500000X1.400000X-0.500000X1.400000X0.500000X0*%
%ADD28RoundRect,0.250000X0.350000X0.450000X-0.350000X0.450000X-0.350000X-0.450000X0.350000X-0.450000X0*%
%ADD29RoundRect,0.200000X0.250000X0.200000X-0.250000X0.200000X-0.250000X-0.200000X0.250000X-0.200000X0*%
%ADD30RoundRect,0.162500X-0.162500X0.617500X-0.162500X-0.617500X0.162500X-0.617500X0.162500X0.617500X0*%
%ADD31RoundRect,0.237500X0.387500X0.237500X-0.387500X0.237500X-0.387500X-0.237500X0.387500X-0.237500X0*%
%ADD32RoundRect,0.150000X-0.700000X0.150000X-0.700000X-0.150000X0.700000X-0.150000X0.700000X0.150000X0*%
%ADD33RoundRect,0.250000X-1.100000X0.250000X-1.100000X-0.250000X1.100000X-0.250000X1.100000X0.250000X0*%
%ADD34R,4.000000X1.600000*%
%ADD35RoundRect,0.250000X0.325000X0.450000X-0.325000X0.450000X-0.325000X-0.450000X0.325000X-0.450000X0*%
%ADD36RoundRect,0.150000X-0.512500X-0.150000X0.512500X-0.150000X0.512500X0.150000X-0.512500X0.150000X0*%
G04 APERTURE END LIST*
D10*
%TO.C,R10*%
X108000000Y-112850000D03*
X110000000Y-112850000D03*
%TD*%
D11*
%TO.C,C11*%
X133312500Y-126750000D03*
X135387500Y-126750000D03*
%TD*%
D12*
%TO.C,C17*%
X121187500Y-138650000D03*
X119112500Y-138650000D03*
%TD*%
D13*
%TO.C,C4*%
X140150000Y-110362500D03*
X140150000Y-112437500D03*
%TD*%
D14*
%TO.C,R14*%
X141150000Y-134900000D03*
X141150000Y-136900000D03*
%TD*%
D15*
%TO.C,C15*%
X137150000Y-136937500D03*
X137150000Y-134862500D03*
%TD*%
D16*
%TO.C,D1*%
X138372500Y-105700000D03*
D17*
X140272500Y-105700000D03*
%TD*%
D11*
%TO.C,C18*%
X131762500Y-140000000D03*
X133837500Y-140000000D03*
%TD*%
D14*
%TO.C,R11*%
X111950000Y-110950000D03*
X111950000Y-112950000D03*
%TD*%
D13*
%TO.C,C9*%
X125225000Y-133842500D03*
X125225000Y-135917500D03*
%TD*%
D10*
%TO.C,R19*%
X127987500Y-138500000D03*
X129987500Y-138500000D03*
%TD*%
D18*
%TO.C,C6*%
X118450000Y-143450000D03*
X118450000Y-147850000D03*
%TD*%
D19*
%TO.C,R3*%
X110200000Y-104650000D03*
X110200000Y-102650000D03*
%TD*%
D20*
%TO.C,D2*%
X117600000Y-133482500D03*
X117600000Y-128982500D03*
%TD*%
D15*
%TO.C,C2*%
X140050000Y-103787500D03*
X140050000Y-101712500D03*
%TD*%
D13*
%TO.C,C8*%
X123125000Y-133842500D03*
X123125000Y-135917500D03*
%TD*%
D10*
%TO.C,R9*%
X108000000Y-114900000D03*
X110000000Y-114900000D03*
%TD*%
D21*
%TO.C,U1*%
X118450000Y-104970000D03*
X118450000Y-107510000D03*
X118450000Y-110050000D03*
X118450000Y-112590000D03*
X118450000Y-115130000D03*
X118450000Y-117670000D03*
X118450000Y-120210000D03*
X135115000Y-120210000D03*
X135115000Y-117670000D03*
X135115000Y-115130000D03*
X135115000Y-112590000D03*
X135115000Y-110050000D03*
X135115000Y-107510000D03*
X135115000Y-104970000D03*
D22*
X122310000Y-112208000D03*
X122310000Y-110303000D03*
D23*
X125485000Y-103958000D03*
X128025000Y-103958000D03*
X125485000Y-106498000D03*
X128025000Y-106498000D03*
X125485000Y-109038000D03*
X128025000Y-109038000D03*
%TD*%
D15*
%TO.C,C1*%
X138000000Y-103787500D03*
X138000000Y-101712500D03*
%TD*%
D24*
%TO.C,D4*%
X147050000Y-118075000D03*
X147050000Y-120125000D03*
%TD*%
D10*
%TO.C,R12*%
X105900000Y-139350000D03*
X107900000Y-139350000D03*
%TD*%
D24*
%TO.C,D5*%
X140950000Y-146775000D03*
X140950000Y-148825000D03*
%TD*%
D25*
%TO.C,D6*%
X135850000Y-139850000D03*
X138550000Y-139850000D03*
%TD*%
D14*
%TO.C,R8*%
X111950000Y-107100000D03*
X111950000Y-109100000D03*
%TD*%
D12*
%TO.C,C16*%
X121187500Y-140700000D03*
X119112500Y-140700000D03*
%TD*%
D26*
%TO.C,U4*%
X128000000Y-140900000D03*
X125700000Y-140900000D03*
D27*
X125700000Y-147200000D03*
D26*
X123400000Y-140900000D03*
%TD*%
D14*
%TO.C,R16*%
X145000000Y-118100000D03*
X145000000Y-120100000D03*
%TD*%
D10*
%TO.C,R18*%
X124200000Y-138500000D03*
X126200000Y-138500000D03*
%TD*%
D28*
%TO.C,R4*%
X125150000Y-124850000D03*
X123150000Y-124850000D03*
%TD*%
D11*
%TO.C,C14*%
X133312500Y-132900000D03*
X135387500Y-132900000D03*
%TD*%
D28*
%TO.C,R21*%
X146100000Y-141050000D03*
X144100000Y-141050000D03*
%TD*%
D29*
%TO.C,Q1*%
X111650000Y-141050000D03*
X111650000Y-139150000D03*
X109650000Y-140100000D03*
%TD*%
D19*
%TO.C,R20*%
X140950000Y-144950000D03*
X140950000Y-142950000D03*
%TD*%
D30*
%TO.C,U3*%
X131175000Y-133700000D03*
X130225000Y-133700000D03*
X129275000Y-133700000D03*
X129275000Y-136400000D03*
X130225000Y-136400000D03*
X131175000Y-136400000D03*
%TD*%
D11*
%TO.C,C13*%
X133312500Y-130850000D03*
X135387500Y-130850000D03*
%TD*%
D13*
%TO.C,C3*%
X138100000Y-110362500D03*
X138100000Y-112437500D03*
%TD*%
D29*
%TO.C,Q2*%
X142250000Y-141200000D03*
X142250000Y-139300000D03*
X140250000Y-140250000D03*
%TD*%
D19*
%TO.C,R15*%
X139150000Y-136900000D03*
X139150000Y-134900000D03*
%TD*%
D14*
%TO.C,R17*%
X135150000Y-134950000D03*
X135150000Y-136950000D03*
%TD*%
D11*
%TO.C,C12*%
X133312500Y-128800000D03*
X135387500Y-128800000D03*
%TD*%
D19*
%TO.C,R13*%
X117200000Y-140800000D03*
X117200000Y-138800000D03*
%TD*%
D31*
%TO.C,FL1*%
X125175000Y-131300000D03*
X125175000Y-129300000D03*
X120425000Y-129300000D03*
X120425000Y-131300000D03*
%TD*%
D15*
%TO.C,C7*%
X133125000Y-136957500D03*
X133125000Y-134882500D03*
%TD*%
D10*
%TO.C,R7*%
X108000000Y-108850000D03*
X110000000Y-108850000D03*
%TD*%
D32*
%TO.C,J2*%
X105150000Y-110950000D03*
X105150000Y-112200000D03*
X105150000Y-113450000D03*
X105150000Y-114700000D03*
X105150000Y-115950000D03*
D33*
X101950000Y-109100000D03*
X101950000Y-117800000D03*
%TD*%
D34*
%TO.C,L1*%
X129400000Y-131000000D03*
X129400000Y-127200000D03*
%TD*%
D14*
%TO.C,R1*%
X112200000Y-102650000D03*
X112200000Y-104650000D03*
%TD*%
%TO.C,R2*%
X114200000Y-102650000D03*
X114200000Y-104650000D03*
%TD*%
D35*
%TO.C,D3*%
X103875000Y-139350000D03*
X101825000Y-139350000D03*
%TD*%
D10*
%TO.C,R6*%
X108000000Y-110850000D03*
X110000000Y-110850000D03*
%TD*%
D28*
%TO.C,R5*%
X125150000Y-126850000D03*
X123150000Y-126850000D03*
%TD*%
D13*
%TO.C,C10*%
X127325000Y-133842500D03*
X127325000Y-135917500D03*
%TD*%
D36*
%TO.C,U2*%
X116812500Y-124000000D03*
X116812500Y-124950000D03*
X116812500Y-125900000D03*
X119087500Y-125900000D03*
X119087500Y-124950000D03*
X119087500Y-124000000D03*
%TD*%
D13*
%TO.C,C5*%
X121250000Y-124812500D03*
X121250000Y-126887500D03*
%TD*%
M02*
