M48
; DRILL file {KiCad 8.0.4} date 2025-01-29T17:32:31-0500
; FORMAT={-:-/ absolute / inch / decimal}
; #@! TF.CreationDate,2025-01-29T17:32:31-05:00
; #@! TF.GenerationSoftware,Kicad,Pcbnew,8.0.4
; #@! TF.FileFunction,Plated,1,4,PTH
FMAT,2
INCH
; #@! TA.AperFunction,Plated,PTH,ViaDrill
T1C0.0118
; #@! TA.AperFunction,Plated,PTH,ComponentDrill
T2C0.0394
; #@! TA.AperFunction,Plated,PTH,ComponentDrill
T3C0.0433
; #@! TA.AperFunction,Plated,PTH,ComponentDrill
T4C0.0748
%
G90
G05
T1
X3.9705Y-4.2461
X3.9744Y-5.2461
X3.9744Y-5.5512
X3.9764Y-4.6909
X3.9764Y-4.9055
X4.0118Y-4.3957
X4.0157Y-4.5335
X4.0197Y-5.811
X4.0236Y-4.0157
X4.0453Y-5.4252
X4.0866Y-5.2854
X4.1299Y-5.0551
X4.1398Y-4.4665
X4.1398Y-4.5157
X4.185Y-4.315
X4.2008Y-4.4508
X4.2047Y-5.6319
X4.2087Y-4.7854
X4.2283Y-4.1791
X4.2579Y-3.9724
X4.2874Y-4.5768
X4.313Y-4.1752
X4.3228Y-5.3681
X4.3307Y-4.3622
X4.3307Y-4.7736
X4.3386Y-4.1201
X4.3465Y-4.2264
X4.3701Y-4.7185
X4.372Y-4.5748
X4.3799Y-4.498
X4.3839Y-5.813
X4.3957Y-5.5531
X4.4075Y-4.3681
X4.4429Y-4.5059
X4.4449Y-4.5748
X4.4469Y-4.7756
X4.4488Y-4.9311
X4.4547Y-4.1634
X4.4547Y-4.4114
X4.4961Y-4.1201
X4.5Y-4.3169
X4.5098Y-5.5748
X4.5433Y-4.502
X4.5433Y-4.8898
X4.5453Y-4.4035
X4.5472Y-4.5748
X4.5591Y-5.313
X4.5748Y-3.9724
X4.5748Y-4.0807
X4.5925Y-5.8189
X4.5925Y-5.872
X4.6122Y-5.4646
X4.6161Y-4.8268
X4.6516Y-5.0
X4.6634Y-4.3327
X4.6634Y-4.4327
X4.6634Y-4.5327
X4.6634Y-4.6327
X4.6634Y-5.7362
X4.6885Y-4.9567
X4.6909Y-5.5394
X4.6988Y-4.998
X4.7244Y-5.4016
X4.7323Y-5.2382
X4.7343Y-5.8701
X4.7362Y-5.8209
X4.7618Y-4.8445
X4.7953Y-4.8091
X4.7992Y-4.4803
X4.8189Y-4.0807
X4.8189Y-5.4055
X4.8228Y-4.2441
X4.8346Y-5.6201
X4.8366Y-5.7008
X4.8484Y-5.3996
X4.8583Y-4.6398
X4.8898Y-5.3957
X4.8957Y-5.6201
X4.8957Y-5.7028
X4.9154Y-3.9724
X4.9311Y-5.4016
X4.9404Y-4.1928
X4.9488Y-5.872
X4.9705Y-5.3957
X4.9724Y-4.6516
X4.9823Y-5.0453
X4.9862Y-4.9134
X4.9921Y-4.1417
X4.9921Y-4.2421
X4.9941Y-4.3622
X5.0039Y-5.4016
X5.0039Y-5.6181
X5.0039Y-5.7047
X5.0472Y-5.2205
X5.0492Y-5.3976
X5.063Y-5.6181
X5.063Y-5.7067
X5.1083Y-4.7894
X5.1181Y-5.5098
X5.122Y-4.0906
X5.127Y-5.3701
X5.1535Y-4.3366
X5.1811Y-4.6024
X5.1811Y-5.7224
X5.1949Y-5.0768
X5.1969Y-5.2106
X5.1969Y-5.2638
X5.2205Y-4.2382
X5.2362Y-4.3839
X5.2539Y-5.6496
X5.2539Y-5.7933
X5.2579Y-3.9724
X5.2992Y-5.4606
X5.3234Y-4.2386
X5.3287Y-5.872
X5.3858Y-5.252
X5.3878Y-4.9902
X5.3878Y-5.0315
X5.3878Y-5.0709
X5.3878Y-5.1516
X5.3878Y-5.2047
X5.3898Y-5.1083
X5.4016Y-5.628
X5.4173Y-5.8051
X5.4331Y-4.2559
X5.437Y-4.4843
X5.4685Y-5.4469
X5.5079Y-5.5728
X5.5177Y-4.6791
X5.5689Y-5.2323
X5.5768Y-4.1299
X5.5886Y-4.9902
X5.6043Y-4.4016
X5.6181Y-5.872
X5.6201Y-3.9724
X5.6201Y-5.6161
X5.6378Y-5.2835
X5.6634Y-5.4882
X5.6949Y-5.1181
X5.752Y-5.5531
X5.8071Y-4.5177
X5.8465Y-4.0571
X5.8504Y-5.7657
X5.872Y-4.4291
X5.874Y-5.126
X5.8752Y-4.9115
X5.876Y-5.4508
T2
X4.0738Y-4.9173
X4.0738Y-5.3504
X5.7411Y-4.8356
X5.7411Y-4.9356
X5.7411Y-5.0356
X5.7411Y-5.2057
X5.7411Y-5.3057
X5.7411Y-5.4057
T3
X5.2539Y-5.7224
X5.3917Y-5.7224
T4
X4.4675Y-5.0354
X4.4675Y-5.2323
M30
