%TF.GenerationSoftware,KiCad,Pcbnew,8.0.4*%
%TF.CreationDate,2025-01-29T17:32:31-05:00*%
%TF.ProjectId,EauRouge,45617552-6f75-4676-952e-6b696361645f,rev?*%
%TF.SameCoordinates,Original*%
%TF.FileFunction,Copper,L1,Top*%
%TF.FilePolarity,Positive*%
%FSLAX46Y46*%
G04 Gerber Fmt 4.6, Leading zero omitted, Abs format (unit mm)*
G04 Created by KiCad (PCBNEW 8.0.4) date 2025-01-29 17:32:31*
%MOMM*%
%LPD*%
G01*
G04 APERTURE LIST*
G04 Aperture macros list*
%AMRoundRect*
0 Rectangle with rounded corners*
0 $1 Rounding radius*
0 $2 $3 $4 $5 $6 $7 $8 $9 X,Y pos of 4 corners*
0 Add a 4 corners polygon primitive as box body*
4,1,4,$2,$3,$4,$5,$6,$7,$8,$9,$2,$3,0*
0 Add four circle primitives for the rounded corners*
1,1,$1+$1,$2,$3*
1,1,$1+$1,$4,$5*
1,1,$1+$1,$6,$7*
1,1,$1+$1,$8,$9*
0 Add four rect primitives between the rounded corners*
20,1,$1+$1,$2,$3,$4,$5,0*
20,1,$1+$1,$4,$5,$6,$7,0*
20,1,$1+$1,$6,$7,$8,$9,0*
20,1,$1+$1,$8,$9,$2,$3,0*%
G04 Aperture macros list end*
%TA.AperFunction,SMDPad,CuDef*%
%ADD10RoundRect,0.250000X-0.350000X-0.450000X0.350000X-0.450000X0.350000X0.450000X-0.350000X0.450000X0*%
%TD*%
%TA.AperFunction,SMDPad,CuDef*%
%ADD11RoundRect,0.250000X-0.337500X-0.475000X0.337500X-0.475000X0.337500X0.475000X-0.337500X0.475000X0*%
%TD*%
%TA.AperFunction,SMDPad,CuDef*%
%ADD12RoundRect,0.250000X0.337500X0.475000X-0.337500X0.475000X-0.337500X-0.475000X0.337500X-0.475000X0*%
%TD*%
%TA.AperFunction,SMDPad,CuDef*%
%ADD13RoundRect,0.250000X-0.475000X0.337500X-0.475000X-0.337500X0.475000X-0.337500X0.475000X0.337500X0*%
%TD*%
%TA.AperFunction,SMDPad,CuDef*%
%ADD14RoundRect,0.250000X-0.450000X0.350000X-0.450000X-0.350000X0.450000X-0.350000X0.450000X0.350000X0*%
%TD*%
%TA.AperFunction,SMDPad,CuDef*%
%ADD15RoundRect,0.250000X0.475000X-0.337500X0.475000X0.337500X-0.475000X0.337500X-0.475000X-0.337500X0*%
%TD*%
%TA.AperFunction,SMDPad,CuDef*%
%ADD16RoundRect,0.110000X-0.890000X-0.440000X0.890000X-0.440000X0.890000X0.440000X-0.890000X0.440000X0*%
%TD*%
%TA.AperFunction,SMDPad,CuDef*%
%ADD17RoundRect,0.080000X-0.320000X-0.320000X0.320000X-0.320000X0.320000X0.320000X-0.320000X0.320000X0*%
%TD*%
%TA.AperFunction,SMDPad,CuDef*%
%ADD18RoundRect,0.250000X-0.550000X1.250000X-0.550000X-1.250000X0.550000X-1.250000X0.550000X1.250000X0*%
%TD*%
%TA.AperFunction,SMDPad,CuDef*%
%ADD19RoundRect,0.250000X0.450000X-0.350000X0.450000X0.350000X-0.450000X0.350000X-0.450000X-0.350000X0*%
%TD*%
%TA.AperFunction,SMDPad,CuDef*%
%ADD20RoundRect,0.250000X0.650000X-1.125000X0.650000X1.125000X-0.650000X1.125000X-0.650000X-1.125000X0*%
%TD*%
%TA.AperFunction,SMDPad,CuDef*%
%ADD21RoundRect,0.500000X-1.000000X-0.500000X1.000000X-0.500000X1.000000X0.500000X-1.000000X0.500000X0*%
%TD*%
%TA.AperFunction,SMDPad,CuDef*%
%ADD22RoundRect,0.275000X0.975000X0.275000X-0.975000X0.275000X-0.975000X-0.275000X0.975000X-0.275000X0*%
%TD*%
%TA.AperFunction,SMDPad,CuDef*%
%ADD23C,1.700000*%
%TD*%
%TA.AperFunction,SMDPad,CuDef*%
%ADD24RoundRect,0.250000X-0.450000X0.325000X-0.450000X-0.325000X0.450000X-0.325000X0.450000X0.325000X0*%
%TD*%
%TA.AperFunction,ComponentPad*%
%ADD25R,1.700000X1.700000*%
%TD*%
%TA.AperFunction,ComponentPad*%
%ADD26O,1.700000X1.700000*%
%TD*%
%TA.AperFunction,SMDPad,CuDef*%
%ADD27RoundRect,0.295455X-0.354545X-0.404545X0.354545X-0.404545X0.354545X0.404545X-0.354545X0.404545X0*%
%TD*%
%TA.AperFunction,SMDPad,CuDef*%
%ADD28RoundRect,0.375000X-0.375000X0.625000X-0.375000X-0.625000X0.375000X-0.625000X0.375000X0.625000X0*%
%TD*%
%TA.AperFunction,SMDPad,CuDef*%
%ADD29RoundRect,0.500000X-1.400000X0.500000X-1.400000X-0.500000X1.400000X-0.500000X1.400000X0.500000X0*%
%TD*%
%TA.AperFunction,ComponentPad*%
%ADD30C,1.400000*%
%TD*%
%TA.AperFunction,ComponentPad*%
%ADD31R,3.500000X3.500000*%
%TD*%
%TA.AperFunction,ComponentPad*%
%ADD32C,3.500000*%
%TD*%
%TA.AperFunction,SMDPad,CuDef*%
%ADD33RoundRect,0.250000X0.350000X0.450000X-0.350000X0.450000X-0.350000X-0.450000X0.350000X-0.450000X0*%
%TD*%
%TA.AperFunction,SMDPad,CuDef*%
%ADD34RoundRect,0.200000X0.250000X0.200000X-0.250000X0.200000X-0.250000X-0.200000X0.250000X-0.200000X0*%
%TD*%
%TA.AperFunction,SMDPad,CuDef*%
%ADD35RoundRect,0.162500X-0.162500X0.617500X-0.162500X-0.617500X0.162500X-0.617500X0.162500X0.617500X0*%
%TD*%
%TA.AperFunction,SMDPad,CuDef*%
%ADD36RoundRect,0.237500X0.387500X0.237500X-0.387500X0.237500X-0.387500X-0.237500X0.387500X-0.237500X0*%
%TD*%
%TA.AperFunction,SMDPad,CuDef*%
%ADD37RoundRect,0.150000X-0.700000X0.150000X-0.700000X-0.150000X0.700000X-0.150000X0.700000X0.150000X0*%
%TD*%
%TA.AperFunction,SMDPad,CuDef*%
%ADD38RoundRect,0.250000X-1.100000X0.250000X-1.100000X-0.250000X1.100000X-0.250000X1.100000X0.250000X0*%
%TD*%
%TA.AperFunction,SMDPad,CuDef*%
%ADD39R,4.000000X1.600000*%
%TD*%
%TA.AperFunction,ComponentPad*%
%ADD40R,2.000000X2.000000*%
%TD*%
%TA.AperFunction,ComponentPad*%
%ADD41C,2.000000*%
%TD*%
%TA.AperFunction,SMDPad,CuDef*%
%ADD42RoundRect,0.250000X0.325000X0.450000X-0.325000X0.450000X-0.325000X-0.450000X0.325000X-0.450000X0*%
%TD*%
%TA.AperFunction,SMDPad,CuDef*%
%ADD43RoundRect,0.150000X-0.512500X-0.150000X0.512500X-0.150000X0.512500X0.150000X-0.512500X0.150000X0*%
%TD*%
%TA.AperFunction,ViaPad*%
%ADD44C,0.500000*%
%TD*%
%TA.AperFunction,ViaPad*%
%ADD45C,0.600000*%
%TD*%
%TA.AperFunction,Conductor*%
%ADD46C,0.127000*%
%TD*%
%TA.AperFunction,Conductor*%
%ADD47C,0.800000*%
%TD*%
%TA.AperFunction,Conductor*%
%ADD48C,0.254000*%
%TD*%
%TA.AperFunction,Conductor*%
%ADD49C,0.200000*%
%TD*%
%TA.AperFunction,Conductor*%
%ADD50C,0.300000*%
%TD*%
%TA.AperFunction,Conductor*%
%ADD51C,0.500000*%
%TD*%
G04 APERTURE END LIST*
D10*
%TO.P,R10,1*%
%TO.N,/DJI_PWM2*%
X108000000Y-112850000D03*
%TO.P,R10,2*%
%TO.N,/MCU/RAW_SERVO_PWM2*%
X110000000Y-112850000D03*
%TD*%
D11*
%TO.P,C11,1*%
%TO.N,+5V*%
X133312500Y-126750000D03*
%TO.P,C11,2*%
%TO.N,GND*%
X135387500Y-126750000D03*
%TD*%
D12*
%TO.P,C17,1*%
%TO.N,VBAT_FILTERED*%
X121187500Y-138650000D03*
%TO.P,C17,2*%
%TO.N,GND*%
X119112500Y-138650000D03*
%TD*%
D13*
%TO.P,C4,1*%
%TO.N,+3.3V*%
X140150000Y-110362500D03*
%TO.P,C4,2*%
%TO.N,GND*%
X140150000Y-112437500D03*
%TD*%
D14*
%TO.P,R14,1*%
%TO.N,+5V*%
X141150000Y-134900000D03*
%TO.P,R14,2*%
%TO.N,/Power/FB*%
X141150000Y-136900000D03*
%TD*%
D15*
%TO.P,C15,1*%
%TO.N,/Power/SW_SNUBBER*%
X137150000Y-136937500D03*
%TO.P,C15,2*%
%TO.N,GND*%
X137150000Y-134862500D03*
%TD*%
D16*
%TO.P,D1,1,K*%
%TO.N,MCU_5V*%
X138372500Y-105700000D03*
D17*
%TO.P,D1,2,A*%
%TO.N,+5V*%
X140272500Y-105700000D03*
%TD*%
D11*
%TO.P,C18,1*%
%TO.N,+12V*%
X131762500Y-140000000D03*
%TO.P,C18,2*%
%TO.N,GND*%
X133837500Y-140000000D03*
%TD*%
D14*
%TO.P,R11,1*%
%TO.N,/MCU/ESP32_PWM2*%
X111950000Y-110950000D03*
%TO.P,R11,2*%
%TO.N,/MCU/RAW_SERVO_PWM2*%
X111950000Y-112950000D03*
%TD*%
D13*
%TO.P,C9,1*%
%TO.N,VBAT_FILTERED*%
X125225000Y-133842500D03*
%TO.P,C9,2*%
%TO.N,GND*%
X125225000Y-135917500D03*
%TD*%
D10*
%TO.P,R19,1*%
%TO.N,/Power/ADJ*%
X127987500Y-138500000D03*
%TO.P,R19,2*%
%TO.N,GND*%
X129987500Y-138500000D03*
%TD*%
D18*
%TO.P,C6,1*%
%TO.N,VBAT_FILTERED*%
X118450000Y-143450000D03*
%TO.P,C6,2*%
%TO.N,GND*%
X118450000Y-147850000D03*
%TD*%
D19*
%TO.P,R3,1*%
%TO.N,/MCU/CHIP_EN*%
X110200000Y-104650000D03*
%TO.P,R3,2*%
%TO.N,+3.3V*%
X110200000Y-102650000D03*
%TD*%
D20*
%TO.P,D2,1,C*%
%TO.N,+BATT*%
X117600000Y-133482500D03*
%TO.P,D2,2,A*%
%TO.N,-BATT*%
X117600000Y-128982500D03*
%TD*%
D15*
%TO.P,C2,1*%
%TO.N,MCU_5V*%
X140050000Y-103787500D03*
%TO.P,C2,2*%
%TO.N,GND*%
X140050000Y-101712500D03*
%TD*%
D13*
%TO.P,C8,1*%
%TO.N,VBAT_FILTERED*%
X123125000Y-133842500D03*
%TO.P,C8,2*%
%TO.N,GND*%
X123125000Y-135917500D03*
%TD*%
D10*
%TO.P,R9,1*%
%TO.N,/DJI_PWM2*%
X108000000Y-114900000D03*
%TO.P,R9,2*%
%TO.N,/BUFF_SERVO_PWM2*%
X110000000Y-114900000D03*
%TD*%
D21*
%TO.P,U1,1,GPIO2_A0_D0*%
%TO.N,unconnected-(U1-GPIO2_A0_D0-Pad1)*%
X118450000Y-104970000D03*
%TO.P,U1,2,GPIO3_A1_D1*%
%TO.N,/MCU/ESP32_PWM1*%
X118450000Y-107510000D03*
%TO.P,U1,3,GPIO4_A2_D2*%
%TO.N,/MCU/ESP32_PWM2*%
X118450000Y-110050000D03*
%TO.P,U1,4,GPIO5_A3_D3*%
%TO.N,/SOLENOID_DRIVE*%
X118450000Y-112590000D03*
%TO.P,U1,5,GPIO6_D4_SDA*%
%TO.N,/SDA*%
X118450000Y-115130000D03*
%TO.P,U1,6,GPIO7_D5_SCL*%
%TO.N,/SCL*%
X118450000Y-117670000D03*
%TO.P,U1,7,GPIO21_D6_TX*%
%TO.N,/MCU/VIN_LED_CONTROL*%
X118450000Y-120210000D03*
%TO.P,U1,8,GPIO20_D7_RX*%
%TO.N,unconnected-(U1-GPIO20_D7_RX-Pad8)*%
X135115000Y-120210000D03*
%TO.P,U1,9,GPIO8_D8_SCK*%
%TO.N,unconnected-(U1-GPIO8_D8_SCK-Pad9)*%
X135115000Y-117670000D03*
%TO.P,U1,10,GPIO9_D9_MISO*%
%TO.N,unconnected-(U1-GPIO9_D9_MISO-Pad10)*%
X135115000Y-115130000D03*
%TO.P,U1,11,GPIO10_D10_MOSI*%
%TO.N,unconnected-(U1-GPIO10_D10_MOSI-Pad11)*%
X135115000Y-112590000D03*
%TO.P,U1,12,3V3*%
%TO.N,+3.3V*%
X135115000Y-110050000D03*
%TO.P,U1,13,GND*%
%TO.N,GND*%
X135115000Y-107510000D03*
%TO.P,U1,14,5V*%
%TO.N,MCU_5V*%
X135115000Y-104970000D03*
D22*
%TO.P,U1,15,BAT*%
%TO.N,unconnected-(U1-BAT-Pad15)*%
X122310000Y-112208000D03*
%TO.P,U1,16,GND*%
%TO.N,GND*%
X122310000Y-110303000D03*
D23*
%TO.P,U1,17,MTDI*%
%TO.N,unconnected-(U1-MTDI-Pad17)*%
X125485000Y-103958000D03*
%TO.P,U1,18,MTDO*%
%TO.N,unconnected-(U1-MTDO-Pad18)*%
X128025000Y-103958000D03*
%TO.P,U1,19,CHIP_EN*%
%TO.N,/MCU/CHIP_EN*%
X125485000Y-106498000D03*
%TO.P,U1,20,GND*%
%TO.N,GND*%
X128025000Y-106498000D03*
%TO.P,U1,21,MTMS*%
%TO.N,unconnected-(U1-MTMS-Pad21)*%
X125485000Y-109038000D03*
%TO.P,U1,22,MTCK*%
%TO.N,unconnected-(U1-MTCK-Pad22)*%
X128025000Y-109038000D03*
%TD*%
D15*
%TO.P,C1,1*%
%TO.N,MCU_5V*%
X138000000Y-103787500D03*
%TO.P,C1,2*%
%TO.N,GND*%
X138000000Y-101712500D03*
%TD*%
D24*
%TO.P,D4,1,K*%
%TO.N,/Power/5V_LED_K*%
X147050000Y-118075000D03*
%TO.P,D4,2,A*%
%TO.N,+5V*%
X147050000Y-120125000D03*
%TD*%
D10*
%TO.P,R12,1*%
%TO.N,/Power/VIN_LED_K*%
X105900000Y-139350000D03*
%TO.P,R12,2*%
%TO.N,/Power/VIN_LED_FET_D*%
X107900000Y-139350000D03*
%TD*%
D25*
%TO.P,J4,1,1*%
%TO.N,/BUFF_SERVO_PWM1*%
X145825000Y-122825000D03*
D26*
%TO.P,J4,2,2*%
%TO.N,+5V*%
X145825000Y-125365000D03*
%TO.P,J4,3,3*%
%TO.N,GND*%
X145825000Y-127905000D03*
%TD*%
D24*
%TO.P,D5,1,K*%
%TO.N,/Power/12V_LED_K*%
X140950000Y-146775000D03*
%TO.P,D5,2,A*%
%TO.N,+12V*%
X140950000Y-148825000D03*
%TD*%
D27*
%TO.P,D6,1,K*%
%TO.N,+12V*%
X135850000Y-139850000D03*
%TO.P,D6,2,A*%
%TO.N,SOLENOID-*%
X138550000Y-139850000D03*
%TD*%
D14*
%TO.P,R8,1*%
%TO.N,/MCU/ESP32_PWM1*%
X111950000Y-107100000D03*
%TO.P,R8,2*%
%TO.N,/MCU/RAW_SERVO_PWM1*%
X111950000Y-109100000D03*
%TD*%
D12*
%TO.P,C16,1*%
%TO.N,VBAT_FILTERED*%
X121187500Y-140700000D03*
%TO.P,C16,2*%
%TO.N,GND*%
X119112500Y-140700000D03*
%TD*%
D28*
%TO.P,U4,1,ADJ*%
%TO.N,/Power/ADJ*%
X128000000Y-140900000D03*
%TO.P,U4,2,VO*%
%TO.N,+12V*%
X125700000Y-140900000D03*
D29*
X125700000Y-147200000D03*
D28*
%TO.P,U4,3,VI*%
%TO.N,VBAT_FILTERED*%
X123400000Y-140900000D03*
%TD*%
D30*
%TO.P,J1,*%
%TO.N,*%
X103475000Y-135900000D03*
X103475000Y-124900000D03*
D31*
%TO.P,J1,1,-*%
%TO.N,-BATT*%
X113475000Y-127900000D03*
D32*
%TO.P,J1,2,+*%
%TO.N,+BATT*%
X113475000Y-132900000D03*
%TD*%
D14*
%TO.P,R16,1*%
%TO.N,/Power/5V_LED_K*%
X145000000Y-118100000D03*
%TO.P,R16,2*%
%TO.N,GND*%
X145000000Y-120100000D03*
%TD*%
D10*
%TO.P,R18,1*%
%TO.N,+12V*%
X124200000Y-138500000D03*
%TO.P,R18,2*%
%TO.N,/Power/ADJ*%
X126200000Y-138500000D03*
%TD*%
D33*
%TO.P,R4,1*%
%TO.N,+3.3V*%
X125150000Y-124850000D03*
%TO.P,R4,2*%
%TO.N,/MCU/VCC_BUFFER*%
X123150000Y-124850000D03*
%TD*%
D11*
%TO.P,C14,1*%
%TO.N,+5V*%
X133312500Y-132900000D03*
%TO.P,C14,2*%
%TO.N,GND*%
X135387500Y-132900000D03*
%TD*%
D33*
%TO.P,R21,1*%
%TO.N,/SOLENOID_DRIVE*%
X146100000Y-141050000D03*
%TO.P,R21,2*%
%TO.N,/Solenoid Driver/SOLENOID_FET_G*%
X144100000Y-141050000D03*
%TD*%
D34*
%TO.P,Q1,1,G*%
%TO.N,/MCU/VIN_LED_CONTROL*%
X111650000Y-141050000D03*
%TO.P,Q1,2,S*%
%TO.N,GND*%
X111650000Y-139150000D03*
%TO.P,Q1,3,D*%
%TO.N,/Power/VIN_LED_FET_D*%
X109650000Y-140100000D03*
%TD*%
D19*
%TO.P,R20,1*%
%TO.N,/Power/12V_LED_K*%
X140950000Y-144950000D03*
%TO.P,R20,2*%
%TO.N,GND*%
X140950000Y-142950000D03*
%TD*%
D35*
%TO.P,U3,1,GND*%
%TO.N,GND*%
X131175000Y-133700000D03*
%TO.P,U3,2,SW*%
%TO.N,/Power/SW*%
X130225000Y-133700000D03*
%TO.P,U3,3,VIN*%
%TO.N,VBAT_FILTERED*%
X129275000Y-133700000D03*
%TO.P,U3,4,FB*%
%TO.N,/Power/FB*%
X129275000Y-136400000D03*
%TO.P,U3,5,EN*%
%TO.N,/Power/EN*%
X130225000Y-136400000D03*
%TO.P,U3,6,CB*%
%TO.N,/Power/BOOT*%
X131175000Y-136400000D03*
%TD*%
D11*
%TO.P,C13,1*%
%TO.N,+5V*%
X133312500Y-130850000D03*
%TO.P,C13,2*%
%TO.N,GND*%
X135387500Y-130850000D03*
%TD*%
D13*
%TO.P,C3,1*%
%TO.N,+3.3V*%
X138100000Y-110362500D03*
%TO.P,C3,2*%
%TO.N,GND*%
X138100000Y-112437500D03*
%TD*%
D34*
%TO.P,Q2,1,G*%
%TO.N,/Solenoid Driver/SOLENOID_FET_G*%
X142250000Y-141200000D03*
%TO.P,Q2,2,S*%
%TO.N,GND*%
X142250000Y-139300000D03*
%TO.P,Q2,3,D*%
%TO.N,SOLENOID-*%
X140250000Y-140250000D03*
%TD*%
D19*
%TO.P,R15,1*%
%TO.N,/Power/FB*%
X139150000Y-136900000D03*
%TO.P,R15,2*%
%TO.N,GND*%
X139150000Y-134900000D03*
%TD*%
D14*
%TO.P,R17,1*%
%TO.N,/Power/SW*%
X135150000Y-134950000D03*
%TO.P,R17,2*%
%TO.N,/Power/SW_SNUBBER*%
X135150000Y-136950000D03*
%TD*%
D11*
%TO.P,C12,1*%
%TO.N,+5V*%
X133312500Y-128800000D03*
%TO.P,C12,2*%
%TO.N,GND*%
X135387500Y-128800000D03*
%TD*%
D19*
%TO.P,R13,1*%
%TO.N,VBAT_FILTERED*%
X117200000Y-140800000D03*
%TO.P,R13,2*%
%TO.N,/Power/EN*%
X117200000Y-138800000D03*
%TD*%
D36*
%TO.P,FL1,1,1*%
%TO.N,VBAT_FILTERED*%
X125175000Y-131300000D03*
%TO.P,FL1,2,2*%
%TO.N,GND*%
X125175000Y-129300000D03*
%TO.P,FL1,3,3*%
%TO.N,-BATT*%
X120425000Y-129300000D03*
%TO.P,FL1,4,4*%
%TO.N,+BATT*%
X120425000Y-131300000D03*
%TD*%
D15*
%TO.P,C7,1*%
%TO.N,/Power/BOOT*%
X133125000Y-136957500D03*
%TO.P,C7,2*%
%TO.N,/Power/SW*%
X133125000Y-134882500D03*
%TD*%
D10*
%TO.P,R7,1*%
%TO.N,/DJI_PWM1*%
X108000000Y-108850000D03*
%TO.P,R7,2*%
%TO.N,/MCU/RAW_SERVO_PWM1*%
X110000000Y-108850000D03*
%TD*%
D37*
%TO.P,J2,1,1*%
%TO.N,/DJI_PWM1*%
X105150000Y-110950000D03*
%TO.P,J2,2,2*%
%TO.N,/DJI_PWM2*%
X105150000Y-112200000D03*
%TO.P,J2,3,3*%
%TO.N,/SDA*%
X105150000Y-113450000D03*
%TO.P,J2,4,4*%
%TO.N,/SCL*%
X105150000Y-114700000D03*
%TO.P,J2,5,5*%
%TO.N,GND*%
X105150000Y-115950000D03*
D38*
%TO.P,J2,MP,MP*%
X101950000Y-109100000D03*
X101950000Y-117800000D03*
%TD*%
D39*
%TO.P,L1,1,1*%
%TO.N,/Power/SW*%
X129400000Y-131000000D03*
%TO.P,L1,2,2*%
%TO.N,+5V*%
X129400000Y-127200000D03*
%TD*%
D14*
%TO.P,R1,1*%
%TO.N,+3.3V*%
X112200000Y-102650000D03*
%TO.P,R1,2*%
%TO.N,/SDA*%
X112200000Y-104650000D03*
%TD*%
D40*
%TO.P,J3,1,Pin_1*%
%TO.N,+12V*%
X133450000Y-145350000D03*
D41*
%TO.P,J3,2,Pin_2*%
%TO.N,SOLENOID-*%
X136950000Y-145350000D03*
%TD*%
D14*
%TO.P,R2,1*%
%TO.N,+3.3V*%
X114200000Y-102650000D03*
%TO.P,R2,2*%
%TO.N,/SCL*%
X114200000Y-104650000D03*
%TD*%
D42*
%TO.P,D3,1,K*%
%TO.N,/Power/VIN_LED_K*%
X103875000Y-139350000D03*
%TO.P,D3,2,A*%
%TO.N,+BATT*%
X101825000Y-139350000D03*
%TD*%
D10*
%TO.P,R6,1*%
%TO.N,/DJI_PWM1*%
X108000000Y-110850000D03*
%TO.P,R6,2*%
%TO.N,/BUFF_SERVO_PWM1*%
X110000000Y-110850000D03*
%TD*%
D33*
%TO.P,R5,1*%
%TO.N,+5V*%
X125150000Y-126850000D03*
%TO.P,R5,2*%
%TO.N,/MCU/VCC_BUFFER*%
X123150000Y-126850000D03*
%TD*%
D13*
%TO.P,C10,1*%
%TO.N,VBAT_FILTERED*%
X127325000Y-133842500D03*
%TO.P,C10,2*%
%TO.N,GND*%
X127325000Y-135917500D03*
%TD*%
D43*
%TO.P,U2,1,1A*%
%TO.N,/MCU/RAW_SERVO_PWM1*%
X116812500Y-124000000D03*
%TO.P,U2,2,GND*%
%TO.N,GND*%
X116812500Y-124950000D03*
%TO.P,U2,3,2A*%
%TO.N,/MCU/RAW_SERVO_PWM2*%
X116812500Y-125900000D03*
%TO.P,U2,4,2Y*%
%TO.N,/BUFF_SERVO_PWM2*%
X119087500Y-125900000D03*
%TO.P,U2,5,V_{CC}*%
%TO.N,/MCU/VCC_BUFFER*%
X119087500Y-124950000D03*
%TO.P,U2,6,1Y*%
%TO.N,/BUFF_SERVO_PWM1*%
X119087500Y-124000000D03*
%TD*%
D13*
%TO.P,C5,1*%
%TO.N,/MCU/VCC_BUFFER*%
X121250000Y-124812500D03*
%TO.P,C5,2*%
%TO.N,GND*%
X121250000Y-126887500D03*
%TD*%
D25*
%TO.P,J5,1,1*%
%TO.N,/BUFF_SERVO_PWM2*%
X145825000Y-132225000D03*
D26*
%TO.P,J5,2,2*%
%TO.N,+5V*%
X145825000Y-134765000D03*
%TO.P,J5,3,3*%
%TO.N,GND*%
X145825000Y-137305000D03*
%TD*%
D44*
%TO.N,GND*%
X140150000Y-118850000D03*
X122400000Y-137300000D03*
X136850000Y-128800000D03*
X115450000Y-111850000D03*
X133450000Y-147150000D03*
X130900000Y-110150000D03*
X133550000Y-100900000D03*
X125700000Y-149150000D03*
X124200000Y-137050000D03*
X122850000Y-144800000D03*
X122500000Y-107800000D03*
X126800000Y-107750000D03*
X130100000Y-103900000D03*
X106800000Y-143050000D03*
X100950000Y-133250000D03*
X109550000Y-106050000D03*
X148500000Y-103050000D03*
X128600000Y-142700000D03*
D45*
X112850000Y-114450000D03*
D44*
X115400000Y-124200000D03*
X116200000Y-103650000D03*
X101900000Y-111650000D03*
X131600000Y-145350000D03*
X127100000Y-142700000D03*
X148600000Y-146450000D03*
X120250000Y-149100000D03*
X124350000Y-144850000D03*
X144650000Y-130000000D03*
X123150000Y-137150000D03*
X136850000Y-127800000D03*
X111350000Y-147650000D03*
X149230585Y-124751255D03*
X141650000Y-104900000D03*
X126850000Y-110800000D03*
X127100000Y-137200000D03*
X149150000Y-112500000D03*
X120000000Y-137200000D03*
X143200000Y-134200000D03*
X101000000Y-124600000D03*
X112900000Y-116200000D03*
X111050000Y-116200000D03*
X135350000Y-149150000D03*
X106700000Y-113050000D03*
X141450000Y-132900000D03*
X130000000Y-139950000D03*
X136850000Y-132200000D03*
X101000000Y-119150000D03*
X138100000Y-113900000D03*
X112950000Y-121300000D03*
D45*
X115400000Y-114350000D03*
D44*
X128600000Y-144950000D03*
X143850000Y-139400000D03*
X120200000Y-133050000D03*
X131950000Y-128950000D03*
X103800000Y-134250000D03*
X139900000Y-141550000D03*
X116650000Y-149150000D03*
X106300000Y-109600000D03*
X100850000Y-107850000D03*
X122800000Y-142750000D03*
X132000000Y-132350000D03*
X138900000Y-138350000D03*
X121800000Y-122150000D03*
X132000000Y-133700000D03*
X137600000Y-147450000D03*
X138000000Y-108100000D03*
X126550000Y-128150000D03*
X128200000Y-132600000D03*
X123400000Y-117850000D03*
X108900000Y-116250000D03*
D45*
X111250000Y-114250000D03*
D44*
X104900000Y-128400000D03*
X136850000Y-126750000D03*
X136900000Y-129750000D03*
X102100000Y-147600000D03*
X109800000Y-136350000D03*
X142700000Y-149150000D03*
X142750000Y-142650000D03*
X114550000Y-141600000D03*
X137200000Y-142950000D03*
X127100000Y-144900000D03*
X132600000Y-107650000D03*
X134600000Y-138700000D03*
X126250000Y-137050000D03*
X120300000Y-147850000D03*
X135215000Y-107660000D03*
X133450000Y-143500000D03*
X100950000Y-141000000D03*
X113000000Y-125250000D03*
X126300000Y-118150000D03*
X102750000Y-137800000D03*
X107400000Y-106150000D03*
X147500000Y-114750000D03*
D45*
X131600000Y-116900000D03*
D44*
X106900000Y-121550000D03*
X108150000Y-100900000D03*
X136800000Y-133400000D03*
X141950000Y-126750000D03*
X124350000Y-142750000D03*
X115500000Y-116200000D03*
X142750000Y-100900000D03*
X129750000Y-121650000D03*
X115800000Y-134950000D03*
X121900000Y-113800000D03*
X149200000Y-130200000D03*
X102200000Y-102000000D03*
X126800000Y-105200000D03*
X119350000Y-126950000D03*
X122400000Y-103650000D03*
X113150000Y-112050000D03*
X149250000Y-138450000D03*
X111000000Y-119850000D03*
X124850000Y-100900000D03*
X136850000Y-130850000D03*
X116200000Y-100900000D03*
X125250000Y-137200000D03*
X117250000Y-122600000D03*
X102000000Y-115150000D03*
D45*
X113150000Y-105750000D03*
D44*
X118450000Y-145700000D03*
X142350000Y-111800000D03*
D45*
X119150000Y-140700000D03*
D44*
X116650000Y-147800000D03*
X110400000Y-107350000D03*
X114300000Y-109650000D03*
X133000000Y-111350000D03*
X128250000Y-137100000D03*
X126650000Y-124800000D03*
%TO.N,/MCU/CHIP_EN*%
X110200000Y-104650000D03*
X125485000Y-106498000D03*
%TO.N,/BUFF_SERVO_PWM2*%
X110000000Y-121250000D03*
X119087500Y-125900000D03*
%TO.N,/SOLENOID_DRIVE*%
X146100000Y-141050000D03*
X118450000Y-112590000D03*
%TO.N,/Power/EN*%
X130225000Y-136400000D03*
X117150000Y-138800000D03*
%TO.N,/SCL*%
X114200000Y-104650000D03*
X118450000Y-117670000D03*
X105150000Y-114700000D03*
%TO.N,/SDA*%
X118450000Y-115130000D03*
X105150000Y-113450000D03*
%TO.N,/BUFF_SERVO_PWM1*%
X120950000Y-123050000D03*
X110000000Y-110800000D03*
%TO.N,/MCU/ESP32_PWM2*%
X111950000Y-110950000D03*
X118450000Y-110050000D03*
%TO.N,/MCU/VIN_LED_CONTROL*%
X118150000Y-127000000D03*
X111650000Y-141050000D03*
%TD*%
D46*
%TO.N,+5V*%
X143250000Y-132800000D02*
X143250000Y-132500000D01*
D47*
X146535000Y-125365000D02*
X148850000Y-123050000D01*
D48*
X145800000Y-125350000D02*
X146550000Y-125350000D01*
D47*
X143250000Y-125350000D02*
X145810000Y-125350000D01*
D48*
X145825000Y-125365000D02*
X145815000Y-125365000D01*
D47*
X147075000Y-120150000D02*
X147050000Y-120125000D01*
X148850000Y-120050000D02*
X148750000Y-120150000D01*
X133312500Y-126750000D02*
X133312500Y-132900000D01*
D48*
X129400000Y-127200000D02*
X125500000Y-127200000D01*
X145815000Y-125365000D02*
X145800000Y-125350000D01*
X125500000Y-127200000D02*
X125150000Y-126850000D01*
D47*
X129400000Y-127200000D02*
X132862500Y-127200000D01*
X145825000Y-125365000D02*
X146535000Y-125365000D01*
X143250000Y-125350000D02*
X143250000Y-132500000D01*
X145515000Y-134765000D02*
X145825000Y-134765000D01*
X148850000Y-120050000D02*
X148850000Y-114250000D01*
X148850000Y-114250000D02*
X140300000Y-105700000D01*
D48*
X147500000Y-120575000D02*
X147050000Y-120125000D01*
D47*
X145810000Y-125350000D02*
X145825000Y-125365000D01*
X134050000Y-125350000D02*
X143250000Y-125350000D01*
X148750000Y-120150000D02*
X147075000Y-120150000D01*
X133312500Y-126750000D02*
X133312500Y-126087500D01*
X132862500Y-127200000D02*
X133312500Y-126750000D01*
D46*
X141150000Y-134900000D02*
X143250000Y-132800000D01*
D47*
X148850000Y-123050000D02*
X148850000Y-120050000D01*
X133312500Y-126087500D02*
X134050000Y-125350000D01*
X140300000Y-105700000D02*
X140272500Y-105700000D01*
X143250000Y-132500000D02*
X145515000Y-134765000D01*
D48*
%TO.N,+3.3V*%
X131300000Y-108950000D02*
X131300000Y-103300000D01*
X136015000Y-110350000D02*
X135377500Y-109712500D01*
X132575000Y-110225000D02*
X131300000Y-108950000D01*
X131300000Y-103300000D02*
X130650000Y-102650000D01*
X130650000Y-102650000D02*
X114200000Y-102650000D01*
X114200000Y-102650000D02*
X110250000Y-102650000D01*
X125150000Y-124850000D02*
X125150000Y-117650000D01*
X132600000Y-110200000D02*
X135215000Y-110200000D01*
D49*
X135377500Y-109712500D02*
X135215000Y-109550000D01*
D48*
X125150000Y-117650000D02*
X132575000Y-110225000D01*
X140100000Y-110350000D02*
X136015000Y-110350000D01*
D49*
%TO.N,MCU_5V*%
X138286250Y-105613750D02*
X138000000Y-105327500D01*
X138000000Y-105327500D02*
X138000000Y-103787500D01*
D47*
X138286250Y-105613750D02*
X138222500Y-105550000D01*
X135645000Y-105550000D02*
X135215000Y-105120000D01*
X138222500Y-105550000D02*
X135645000Y-105550000D01*
X138372500Y-105700000D02*
X138286250Y-105613750D01*
D49*
X140050000Y-103787500D02*
X138000000Y-103787500D01*
D48*
%TO.N,/MCU/VCC_BUFFER*%
X121112500Y-124950000D02*
X119087500Y-124950000D01*
X123150000Y-126850000D02*
X123150000Y-124850000D01*
X123150000Y-124850000D02*
X121287500Y-124850000D01*
X121250000Y-124812500D02*
X121112500Y-124950000D01*
X121287500Y-124850000D02*
X121250000Y-124812500D01*
D47*
%TO.N,VBAT_FILTERED*%
X121187500Y-138650000D02*
X121187500Y-140700000D01*
X123200000Y-140700000D02*
X123400000Y-140900000D01*
X125175000Y-133792500D02*
X125225000Y-133842500D01*
X125175000Y-131300000D02*
X125175000Y-133792500D01*
X127325000Y-133842500D02*
X129132500Y-133842500D01*
X123125000Y-133842500D02*
X127325000Y-133842500D01*
X119800000Y-143700000D02*
X121187500Y-142312500D01*
X121187500Y-138650000D02*
X121187500Y-134862500D01*
X118450000Y-143700000D02*
X119800000Y-143700000D01*
X121187500Y-134862500D02*
X122207500Y-133842500D01*
D46*
X117200000Y-140800000D02*
X117200000Y-141500000D01*
D50*
X129132500Y-133842500D02*
X129275000Y-133700000D01*
D46*
X118450000Y-142750000D02*
X118450000Y-143700000D01*
D47*
X122207500Y-133842500D02*
X123125000Y-133842500D01*
D46*
X117200000Y-141500000D02*
X118450000Y-142750000D01*
D47*
X121187500Y-140700000D02*
X123200000Y-140700000D01*
X121187500Y-142312500D02*
X121187500Y-140700000D01*
%TO.N,+12V*%
X135850000Y-142950000D02*
X133450000Y-145350000D01*
D46*
X125700000Y-140000000D02*
X124200000Y-138500000D01*
D47*
X125700000Y-147200000D02*
X131600000Y-147200000D01*
X136925000Y-148825000D02*
X133450000Y-145350000D01*
X131762500Y-140000000D02*
X131762500Y-143662500D01*
D46*
X125700000Y-140900000D02*
X125700000Y-140000000D01*
D47*
X131600000Y-147200000D02*
X133450000Y-145350000D01*
X125700000Y-147200000D02*
X125700000Y-140900000D01*
X140950000Y-148825000D02*
X136925000Y-148825000D01*
X131762500Y-143662500D02*
X133450000Y-145350000D01*
X135850000Y-139850000D02*
X135850000Y-142950000D01*
D48*
%TO.N,GND*%
X116812500Y-124950000D02*
X116150000Y-124950000D01*
D47*
X138000000Y-108100000D02*
X137560000Y-107660000D01*
D51*
X131175000Y-133175000D02*
X132000000Y-132350000D01*
D48*
X116150000Y-124950000D02*
X115400000Y-124200000D01*
D51*
X131175000Y-133700000D02*
X131175000Y-133175000D01*
D47*
X132610000Y-107660000D02*
X135215000Y-107660000D01*
X137560000Y-107660000D02*
X135215000Y-107660000D01*
X132600000Y-107650000D02*
X132610000Y-107660000D01*
D46*
%TO.N,/Power/SW_SNUBBER*%
X137137500Y-136950000D02*
X135150000Y-136950000D01*
X137150000Y-136937500D02*
X137137500Y-136950000D01*
%TO.N,/BUFF_SERVO_PWM2*%
X119087500Y-125900000D02*
X119237500Y-125750000D01*
X119237500Y-125750000D02*
X119237500Y-125700000D01*
X110000000Y-114900000D02*
X110000000Y-121250000D01*
D47*
%TO.N,+BATT*%
X120425000Y-131300000D02*
X119350000Y-131300000D01*
X101825000Y-139350000D02*
X101825000Y-139225000D01*
X101400000Y-134800000D02*
X103300000Y-132900000D01*
X101825000Y-139225000D02*
X101850000Y-139200000D01*
X117600000Y-133050000D02*
X117600000Y-133482500D01*
X101400000Y-138750000D02*
X101400000Y-134800000D01*
X101850000Y-139200000D02*
X101400000Y-138750000D01*
X103300000Y-132900000D02*
X113475000Y-132900000D01*
X114057500Y-133482500D02*
X113475000Y-132900000D01*
X119350000Y-131300000D02*
X117600000Y-133050000D01*
X117600000Y-133482500D02*
X114057500Y-133482500D01*
%TO.N,-BATT*%
X117917500Y-129300000D02*
X117600000Y-128982500D01*
D46*
X113475000Y-127900000D02*
X113450000Y-127900000D01*
D47*
X116517500Y-127900000D02*
X117600000Y-128982500D01*
X113450000Y-127900000D02*
X116517500Y-127900000D01*
X120425000Y-129300000D02*
X117917500Y-129300000D01*
%TO.N,SOLENOID-*%
X138550000Y-139850000D02*
X138550000Y-143750000D01*
X140250000Y-140250000D02*
X138950000Y-140250000D01*
X138550000Y-143750000D02*
X136950000Y-145350000D01*
X138950000Y-140250000D02*
X138550000Y-139850000D01*
D46*
%TO.N,/Solenoid Driver/SOLENOID_FET_G*%
X143950000Y-141200000D02*
X142250000Y-141200000D01*
X144100000Y-141050000D02*
X143950000Y-141200000D01*
%TO.N,/SOLENOID_DRIVE*%
X118550000Y-112690000D02*
X118450000Y-112590000D01*
X118550000Y-112740000D02*
X118550000Y-112690000D01*
%TO.N,/Power/BOOT*%
X131225000Y-136450000D02*
X131175000Y-136400000D01*
X132857500Y-136957500D02*
X132350000Y-136450000D01*
X132350000Y-136450000D02*
X131225000Y-136450000D01*
X133125000Y-136957500D02*
X132857500Y-136957500D01*
%TO.N,/Power/SW*%
X135150000Y-134950000D02*
X135082500Y-134882500D01*
X133057500Y-134950000D02*
X133125000Y-134882500D01*
X135082500Y-134882500D02*
X133125000Y-134882500D01*
X130600000Y-134950000D02*
X133057500Y-134950000D01*
D47*
X130225000Y-131825000D02*
X129400000Y-131000000D01*
D46*
X130225000Y-133700000D02*
X130225000Y-134575000D01*
X130225000Y-134575000D02*
X130600000Y-134950000D01*
D47*
X130225000Y-133700000D02*
X130225000Y-131825000D01*
%TO.N,/Power/VIN_LED_K*%
X103875000Y-139350000D02*
X105900000Y-139350000D01*
D48*
%TO.N,/Power/5V_LED_K*%
X147050000Y-118075000D02*
X145025000Y-118075000D01*
X145025000Y-118075000D02*
X145000000Y-118100000D01*
D47*
%TO.N,/Power/12V_LED_K*%
X140950000Y-146775000D02*
X140950000Y-144950000D01*
D46*
%TO.N,/DJI_PWM1*%
X107900000Y-110950000D02*
X108000000Y-110850000D01*
X105150000Y-110950000D02*
X107900000Y-110950000D01*
X108000000Y-108850000D02*
X108000000Y-110850000D01*
%TO.N,/Power/FB*%
X129800000Y-137500000D02*
X129275000Y-136975000D01*
X131200000Y-137900000D02*
X130800000Y-137500000D01*
X129275000Y-136975000D02*
X129275000Y-136400000D01*
X139150000Y-136900000D02*
X138150000Y-137900000D01*
X141150000Y-136900000D02*
X139150000Y-136900000D01*
X130800000Y-137500000D02*
X129800000Y-137500000D01*
X138150000Y-137900000D02*
X131200000Y-137900000D01*
%TO.N,/Power/ADJ*%
X127987500Y-138500000D02*
X127987500Y-140887500D01*
X127987500Y-140887500D02*
X128000000Y-140900000D01*
X126200000Y-138500000D02*
X127987500Y-138500000D01*
%TO.N,/Power/EN*%
X117200000Y-138800000D02*
X117150000Y-138800000D01*
%TO.N,/DJI_PWM2*%
X105150000Y-112200000D02*
X107350000Y-112200000D01*
X108000000Y-112850000D02*
X108000000Y-114900000D01*
X107350000Y-112200000D02*
X108000000Y-112850000D01*
%TO.N,/SDA*%
X103600000Y-113050000D02*
X104000000Y-113450000D01*
X103600000Y-110400000D02*
X103600000Y-113050000D01*
X112200000Y-104650000D02*
X109900000Y-106950000D01*
X104000000Y-113450000D02*
X105150000Y-113450000D01*
X109900000Y-106950000D02*
X107050000Y-106950000D01*
X107050000Y-106950000D02*
X103600000Y-110400000D01*
%TO.N,/BUFF_SERVO_PWM1*%
X119237500Y-124000000D02*
X120000000Y-124000000D01*
X145600000Y-123050000D02*
X145825000Y-122825000D01*
X119237500Y-123800000D02*
X119237500Y-124000000D01*
X120000000Y-124000000D02*
X120950000Y-123050000D01*
X110000000Y-110850000D02*
X110000000Y-110800000D01*
%TO.N,/MCU/RAW_SERVO_PWM1*%
X110250000Y-109100000D02*
X111950000Y-109100000D01*
X113700000Y-121200000D02*
X113700000Y-110850000D01*
X113700000Y-110850000D02*
X111950000Y-109100000D01*
X110000000Y-108850000D02*
X110250000Y-109100000D01*
X116812500Y-124000000D02*
X116500000Y-124000000D01*
X116500000Y-124000000D02*
X113700000Y-121200000D01*
%TO.N,/MCU/RAW_SERVO_PWM2*%
X116962500Y-125700000D02*
X115750000Y-125700000D01*
X115750000Y-125700000D02*
X111950000Y-121900000D01*
X111950000Y-121900000D02*
X111950000Y-112950000D01*
X111850000Y-112850000D02*
X111950000Y-112950000D01*
X110000000Y-112850000D02*
X111850000Y-112850000D01*
%TO.N,/MCU/ESP32_PWM1*%
X111950000Y-107100000D02*
X118460000Y-107100000D01*
X118460000Y-107100000D02*
X118550000Y-107010000D01*
D47*
%TO.N,/Power/VIN_LED_FET_D*%
X108900000Y-139350000D02*
X107900000Y-139350000D01*
X109650000Y-140100000D02*
X108900000Y-139350000D01*
D46*
%TO.N,/MCU/VIN_LED_CONTROL*%
X118150000Y-120760000D02*
X118550000Y-120360000D01*
X118150000Y-127000000D02*
X118150000Y-120760000D01*
%TD*%
%TA.AperFunction,Conductor*%
%TO.N,GND*%
G36*
X145002702Y-100250618D02*
G01*
X145015967Y-100251197D01*
X145408558Y-100268337D01*
X145419293Y-100269277D01*
X145819386Y-100321950D01*
X145830010Y-100323823D01*
X146223993Y-100411167D01*
X146234405Y-100413956D01*
X146619279Y-100535307D01*
X146629414Y-100538996D01*
X147002232Y-100693423D01*
X147012024Y-100697989D01*
X147207092Y-100799535D01*
X147369942Y-100884309D01*
X147379310Y-100889717D01*
X147719638Y-101106530D01*
X147728499Y-101112735D01*
X148048627Y-101358378D01*
X148056914Y-101365332D01*
X148354412Y-101637938D01*
X148362061Y-101645587D01*
X148634667Y-101943085D01*
X148641621Y-101951372D01*
X148887264Y-102271500D01*
X148893469Y-102280361D01*
X149110282Y-102620689D01*
X149115690Y-102630057D01*
X149302007Y-102987969D01*
X149306579Y-102997773D01*
X149355951Y-103116967D01*
X149452795Y-103350770D01*
X149460997Y-103370570D01*
X149464696Y-103380733D01*
X149583929Y-103758891D01*
X149586037Y-103765575D01*
X149588837Y-103776025D01*
X149676173Y-104169977D01*
X149678051Y-104180629D01*
X149730720Y-104580683D01*
X149731663Y-104591460D01*
X149747324Y-104950172D01*
X149749382Y-104997297D01*
X149749500Y-105002706D01*
X149749500Y-113576638D01*
X149729815Y-113643677D01*
X149677011Y-113689432D01*
X149607853Y-113699376D01*
X149544297Y-113670351D01*
X149537819Y-113664319D01*
X141196326Y-105322826D01*
X141162841Y-105261503D01*
X141161070Y-105251343D01*
X141158058Y-105228459D01*
X141157868Y-105228000D01*
X141099567Y-105087246D01*
X141099565Y-105087243D01*
X141006517Y-104965982D01*
X140964109Y-104933441D01*
X140922907Y-104877013D01*
X140918752Y-104807267D01*
X140952965Y-104746347D01*
X140974495Y-104729529D01*
X140993656Y-104717712D01*
X141117712Y-104593656D01*
X141209814Y-104444334D01*
X141264999Y-104277797D01*
X141275500Y-104175009D01*
X141275500Y-103878711D01*
X144149500Y-103878711D01*
X144149500Y-104121288D01*
X144179609Y-104349997D01*
X144181162Y-104361789D01*
X144194607Y-104411965D01*
X144243947Y-104596104D01*
X144306180Y-104746347D01*
X144336776Y-104820212D01*
X144458064Y-105030289D01*
X144458066Y-105030292D01*
X144458067Y-105030293D01*
X144605733Y-105222736D01*
X144605739Y-105222743D01*
X144777256Y-105394260D01*
X144777262Y-105394265D01*
X144969711Y-105541936D01*
X145179788Y-105663224D01*
X145403900Y-105756054D01*
X145638211Y-105818838D01*
X145818586Y-105842584D01*
X145878711Y-105850500D01*
X145878712Y-105850500D01*
X146121289Y-105850500D01*
X146177915Y-105843045D01*
X146361789Y-105818838D01*
X146596100Y-105756054D01*
X146820212Y-105663224D01*
X147030289Y-105541936D01*
X147222738Y-105394265D01*
X147394265Y-105222738D01*
X147541936Y-105030289D01*
X147663224Y-104820212D01*
X147756054Y-104596100D01*
X147818838Y-104361789D01*
X147850500Y-104121288D01*
X147850500Y-103878712D01*
X147818838Y-103638211D01*
X147756054Y-103403900D01*
X147663224Y-103179788D01*
X147541936Y-102969711D01*
X147452159Y-102852711D01*
X147394266Y-102777263D01*
X147394260Y-102777256D01*
X147222743Y-102605739D01*
X147222736Y-102605733D01*
X147030293Y-102458067D01*
X147030292Y-102458066D01*
X147030289Y-102458064D01*
X146820212Y-102336776D01*
X146755690Y-102310050D01*
X146596104Y-102243947D01*
X146361785Y-102181161D01*
X146121289Y-102149500D01*
X146121288Y-102149500D01*
X145878712Y-102149500D01*
X145878711Y-102149500D01*
X145638214Y-102181161D01*
X145403895Y-102243947D01*
X145179794Y-102336773D01*
X145179785Y-102336777D01*
X144969706Y-102458067D01*
X144777263Y-102605733D01*
X144777256Y-102605739D01*
X144605739Y-102777256D01*
X144605733Y-102777263D01*
X144458067Y-102969706D01*
X144336777Y-103179785D01*
X144336773Y-103179794D01*
X144243947Y-103403895D01*
X144181161Y-103638214D01*
X144149500Y-103878711D01*
X141275500Y-103878711D01*
X141275499Y-103399992D01*
X141269003Y-103336404D01*
X141264999Y-103297203D01*
X141264998Y-103297200D01*
X141245446Y-103238196D01*
X141209814Y-103130666D01*
X141117712Y-102981344D01*
X140993656Y-102857288D01*
X140990342Y-102855243D01*
X140988546Y-102853248D01*
X140987989Y-102852807D01*
X140988064Y-102852711D01*
X140943618Y-102803297D01*
X140932397Y-102734334D01*
X140960240Y-102670252D01*
X140990348Y-102644165D01*
X140993342Y-102642318D01*
X141117315Y-102518345D01*
X141209356Y-102369124D01*
X141209358Y-102369119D01*
X141264505Y-102202697D01*
X141264506Y-102202690D01*
X141274999Y-102099986D01*
X141275000Y-102099973D01*
X141275000Y-101962500D01*
X136775001Y-101962500D01*
X136775001Y-102099986D01*
X136785494Y-102202697D01*
X136840641Y-102369119D01*
X136840643Y-102369124D01*
X136932684Y-102518345D01*
X137056655Y-102642316D01*
X137056659Y-102642319D01*
X137059656Y-102644168D01*
X137061279Y-102645972D01*
X137062323Y-102646798D01*
X137062181Y-102646976D01*
X137106381Y-102696116D01*
X137117602Y-102765079D01*
X137089759Y-102829161D01*
X137059661Y-102855241D01*
X137056349Y-102857283D01*
X137056343Y-102857288D01*
X136932289Y-102981342D01*
X136840187Y-103130663D01*
X136840185Y-103130668D01*
X136812349Y-103214670D01*
X136785001Y-103297203D01*
X136785001Y-103297204D01*
X136785000Y-103297204D01*
X136774501Y-103399979D01*
X136774500Y-103399996D01*
X136774500Y-103481050D01*
X136754815Y-103548089D01*
X136702011Y-103593844D01*
X136632853Y-103603788D01*
X136593089Y-103590959D01*
X136488047Y-103536090D01*
X136401646Y-103511368D01*
X136292418Y-103480114D01*
X136292415Y-103480113D01*
X136292413Y-103480113D01*
X136226102Y-103474217D01*
X136173037Y-103469500D01*
X136173032Y-103469500D01*
X134056971Y-103469500D01*
X134056965Y-103469500D01*
X134056964Y-103469501D01*
X134045316Y-103470536D01*
X133937584Y-103480113D01*
X133741954Y-103536089D01*
X133691740Y-103562319D01*
X133561593Y-103630302D01*
X133561591Y-103630303D01*
X133561590Y-103630304D01*
X133403890Y-103758890D01*
X133275304Y-103916590D01*
X133275302Y-103916593D01*
X133253673Y-103958000D01*
X133181089Y-104096954D01*
X133125114Y-104292583D01*
X133125113Y-104292586D01*
X133114500Y-104411966D01*
X133114500Y-105528028D01*
X133114501Y-105528034D01*
X133125113Y-105647415D01*
X133181089Y-105843045D01*
X133181090Y-105843048D01*
X133181091Y-105843049D01*
X133275302Y-106023407D01*
X133309368Y-106065186D01*
X133388338Y-106162035D01*
X133415447Y-106226432D01*
X133403438Y-106295261D01*
X133388338Y-106318757D01*
X133275721Y-106456870D01*
X133181557Y-106637138D01*
X133125609Y-106832671D01*
X133125608Y-106832674D01*
X133115000Y-106951999D01*
X133115000Y-108068000D01*
X133125608Y-108187325D01*
X133125609Y-108187328D01*
X133181557Y-108382861D01*
X133275721Y-108563129D01*
X133388338Y-108701242D01*
X133415447Y-108765638D01*
X133403438Y-108834468D01*
X133388338Y-108857963D01*
X133275305Y-108996587D01*
X133181089Y-109176954D01*
X133153178Y-109274501D01*
X133132387Y-109347166D01*
X133125114Y-109372583D01*
X133125113Y-109372586D01*
X133117388Y-109459481D01*
X133091844Y-109524514D01*
X133035195Y-109565413D01*
X132993875Y-109572500D01*
X132861281Y-109572500D01*
X132794242Y-109552815D01*
X132773600Y-109536181D01*
X131963819Y-108726400D01*
X131930334Y-108665077D01*
X131927500Y-108638719D01*
X131927500Y-103238196D01*
X131927499Y-103238195D01*
X131910513Y-103152797D01*
X131903386Y-103116966D01*
X131858407Y-103008379D01*
X131856763Y-103003784D01*
X131787414Y-102899996D01*
X131787413Y-102899994D01*
X131744702Y-102857283D01*
X131700008Y-102812589D01*
X131405764Y-102518345D01*
X131050013Y-102162593D01*
X131050007Y-102162588D01*
X131026980Y-102147202D01*
X130947239Y-102093920D01*
X130947226Y-102093913D01*
X130913785Y-102080062D01*
X130833035Y-102046614D01*
X130833027Y-102046612D01*
X130711807Y-102022500D01*
X130711803Y-102022500D01*
X115429824Y-102022500D01*
X115362785Y-102002815D01*
X115324285Y-101963596D01*
X115242712Y-101831344D01*
X115118657Y-101707289D01*
X115118656Y-101707288D01*
X114969334Y-101615186D01*
X114802797Y-101560001D01*
X114802795Y-101560000D01*
X114700010Y-101549500D01*
X113699998Y-101549500D01*
X113699980Y-101549501D01*
X113597203Y-101560000D01*
X113597200Y-101560001D01*
X113430668Y-101615185D01*
X113430663Y-101615187D01*
X113281342Y-101707289D01*
X113276909Y-101710795D01*
X113212113Y-101736934D01*
X113143471Y-101723892D01*
X113123091Y-101710795D01*
X113118657Y-101707289D01*
X113118656Y-101707288D01*
X112969334Y-101615186D01*
X112802797Y-101560001D01*
X112802795Y-101560000D01*
X112700010Y-101549500D01*
X111699998Y-101549500D01*
X111699980Y-101549501D01*
X111597203Y-101560000D01*
X111597200Y-101560001D01*
X111430668Y-101615185D01*
X111430663Y-101615187D01*
X111281342Y-101707289D01*
X111276909Y-101710795D01*
X111212113Y-101736934D01*
X111143471Y-101723892D01*
X111123091Y-101710795D01*
X111118657Y-101707289D01*
X111118656Y-101707288D01*
X110969334Y-101615186D01*
X110802797Y-101560001D01*
X110802795Y-101560000D01*
X110700010Y-101549500D01*
X109699998Y-101549500D01*
X109699980Y-101549501D01*
X109597203Y-101560000D01*
X109597200Y-101560001D01*
X109430668Y-101615185D01*
X109430663Y-101615187D01*
X109281342Y-101707289D01*
X109157289Y-101831342D01*
X109065187Y-101980663D01*
X109065185Y-101980668D01*
X109010000Y-102147204D01*
X108999500Y-102249983D01*
X108999500Y-103050001D01*
X108999501Y-103050019D01*
X109010000Y-103152796D01*
X109010001Y-103152799D01*
X109065185Y-103319331D01*
X109065186Y-103319334D01*
X109157287Y-103468655D01*
X109157289Y-103468657D01*
X109250951Y-103562319D01*
X109284436Y-103623642D01*
X109279452Y-103693334D01*
X109250951Y-103737681D01*
X109157289Y-103831342D01*
X109065187Y-103980663D01*
X109065186Y-103980666D01*
X109010001Y-104147203D01*
X109010001Y-104147204D01*
X109010000Y-104147204D01*
X108999500Y-104249983D01*
X108999500Y-105050001D01*
X108999501Y-105050019D01*
X109010000Y-105152796D01*
X109010001Y-105152799D01*
X109065185Y-105319331D01*
X109065187Y-105319336D01*
X109071691Y-105329880D01*
X109157288Y-105468656D01*
X109281344Y-105592712D01*
X109430666Y-105684814D01*
X109597203Y-105739999D01*
X109699991Y-105750500D01*
X110002522Y-105750499D01*
X110069560Y-105770183D01*
X110115315Y-105822987D01*
X110125259Y-105892146D01*
X110096234Y-105955701D01*
X110090202Y-105962180D01*
X109702703Y-106349681D01*
X109641380Y-106383166D01*
X109615022Y-106386000D01*
X107131865Y-106386000D01*
X107131849Y-106385999D01*
X107124253Y-106385999D01*
X106975748Y-106385999D01*
X106844063Y-106421284D01*
X106832300Y-106424436D01*
X106703699Y-106498684D01*
X106703693Y-106498689D01*
X106598685Y-106603698D01*
X103888701Y-109313681D01*
X103827378Y-109347166D01*
X103801020Y-109350000D01*
X102200000Y-109350000D01*
X102200000Y-110099999D01*
X102934889Y-110099999D01*
X103001928Y-110119684D01*
X103047683Y-110172488D01*
X103057627Y-110241646D01*
X103054664Y-110256091D01*
X103039711Y-110311899D01*
X103039710Y-110311903D01*
X103036000Y-110325748D01*
X103036000Y-112975747D01*
X103036000Y-113124253D01*
X103042372Y-113148033D01*
X103055306Y-113196304D01*
X103074435Y-113267697D01*
X103074436Y-113267698D01*
X103148687Y-113396304D01*
X103148689Y-113396306D01*
X103260761Y-113508378D01*
X103260767Y-113508383D01*
X103544346Y-113791962D01*
X103544356Y-113791973D01*
X103548686Y-113796303D01*
X103548687Y-113796304D01*
X103653696Y-113901313D01*
X103728933Y-113944751D01*
X103782303Y-113975565D01*
X103841753Y-113991494D01*
X103901412Y-114027857D01*
X103931942Y-114090703D01*
X103923648Y-114160079D01*
X103916392Y-114174388D01*
X103848254Y-114289605D01*
X103848254Y-114289606D01*
X103802402Y-114447426D01*
X103802401Y-114447432D01*
X103799500Y-114484298D01*
X103799500Y-114915701D01*
X103802401Y-114952567D01*
X103802402Y-114952573D01*
X103848254Y-115110393D01*
X103848255Y-115110396D01*
X103935890Y-115258580D01*
X103934045Y-115259670D01*
X103955551Y-115314463D01*
X103941862Y-115382979D01*
X103936252Y-115391707D01*
X103936288Y-115391729D01*
X103848718Y-115539801D01*
X103802899Y-115697513D01*
X103802704Y-115699998D01*
X103802705Y-115700000D01*
X106497295Y-115700000D01*
X106497295Y-115699998D01*
X106497100Y-115697513D01*
X106451281Y-115539801D01*
X106363712Y-115391729D01*
X106365715Y-115390544D01*
X106344448Y-115336359D01*
X106358136Y-115267843D01*
X106364323Y-115258219D01*
X106368081Y-115251865D01*
X106451744Y-115110398D01*
X106497598Y-114952569D01*
X106500500Y-114915694D01*
X106500500Y-114484306D01*
X106497598Y-114447431D01*
X106483817Y-114399998D01*
X106463836Y-114331224D01*
X106451744Y-114289602D01*
X106368081Y-114148135D01*
X106364110Y-114141420D01*
X106366083Y-114140252D01*
X106344769Y-114085965D01*
X106358448Y-114017447D01*
X106364136Y-114008595D01*
X106364110Y-114008580D01*
X106417151Y-113918891D01*
X106451744Y-113860398D01*
X106497598Y-113702569D01*
X106500500Y-113665694D01*
X106500500Y-113234306D01*
X106497598Y-113197431D01*
X106494312Y-113186122D01*
X106451745Y-113039606D01*
X106451744Y-113039603D01*
X106451744Y-113039602D01*
X106399417Y-112951121D01*
X106382234Y-112883396D01*
X106404394Y-112817134D01*
X106458861Y-112773371D01*
X106506149Y-112764000D01*
X106775500Y-112764000D01*
X106842539Y-112783685D01*
X106888294Y-112836489D01*
X106899500Y-112888000D01*
X106899500Y-113350001D01*
X106899501Y-113350019D01*
X106910000Y-113452796D01*
X106910001Y-113452799D01*
X106928420Y-113508383D01*
X106965186Y-113619334D01*
X107016525Y-113702569D01*
X107057289Y-113768657D01*
X107075951Y-113787319D01*
X107109436Y-113848642D01*
X107104452Y-113918334D01*
X107075951Y-113962681D01*
X107057289Y-113981342D01*
X106965187Y-114130663D01*
X106965185Y-114130668D01*
X106961622Y-114141420D01*
X106910001Y-114297203D01*
X106910001Y-114297204D01*
X106910000Y-114297204D01*
X106899500Y-114399983D01*
X106899500Y-115400001D01*
X106899501Y-115400019D01*
X106910000Y-115502796D01*
X106910001Y-115502799D01*
X106965185Y-115669331D01*
X106965187Y-115669336D01*
X106984101Y-115700000D01*
X107057288Y-115818656D01*
X107181344Y-115942712D01*
X107330666Y-116034814D01*
X107497203Y-116089999D01*
X107599991Y-116100500D01*
X108400008Y-116100499D01*
X108400016Y-116100498D01*
X108400019Y-116100498D01*
X108481064Y-116092219D01*
X108502797Y-116089999D01*
X108669334Y-116034814D01*
X108818656Y-115942712D01*
X108912319Y-115849049D01*
X108973642Y-115815564D01*
X109043334Y-115820548D01*
X109087681Y-115849049D01*
X109181344Y-115942712D01*
X109330666Y-116034814D01*
X109351004Y-116041553D01*
X109408447Y-116081322D01*
X109435272Y-116145837D01*
X109436000Y-116159258D01*
X109436000Y-120702519D01*
X109416315Y-120769558D01*
X109409924Y-120778469D01*
X109319547Y-120922302D01*
X109319545Y-120922305D01*
X109263685Y-121081943D01*
X109244751Y-121249997D01*
X109244751Y-121250002D01*
X109263685Y-121418056D01*
X109319545Y-121577694D01*
X109319547Y-121577697D01*
X109409518Y-121720884D01*
X109409523Y-121720890D01*
X109529109Y-121840476D01*
X109529115Y-121840481D01*
X109672302Y-121930452D01*
X109672305Y-121930454D01*
X109672309Y-121930455D01*
X109672310Y-121930456D01*
X109744913Y-121955860D01*
X109831943Y-121986314D01*
X109999997Y-122005249D01*
X110000000Y-122005249D01*
X110000003Y-122005249D01*
X110168056Y-121986314D01*
X110168059Y-121986313D01*
X110327690Y-121930456D01*
X110327692Y-121930454D01*
X110327694Y-121930454D01*
X110327697Y-121930452D01*
X110470884Y-121840481D01*
X110470885Y-121840480D01*
X110470890Y-121840477D01*
X110590477Y-121720890D01*
X110597007Y-121710498D01*
X110680452Y-121577697D01*
X110680454Y-121577694D01*
X110680454Y-121577692D01*
X110680456Y-121577690D01*
X110736313Y-121418059D01*
X110736313Y-121418058D01*
X110736314Y-121418056D01*
X110755249Y-121250002D01*
X110755249Y-121249997D01*
X110736314Y-121081943D01*
X110680454Y-120922305D01*
X110680452Y-120922302D01*
X110586773Y-120773214D01*
X110588027Y-120772425D01*
X110564644Y-120715138D01*
X110564000Y-120702519D01*
X110564000Y-116159258D01*
X110583685Y-116092219D01*
X110636489Y-116046464D01*
X110648977Y-116041559D01*
X110669334Y-116034814D01*
X110818656Y-115942712D01*
X110942712Y-115818656D01*
X111034814Y-115669334D01*
X111089999Y-115502797D01*
X111100500Y-115400009D01*
X111100499Y-114399992D01*
X111089999Y-114297203D01*
X111040193Y-114146901D01*
X111037792Y-114077076D01*
X111073523Y-114017034D01*
X111136044Y-113985841D01*
X111196900Y-113990193D01*
X111301006Y-114024690D01*
X111358449Y-114064463D01*
X111385272Y-114128979D01*
X111386000Y-114142396D01*
X111386000Y-121825747D01*
X111386000Y-121974253D01*
X111389232Y-121986314D01*
X111394305Y-122005248D01*
X111424436Y-122117699D01*
X111498684Y-122246300D01*
X111498689Y-122246306D01*
X111610761Y-122358378D01*
X111610767Y-122358383D01*
X114690202Y-125437819D01*
X114723687Y-125499142D01*
X114718703Y-125568834D01*
X114676831Y-125624767D01*
X114611367Y-125649184D01*
X114602521Y-125649500D01*
X111677129Y-125649500D01*
X111677123Y-125649501D01*
X111617516Y-125655908D01*
X111482671Y-125706202D01*
X111482664Y-125706206D01*
X111367455Y-125792452D01*
X111367452Y-125792455D01*
X111281206Y-125907664D01*
X111281202Y-125907671D01*
X111230908Y-126042517D01*
X111224501Y-126102116D01*
X111224500Y-126102135D01*
X111224500Y-129697870D01*
X111224501Y-129697876D01*
X111230908Y-129757483D01*
X111281202Y-129892328D01*
X111281206Y-129892335D01*
X111367452Y-130007544D01*
X111367455Y-130007547D01*
X111482664Y-130093793D01*
X111482671Y-130093797D01*
X111617517Y-130144091D01*
X111617516Y-130144091D01*
X111624444Y-130144835D01*
X111677127Y-130150500D01*
X115272872Y-130150499D01*
X115332483Y-130144091D01*
X115467331Y-130093796D01*
X115582546Y-130007546D01*
X115668796Y-129892331D01*
X115719091Y-129757483D01*
X115725500Y-129697873D01*
X115725500Y-128924500D01*
X115745185Y-128857461D01*
X115797989Y-128811706D01*
X115849500Y-128800500D01*
X116075500Y-128800500D01*
X116142539Y-128820185D01*
X116188294Y-128872989D01*
X116199500Y-128924500D01*
X116199500Y-130157501D01*
X116199501Y-130157518D01*
X116210000Y-130260296D01*
X116210001Y-130260299D01*
X116265185Y-130426831D01*
X116265186Y-130426834D01*
X116357288Y-130576156D01*
X116481344Y-130700212D01*
X116630666Y-130792314D01*
X116797203Y-130847499D01*
X116899991Y-130858000D01*
X118219138Y-130857999D01*
X118286177Y-130877684D01*
X118331932Y-130930487D01*
X118341876Y-130999646D01*
X118312851Y-131063202D01*
X118306819Y-131069680D01*
X117805818Y-131570681D01*
X117744495Y-131604166D01*
X117718137Y-131607000D01*
X116899998Y-131607000D01*
X116899980Y-131607001D01*
X116797203Y-131617500D01*
X116797200Y-131617501D01*
X116630668Y-131672685D01*
X116630663Y-131672687D01*
X116481342Y-131764789D01*
X116357289Y-131888842D01*
X116265187Y-132038163D01*
X116265185Y-132038168D01*
X116260432Y-132052513D01*
X116210001Y-132204703D01*
X116210001Y-132204704D01*
X116210000Y-132204704D01*
X116199500Y-132307483D01*
X116199500Y-132458000D01*
X116179815Y-132525039D01*
X116127011Y-132570794D01*
X116075500Y-132582000D01*
X115808100Y-132582000D01*
X115741061Y-132562315D01*
X115695306Y-132509511D01*
X115686483Y-132482191D01*
X115680279Y-132451000D01*
X115653481Y-132316278D01*
X115650495Y-132307483D01*
X115636133Y-132265173D01*
X115558652Y-132036923D01*
X115428172Y-131772336D01*
X115423129Y-131764789D01*
X115361588Y-131672686D01*
X115264273Y-131527043D01*
X115220991Y-131477690D01*
X115069758Y-131305241D01*
X114847955Y-131110725D01*
X114602667Y-130946829D01*
X114602660Y-130946825D01*
X114338080Y-130816349D01*
X114058730Y-130721521D01*
X114058724Y-130721519D01*
X114058722Y-130721519D01*
X113769380Y-130663966D01*
X113769373Y-130663965D01*
X113769363Y-130663964D01*
X113475007Y-130644671D01*
X113474993Y-130644671D01*
X113180636Y-130663964D01*
X113180624Y-130663965D01*
X113180620Y-130663966D01*
X113180612Y-130663967D01*
X113180609Y-130663968D01*
X112891283Y-130721518D01*
X112891269Y-130721521D01*
X112611919Y-130816349D01*
X112347334Y-130946828D01*
X112102041Y-131110728D01*
X111880241Y-131305241D01*
X111685728Y-131527041D01*
X111521828Y-131772334D01*
X111443907Y-131930344D01*
X111396602Y-131981763D01*
X111332695Y-131999500D01*
X103211303Y-131999500D01*
X103037341Y-132034103D01*
X103037333Y-132034105D01*
X102937401Y-132075499D01*
X102937400Y-132075499D01*
X102873457Y-132101984D01*
X102873456Y-132101985D01*
X102796066Y-132153696D01*
X102796065Y-132153696D01*
X102725969Y-132200532D01*
X102725961Y-132200538D01*
X100700533Y-134225966D01*
X100688332Y-134244229D01*
X100688331Y-134244231D01*
X100601988Y-134373450D01*
X100601987Y-134373452D01*
X100584142Y-134416535D01*
X100584142Y-134416536D01*
X100534105Y-134537333D01*
X100534103Y-134537341D01*
X100499500Y-134711303D01*
X100499500Y-138838696D01*
X100534103Y-139012659D01*
X100534104Y-139012663D01*
X100534105Y-139012666D01*
X100555369Y-139064000D01*
X100601983Y-139176541D01*
X100601991Y-139176555D01*
X100655423Y-139256519D01*
X100655424Y-139256521D01*
X100669115Y-139277011D01*
X100700536Y-139324036D01*
X100713180Y-139336680D01*
X100746665Y-139398000D01*
X100749500Y-139424362D01*
X100749500Y-139850001D01*
X100749501Y-139850019D01*
X100760000Y-139952796D01*
X100760001Y-139952799D01*
X100815185Y-140119331D01*
X100815187Y-140119336D01*
X100822594Y-140131344D01*
X100907288Y-140268656D01*
X101031344Y-140392712D01*
X101180666Y-140484814D01*
X101347203Y-140539999D01*
X101449991Y-140550500D01*
X102200008Y-140550499D01*
X102200016Y-140550498D01*
X102200019Y-140550498D01*
X102256302Y-140544748D01*
X102302797Y-140539999D01*
X102469334Y-140484814D01*
X102618656Y-140392712D01*
X102742712Y-140268656D01*
X102744461Y-140265819D01*
X102746169Y-140264283D01*
X102747193Y-140262989D01*
X102747414Y-140263163D01*
X102796406Y-140219096D01*
X102865368Y-140207872D01*
X102929451Y-140235713D01*
X102955537Y-140265817D01*
X102957288Y-140268656D01*
X103081344Y-140392712D01*
X103230666Y-140484814D01*
X103397203Y-140539999D01*
X103499991Y-140550500D01*
X104250008Y-140550499D01*
X104250016Y-140550498D01*
X104250019Y-140550498D01*
X104306302Y-140544748D01*
X104352797Y-140539999D01*
X104519334Y-140484814D01*
X104668656Y-140392712D01*
X104774550Y-140286818D01*
X104835873Y-140253334D01*
X104862231Y-140250500D01*
X104887769Y-140250500D01*
X104954808Y-140270185D01*
X104975450Y-140286818D01*
X105081344Y-140392712D01*
X105230666Y-140484814D01*
X105397203Y-140539999D01*
X105499991Y-140550500D01*
X106300008Y-140550499D01*
X106300016Y-140550498D01*
X106300019Y-140550498D01*
X106356302Y-140544748D01*
X106402797Y-140539999D01*
X106569334Y-140484814D01*
X106718656Y-140392712D01*
X106812319Y-140299049D01*
X106873642Y-140265564D01*
X106943334Y-140270548D01*
X106987681Y-140299049D01*
X107081344Y-140392712D01*
X107230666Y-140484814D01*
X107397203Y-140539999D01*
X107499991Y-140550500D01*
X108300008Y-140550499D01*
X108300016Y-140550498D01*
X108300019Y-140550498D01*
X108356302Y-140544748D01*
X108402797Y-140539999D01*
X108569334Y-140484814D01*
X108569340Y-140484809D01*
X108575681Y-140481854D01*
X108644758Y-140471363D01*
X108708542Y-140499884D01*
X108746469Y-140557346D01*
X108748797Y-140564815D01*
X108756522Y-140589606D01*
X108837045Y-140722807D01*
X108844530Y-140735188D01*
X108964811Y-140855469D01*
X108964813Y-140855470D01*
X108964815Y-140855472D01*
X109110394Y-140943478D01*
X109272804Y-140994086D01*
X109343384Y-141000500D01*
X109343387Y-141000500D01*
X109956613Y-141000500D01*
X109956616Y-141000500D01*
X110027196Y-140994086D01*
X110189606Y-140943478D01*
X110335185Y-140855472D01*
X110455472Y-140735185D01*
X110470607Y-140710147D01*
X110522132Y-140662962D01*
X110590991Y-140651122D01*
X110655320Y-140678389D01*
X110694695Y-140736107D01*
X110700215Y-140785510D01*
X110699500Y-140793385D01*
X110699500Y-141306613D01*
X110705913Y-141377192D01*
X110705913Y-141377194D01*
X110705914Y-141377196D01*
X110756522Y-141539606D01*
X110837384Y-141673368D01*
X110844530Y-141685188D01*
X110964811Y-141805469D01*
X110964813Y-141805470D01*
X110964815Y-141805472D01*
X111110394Y-141893478D01*
X111272804Y-141944086D01*
X111343384Y-141950500D01*
X111343387Y-141950500D01*
X111956613Y-141950500D01*
X111956616Y-141950500D01*
X112027196Y-141944086D01*
X112189606Y-141893478D01*
X112335185Y-141805472D01*
X112455472Y-141685185D01*
X112543478Y-141539606D01*
X112594086Y-141377196D01*
X112600500Y-141306616D01*
X112600500Y-140793384D01*
X112594086Y-140722804D01*
X112543478Y-140560394D01*
X112455472Y-140414815D01*
X112455470Y-140414813D01*
X112455469Y-140414811D01*
X112335188Y-140294530D01*
X112312258Y-140280668D01*
X112189606Y-140206522D01*
X112189605Y-140206521D01*
X112188451Y-140205824D01*
X112141263Y-140154296D01*
X112129425Y-140085436D01*
X112156694Y-140021108D01*
X112188451Y-139993590D01*
X112334877Y-139905072D01*
X112455072Y-139784877D01*
X112543019Y-139639395D01*
X112593590Y-139477106D01*
X112600000Y-139406572D01*
X112600000Y-139400000D01*
X110700001Y-139400000D01*
X110700001Y-139406581D01*
X110700808Y-139415470D01*
X110687266Y-139484015D01*
X110638815Y-139534357D01*
X110570839Y-139550513D01*
X110504919Y-139527353D01*
X110471199Y-139490831D01*
X110461624Y-139474992D01*
X110455472Y-139464815D01*
X110455471Y-139464814D01*
X110455468Y-139464810D01*
X110335188Y-139344530D01*
X110335185Y-139344528D01*
X110189606Y-139256522D01*
X110189604Y-139256521D01*
X110189602Y-139256520D01*
X110189603Y-139256520D01*
X110059596Y-139216009D01*
X110008805Y-139185305D01*
X109716928Y-138893427D01*
X110700000Y-138893427D01*
X110700000Y-138900000D01*
X111400000Y-138900000D01*
X111900000Y-138900000D01*
X112599999Y-138900000D01*
X112599999Y-138893417D01*
X112593591Y-138822897D01*
X112593590Y-138822892D01*
X112543018Y-138660603D01*
X112455072Y-138515122D01*
X112334877Y-138394927D01*
X112189395Y-138306980D01*
X112189396Y-138306980D01*
X112027105Y-138256409D01*
X112027106Y-138256409D01*
X111956572Y-138250000D01*
X111900000Y-138250000D01*
X111900000Y-138900000D01*
X111400000Y-138900000D01*
X111400000Y-138250000D01*
X111399999Y-138249999D01*
X111343418Y-138250000D01*
X111343417Y-138250001D01*
X111272897Y-138256408D01*
X111272892Y-138256409D01*
X111110603Y-138306981D01*
X110965122Y-138394927D01*
X110844927Y-138515122D01*
X110756980Y-138660604D01*
X110706409Y-138822893D01*
X110700000Y-138893427D01*
X109716928Y-138893427D01*
X109474039Y-138650538D01*
X109474038Y-138650537D01*
X109406854Y-138605647D01*
X109371919Y-138582304D01*
X109371917Y-138582303D01*
X109371917Y-138582302D01*
X109326544Y-138551985D01*
X109326542Y-138551984D01*
X109244607Y-138518046D01*
X109244606Y-138518046D01*
X109162666Y-138484105D01*
X109162658Y-138484103D01*
X108988696Y-138449500D01*
X108988692Y-138449500D01*
X108988691Y-138449500D01*
X108912231Y-138449500D01*
X108845192Y-138429815D01*
X108824550Y-138413182D01*
X108785368Y-138374000D01*
X108718656Y-138307288D01*
X108636166Y-138256408D01*
X108569336Y-138215187D01*
X108569331Y-138215185D01*
X108567862Y-138214698D01*
X108402797Y-138160001D01*
X108402795Y-138160000D01*
X108300010Y-138149500D01*
X107499998Y-138149500D01*
X107499980Y-138149501D01*
X107397203Y-138160000D01*
X107397200Y-138160001D01*
X107230668Y-138215185D01*
X107230663Y-138215187D01*
X107081342Y-138307289D01*
X106987681Y-138400951D01*
X106926358Y-138434436D01*
X106856666Y-138429452D01*
X106812319Y-138400951D01*
X106718657Y-138307289D01*
X106718656Y-138307288D01*
X106603240Y-138236099D01*
X106569336Y-138215187D01*
X106569331Y-138215185D01*
X106567862Y-138214698D01*
X106402797Y-138160001D01*
X106402795Y-138160000D01*
X106300010Y-138149500D01*
X105499998Y-138149500D01*
X105499980Y-138149501D01*
X105397203Y-138160000D01*
X105397200Y-138160001D01*
X105230668Y-138215185D01*
X105230663Y-138215187D01*
X105081345Y-138307287D01*
X104975450Y-138413182D01*
X104914127Y-138446666D01*
X104887769Y-138449500D01*
X104862231Y-138449500D01*
X104795192Y-138429815D01*
X104774550Y-138413182D01*
X104735368Y-138374000D01*
X104668656Y-138307288D01*
X104586166Y-138256408D01*
X104519336Y-138215187D01*
X104519331Y-138215185D01*
X104517862Y-138214698D01*
X104352797Y-138160001D01*
X104352795Y-138160000D01*
X104250010Y-138149500D01*
X103499998Y-138149500D01*
X103499980Y-138149501D01*
X103397203Y-138160000D01*
X103397200Y-138160001D01*
X103230668Y-138215185D01*
X103230663Y-138215187D01*
X103081342Y-138307289D01*
X102957285Y-138431346D01*
X102955537Y-138434182D01*
X102953829Y-138435717D01*
X102952807Y-138437011D01*
X102952585Y-138436836D01*
X102903589Y-138480905D01*
X102834626Y-138492126D01*
X102770544Y-138464282D01*
X102744463Y-138434182D01*
X102742714Y-138431346D01*
X102618657Y-138307289D01*
X102618656Y-138307288D01*
X102503240Y-138236099D01*
X102469336Y-138215187D01*
X102469331Y-138215185D01*
X102467082Y-138214439D01*
X102385495Y-138187404D01*
X102328051Y-138147632D01*
X102301228Y-138083116D01*
X102300500Y-138069699D01*
X102300500Y-136706761D01*
X102320185Y-136639722D01*
X102372989Y-136593967D01*
X102442147Y-136584023D01*
X102505703Y-136613048D01*
X102523454Y-136632035D01*
X102584017Y-136712234D01*
X102584019Y-136712237D01*
X102748437Y-136862123D01*
X102748439Y-136862125D01*
X102937595Y-136979245D01*
X102937596Y-136979245D01*
X102937599Y-136979247D01*
X103145060Y-137059618D01*
X103363757Y-137100500D01*
X103363759Y-137100500D01*
X103586241Y-137100500D01*
X103586243Y-137100500D01*
X103804940Y-137059618D01*
X104012401Y-136979247D01*
X104201562Y-136862124D01*
X104365981Y-136712236D01*
X104500058Y-136534689D01*
X104599229Y-136335528D01*
X104660115Y-136121536D01*
X104680643Y-135900000D01*
X104672303Y-135810001D01*
X104660115Y-135678464D01*
X104660114Y-135678462D01*
X104655462Y-135662113D01*
X104599229Y-135464472D01*
X104593416Y-135452797D01*
X104500061Y-135265316D01*
X104500056Y-135265308D01*
X104365979Y-135087761D01*
X104201562Y-134937876D01*
X104201560Y-134937874D01*
X104012404Y-134820754D01*
X104012398Y-134820752D01*
X103804940Y-134740382D01*
X103586243Y-134699500D01*
X103363757Y-134699500D01*
X103145060Y-134740382D01*
X103145057Y-134740382D01*
X103145057Y-134740383D01*
X103020735Y-134788545D01*
X102951111Y-134794406D01*
X102889372Y-134761696D01*
X102855117Y-134700799D01*
X102859224Y-134631051D01*
X102888259Y-134585239D01*
X103636680Y-133836819D01*
X103698003Y-133803334D01*
X103724361Y-133800500D01*
X111332695Y-133800500D01*
X111399734Y-133820185D01*
X111443906Y-133869655D01*
X111454621Y-133891382D01*
X111521825Y-134027660D01*
X111521829Y-134027667D01*
X111685725Y-134272955D01*
X111880241Y-134494758D01*
X112102044Y-134689274D01*
X112298818Y-134820754D01*
X112347335Y-134853172D01*
X112611923Y-134983652D01*
X112891278Y-135078481D01*
X113180620Y-135136034D01*
X113208888Y-135137886D01*
X113474993Y-135155329D01*
X113475000Y-135155329D01*
X113475007Y-135155329D01*
X113727271Y-135138794D01*
X113769380Y-135136034D01*
X114058722Y-135078481D01*
X114338077Y-134983652D01*
X114602665Y-134853172D01*
X114847957Y-134689273D01*
X115069758Y-134494758D01*
X115130723Y-134425240D01*
X115189725Y-134387817D01*
X115223951Y-134383000D01*
X116075501Y-134383000D01*
X116142540Y-134402685D01*
X116188295Y-134455489D01*
X116199501Y-134507000D01*
X116199501Y-134657518D01*
X116210000Y-134760296D01*
X116210001Y-134760299D01*
X116265185Y-134926831D01*
X116265187Y-134926836D01*
X116267447Y-134930500D01*
X116357288Y-135076156D01*
X116481344Y-135200212D01*
X116630666Y-135292314D01*
X116797203Y-135347499D01*
X116899991Y-135358000D01*
X118300008Y-135357999D01*
X118402797Y-135347499D01*
X118569334Y-135292314D01*
X118718656Y-135200212D01*
X118842712Y-135076156D01*
X118934814Y-134926834D01*
X118989999Y-134760297D01*
X119000500Y-134657509D01*
X119000499Y-132974360D01*
X119020184Y-132907322D01*
X119036814Y-132886684D01*
X119661220Y-132262277D01*
X119722541Y-132228794D01*
X119787901Y-132232253D01*
X119887247Y-132265174D01*
X119988323Y-132275500D01*
X120861676Y-132275499D01*
X120962753Y-132265174D01*
X121126516Y-132210908D01*
X121273350Y-132120340D01*
X121395340Y-131998350D01*
X121485908Y-131851516D01*
X121540174Y-131687753D01*
X121550500Y-131586677D01*
X121550499Y-131013324D01*
X121543706Y-130946828D01*
X121540174Y-130912247D01*
X121485908Y-130748484D01*
X121395340Y-130601650D01*
X121273350Y-130479660D01*
X121153178Y-130405537D01*
X121106456Y-130353591D01*
X121095233Y-130284628D01*
X121123077Y-130220546D01*
X121153177Y-130194462D01*
X121273350Y-130120340D01*
X121395340Y-129998350D01*
X121485908Y-129851516D01*
X121540174Y-129687753D01*
X121550500Y-129586677D01*
X121550499Y-129013345D01*
X124050000Y-129013345D01*
X124050000Y-129586639D01*
X124050001Y-129586655D01*
X124060319Y-129687652D01*
X124114548Y-129851306D01*
X124173906Y-129947538D01*
X124173908Y-129947538D01*
X124821447Y-129300000D01*
X124821447Y-129299999D01*
X125528553Y-129299999D01*
X125528553Y-129300000D01*
X126176091Y-129947539D01*
X126176091Y-129947538D01*
X126235452Y-129851302D01*
X126289680Y-129687652D01*
X126299999Y-129586654D01*
X126299999Y-129013360D01*
X126299998Y-129013344D01*
X126289680Y-128912347D01*
X126235451Y-128748693D01*
X126176092Y-128652460D01*
X126176091Y-128652459D01*
X125528553Y-129299999D01*
X124821447Y-129299999D01*
X124173908Y-128652460D01*
X124173906Y-128652460D01*
X124114551Y-128748688D01*
X124114546Y-128748699D01*
X124060319Y-128912347D01*
X124050000Y-129013345D01*
X121550499Y-129013345D01*
X121550499Y-129013324D01*
X121540174Y-128912247D01*
X121485908Y-128748484D01*
X121395340Y-128601650D01*
X121273350Y-128479660D01*
X121143390Y-128399500D01*
X121126518Y-128389093D01*
X121126513Y-128389091D01*
X121098520Y-128379815D01*
X121019427Y-128353606D01*
X124582159Y-128353606D01*
X125175000Y-128946447D01*
X125175001Y-128946447D01*
X125767840Y-128353605D01*
X125712652Y-128335319D01*
X125611647Y-128325000D01*
X124738360Y-128325000D01*
X124738344Y-128325001D01*
X124637349Y-128335319D01*
X124582159Y-128353606D01*
X121019427Y-128353606D01*
X120962753Y-128334826D01*
X120962751Y-128334825D01*
X120861678Y-128324500D01*
X119988330Y-128324500D01*
X119988313Y-128324501D01*
X119887247Y-128334825D01*
X119887244Y-128334826D01*
X119716628Y-128391364D01*
X119716199Y-128390071D01*
X119673674Y-128399500D01*
X119124499Y-128399500D01*
X119057460Y-128379815D01*
X119011705Y-128327011D01*
X119000499Y-128275500D01*
X119000499Y-127807498D01*
X119000498Y-127807481D01*
X118989999Y-127704703D01*
X118989998Y-127704700D01*
X118986235Y-127693343D01*
X118934814Y-127538166D01*
X118914296Y-127504901D01*
X118852255Y-127404315D01*
X118833815Y-127336923D01*
X118840753Y-127298264D01*
X118848898Y-127274986D01*
X120025001Y-127274986D01*
X120035494Y-127377697D01*
X120090641Y-127544119D01*
X120090643Y-127544124D01*
X120182684Y-127693345D01*
X120306654Y-127817315D01*
X120455875Y-127909356D01*
X120455880Y-127909358D01*
X120622302Y-127964505D01*
X120622309Y-127964506D01*
X120725019Y-127974999D01*
X120999999Y-127974999D01*
X121000000Y-127974998D01*
X121000000Y-127137500D01*
X120025001Y-127137500D01*
X120025001Y-127274986D01*
X118848898Y-127274986D01*
X118886313Y-127168061D01*
X118886313Y-127168059D01*
X118905249Y-127000000D01*
X118905249Y-126999996D01*
X118887040Y-126838383D01*
X118899095Y-126769561D01*
X118946444Y-126718182D01*
X119010260Y-126700500D01*
X119665686Y-126700500D01*
X119665694Y-126700500D01*
X119702569Y-126697598D01*
X119702571Y-126697597D01*
X119702573Y-126697597D01*
X119755218Y-126682302D01*
X119860398Y-126651744D01*
X119889991Y-126634242D01*
X119957714Y-126617059D01*
X120018839Y-126637500D01*
X121376000Y-126637500D01*
X121443039Y-126657185D01*
X121488794Y-126709989D01*
X121500000Y-126761500D01*
X121500000Y-127974999D01*
X121774972Y-127974999D01*
X121774986Y-127974998D01*
X121877697Y-127964505D01*
X122044119Y-127909358D01*
X122044126Y-127909355D01*
X122148615Y-127844905D01*
X122216008Y-127826464D01*
X122282671Y-127847386D01*
X122301394Y-127862762D01*
X122331344Y-127892712D01*
X122480666Y-127984814D01*
X122647203Y-128039999D01*
X122749991Y-128050500D01*
X123550008Y-128050499D01*
X123550016Y-128050498D01*
X123550019Y-128050498D01*
X123606302Y-128044748D01*
X123652797Y-128039999D01*
X123819334Y-127984814D01*
X123968656Y-127892712D01*
X124062319Y-127799049D01*
X124123642Y-127765564D01*
X124193334Y-127770548D01*
X124237681Y-127799049D01*
X124331344Y-127892712D01*
X124480666Y-127984814D01*
X124647203Y-128039999D01*
X124749991Y-128050500D01*
X125550008Y-128050499D01*
X125550016Y-128050498D01*
X125550019Y-128050498D01*
X125606302Y-128044748D01*
X125652797Y-128039999D01*
X125819334Y-127984814D01*
X125968656Y-127892712D01*
X125997549Y-127863819D01*
X126058872Y-127830334D01*
X126085230Y-127827500D01*
X126775501Y-127827500D01*
X126842540Y-127847185D01*
X126888295Y-127899989D01*
X126899501Y-127951500D01*
X126899501Y-128047876D01*
X126905908Y-128107483D01*
X126956202Y-128242328D01*
X126956206Y-128242335D01*
X127042452Y-128357544D01*
X127042455Y-128357547D01*
X127157664Y-128443793D01*
X127157671Y-128443797D01*
X127292517Y-128494091D01*
X127292516Y-128494091D01*
X127299444Y-128494835D01*
X127352127Y-128500500D01*
X131447872Y-128500499D01*
X131507483Y-128494091D01*
X131642331Y-128443796D01*
X131757546Y-128357546D01*
X131843796Y-128242331D01*
X131866609Y-128181167D01*
X131908480Y-128125233D01*
X131973944Y-128100816D01*
X131982791Y-128100500D01*
X132105013Y-128100500D01*
X132172052Y-128120185D01*
X132217807Y-128172989D01*
X132228371Y-128237104D01*
X132224500Y-128274986D01*
X132224500Y-129325001D01*
X132224501Y-129325019D01*
X132235000Y-129427796D01*
X132235001Y-129427799D01*
X132287636Y-129586639D01*
X132290186Y-129594334D01*
X132382288Y-129743656D01*
X132382290Y-129743658D01*
X132385266Y-129747422D01*
X132411407Y-129812217D01*
X132412000Y-129824333D01*
X132412000Y-129825666D01*
X132392315Y-129892705D01*
X132385270Y-129902572D01*
X132382291Y-129906339D01*
X132290187Y-130055663D01*
X132290185Y-130055668D01*
X132268756Y-130120338D01*
X132235001Y-130222203D01*
X132235001Y-130222204D01*
X132235000Y-130222204D01*
X132224500Y-130324983D01*
X132224500Y-131375001D01*
X132224501Y-131375019D01*
X132235000Y-131477796D01*
X132235001Y-131477799D01*
X132277815Y-131607000D01*
X132290186Y-131644334D01*
X132382288Y-131793656D01*
X132382290Y-131793658D01*
X132385266Y-131797422D01*
X132411407Y-131862217D01*
X132412000Y-131874333D01*
X132412000Y-131875666D01*
X132392315Y-131942705D01*
X132385270Y-131952572D01*
X132382291Y-131956339D01*
X132290187Y-132105663D01*
X132290185Y-132105668D01*
X132274952Y-132151638D01*
X132235001Y-132272203D01*
X132235001Y-132272204D01*
X132235000Y-132272204D01*
X132224500Y-132374983D01*
X132224500Y-133135965D01*
X132204815Y-133203004D01*
X132152011Y-133248759D01*
X132082853Y-133258703D01*
X132053047Y-133250526D01*
X131999999Y-133228552D01*
X131336207Y-133892344D01*
X131274884Y-133925829D01*
X131205192Y-133920845D01*
X131149259Y-133878973D01*
X131124842Y-133813509D01*
X131125124Y-133792498D01*
X131125498Y-133788698D01*
X131125500Y-133788691D01*
X131125500Y-133447308D01*
X131145185Y-133380269D01*
X131161819Y-133359627D01*
X131856681Y-132664765D01*
X131856681Y-132664764D01*
X131749081Y-132557164D01*
X131749077Y-132557161D01*
X131607241Y-132471417D01*
X131560054Y-132419889D01*
X131548216Y-132351030D01*
X131575485Y-132286701D01*
X131628059Y-132249118D01*
X131642331Y-132243796D01*
X131757546Y-132157546D01*
X131843796Y-132042331D01*
X131894091Y-131907483D01*
X131900500Y-131847873D01*
X131900499Y-130152128D01*
X131894229Y-130093797D01*
X131894091Y-130092516D01*
X131843797Y-129957671D01*
X131843793Y-129957664D01*
X131757547Y-129842455D01*
X131757544Y-129842452D01*
X131642335Y-129756206D01*
X131642328Y-129756202D01*
X131507482Y-129705908D01*
X131507483Y-129705908D01*
X131447883Y-129699501D01*
X131447881Y-129699500D01*
X131447873Y-129699500D01*
X131447864Y-129699500D01*
X127352129Y-129699500D01*
X127352123Y-129699501D01*
X127292516Y-129705908D01*
X127157671Y-129756202D01*
X127157664Y-129756206D01*
X127042455Y-129842452D01*
X127042452Y-129842455D01*
X126956206Y-129957664D01*
X126956202Y-129957671D01*
X126905908Y-130092517D01*
X126900364Y-130144091D01*
X126899501Y-130152123D01*
X126899500Y-130152135D01*
X126899500Y-131847870D01*
X126899501Y-131847876D01*
X126905908Y-131907483D01*
X126956202Y-132042328D01*
X126956206Y-132042335D01*
X127042452Y-132157544D01*
X127042455Y-132157547D01*
X127157664Y-132243793D01*
X127157671Y-132243797D01*
X127292517Y-132294091D01*
X127292516Y-132294091D01*
X127299444Y-132294835D01*
X127352127Y-132300500D01*
X128679717Y-132300499D01*
X128746755Y-132320184D01*
X128792510Y-132372987D01*
X128802454Y-132442146D01*
X128773429Y-132505702D01*
X128743867Y-132530615D01*
X128700611Y-132556764D01*
X128700607Y-132556767D01*
X128586766Y-132670608D01*
X128503467Y-132808401D01*
X128488981Y-132854890D01*
X128450244Y-132913038D01*
X128386218Y-132941012D01*
X128370596Y-132942000D01*
X128349333Y-132942000D01*
X128282294Y-132922315D01*
X128272422Y-132915266D01*
X128268658Y-132912290D01*
X128268656Y-132912288D01*
X128119334Y-132820186D01*
X127952797Y-132765001D01*
X127952795Y-132765000D01*
X127850010Y-132754500D01*
X126799998Y-132754500D01*
X126799980Y-132754501D01*
X126697203Y-132765000D01*
X126697200Y-132765001D01*
X126530668Y-132820185D01*
X126530663Y-132820187D01*
X126381341Y-132912290D01*
X126377578Y-132915266D01*
X126312783Y-132941407D01*
X126300667Y-132942000D01*
X126249333Y-132942000D01*
X126182294Y-132922315D01*
X126172422Y-132915266D01*
X126168652Y-132912285D01*
X126134401Y-132891158D01*
X126087678Y-132839210D01*
X126075500Y-132785621D01*
X126075500Y-132119552D01*
X126095185Y-132052513D01*
X126111819Y-132031871D01*
X126145340Y-131998350D01*
X126235908Y-131851516D01*
X126290174Y-131687753D01*
X126300500Y-131586677D01*
X126300499Y-131013324D01*
X126293706Y-130946828D01*
X126290174Y-130912247D01*
X126235908Y-130748484D01*
X126145340Y-130601650D01*
X126023350Y-130479660D01*
X125876516Y-130389092D01*
X125876510Y-130389090D01*
X125852251Y-130381051D01*
X125794807Y-130341278D01*
X125767985Y-130276762D01*
X125769756Y-130248308D01*
X125175001Y-129653553D01*
X125175000Y-129653553D01*
X124578594Y-130249957D01*
X124575706Y-130304521D01*
X124534878Y-130361220D01*
X124497749Y-130381051D01*
X124473488Y-130389090D01*
X124473481Y-130389093D01*
X124326648Y-130479661D01*
X124204661Y-130601648D01*
X124114093Y-130748481D01*
X124114092Y-130748484D01*
X124059826Y-130912247D01*
X124059826Y-130912248D01*
X124059825Y-130912248D01*
X124049500Y-131013315D01*
X124049500Y-131586669D01*
X124049501Y-131586687D01*
X124059825Y-131687752D01*
X124087854Y-131772336D01*
X124114092Y-131851516D01*
X124178750Y-131956344D01*
X124204661Y-131998351D01*
X124238181Y-132031871D01*
X124271666Y-132093194D01*
X124274500Y-132119552D01*
X124274500Y-132818000D01*
X124254815Y-132885039D01*
X124202011Y-132930794D01*
X124150500Y-132942000D01*
X124149333Y-132942000D01*
X124082294Y-132922315D01*
X124072422Y-132915266D01*
X124068658Y-132912290D01*
X124068656Y-132912288D01*
X123919334Y-132820186D01*
X123752797Y-132765001D01*
X123752795Y-132765000D01*
X123650010Y-132754500D01*
X122599998Y-132754500D01*
X122599980Y-132754501D01*
X122497203Y-132765000D01*
X122497200Y-132765001D01*
X122330668Y-132820185D01*
X122330663Y-132820187D01*
X122181341Y-132912290D01*
X122175681Y-132916766D01*
X122173745Y-132914318D01*
X122124197Y-132940920D01*
X122122890Y-132941187D01*
X121944841Y-132976603D01*
X121944833Y-132976605D01*
X121845633Y-133017696D01*
X121845632Y-133017696D01*
X121780957Y-133044484D01*
X121780955Y-133044485D01*
X121708296Y-133093035D01*
X121633461Y-133143037D01*
X121633458Y-133143040D01*
X120488037Y-134288462D01*
X120488033Y-134288466D01*
X120479436Y-134301335D01*
X120479435Y-134301337D01*
X120389485Y-134435955D01*
X120355546Y-134517893D01*
X120321606Y-134599829D01*
X120321603Y-134599841D01*
X120288752Y-134764993D01*
X120288753Y-134764994D01*
X120287000Y-134773808D01*
X120287000Y-137625666D01*
X120267315Y-137692705D01*
X120260270Y-137702572D01*
X120257285Y-137706346D01*
X120255241Y-137709661D01*
X120253247Y-137711453D01*
X120252811Y-137712006D01*
X120252716Y-137711931D01*
X120203291Y-137756383D01*
X120134328Y-137767602D01*
X120070247Y-137739755D01*
X120044168Y-137709656D01*
X120042319Y-137706659D01*
X120042316Y-137706655D01*
X119918345Y-137582684D01*
X119769124Y-137490643D01*
X119769119Y-137490641D01*
X119602697Y-137435494D01*
X119602690Y-137435493D01*
X119499986Y-137425000D01*
X119362500Y-137425000D01*
X119362500Y-140826000D01*
X119342815Y-140893039D01*
X119290011Y-140938794D01*
X119238500Y-140950000D01*
X118986500Y-140950000D01*
X118919461Y-140930315D01*
X118873706Y-140877511D01*
X118862500Y-140826000D01*
X118862500Y-137425000D01*
X118725027Y-137425000D01*
X118725012Y-137425001D01*
X118622302Y-137435494D01*
X118455880Y-137490641D01*
X118455875Y-137490643D01*
X118306654Y-137582684D01*
X118182682Y-137706656D01*
X118162828Y-137738845D01*
X118110879Y-137785569D01*
X118041916Y-137796790D01*
X117992195Y-137779286D01*
X117969334Y-137765186D01*
X117802797Y-137710001D01*
X117802795Y-137710000D01*
X117700010Y-137699500D01*
X116699998Y-137699500D01*
X116699980Y-137699501D01*
X116597203Y-137710000D01*
X116597200Y-137710001D01*
X116430668Y-137765185D01*
X116430663Y-137765187D01*
X116281342Y-137857289D01*
X116157289Y-137981342D01*
X116065187Y-138130663D01*
X116065185Y-138130668D01*
X116037349Y-138214670D01*
X116010001Y-138297203D01*
X116010001Y-138297204D01*
X116010000Y-138297204D01*
X115999500Y-138399983D01*
X115999500Y-139200001D01*
X115999501Y-139200019D01*
X116010000Y-139302796D01*
X116010001Y-139302799D01*
X116058236Y-139448360D01*
X116065186Y-139469334D01*
X116154918Y-139614814D01*
X116157289Y-139618657D01*
X116250951Y-139712319D01*
X116284436Y-139773642D01*
X116279452Y-139843334D01*
X116250951Y-139887681D01*
X116157289Y-139981342D01*
X116065187Y-140130663D01*
X116065185Y-140130668D01*
X116043829Y-140195118D01*
X116010001Y-140297203D01*
X116010001Y-140297204D01*
X116010000Y-140297204D01*
X115999500Y-140399983D01*
X115999500Y-141200001D01*
X115999501Y-141200019D01*
X116010000Y-141302796D01*
X116010001Y-141302799D01*
X116011265Y-141306613D01*
X116065186Y-141469334D01*
X116157288Y-141618656D01*
X116281344Y-141742712D01*
X116430666Y-141834814D01*
X116597203Y-141889999D01*
X116699991Y-141900500D01*
X116751519Y-141900499D01*
X116818558Y-141920182D01*
X116839201Y-141936818D01*
X116860761Y-141958378D01*
X116860767Y-141958383D01*
X117113181Y-142210797D01*
X117146666Y-142272120D01*
X117149500Y-142298478D01*
X117149500Y-144750001D01*
X117149501Y-144750018D01*
X117160000Y-144852796D01*
X117160001Y-144852799D01*
X117207882Y-144997293D01*
X117215186Y-145019334D01*
X117307288Y-145168656D01*
X117431344Y-145292712D01*
X117580666Y-145384814D01*
X117747203Y-145439999D01*
X117849991Y-145450500D01*
X119050008Y-145450499D01*
X119152797Y-145439999D01*
X119319334Y-145384814D01*
X119468656Y-145292712D01*
X119592712Y-145168656D01*
X119684814Y-145019334D01*
X119739999Y-144852797D01*
X119750500Y-144750009D01*
X119750500Y-144724500D01*
X119770185Y-144657461D01*
X119822989Y-144611706D01*
X119874500Y-144600500D01*
X119888693Y-144600500D01*
X119888694Y-144600499D01*
X120062666Y-144565895D01*
X120153200Y-144528394D01*
X120226547Y-144498013D01*
X120270753Y-144468474D01*
X120314955Y-144438939D01*
X120314955Y-144438938D01*
X120314959Y-144438936D01*
X120374036Y-144399464D01*
X121886963Y-142886536D01*
X121886964Y-142886535D01*
X121985513Y-142739047D01*
X122053394Y-142575166D01*
X122058395Y-142550028D01*
X122076464Y-142459182D01*
X122088000Y-142401191D01*
X122088000Y-142108926D01*
X122107685Y-142041887D01*
X122160489Y-141996132D01*
X122229647Y-141986188D01*
X122293203Y-142015213D01*
X122308638Y-142031229D01*
X122402278Y-142147722D01*
X122402280Y-142147724D01*
X122550704Y-142267030D01*
X122550707Y-142267032D01*
X122721302Y-142351639D01*
X122721303Y-142351639D01*
X122721307Y-142351641D01*
X122906111Y-142397600D01*
X122948877Y-142400500D01*
X123851122Y-142400499D01*
X123893889Y-142397600D01*
X124078693Y-142351641D01*
X124249296Y-142267030D01*
X124397722Y-142147722D01*
X124453353Y-142078514D01*
X124510696Y-142038595D01*
X124580518Y-142036015D01*
X124640651Y-142071594D01*
X124646647Y-142078514D01*
X124702278Y-142147722D01*
X124753187Y-142188643D01*
X124793106Y-142245985D01*
X124799500Y-142285290D01*
X124799500Y-145575500D01*
X124779815Y-145642539D01*
X124727011Y-145688294D01*
X124675500Y-145699500D01*
X124241971Y-145699500D01*
X124241965Y-145699500D01*
X124241964Y-145699501D01*
X124230316Y-145700536D01*
X124122584Y-145710113D01*
X123926954Y-145766089D01*
X123886312Y-145787319D01*
X123746593Y-145860302D01*
X123746591Y-145860303D01*
X123746590Y-145860304D01*
X123588890Y-145988890D01*
X123460304Y-146146590D01*
X123366089Y-146326954D01*
X123310114Y-146522583D01*
X123310113Y-146522586D01*
X123303578Y-146596100D01*
X123300615Y-146629429D01*
X123299500Y-146641966D01*
X123299500Y-147758028D01*
X123299501Y-147758034D01*
X123310113Y-147877415D01*
X123366089Y-148073045D01*
X123366090Y-148073048D01*
X123366091Y-148073049D01*
X123460302Y-148253407D01*
X123460304Y-148253409D01*
X123588890Y-148411109D01*
X123682803Y-148487684D01*
X123746593Y-148539698D01*
X123926951Y-148633909D01*
X124122582Y-148689886D01*
X124241963Y-148700500D01*
X127158036Y-148700499D01*
X127277418Y-148689886D01*
X127473049Y-148633909D01*
X127653407Y-148539698D01*
X127811109Y-148411109D01*
X127939698Y-148253407D01*
X127977695Y-148180666D01*
X127984788Y-148167088D01*
X128033275Y-148116781D01*
X128094696Y-148100500D01*
X131688693Y-148100500D01*
X131688694Y-148100499D01*
X131862666Y-148065895D01*
X131946078Y-148031344D01*
X132026547Y-147998013D01*
X132114959Y-147938936D01*
X132174036Y-147899464D01*
X133186681Y-146886817D01*
X133248004Y-146853333D01*
X133274362Y-146850499D01*
X133625637Y-146850499D01*
X133692676Y-146870184D01*
X133713318Y-146886818D01*
X136350964Y-149524464D01*
X136355679Y-149528334D01*
X136354268Y-149530052D01*
X136392676Y-149576011D01*
X136401383Y-149645336D01*
X136371228Y-149708363D01*
X136311785Y-149745082D01*
X136278980Y-149749500D01*
X119702754Y-149749500D01*
X119635715Y-149729815D01*
X119589960Y-149677011D01*
X119580016Y-149607853D01*
X119597215Y-149560403D01*
X119684356Y-149419124D01*
X119684358Y-149419119D01*
X119739505Y-149252697D01*
X119739506Y-149252690D01*
X119749999Y-149149986D01*
X119750000Y-149149973D01*
X119750000Y-148100000D01*
X117150001Y-148100000D01*
X117150001Y-149149986D01*
X117160494Y-149252697D01*
X117215641Y-149419119D01*
X117215643Y-149419124D01*
X117302785Y-149560403D01*
X117321225Y-149627796D01*
X117300302Y-149694459D01*
X117246660Y-149739229D01*
X117197246Y-149749500D01*
X105002706Y-149749500D01*
X104997297Y-149749382D01*
X104591460Y-149731663D01*
X104580685Y-149730720D01*
X104278187Y-149690895D01*
X104180629Y-149678051D01*
X104169977Y-149676173D01*
X103861802Y-149607853D01*
X103776022Y-149588836D01*
X103765579Y-149586038D01*
X103380733Y-149464696D01*
X103370570Y-149460997D01*
X102997773Y-149306579D01*
X102987969Y-149302007D01*
X102630057Y-149115690D01*
X102620689Y-149110282D01*
X102280361Y-148893469D01*
X102271500Y-148887264D01*
X101951372Y-148641621D01*
X101943085Y-148634667D01*
X101645587Y-148362061D01*
X101637938Y-148354412D01*
X101365332Y-148056914D01*
X101358378Y-148048627D01*
X101112735Y-147728499D01*
X101106530Y-147719638D01*
X100889717Y-147379310D01*
X100884309Y-147369942D01*
X100807680Y-147222738D01*
X100697989Y-147012024D01*
X100693420Y-147002226D01*
X100655314Y-146910230D01*
X100538996Y-146629414D01*
X100535307Y-146619279D01*
X100413956Y-146234405D01*
X100411167Y-146223993D01*
X100334620Y-145878711D01*
X102149500Y-145878711D01*
X102149500Y-146121288D01*
X102181161Y-146361785D01*
X102243947Y-146596104D01*
X102298924Y-146728830D01*
X102336776Y-146820212D01*
X102458064Y-147030289D01*
X102458066Y-147030292D01*
X102458067Y-147030293D01*
X102605733Y-147222736D01*
X102605739Y-147222743D01*
X102777256Y-147394260D01*
X102777263Y-147394266D01*
X102809935Y-147419336D01*
X102969711Y-147541936D01*
X103179788Y-147663224D01*
X103403900Y-147756054D01*
X103638211Y-147818838D01*
X103818586Y-147842584D01*
X103878711Y-147850500D01*
X103878712Y-147850500D01*
X104121289Y-147850500D01*
X104169388Y-147844167D01*
X104361789Y-147818838D01*
X104596100Y-147756054D01*
X104820212Y-147663224D01*
X105030289Y-147541936D01*
X105222738Y-147394265D01*
X105394265Y-147222738D01*
X105541936Y-147030289D01*
X105663224Y-146820212D01*
X105756054Y-146596100D01*
X105768403Y-146550013D01*
X117150000Y-146550013D01*
X117150000Y-147600000D01*
X118200000Y-147600000D01*
X118700000Y-147600000D01*
X119749999Y-147600000D01*
X119749999Y-146550028D01*
X119749998Y-146550013D01*
X119739505Y-146447302D01*
X119684358Y-146280880D01*
X119684356Y-146280875D01*
X119592315Y-146131654D01*
X119468345Y-146007684D01*
X119319124Y-145915643D01*
X119319119Y-145915641D01*
X119152697Y-145860494D01*
X119152690Y-145860493D01*
X119049986Y-145850000D01*
X118700000Y-145850000D01*
X118700000Y-147600000D01*
X118200000Y-147600000D01*
X118200000Y-145850000D01*
X117850028Y-145850000D01*
X117850012Y-145850001D01*
X117747302Y-145860494D01*
X117580880Y-145915641D01*
X117580875Y-145915643D01*
X117431654Y-146007684D01*
X117307684Y-146131654D01*
X117215643Y-146280875D01*
X117215641Y-146280880D01*
X117160494Y-146447302D01*
X117160493Y-146447309D01*
X117150000Y-146550013D01*
X105768403Y-146550013D01*
X105818838Y-146361789D01*
X105850500Y-146121288D01*
X105850500Y-145878712D01*
X105848101Y-145860493D01*
X105826907Y-145699501D01*
X105818838Y-145638211D01*
X105756054Y-145403900D01*
X105663224Y-145179788D01*
X105541936Y-144969711D01*
X105458611Y-144861119D01*
X105394266Y-144777263D01*
X105394260Y-144777256D01*
X105222743Y-144605739D01*
X105222736Y-144605733D01*
X105030293Y-144458067D01*
X105030292Y-144458066D01*
X105030289Y-144458064D01*
X104820212Y-144336776D01*
X104789460Y-144324038D01*
X104596104Y-144243947D01*
X104361785Y-144181161D01*
X104121289Y-144149500D01*
X104121288Y-144149500D01*
X103878712Y-144149500D01*
X103878711Y-144149500D01*
X103638214Y-144181161D01*
X103403895Y-144243947D01*
X103179794Y-144336773D01*
X103179785Y-144336777D01*
X102969706Y-144458067D01*
X102777263Y-144605733D01*
X102777256Y-144605739D01*
X102605739Y-144777256D01*
X102605733Y-144777263D01*
X102458067Y-144969706D01*
X102336777Y-145179785D01*
X102336773Y-145179794D01*
X102243947Y-145403895D01*
X102181161Y-145638214D01*
X102149500Y-145878711D01*
X100334620Y-145878711D01*
X100323823Y-145830010D01*
X100321950Y-145819386D01*
X100269277Y-145419293D01*
X100268337Y-145408558D01*
X100250618Y-145002701D01*
X100250500Y-144997293D01*
X100250500Y-124899999D01*
X102269357Y-124899999D01*
X102269357Y-124900000D01*
X102289884Y-125121535D01*
X102289885Y-125121537D01*
X102350769Y-125335523D01*
X102350775Y-125335538D01*
X102449938Y-125534683D01*
X102449943Y-125534691D01*
X102584020Y-125712238D01*
X102748434Y-125862121D01*
X102748439Y-125862125D01*
X102937595Y-125979245D01*
X102937596Y-125979245D01*
X102937599Y-125979247D01*
X103145060Y-126059618D01*
X103363757Y-126100500D01*
X103363759Y-126100500D01*
X103586241Y-126100500D01*
X103586243Y-126100500D01*
X103804940Y-126059618D01*
X104012401Y-125979247D01*
X104201562Y-125862124D01*
X104201563Y-125862122D01*
X104201566Y-125862121D01*
X104365979Y-125712238D01*
X104370535Y-125706206D01*
X104500058Y-125534689D01*
X104599229Y-125335528D01*
X104660115Y-125121536D01*
X104680643Y-124900000D01*
X104660115Y-124678464D01*
X104599229Y-124464472D01*
X104590363Y-124446666D01*
X104500061Y-124265316D01*
X104500056Y-124265308D01*
X104365979Y-124087761D01*
X104201562Y-123937876D01*
X104201560Y-123937874D01*
X104012404Y-123820754D01*
X104012398Y-123820752D01*
X103977646Y-123807289D01*
X103804940Y-123740382D01*
X103586243Y-123699500D01*
X103363757Y-123699500D01*
X103145060Y-123740382D01*
X103036385Y-123782483D01*
X102937601Y-123820752D01*
X102937595Y-123820754D01*
X102748439Y-123937874D01*
X102748437Y-123937876D01*
X102584020Y-124087761D01*
X102449943Y-124265308D01*
X102449938Y-124265316D01*
X102350775Y-124464461D01*
X102350769Y-124464476D01*
X102289885Y-124678462D01*
X102289884Y-124678464D01*
X102269357Y-124899999D01*
X100250500Y-124899999D01*
X100250500Y-118783593D01*
X100270185Y-118716554D01*
X100322989Y-118670799D01*
X100392147Y-118660855D01*
X100439597Y-118678055D01*
X100530869Y-118734353D01*
X100530880Y-118734358D01*
X100697302Y-118789505D01*
X100697309Y-118789506D01*
X100800019Y-118799999D01*
X101699999Y-118799999D01*
X102200000Y-118799999D01*
X103099972Y-118799999D01*
X103099986Y-118799998D01*
X103202697Y-118789505D01*
X103369119Y-118734358D01*
X103369124Y-118734356D01*
X103518345Y-118642315D01*
X103642315Y-118518345D01*
X103734356Y-118369124D01*
X103734358Y-118369119D01*
X103789505Y-118202697D01*
X103789506Y-118202690D01*
X103799999Y-118099986D01*
X103800000Y-118099973D01*
X103800000Y-118050000D01*
X102200000Y-118050000D01*
X102200000Y-118799999D01*
X101699999Y-118799999D01*
X101700000Y-118799998D01*
X101700000Y-117550000D01*
X102200000Y-117550000D01*
X103799999Y-117550000D01*
X103799999Y-117500028D01*
X103799998Y-117500013D01*
X103789505Y-117397302D01*
X103734358Y-117230880D01*
X103734356Y-117230875D01*
X103642315Y-117081654D01*
X103518345Y-116957684D01*
X103369124Y-116865643D01*
X103369119Y-116865641D01*
X103202697Y-116810494D01*
X103202690Y-116810493D01*
X103099986Y-116800000D01*
X102200000Y-116800000D01*
X102200000Y-117550000D01*
X101700000Y-117550000D01*
X101700000Y-116800000D01*
X100800028Y-116800000D01*
X100800012Y-116800001D01*
X100697302Y-116810494D01*
X100530880Y-116865641D01*
X100530875Y-116865643D01*
X100439597Y-116921945D01*
X100372204Y-116940385D01*
X100305541Y-116919462D01*
X100260771Y-116865820D01*
X100250500Y-116816406D01*
X100250500Y-116200001D01*
X103802704Y-116200001D01*
X103802899Y-116202486D01*
X103848718Y-116360198D01*
X103932314Y-116501552D01*
X103932321Y-116501561D01*
X104048438Y-116617678D01*
X104048447Y-116617685D01*
X104189803Y-116701282D01*
X104189806Y-116701283D01*
X104347504Y-116747099D01*
X104347510Y-116747100D01*
X104384350Y-116749999D01*
X104384366Y-116750000D01*
X104900000Y-116750000D01*
X105400000Y-116750000D01*
X105915634Y-116750000D01*
X105915649Y-116749999D01*
X105952489Y-116747100D01*
X105952495Y-116747099D01*
X106110193Y-116701283D01*
X106110196Y-116701282D01*
X106251552Y-116617685D01*
X106251561Y-116617678D01*
X106367678Y-116501561D01*
X106367685Y-116501552D01*
X106451281Y-116360198D01*
X106497100Y-116202486D01*
X106497295Y-116200001D01*
X106497295Y-116200000D01*
X105400000Y-116200000D01*
X105400000Y-116750000D01*
X104900000Y-116750000D01*
X104900000Y-116200000D01*
X103802705Y-116200000D01*
X103802704Y-116200001D01*
X100250500Y-116200001D01*
X100250500Y-110083593D01*
X100270185Y-110016554D01*
X100322989Y-109970799D01*
X100392147Y-109960855D01*
X100439597Y-109978055D01*
X100530869Y-110034353D01*
X100530880Y-110034358D01*
X100697302Y-110089505D01*
X100697309Y-110089506D01*
X100800019Y-110099999D01*
X101699999Y-110099999D01*
X101700000Y-110099998D01*
X101700000Y-108850000D01*
X102200000Y-108850000D01*
X103799999Y-108850000D01*
X103799999Y-108800028D01*
X103799998Y-108800013D01*
X103789505Y-108697302D01*
X103734358Y-108530880D01*
X103734356Y-108530875D01*
X103642315Y-108381654D01*
X103518345Y-108257684D01*
X103369124Y-108165643D01*
X103369119Y-108165641D01*
X103202697Y-108110494D01*
X103202690Y-108110493D01*
X103099986Y-108100000D01*
X102200000Y-108100000D01*
X102200000Y-108850000D01*
X101700000Y-108850000D01*
X101700000Y-108100000D01*
X100800028Y-108100000D01*
X100800012Y-108100001D01*
X100697302Y-108110494D01*
X100530880Y-108165641D01*
X100530875Y-108165643D01*
X100439597Y-108221945D01*
X100372204Y-108240385D01*
X100305541Y-108219462D01*
X100260771Y-108165820D01*
X100250500Y-108116406D01*
X100250500Y-105002706D01*
X100250618Y-104997298D01*
X100251985Y-104965982D01*
X100268337Y-104591439D01*
X100269276Y-104580708D01*
X100321951Y-104180609D01*
X100323823Y-104169993D01*
X100388398Y-103878711D01*
X102149500Y-103878711D01*
X102149500Y-104121288D01*
X102179609Y-104349997D01*
X102181162Y-104361789D01*
X102194607Y-104411965D01*
X102243947Y-104596104D01*
X102306180Y-104746347D01*
X102336776Y-104820212D01*
X102458064Y-105030289D01*
X102458066Y-105030292D01*
X102458067Y-105030293D01*
X102605733Y-105222736D01*
X102605739Y-105222743D01*
X102777256Y-105394260D01*
X102777262Y-105394265D01*
X102969711Y-105541936D01*
X103179788Y-105663224D01*
X103403900Y-105756054D01*
X103638211Y-105818838D01*
X103818586Y-105842584D01*
X103878711Y-105850500D01*
X103878712Y-105850500D01*
X104121289Y-105850500D01*
X104177915Y-105843045D01*
X104361789Y-105818838D01*
X104596100Y-105756054D01*
X104820212Y-105663224D01*
X105030289Y-105541936D01*
X105222738Y-105394265D01*
X105394265Y-105222738D01*
X105541936Y-105030289D01*
X105663224Y-104820212D01*
X105756054Y-104596100D01*
X105818838Y-104361789D01*
X105850500Y-104121288D01*
X105850500Y-103878712D01*
X105818838Y-103638211D01*
X105756054Y-103403900D01*
X105663224Y-103179788D01*
X105541936Y-102969711D01*
X105452159Y-102852711D01*
X105394266Y-102777263D01*
X105394260Y-102777256D01*
X105222743Y-102605739D01*
X105222736Y-102605733D01*
X105030293Y-102458067D01*
X105030292Y-102458066D01*
X105030289Y-102458064D01*
X104820212Y-102336776D01*
X104755690Y-102310050D01*
X104596104Y-102243947D01*
X104361785Y-102181161D01*
X104121289Y-102149500D01*
X104121288Y-102149500D01*
X103878712Y-102149500D01*
X103878711Y-102149500D01*
X103638214Y-102181161D01*
X103403895Y-102243947D01*
X103179794Y-102336773D01*
X103179785Y-102336777D01*
X102969706Y-102458067D01*
X102777263Y-102605733D01*
X102777256Y-102605739D01*
X102605739Y-102777256D01*
X102605733Y-102777263D01*
X102458067Y-102969706D01*
X102336777Y-103179785D01*
X102336773Y-103179794D01*
X102243947Y-103403895D01*
X102181161Y-103638214D01*
X102149500Y-103878711D01*
X100388398Y-103878711D01*
X100411168Y-103776000D01*
X100413955Y-103765600D01*
X100535309Y-103380713D01*
X100538993Y-103370592D01*
X100693426Y-102997758D01*
X100697984Y-102987984D01*
X100884315Y-102630045D01*
X100889710Y-102620700D01*
X101106537Y-102280350D01*
X101112727Y-102271511D01*
X101358385Y-101951363D01*
X101365323Y-101943094D01*
X101637949Y-101645575D01*
X101645575Y-101637949D01*
X101943094Y-101365323D01*
X101951363Y-101358385D01*
X101994854Y-101325013D01*
X136775000Y-101325013D01*
X136775000Y-101462500D01*
X137750000Y-101462500D01*
X138250000Y-101462500D01*
X139800000Y-101462500D01*
X140300000Y-101462500D01*
X141274999Y-101462500D01*
X141274999Y-101325028D01*
X141274998Y-101325013D01*
X141264505Y-101222302D01*
X141209358Y-101055880D01*
X141209356Y-101055875D01*
X141117315Y-100906654D01*
X140993345Y-100782684D01*
X140844124Y-100690643D01*
X140844119Y-100690641D01*
X140677697Y-100635494D01*
X140677690Y-100635493D01*
X140574986Y-100625000D01*
X140300000Y-100625000D01*
X140300000Y-101462500D01*
X139800000Y-101462500D01*
X139800000Y-100625000D01*
X139525029Y-100625000D01*
X139525012Y-100625001D01*
X139422302Y-100635494D01*
X139255880Y-100690641D01*
X139255875Y-100690643D01*
X139106653Y-100782685D01*
X139101911Y-100786435D01*
X139037115Y-100812576D01*
X138968473Y-100799535D01*
X138948089Y-100786435D01*
X138943346Y-100782685D01*
X138794124Y-100690643D01*
X138794119Y-100690641D01*
X138627697Y-100635494D01*
X138627690Y-100635493D01*
X138524986Y-100625000D01*
X138250000Y-100625000D01*
X138250000Y-101462500D01*
X137750000Y-101462500D01*
X137750000Y-100625000D01*
X137475029Y-100625000D01*
X137475012Y-100625001D01*
X137372302Y-100635494D01*
X137205880Y-100690641D01*
X137205875Y-100690643D01*
X137056654Y-100782684D01*
X136932684Y-100906654D01*
X136840643Y-101055875D01*
X136840641Y-101055880D01*
X136785494Y-101222302D01*
X136785493Y-101222309D01*
X136775000Y-101325013D01*
X101994854Y-101325013D01*
X102271511Y-101112727D01*
X102280350Y-101106537D01*
X102620700Y-100889710D01*
X102630045Y-100884315D01*
X102987984Y-100697984D01*
X102997758Y-100693426D01*
X103370592Y-100538993D01*
X103380713Y-100535309D01*
X103765600Y-100413955D01*
X103776000Y-100411168D01*
X104169993Y-100323823D01*
X104180609Y-100321951D01*
X104580708Y-100269276D01*
X104591439Y-100268337D01*
X104984636Y-100251170D01*
X104997298Y-100250618D01*
X105002706Y-100250500D01*
X105044170Y-100250500D01*
X144955830Y-100250500D01*
X144997294Y-100250500D01*
X145002702Y-100250618D01*
G37*
%TD.AperFunction*%
%TA.AperFunction,Conductor*%
G36*
X149668834Y-123607180D02*
G01*
X149724767Y-123649052D01*
X149749184Y-123714516D01*
X149749500Y-123723362D01*
X149749500Y-144997293D01*
X149749382Y-145002702D01*
X149731663Y-145408539D01*
X149730720Y-145419316D01*
X149678051Y-145819370D01*
X149676173Y-145830022D01*
X149588837Y-146223974D01*
X149586037Y-146234424D01*
X149464697Y-146619264D01*
X149460997Y-146629429D01*
X149306579Y-147002226D01*
X149302007Y-147012030D01*
X149115690Y-147369942D01*
X149110282Y-147379310D01*
X148893469Y-147719638D01*
X148887264Y-147728499D01*
X148641621Y-148048627D01*
X148634667Y-148056914D01*
X148362061Y-148354412D01*
X148354412Y-148362061D01*
X148056914Y-148634667D01*
X148048627Y-148641621D01*
X147728499Y-148887264D01*
X147719638Y-148893469D01*
X147379310Y-149110282D01*
X147369942Y-149115690D01*
X147012030Y-149302007D01*
X147002226Y-149306579D01*
X146629429Y-149460997D01*
X146619264Y-149464697D01*
X146234424Y-149586037D01*
X146223974Y-149588837D01*
X145830022Y-149676173D01*
X145819370Y-149678051D01*
X145419316Y-149730720D01*
X145408539Y-149731663D01*
X145002703Y-149749382D01*
X144997294Y-149749500D01*
X142134181Y-149749500D01*
X142067142Y-149729815D01*
X142021387Y-149677011D01*
X142011443Y-149607853D01*
X142028641Y-149560405D01*
X142084814Y-149469334D01*
X142139999Y-149302797D01*
X142150500Y-149200009D01*
X142150499Y-148449992D01*
X142139999Y-148347203D01*
X142084814Y-148180666D01*
X141992712Y-148031344D01*
X141868656Y-147907288D01*
X141865819Y-147905538D01*
X141864283Y-147903830D01*
X141862989Y-147902807D01*
X141863163Y-147902585D01*
X141819096Y-147853594D01*
X141807872Y-147784632D01*
X141835713Y-147720549D01*
X141865817Y-147694462D01*
X141868656Y-147692712D01*
X141992712Y-147568656D01*
X142084814Y-147419334D01*
X142139999Y-147252797D01*
X142150500Y-147150009D01*
X142150499Y-146399992D01*
X142139999Y-146297203D01*
X142084814Y-146130666D01*
X141992712Y-145981344D01*
X141974049Y-145962681D01*
X141940564Y-145901358D01*
X141942184Y-145878711D01*
X144149500Y-145878711D01*
X144149500Y-146121288D01*
X144181161Y-146361785D01*
X144243947Y-146596104D01*
X144298924Y-146728830D01*
X144336776Y-146820212D01*
X144458064Y-147030289D01*
X144458066Y-147030292D01*
X144458067Y-147030293D01*
X144605733Y-147222736D01*
X144605739Y-147222743D01*
X144777256Y-147394260D01*
X144777263Y-147394266D01*
X144809935Y-147419336D01*
X144969711Y-147541936D01*
X145179788Y-147663224D01*
X145403900Y-147756054D01*
X145638211Y-147818838D01*
X145818586Y-147842584D01*
X145878711Y-147850500D01*
X145878712Y-147850500D01*
X146121289Y-147850500D01*
X146169388Y-147844167D01*
X146361789Y-147818838D01*
X146596100Y-147756054D01*
X146820212Y-147663224D01*
X147030289Y-147541936D01*
X147222738Y-147394265D01*
X147394265Y-147222738D01*
X147541936Y-147030289D01*
X147663224Y-146820212D01*
X147756054Y-146596100D01*
X147818838Y-146361789D01*
X147850500Y-146121288D01*
X147850500Y-145878712D01*
X147848101Y-145860493D01*
X147826907Y-145699501D01*
X147818838Y-145638211D01*
X147756054Y-145403900D01*
X147663224Y-145179788D01*
X147541936Y-144969711D01*
X147458611Y-144861119D01*
X147394266Y-144777263D01*
X147394260Y-144777256D01*
X147222743Y-144605739D01*
X147222736Y-144605733D01*
X147030293Y-144458067D01*
X147030292Y-144458066D01*
X147030289Y-144458064D01*
X146820212Y-144336776D01*
X146789460Y-144324038D01*
X146596104Y-144243947D01*
X146361785Y-144181161D01*
X146121289Y-144149500D01*
X146121288Y-144149500D01*
X145878712Y-144149500D01*
X145878711Y-144149500D01*
X145638214Y-144181161D01*
X145403895Y-144243947D01*
X145179794Y-144336773D01*
X145179785Y-144336777D01*
X144969706Y-144458067D01*
X144777263Y-144605733D01*
X144777256Y-144605739D01*
X144605739Y-144777256D01*
X144605733Y-144777263D01*
X144458067Y-144969706D01*
X144336777Y-145179785D01*
X144336773Y-145179794D01*
X144243947Y-145403895D01*
X144181161Y-145638214D01*
X144149500Y-145878711D01*
X141942184Y-145878711D01*
X141945548Y-145831666D01*
X141974049Y-145787319D01*
X141992712Y-145768656D01*
X142084814Y-145619334D01*
X142139999Y-145452797D01*
X142150500Y-145350009D01*
X142150499Y-144549992D01*
X142145189Y-144498014D01*
X142139999Y-144447203D01*
X142139998Y-144447200D01*
X142099185Y-144324035D01*
X142084814Y-144280666D01*
X141992712Y-144131344D01*
X141898695Y-144037327D01*
X141865210Y-143976004D01*
X141870194Y-143906312D01*
X141898695Y-143861964D01*
X141992317Y-143768342D01*
X142084356Y-143619124D01*
X142084358Y-143619119D01*
X142139505Y-143452697D01*
X142139506Y-143452690D01*
X142149999Y-143349986D01*
X142150000Y-143349973D01*
X142150000Y-143200000D01*
X139750001Y-143200000D01*
X139750001Y-143349986D01*
X139760494Y-143452697D01*
X139815641Y-143619119D01*
X139815643Y-143619124D01*
X139907684Y-143768345D01*
X140001304Y-143861965D01*
X140034789Y-143923288D01*
X140029805Y-143992980D01*
X140001305Y-144037327D01*
X139907287Y-144131345D01*
X139815187Y-144280663D01*
X139815186Y-144280666D01*
X139760001Y-144447203D01*
X139760001Y-144447204D01*
X139760000Y-144447204D01*
X139749500Y-144549983D01*
X139749500Y-145350001D01*
X139749501Y-145350019D01*
X139760000Y-145452796D01*
X139760001Y-145452799D01*
X139806352Y-145592676D01*
X139815186Y-145619334D01*
X139864632Y-145699500D01*
X139907289Y-145768657D01*
X139925951Y-145787319D01*
X139959436Y-145848642D01*
X139954452Y-145918334D01*
X139925951Y-145962681D01*
X139907289Y-145981342D01*
X139815187Y-146130663D01*
X139815185Y-146130668D01*
X139787349Y-146214670D01*
X139760001Y-146297203D01*
X139760001Y-146297204D01*
X139760000Y-146297204D01*
X139749500Y-146399983D01*
X139749500Y-147150001D01*
X139749501Y-147150019D01*
X139760000Y-147252796D01*
X139760001Y-147252799D01*
X139815185Y-147419331D01*
X139815187Y-147419336D01*
X139907289Y-147568657D01*
X140031346Y-147692714D01*
X140034182Y-147694463D01*
X140035717Y-147696170D01*
X140037011Y-147697193D01*
X140036836Y-147697414D01*
X140080905Y-147746411D01*
X140092126Y-147815374D01*
X140064282Y-147879456D01*
X140034216Y-147905516D01*
X140033406Y-147906016D01*
X139968273Y-147924500D01*
X137349362Y-147924500D01*
X137282323Y-147904815D01*
X137261681Y-147888181D01*
X136354362Y-146980862D01*
X136320877Y-146919539D01*
X136325861Y-146849847D01*
X136367733Y-146793914D01*
X136433197Y-146769497D01*
X136482305Y-146775899D01*
X136580386Y-146809571D01*
X136825665Y-146850500D01*
X137074335Y-146850500D01*
X137319614Y-146809571D01*
X137554810Y-146728828D01*
X137773509Y-146610474D01*
X137969744Y-146457738D01*
X138138164Y-146274785D01*
X138274173Y-146066607D01*
X138374063Y-145838881D01*
X138435108Y-145597821D01*
X138435109Y-145597812D01*
X138455643Y-145350006D01*
X138455643Y-145349993D01*
X138442625Y-145192899D01*
X138456705Y-145124463D01*
X138478517Y-145094981D01*
X139249464Y-144324035D01*
X139264102Y-144302128D01*
X139348013Y-144176547D01*
X139366737Y-144131344D01*
X139384058Y-144089527D01*
X139384058Y-144089526D01*
X139384259Y-144089040D01*
X139415895Y-144012666D01*
X139450500Y-143838691D01*
X139450500Y-143661308D01*
X139450500Y-142550013D01*
X139750000Y-142550013D01*
X139750000Y-142700000D01*
X140700000Y-142700000D01*
X140700000Y-141850000D01*
X140450029Y-141850000D01*
X140450012Y-141850001D01*
X140347302Y-141860494D01*
X140180880Y-141915641D01*
X140180875Y-141915643D01*
X140031654Y-142007684D01*
X139907684Y-142131654D01*
X139815643Y-142280875D01*
X139815641Y-142280880D01*
X139760494Y-142447302D01*
X139760493Y-142447309D01*
X139750000Y-142550013D01*
X139450500Y-142550013D01*
X139450500Y-141274500D01*
X139470185Y-141207461D01*
X139522989Y-141161706D01*
X139574500Y-141150500D01*
X140556613Y-141150500D01*
X140556616Y-141150500D01*
X140627196Y-141144086D01*
X140789606Y-141093478D01*
X140935185Y-141005472D01*
X141055472Y-140885185D01*
X141070607Y-140860147D01*
X141122132Y-140812962D01*
X141190991Y-140801122D01*
X141255320Y-140828389D01*
X141294695Y-140886107D01*
X141300215Y-140935510D01*
X141299600Y-140942276D01*
X141299500Y-140943384D01*
X141299500Y-141456616D01*
X141305914Y-141527196D01*
X141356368Y-141689111D01*
X141357518Y-141758971D01*
X141320717Y-141818363D01*
X141257648Y-141848431D01*
X141237982Y-141850000D01*
X141200000Y-141850000D01*
X141200000Y-142700000D01*
X142149999Y-142700000D01*
X142149999Y-142550028D01*
X142149998Y-142550013D01*
X142139505Y-142447302D01*
X142084358Y-142280881D01*
X142082504Y-142276904D01*
X142072013Y-142207826D01*
X142100533Y-142144043D01*
X142159010Y-142105804D01*
X142194887Y-142100500D01*
X142556613Y-142100500D01*
X142556616Y-142100500D01*
X142627196Y-142094086D01*
X142789606Y-142043478D01*
X142935185Y-141955472D01*
X142956635Y-141934021D01*
X143017953Y-141900537D01*
X143087645Y-141905519D01*
X143143580Y-141947388D01*
X143149854Y-141956604D01*
X143155380Y-141965564D01*
X143157288Y-141968656D01*
X143281344Y-142092712D01*
X143430666Y-142184814D01*
X143597203Y-142239999D01*
X143699991Y-142250500D01*
X144500008Y-142250499D01*
X144500016Y-142250498D01*
X144500019Y-142250498D01*
X144556302Y-142244748D01*
X144602797Y-142239999D01*
X144769334Y-142184814D01*
X144918656Y-142092712D01*
X145012319Y-141999049D01*
X145073642Y-141965564D01*
X145143334Y-141970548D01*
X145187681Y-141999049D01*
X145281344Y-142092712D01*
X145430666Y-142184814D01*
X145597203Y-142239999D01*
X145699991Y-142250500D01*
X146500008Y-142250499D01*
X146500016Y-142250498D01*
X146500019Y-142250498D01*
X146556302Y-142244748D01*
X146602797Y-142239999D01*
X146769334Y-142184814D01*
X146918656Y-142092712D01*
X147042712Y-141968656D01*
X147134814Y-141819334D01*
X147189999Y-141652797D01*
X147200500Y-141550009D01*
X147200499Y-140549992D01*
X147196067Y-140506610D01*
X147189999Y-140447203D01*
X147189998Y-140447200D01*
X147159950Y-140356522D01*
X147134814Y-140280666D01*
X147042712Y-140131344D01*
X146918656Y-140007288D01*
X146769334Y-139915186D01*
X146602797Y-139860001D01*
X146602795Y-139860000D01*
X146500010Y-139849500D01*
X145699998Y-139849500D01*
X145699980Y-139849501D01*
X145597203Y-139860000D01*
X145597200Y-139860001D01*
X145430668Y-139915185D01*
X145430663Y-139915187D01*
X145281342Y-140007289D01*
X145187681Y-140100951D01*
X145126358Y-140134436D01*
X145056666Y-140129452D01*
X145012319Y-140100951D01*
X144918657Y-140007289D01*
X144918656Y-140007288D01*
X144769334Y-139915186D01*
X144602797Y-139860001D01*
X144602795Y-139860000D01*
X144500010Y-139849500D01*
X143699998Y-139849500D01*
X143699980Y-139849501D01*
X143597203Y-139860000D01*
X143597200Y-139860001D01*
X143430668Y-139915185D01*
X143430659Y-139915189D01*
X143287321Y-140003601D01*
X143219929Y-140022041D01*
X143153265Y-140001118D01*
X143108496Y-139947476D01*
X143099835Y-139878145D01*
X143116109Y-139833911D01*
X143143018Y-139789398D01*
X143143019Y-139789396D01*
X143193590Y-139627106D01*
X143200000Y-139556572D01*
X143200000Y-139550000D01*
X141300001Y-139550000D01*
X141300001Y-139556581D01*
X141300808Y-139565470D01*
X141287266Y-139634015D01*
X141238815Y-139684357D01*
X141170839Y-139700513D01*
X141104919Y-139677353D01*
X141071199Y-139640831D01*
X141060642Y-139623368D01*
X141055472Y-139614815D01*
X141055471Y-139614814D01*
X141055468Y-139614810D01*
X140935188Y-139494530D01*
X140906365Y-139477106D01*
X140789606Y-139406522D01*
X140627196Y-139355914D01*
X140627194Y-139355913D01*
X140627192Y-139355913D01*
X140577778Y-139351423D01*
X140556616Y-139349500D01*
X140556613Y-139349500D01*
X139802228Y-139349500D01*
X139735189Y-139329815D01*
X139689434Y-139277011D01*
X139685186Y-139266454D01*
X139633100Y-139117601D01*
X139626213Y-139097918D01*
X139591974Y-139043427D01*
X141300000Y-139043427D01*
X141300000Y-139050000D01*
X142000000Y-139050000D01*
X142500000Y-139050000D01*
X143199999Y-139050000D01*
X143199999Y-139043417D01*
X143193591Y-138972897D01*
X143193590Y-138972892D01*
X143143018Y-138810603D01*
X143055072Y-138665122D01*
X142934877Y-138544927D01*
X142789395Y-138456980D01*
X142789396Y-138456980D01*
X142627105Y-138406409D01*
X142627106Y-138406409D01*
X142556572Y-138400000D01*
X142500000Y-138400000D01*
X142500000Y-139050000D01*
X142000000Y-139050000D01*
X142000000Y-138400000D01*
X141999999Y-138399999D01*
X141943418Y-138400000D01*
X141943417Y-138400001D01*
X141872897Y-138406408D01*
X141872892Y-138406409D01*
X141710603Y-138456981D01*
X141565122Y-138544927D01*
X141444927Y-138665122D01*
X141356980Y-138810604D01*
X141306409Y-138972893D01*
X141300000Y-139043427D01*
X139591974Y-139043427D01*
X139530785Y-138946045D01*
X139403955Y-138819215D01*
X139370513Y-138798202D01*
X139252083Y-138723787D01*
X139082780Y-138664546D01*
X139082777Y-138664545D01*
X138949244Y-138649500D01*
X138949240Y-138649500D01*
X138442604Y-138649500D01*
X138375565Y-138629815D01*
X138329810Y-138577011D01*
X138319866Y-138507853D01*
X138348891Y-138444297D01*
X138380603Y-138418113D01*
X138408532Y-138401988D01*
X138496304Y-138351313D01*
X138601313Y-138246304D01*
X138601313Y-138246302D01*
X138611517Y-138236099D01*
X138611521Y-138236094D01*
X138810797Y-138036818D01*
X138872120Y-138003333D01*
X138898478Y-138000499D01*
X139650002Y-138000499D01*
X139650008Y-138000499D01*
X139752797Y-137989999D01*
X139919334Y-137934814D01*
X140068656Y-137842712D01*
X140068664Y-137842703D01*
X140073085Y-137839209D01*
X140137879Y-137813066D01*
X140206522Y-137826103D01*
X140226915Y-137839209D01*
X140231339Y-137842707D01*
X140231344Y-137842712D01*
X140380666Y-137934814D01*
X140547203Y-137989999D01*
X140649991Y-138000500D01*
X141650008Y-138000499D01*
X141650016Y-138000498D01*
X141650019Y-138000498D01*
X141706302Y-137994748D01*
X141752797Y-137989999D01*
X141919334Y-137934814D01*
X142068656Y-137842712D01*
X142192712Y-137718656D01*
X142284814Y-137569334D01*
X142339999Y-137402797D01*
X142350500Y-137300009D01*
X142350499Y-136499992D01*
X142339999Y-136397203D01*
X142284814Y-136230666D01*
X142192712Y-136081344D01*
X142099049Y-135987681D01*
X142065564Y-135926358D01*
X142070548Y-135856666D01*
X142099049Y-135812319D01*
X142142712Y-135768656D01*
X142192712Y-135718656D01*
X142284814Y-135569334D01*
X142339999Y-135402797D01*
X142350500Y-135300009D01*
X142350499Y-134548476D01*
X142370183Y-134481438D01*
X142386813Y-134460801D01*
X143074377Y-133773238D01*
X143135700Y-133739753D01*
X143205392Y-133744737D01*
X143249739Y-133773238D01*
X144471210Y-134994709D01*
X144503304Y-135050297D01*
X144551094Y-135228655D01*
X144551096Y-135228659D01*
X144551097Y-135228663D01*
X144607682Y-135350009D01*
X144650965Y-135442830D01*
X144650967Y-135442834D01*
X144786501Y-135636395D01*
X144786506Y-135636402D01*
X144953597Y-135803493D01*
X144953603Y-135803498D01*
X144966201Y-135812319D01*
X145129065Y-135926358D01*
X145139594Y-135933730D01*
X145183219Y-135988307D01*
X145190413Y-136057805D01*
X145158890Y-136120160D01*
X145139595Y-136136880D01*
X144953922Y-136266890D01*
X144953920Y-136266891D01*
X144786891Y-136433920D01*
X144786886Y-136433926D01*
X144651400Y-136627420D01*
X144651399Y-136627422D01*
X144551570Y-136841507D01*
X144551567Y-136841513D01*
X144494364Y-137054999D01*
X144494364Y-137055000D01*
X145391988Y-137055000D01*
X145359075Y-137112007D01*
X145325000Y-137239174D01*
X145325000Y-137370826D01*
X145359075Y-137497993D01*
X145391988Y-137555000D01*
X144494364Y-137555000D01*
X144551567Y-137768486D01*
X144551570Y-137768492D01*
X144651399Y-137982578D01*
X144786894Y-138176082D01*
X144953917Y-138343105D01*
X145147421Y-138478600D01*
X145361507Y-138578429D01*
X145361516Y-138578433D01*
X145575000Y-138635634D01*
X145575000Y-137738012D01*
X145632007Y-137770925D01*
X145759174Y-137805000D01*
X145890826Y-137805000D01*
X146017993Y-137770925D01*
X146075000Y-137738012D01*
X146075000Y-138635633D01*
X146288483Y-138578433D01*
X146288492Y-138578429D01*
X146502578Y-138478600D01*
X146696082Y-138343105D01*
X146863105Y-138176082D01*
X146998600Y-137982578D01*
X147098429Y-137768492D01*
X147098432Y-137768486D01*
X147155636Y-137555000D01*
X146258012Y-137555000D01*
X146290925Y-137497993D01*
X146325000Y-137370826D01*
X146325000Y-137239174D01*
X146290925Y-137112007D01*
X146258012Y-137055000D01*
X147155636Y-137055000D01*
X147155635Y-137054999D01*
X147098432Y-136841513D01*
X147098429Y-136841507D01*
X146998600Y-136627422D01*
X146998599Y-136627420D01*
X146863113Y-136433926D01*
X146863108Y-136433920D01*
X146696078Y-136266890D01*
X146510405Y-136136879D01*
X146466780Y-136082302D01*
X146459588Y-136012804D01*
X146491110Y-135950449D01*
X146510406Y-135933730D01*
X146696401Y-135803495D01*
X146863495Y-135636401D01*
X146999035Y-135442830D01*
X147098903Y-135228663D01*
X147160063Y-135000408D01*
X147180659Y-134765000D01*
X147180659Y-134764994D01*
X147166209Y-134599841D01*
X147160063Y-134529592D01*
X147098903Y-134301337D01*
X146999035Y-134087171D01*
X146980802Y-134061132D01*
X146863496Y-133893600D01*
X146806715Y-133836819D01*
X146741567Y-133771671D01*
X146708084Y-133710351D01*
X146713068Y-133640659D01*
X146754939Y-133584725D01*
X146785915Y-133567810D01*
X146917331Y-133518796D01*
X147032546Y-133432546D01*
X147118796Y-133317331D01*
X147169091Y-133182483D01*
X147175500Y-133122873D01*
X147175499Y-131327128D01*
X147169091Y-131267517D01*
X147118796Y-131132669D01*
X147118795Y-131132668D01*
X147118793Y-131132664D01*
X147032547Y-131017455D01*
X147032544Y-131017452D01*
X146917335Y-130931206D01*
X146917328Y-130931202D01*
X146782482Y-130880908D01*
X146782483Y-130880908D01*
X146722883Y-130874501D01*
X146722881Y-130874500D01*
X146722873Y-130874500D01*
X146722864Y-130874500D01*
X144927129Y-130874500D01*
X144927123Y-130874501D01*
X144867516Y-130880908D01*
X144732671Y-130931202D01*
X144732664Y-130931206D01*
X144617455Y-131017452D01*
X144617452Y-131017455D01*
X144531206Y-131132664D01*
X144531202Y-131132671D01*
X144480908Y-131267517D01*
X144474501Y-131327116D01*
X144474501Y-131327123D01*
X144474500Y-131327135D01*
X144474500Y-132151638D01*
X144454815Y-132218677D01*
X144402011Y-132264432D01*
X144332853Y-132274376D01*
X144269297Y-132245351D01*
X144262819Y-132239319D01*
X144186819Y-132163319D01*
X144153334Y-132101996D01*
X144150500Y-132075638D01*
X144150500Y-126374500D01*
X144170185Y-126307461D01*
X144222989Y-126261706D01*
X144274500Y-126250500D01*
X144749242Y-126250500D01*
X144816281Y-126270185D01*
X144836923Y-126286819D01*
X144953597Y-126403493D01*
X144953603Y-126403498D01*
X145139594Y-126533730D01*
X145183219Y-126588307D01*
X145190413Y-126657805D01*
X145158890Y-126720160D01*
X145139595Y-126736880D01*
X144953922Y-126866890D01*
X144953920Y-126866891D01*
X144786891Y-127033920D01*
X144786886Y-127033926D01*
X144651400Y-127227420D01*
X144651399Y-127227422D01*
X144551570Y-127441507D01*
X144551567Y-127441513D01*
X144494364Y-127654999D01*
X144494364Y-127655000D01*
X145391988Y-127655000D01*
X145359075Y-127712007D01*
X145325000Y-127839174D01*
X145325000Y-127970826D01*
X145359075Y-128097993D01*
X145391988Y-128155000D01*
X144494364Y-128155000D01*
X144551567Y-128368486D01*
X144551570Y-128368492D01*
X144651399Y-128582578D01*
X144786894Y-128776082D01*
X144953917Y-128943105D01*
X145147421Y-129078600D01*
X145361507Y-129178429D01*
X145361516Y-129178433D01*
X145575000Y-129235634D01*
X145575000Y-128338012D01*
X145632007Y-128370925D01*
X145759174Y-128405000D01*
X145890826Y-128405000D01*
X146017993Y-128370925D01*
X146075000Y-128338012D01*
X146075000Y-129235633D01*
X146288483Y-129178433D01*
X146288492Y-129178429D01*
X146502578Y-129078600D01*
X146696082Y-128943105D01*
X146863105Y-128776082D01*
X146998600Y-128582578D01*
X147098429Y-128368492D01*
X147098432Y-128368486D01*
X147155636Y-128155000D01*
X146258012Y-128155000D01*
X146290925Y-128097993D01*
X146325000Y-127970826D01*
X146325000Y-127839174D01*
X146290925Y-127712007D01*
X146258012Y-127655000D01*
X147155636Y-127655000D01*
X147155635Y-127654999D01*
X147098432Y-127441513D01*
X147098429Y-127441507D01*
X146998600Y-127227422D01*
X146998599Y-127227420D01*
X146863113Y-127033926D01*
X146863108Y-127033920D01*
X146696078Y-126866890D01*
X146510405Y-126736879D01*
X146466780Y-126682302D01*
X146459588Y-126612804D01*
X146491110Y-126550449D01*
X146510406Y-126533730D01*
X146696401Y-126403495D01*
X146863495Y-126236401D01*
X146875085Y-126219847D01*
X146929209Y-126176407D01*
X146961547Y-126163013D01*
X147055104Y-126100500D01*
X147109036Y-126064464D01*
X148273501Y-124899999D01*
X149537819Y-123635681D01*
X149599142Y-123602196D01*
X149668834Y-123607180D01*
G37*
%TD.AperFunction*%
%TA.AperFunction,Conductor*%
G36*
X130768060Y-138269685D02*
G01*
X130788702Y-138286319D01*
X130853696Y-138351313D01*
X130916086Y-138387334D01*
X130949122Y-138406408D01*
X130982303Y-138425565D01*
X131125747Y-138464000D01*
X131125748Y-138464000D01*
X131125749Y-138464000D01*
X135160535Y-138464000D01*
X135227574Y-138483685D01*
X135273329Y-138536489D01*
X135283273Y-138605647D01*
X135254248Y-138669203D01*
X135201489Y-138705042D01*
X135147916Y-138723787D01*
X134996044Y-138819215D01*
X134869215Y-138946044D01*
X134864872Y-138951491D01*
X134863616Y-138950489D01*
X134817584Y-138991193D01*
X134748528Y-139001830D01*
X134684685Y-138973443D01*
X134677263Y-138966602D01*
X134643345Y-138932684D01*
X134494124Y-138840643D01*
X134494119Y-138840641D01*
X134327697Y-138785494D01*
X134327690Y-138785493D01*
X134224986Y-138775000D01*
X134087500Y-138775000D01*
X134087500Y-141224999D01*
X134224972Y-141224999D01*
X134224986Y-141224998D01*
X134327697Y-141214505D01*
X134494119Y-141159358D01*
X134494124Y-141159356D01*
X134643345Y-141067315D01*
X134737819Y-140972842D01*
X134799142Y-140939357D01*
X134868834Y-140944341D01*
X134924767Y-140986213D01*
X134949184Y-141051677D01*
X134949500Y-141060523D01*
X134949500Y-142525637D01*
X134929815Y-142592676D01*
X134913181Y-142613318D01*
X133713318Y-143813181D01*
X133651995Y-143846666D01*
X133625637Y-143849500D01*
X133274362Y-143849500D01*
X133207323Y-143829815D01*
X133186681Y-143813181D01*
X132699319Y-143325819D01*
X132665834Y-143264496D01*
X132663000Y-143238138D01*
X132663000Y-141024333D01*
X132682685Y-140957294D01*
X132689734Y-140947422D01*
X132692706Y-140943662D01*
X132692712Y-140943656D01*
X132694752Y-140940347D01*
X132696745Y-140938555D01*
X132697193Y-140937989D01*
X132697289Y-140938065D01*
X132746694Y-140893623D01*
X132815656Y-140882395D01*
X132879740Y-140910234D01*
X132905829Y-140940339D01*
X132907681Y-140943341D01*
X132907683Y-140943344D01*
X133031654Y-141067315D01*
X133180875Y-141159356D01*
X133180880Y-141159358D01*
X133347302Y-141214505D01*
X133347309Y-141214506D01*
X133450019Y-141224999D01*
X133587499Y-141224999D01*
X133587500Y-141224998D01*
X133587500Y-138775000D01*
X133450027Y-138775000D01*
X133450012Y-138775001D01*
X133347302Y-138785494D01*
X133180880Y-138840641D01*
X133180875Y-138840643D01*
X133031654Y-138932684D01*
X132907683Y-139056655D01*
X132907679Y-139056660D01*
X132905826Y-139059665D01*
X132904018Y-139061290D01*
X132903202Y-139062323D01*
X132903025Y-139062183D01*
X132853874Y-139106385D01*
X132784911Y-139117601D01*
X132720831Y-139089752D01*
X132694753Y-139059653D01*
X132694737Y-139059628D01*
X132692712Y-139056344D01*
X132568656Y-138932288D01*
X132419334Y-138840186D01*
X132252797Y-138785001D01*
X132252795Y-138785000D01*
X132150010Y-138774500D01*
X131374998Y-138774500D01*
X131374980Y-138774501D01*
X131272203Y-138785000D01*
X131272196Y-138785002D01*
X131232362Y-138798202D01*
X131162534Y-138800603D01*
X131105678Y-138768177D01*
X131087501Y-138750000D01*
X130237500Y-138750000D01*
X130237500Y-139699999D01*
X130387472Y-139699999D01*
X130387486Y-139699998D01*
X130490195Y-139689506D01*
X130511495Y-139682448D01*
X130581324Y-139680046D01*
X130641366Y-139715777D01*
X130672559Y-139778298D01*
X130674500Y-139800154D01*
X130674500Y-140525001D01*
X130674501Y-140525019D01*
X130685000Y-140627796D01*
X130685001Y-140627799D01*
X130712290Y-140710150D01*
X130740186Y-140794334D01*
X130832288Y-140943656D01*
X130832290Y-140943658D01*
X130835266Y-140947422D01*
X130861407Y-141012217D01*
X130862000Y-141024333D01*
X130862000Y-143751196D01*
X130896603Y-143925159D01*
X130896604Y-143925163D01*
X130896605Y-143925166D01*
X130915662Y-143971172D01*
X130964483Y-144089040D01*
X130964490Y-144089052D01*
X131022952Y-144176546D01*
X131022952Y-144176547D01*
X131063032Y-144236531D01*
X131063038Y-144236539D01*
X131913181Y-145086680D01*
X131946666Y-145148003D01*
X131949500Y-145174361D01*
X131949500Y-145525637D01*
X131929815Y-145592676D01*
X131913181Y-145613318D01*
X131263319Y-146263181D01*
X131201996Y-146296666D01*
X131175638Y-146299500D01*
X128094696Y-146299500D01*
X128027657Y-146279815D01*
X127984788Y-146232912D01*
X127939699Y-146146595D01*
X127939698Y-146146593D01*
X127826433Y-146007684D01*
X127811109Y-145988890D01*
X127675984Y-145878711D01*
X127653407Y-145860302D01*
X127473049Y-145766091D01*
X127473048Y-145766090D01*
X127473045Y-145766089D01*
X127355829Y-145732550D01*
X127277418Y-145710114D01*
X127277415Y-145710113D01*
X127277413Y-145710113D01*
X127204631Y-145703642D01*
X127158037Y-145699500D01*
X127158033Y-145699500D01*
X126724500Y-145699500D01*
X126657461Y-145679815D01*
X126611706Y-145627011D01*
X126600500Y-145575500D01*
X126600500Y-142285290D01*
X126620185Y-142218251D01*
X126646811Y-142188645D01*
X126697722Y-142147722D01*
X126753353Y-142078514D01*
X126810696Y-142038595D01*
X126880518Y-142036015D01*
X126940651Y-142071594D01*
X126946647Y-142078514D01*
X127002277Y-142147721D01*
X127002278Y-142147722D01*
X127150704Y-142267030D01*
X127150707Y-142267032D01*
X127321302Y-142351639D01*
X127321303Y-142351639D01*
X127321307Y-142351641D01*
X127506111Y-142397600D01*
X127548877Y-142400500D01*
X128451122Y-142400499D01*
X128493889Y-142397600D01*
X128678693Y-142351641D01*
X128849296Y-142267030D01*
X128997722Y-142147722D01*
X129117030Y-141999296D01*
X129132226Y-141968657D01*
X129201639Y-141828697D01*
X129201638Y-141828697D01*
X129201641Y-141828693D01*
X129247600Y-141643889D01*
X129250500Y-141601123D01*
X129250499Y-140198878D01*
X129247600Y-140156111D01*
X129201641Y-139971307D01*
X129117030Y-139800704D01*
X129104993Y-139785730D01*
X129078336Y-139721149D01*
X129090826Y-139652404D01*
X129138499Y-139601326D01*
X129206220Y-139584130D01*
X129266739Y-139602507D01*
X129318369Y-139634353D01*
X129318380Y-139634358D01*
X129484802Y-139689505D01*
X129484809Y-139689506D01*
X129587519Y-139699999D01*
X129737499Y-139699999D01*
X129737500Y-139699998D01*
X129737500Y-138374000D01*
X129757185Y-138306961D01*
X129809989Y-138261206D01*
X129861500Y-138250000D01*
X130701021Y-138250000D01*
X130768060Y-138269685D01*
G37*
%TD.AperFunction*%
%TA.AperFunction,Conductor*%
G36*
X137927574Y-138483685D02*
G01*
X137973329Y-138536489D01*
X137983273Y-138605647D01*
X137954248Y-138669203D01*
X137901489Y-138705042D01*
X137847916Y-138723787D01*
X137696044Y-138819215D01*
X137569215Y-138946044D01*
X137473787Y-139097916D01*
X137414546Y-139267219D01*
X137414545Y-139267222D01*
X137399500Y-139400755D01*
X137399500Y-140299244D01*
X137414545Y-140432777D01*
X137414546Y-140432780D01*
X137473787Y-140602083D01*
X137569215Y-140753955D01*
X137613181Y-140797921D01*
X137646666Y-140859244D01*
X137649500Y-140885602D01*
X137649500Y-143325637D01*
X137629815Y-143392676D01*
X137613181Y-143413318D01*
X137207451Y-143819048D01*
X137146128Y-143852533D01*
X137099361Y-143853675D01*
X137074335Y-143849500D01*
X136825665Y-143849500D01*
X136580382Y-143890429D01*
X136580380Y-143890429D01*
X136482305Y-143924099D01*
X136412507Y-143927249D01*
X136352086Y-143892162D01*
X136320225Y-143829980D01*
X136327041Y-143760443D01*
X136354362Y-143719137D01*
X136549464Y-143524035D01*
X136607396Y-143437334D01*
X136623443Y-143413318D01*
X136648013Y-143376547D01*
X136689841Y-143275565D01*
X136715895Y-143212666D01*
X136750500Y-143038691D01*
X136750500Y-142861308D01*
X136750500Y-140885602D01*
X136770185Y-140818563D01*
X136786819Y-140797921D01*
X136799230Y-140785510D01*
X136830785Y-140753955D01*
X136926213Y-140602082D01*
X136985453Y-140432782D01*
X136985720Y-140430417D01*
X136997225Y-140328306D01*
X137000500Y-140299240D01*
X137000500Y-139400760D01*
X136993836Y-139341618D01*
X136985454Y-139267222D01*
X136985453Y-139267219D01*
X136985185Y-139266454D01*
X136926213Y-139097918D01*
X136830785Y-138946045D01*
X136703955Y-138819215D01*
X136670513Y-138798202D01*
X136552083Y-138723787D01*
X136498511Y-138705042D01*
X136441735Y-138664320D01*
X136415987Y-138599368D01*
X136429443Y-138530806D01*
X136477830Y-138480403D01*
X136539465Y-138464000D01*
X137860535Y-138464000D01*
X137927574Y-138483685D01*
G37*
%TD.AperFunction*%
%TA.AperFunction,Conductor*%
G36*
X127518039Y-135687185D02*
G01*
X127563794Y-135739989D01*
X127575000Y-135791500D01*
X127575000Y-137004999D01*
X127849972Y-137004999D01*
X127849986Y-137004998D01*
X127952697Y-136994505D01*
X128119119Y-136939358D01*
X128119130Y-136939353D01*
X128260403Y-136852215D01*
X128327795Y-136833774D01*
X128394459Y-136854696D01*
X128439229Y-136908338D01*
X128449500Y-136957752D01*
X128449500Y-137071098D01*
X128455568Y-137137882D01*
X128455569Y-137137886D01*
X128455796Y-137138613D01*
X128455803Y-137139061D01*
X128456850Y-137144324D01*
X128455893Y-137144514D01*
X128456945Y-137208474D01*
X128420142Y-137267865D01*
X128357072Y-137297931D01*
X128337409Y-137299500D01*
X127587498Y-137299500D01*
X127587480Y-137299501D01*
X127484703Y-137310000D01*
X127484700Y-137310001D01*
X127318168Y-137365185D01*
X127318163Y-137365187D01*
X127257188Y-137402797D01*
X127168844Y-137457288D01*
X127168842Y-137457289D01*
X127162697Y-137461080D01*
X127161701Y-137459466D01*
X127105860Y-137481992D01*
X127037218Y-137468949D01*
X127024851Y-137461001D01*
X127024803Y-137461080D01*
X127018657Y-137457289D01*
X127018656Y-137457288D01*
X126869334Y-137365186D01*
X126702797Y-137310001D01*
X126702795Y-137310000D01*
X126600010Y-137299500D01*
X125799998Y-137299500D01*
X125799980Y-137299501D01*
X125697203Y-137310000D01*
X125697200Y-137310001D01*
X125530668Y-137365185D01*
X125530663Y-137365187D01*
X125381342Y-137457289D01*
X125287681Y-137550951D01*
X125226358Y-137584436D01*
X125156666Y-137579452D01*
X125112319Y-137550951D01*
X125018657Y-137457289D01*
X125018656Y-137457288D01*
X124869334Y-137365186D01*
X124702797Y-137310001D01*
X124702795Y-137310000D01*
X124600010Y-137299500D01*
X123799998Y-137299500D01*
X123799980Y-137299501D01*
X123697203Y-137310000D01*
X123697200Y-137310001D01*
X123530668Y-137365185D01*
X123530663Y-137365187D01*
X123381342Y-137457289D01*
X123257289Y-137581342D01*
X123165187Y-137730663D01*
X123165185Y-137730668D01*
X123151845Y-137770925D01*
X123110001Y-137897203D01*
X123110001Y-137897204D01*
X123110000Y-137897204D01*
X123099500Y-137999983D01*
X123099500Y-139000001D01*
X123099501Y-139000019D01*
X123110000Y-139102796D01*
X123130346Y-139164195D01*
X123154305Y-139236497D01*
X123156707Y-139306324D01*
X123120976Y-139366366D01*
X123058455Y-139397559D01*
X123036600Y-139399500D01*
X122948878Y-139399500D01*
X122948874Y-139399501D01*
X122906113Y-139402399D01*
X122906112Y-139402399D01*
X122721303Y-139448360D01*
X122550707Y-139532967D01*
X122550704Y-139532969D01*
X122402278Y-139652277D01*
X122402277Y-139652278D01*
X122321165Y-139753187D01*
X122263822Y-139793106D01*
X122224518Y-139799500D01*
X122212000Y-139799500D01*
X122144961Y-139779815D01*
X122099206Y-139727011D01*
X122088000Y-139675500D01*
X122088000Y-139674333D01*
X122107685Y-139607294D01*
X122114734Y-139597422D01*
X122117705Y-139593662D01*
X122117712Y-139593656D01*
X122209814Y-139444334D01*
X122264999Y-139277797D01*
X122275500Y-139175009D01*
X122275499Y-138124992D01*
X122264999Y-138022203D01*
X122209814Y-137855666D01*
X122117712Y-137706344D01*
X122117709Y-137706341D01*
X122117708Y-137706339D01*
X122114730Y-137702572D01*
X122088593Y-137637776D01*
X122088000Y-137625666D01*
X122088000Y-137011724D01*
X122107685Y-136944685D01*
X122160489Y-136898930D01*
X122229647Y-136888986D01*
X122277097Y-136906185D01*
X122330875Y-136939356D01*
X122330880Y-136939358D01*
X122497302Y-136994505D01*
X122497309Y-136994506D01*
X122600019Y-137004999D01*
X122874999Y-137004999D01*
X123375000Y-137004999D01*
X123649972Y-137004999D01*
X123649986Y-137004998D01*
X123752697Y-136994505D01*
X123919119Y-136939358D01*
X123919124Y-136939356D01*
X124068345Y-136847315D01*
X124087319Y-136828342D01*
X124148642Y-136794857D01*
X124218334Y-136799841D01*
X124262681Y-136828342D01*
X124281654Y-136847315D01*
X124430875Y-136939356D01*
X124430880Y-136939358D01*
X124597302Y-136994505D01*
X124597309Y-136994506D01*
X124700019Y-137004999D01*
X124974999Y-137004999D01*
X125475000Y-137004999D01*
X125749972Y-137004999D01*
X125749986Y-137004998D01*
X125852697Y-136994505D01*
X126019119Y-136939358D01*
X126019124Y-136939356D01*
X126168345Y-136847315D01*
X126187319Y-136828342D01*
X126248642Y-136794857D01*
X126318334Y-136799841D01*
X126362681Y-136828342D01*
X126381654Y-136847315D01*
X126530875Y-136939356D01*
X126530880Y-136939358D01*
X126697302Y-136994505D01*
X126697309Y-136994506D01*
X126800019Y-137004999D01*
X127074999Y-137004999D01*
X127075000Y-137004998D01*
X127075000Y-136167500D01*
X125475000Y-136167500D01*
X125475000Y-137004999D01*
X124974999Y-137004999D01*
X124975000Y-137004998D01*
X124975000Y-136167500D01*
X123375000Y-136167500D01*
X123375000Y-137004999D01*
X122874999Y-137004999D01*
X122875000Y-137004998D01*
X122875000Y-135791500D01*
X122894685Y-135724461D01*
X122947489Y-135678706D01*
X122999000Y-135667500D01*
X127451000Y-135667500D01*
X127518039Y-135687185D01*
G37*
%TD.AperFunction*%
%TA.AperFunction,Conductor*%
G36*
X142292539Y-126270185D02*
G01*
X142338294Y-126322989D01*
X142349500Y-126374500D01*
X142349500Y-132588696D01*
X142384103Y-132762659D01*
X142385874Y-132768497D01*
X142384210Y-132769001D01*
X142390802Y-132830256D01*
X142359532Y-132892738D01*
X142356451Y-132895931D01*
X141489201Y-133763181D01*
X141427878Y-133796666D01*
X141401520Y-133799500D01*
X140649998Y-133799500D01*
X140649980Y-133799501D01*
X140547203Y-133810000D01*
X140547200Y-133810001D01*
X140380668Y-133865185D01*
X140380663Y-133865187D01*
X140290428Y-133920845D01*
X140231344Y-133957288D01*
X140231343Y-133957288D01*
X140231330Y-133957297D01*
X140226487Y-133961126D01*
X140161687Y-133987256D01*
X140093047Y-133974204D01*
X140072683Y-133961114D01*
X140068346Y-133957684D01*
X139919124Y-133865643D01*
X139919119Y-133865641D01*
X139752697Y-133810494D01*
X139752690Y-133810493D01*
X139649986Y-133800000D01*
X139400000Y-133800000D01*
X139400000Y-135026000D01*
X139380315Y-135093039D01*
X139327511Y-135138794D01*
X139276000Y-135150000D01*
X137995862Y-135150000D01*
X137928823Y-135130315D01*
X137908181Y-135113681D01*
X137907000Y-135112500D01*
X137024000Y-135112500D01*
X136956961Y-135092815D01*
X136911206Y-135040011D01*
X136900000Y-134988500D01*
X136900000Y-134612500D01*
X137400000Y-134612500D01*
X138329138Y-134612500D01*
X138396177Y-134632185D01*
X138416819Y-134648819D01*
X138418000Y-134650000D01*
X138900000Y-134650000D01*
X138900000Y-133800000D01*
X138650029Y-133800000D01*
X138650012Y-133800001D01*
X138547302Y-133810494D01*
X138380880Y-133865641D01*
X138380871Y-133865645D01*
X138245019Y-133949439D01*
X138177627Y-133967879D01*
X138110963Y-133946956D01*
X138099018Y-133937146D01*
X138099007Y-133937161D01*
X138093346Y-133932684D01*
X137944124Y-133840643D01*
X137944119Y-133840641D01*
X137777697Y-133785494D01*
X137777690Y-133785493D01*
X137674986Y-133775000D01*
X137400000Y-133775000D01*
X137400000Y-134612500D01*
X136900000Y-134612500D01*
X136900000Y-133775000D01*
X136625029Y-133775000D01*
X136625010Y-133775001D01*
X136564620Y-133781171D01*
X136495928Y-133768401D01*
X136445043Y-133720520D01*
X136428123Y-133652730D01*
X136434313Y-133618808D01*
X136464505Y-133527694D01*
X136464506Y-133527690D01*
X136474999Y-133424986D01*
X136475000Y-133424973D01*
X136475000Y-133150000D01*
X135261500Y-133150000D01*
X135194461Y-133130315D01*
X135148706Y-133077511D01*
X135137500Y-133026000D01*
X135137500Y-132650000D01*
X135637500Y-132650000D01*
X136474999Y-132650000D01*
X136474999Y-132375028D01*
X136474998Y-132375013D01*
X136464505Y-132272302D01*
X136409358Y-132105880D01*
X136409356Y-132105875D01*
X136317316Y-131956656D01*
X136313568Y-131951916D01*
X136287424Y-131887123D01*
X136300460Y-131818480D01*
X136313568Y-131798084D01*
X136317316Y-131793343D01*
X136409356Y-131644124D01*
X136409358Y-131644119D01*
X136464505Y-131477697D01*
X136464506Y-131477690D01*
X136474999Y-131374986D01*
X136475000Y-131374973D01*
X136475000Y-131100000D01*
X135637500Y-131100000D01*
X135637500Y-132650000D01*
X135137500Y-132650000D01*
X135137500Y-130600000D01*
X135637500Y-130600000D01*
X136474999Y-130600000D01*
X136474999Y-130325028D01*
X136474998Y-130325013D01*
X136464505Y-130222302D01*
X136409358Y-130055880D01*
X136409356Y-130055875D01*
X136317316Y-129906656D01*
X136313568Y-129901916D01*
X136287424Y-129837123D01*
X136300460Y-129768480D01*
X136313568Y-129748084D01*
X136317316Y-129743343D01*
X136409356Y-129594124D01*
X136409358Y-129594119D01*
X136464505Y-129427697D01*
X136464506Y-129427690D01*
X136474999Y-129324986D01*
X136475000Y-129324973D01*
X136475000Y-129050000D01*
X135637500Y-129050000D01*
X135637500Y-130600000D01*
X135137500Y-130600000D01*
X135137500Y-128550000D01*
X135637500Y-128550000D01*
X136474999Y-128550000D01*
X136474999Y-128275028D01*
X136474998Y-128275013D01*
X136464505Y-128172302D01*
X136409358Y-128005880D01*
X136409356Y-128005875D01*
X136317316Y-127856656D01*
X136313568Y-127851916D01*
X136287424Y-127787123D01*
X136300460Y-127718480D01*
X136313568Y-127698084D01*
X136317316Y-127693343D01*
X136409356Y-127544124D01*
X136409358Y-127544119D01*
X136464505Y-127377697D01*
X136464506Y-127377690D01*
X136474999Y-127274986D01*
X136475000Y-127274973D01*
X136475000Y-127000000D01*
X135637500Y-127000000D01*
X135637500Y-128550000D01*
X135137500Y-128550000D01*
X135137500Y-126624000D01*
X135157185Y-126556961D01*
X135209989Y-126511206D01*
X135261500Y-126500000D01*
X136474999Y-126500000D01*
X136474999Y-126374500D01*
X136494684Y-126307461D01*
X136547488Y-126261706D01*
X136598999Y-126250500D01*
X142225500Y-126250500D01*
X142292539Y-126270185D01*
G37*
%TD.AperFunction*%
%TA.AperFunction,Conductor*%
G36*
X132205203Y-133493322D02*
G01*
X132241705Y-133548030D01*
X132290186Y-133694334D01*
X132290190Y-133694340D01*
X132310350Y-133727026D01*
X132328790Y-133794419D01*
X132307867Y-133861082D01*
X132269908Y-133897660D01*
X132189097Y-133947505D01*
X132121705Y-133965946D01*
X132055041Y-133945024D01*
X132010271Y-133891382D01*
X132000000Y-133841967D01*
X132000000Y-133587035D01*
X132019685Y-133519996D01*
X132072489Y-133474241D01*
X132141647Y-133464297D01*
X132205203Y-133493322D01*
G37*
%TD.AperFunction*%
%TA.AperFunction,Conductor*%
G36*
X139788078Y-106580308D02*
G01*
X139792197Y-106581929D01*
X139796614Y-106583758D01*
X139800959Y-106585558D01*
X139887170Y-106596908D01*
X139951065Y-106625173D01*
X139958665Y-106632165D01*
X147913181Y-114586681D01*
X147946666Y-114648004D01*
X147949500Y-114674362D01*
X147949500Y-116936598D01*
X147929815Y-117003637D01*
X147877011Y-117049392D01*
X147807853Y-117059336D01*
X147786497Y-117054304D01*
X147652799Y-117010001D01*
X147652795Y-117010000D01*
X147550010Y-116999500D01*
X146549998Y-116999500D01*
X146549980Y-116999501D01*
X146447203Y-117010000D01*
X146447200Y-117010001D01*
X146280668Y-117065185D01*
X146280663Y-117065187D01*
X146131342Y-117157289D01*
X146112681Y-117175951D01*
X146051358Y-117209436D01*
X145981666Y-117204452D01*
X145937319Y-117175951D01*
X145918657Y-117157289D01*
X145918656Y-117157288D01*
X145769334Y-117065186D01*
X145602797Y-117010001D01*
X145602795Y-117010000D01*
X145500010Y-116999500D01*
X144499998Y-116999500D01*
X144499980Y-116999501D01*
X144397203Y-117010000D01*
X144397200Y-117010001D01*
X144230668Y-117065185D01*
X144230663Y-117065187D01*
X144081342Y-117157289D01*
X143957289Y-117281342D01*
X143865187Y-117430663D01*
X143865185Y-117430668D01*
X143842207Y-117500013D01*
X143810001Y-117597203D01*
X143810001Y-117597204D01*
X143810000Y-117597204D01*
X143799500Y-117699983D01*
X143799500Y-118500001D01*
X143799501Y-118500019D01*
X143810000Y-118602796D01*
X143810001Y-118602799D01*
X143865185Y-118769331D01*
X143865187Y-118769336D01*
X143957289Y-118918657D01*
X144051304Y-119012672D01*
X144084789Y-119073995D01*
X144079805Y-119143687D01*
X144051305Y-119188034D01*
X143957682Y-119281657D01*
X143865643Y-119430875D01*
X143865641Y-119430880D01*
X143810494Y-119597302D01*
X143810493Y-119597309D01*
X143800000Y-119700013D01*
X143800000Y-119850000D01*
X145126000Y-119850000D01*
X145193039Y-119869685D01*
X145238794Y-119922489D01*
X145250000Y-119974000D01*
X145250000Y-121199999D01*
X145499972Y-121199999D01*
X145499986Y-121199998D01*
X145602697Y-121189505D01*
X145769119Y-121134358D01*
X145769124Y-121134356D01*
X145918344Y-121042316D01*
X145936961Y-121023698D01*
X145998283Y-120990211D01*
X146067975Y-120995192D01*
X146112327Y-121023695D01*
X146131344Y-121042712D01*
X146280666Y-121134814D01*
X146447203Y-121189999D01*
X146549991Y-121200500D01*
X147415922Y-121200499D01*
X147432111Y-121202093D01*
X147432130Y-121201903D01*
X147438193Y-121202500D01*
X147438197Y-121202500D01*
X147561801Y-121202500D01*
X147561803Y-121202500D01*
X147589183Y-121197053D01*
X147600774Y-121195312D01*
X147652797Y-121189999D01*
X147786497Y-121145694D01*
X147856324Y-121143293D01*
X147916366Y-121179024D01*
X147947559Y-121241545D01*
X147949500Y-121263401D01*
X147949500Y-122625637D01*
X147929815Y-122692676D01*
X147913181Y-122713318D01*
X147387180Y-123239319D01*
X147325857Y-123272804D01*
X147256165Y-123267820D01*
X147200232Y-123225948D01*
X147175815Y-123160484D01*
X147175499Y-123151638D01*
X147175499Y-121927129D01*
X147175498Y-121927123D01*
X147175497Y-121927116D01*
X147169091Y-121867517D01*
X147159007Y-121840481D01*
X147118797Y-121732671D01*
X147118793Y-121732664D01*
X147032547Y-121617455D01*
X147032544Y-121617452D01*
X146917335Y-121531206D01*
X146917328Y-121531202D01*
X146782482Y-121480908D01*
X146782483Y-121480908D01*
X146722883Y-121474501D01*
X146722881Y-121474500D01*
X146722873Y-121474500D01*
X146722864Y-121474500D01*
X144927129Y-121474500D01*
X144927123Y-121474501D01*
X144867516Y-121480908D01*
X144732671Y-121531202D01*
X144732664Y-121531206D01*
X144617455Y-121617452D01*
X144617452Y-121617455D01*
X144531206Y-121732664D01*
X144531202Y-121732671D01*
X144480908Y-121867517D01*
X144474501Y-121927116D01*
X144474501Y-121927123D01*
X144474500Y-121927135D01*
X144474500Y-123722870D01*
X144474501Y-123722876D01*
X144480908Y-123782483D01*
X144531202Y-123917328D01*
X144531206Y-123917335D01*
X144617452Y-124032544D01*
X144617455Y-124032547D01*
X144732664Y-124118793D01*
X144732671Y-124118797D01*
X144864082Y-124167810D01*
X144920016Y-124209681D01*
X144944433Y-124275145D01*
X144929582Y-124343418D01*
X144908431Y-124371672D01*
X144866924Y-124413180D01*
X144805602Y-124446666D01*
X144779242Y-124449500D01*
X133961304Y-124449500D01*
X133787341Y-124484103D01*
X133787333Y-124484105D01*
X133712101Y-124515268D01*
X133712100Y-124515268D01*
X133623457Y-124551984D01*
X133623455Y-124551985D01*
X133507500Y-124629465D01*
X133507499Y-124629466D01*
X133475962Y-124650537D01*
X133475961Y-124650538D01*
X132613037Y-125513461D01*
X132613035Y-125513463D01*
X132589939Y-125548032D01*
X132589937Y-125548035D01*
X132514485Y-125660955D01*
X132511615Y-125666326D01*
X132511035Y-125666016D01*
X132487720Y-125700910D01*
X132382291Y-125806340D01*
X132382289Y-125806342D01*
X132382288Y-125806344D01*
X132364728Y-125834814D01*
X132290187Y-125955663D01*
X132290185Y-125955668D01*
X132282372Y-125979247D01*
X132248765Y-126080668D01*
X132235001Y-126122204D01*
X132235000Y-126122205D01*
X132228268Y-126188103D01*
X132201871Y-126252795D01*
X132144690Y-126292946D01*
X132104910Y-126299500D01*
X131982791Y-126299500D01*
X131915752Y-126279815D01*
X131869997Y-126227011D01*
X131866609Y-126218833D01*
X131843797Y-126157671D01*
X131843793Y-126157664D01*
X131757547Y-126042455D01*
X131757544Y-126042452D01*
X131642335Y-125956206D01*
X131642328Y-125956202D01*
X131507482Y-125905908D01*
X131507483Y-125905908D01*
X131447883Y-125899501D01*
X131447881Y-125899500D01*
X131447873Y-125899500D01*
X131447864Y-125899500D01*
X127352129Y-125899500D01*
X127352123Y-125899501D01*
X127292516Y-125905908D01*
X127157671Y-125956202D01*
X127157664Y-125956206D01*
X127042455Y-126042452D01*
X127042452Y-126042455D01*
X126956206Y-126157664D01*
X126956202Y-126157671D01*
X126905908Y-126292517D01*
X126899501Y-126352116D01*
X126899500Y-126352135D01*
X126899500Y-126448500D01*
X126879815Y-126515539D01*
X126827011Y-126561294D01*
X126775500Y-126572500D01*
X126374499Y-126572500D01*
X126307460Y-126552815D01*
X126261705Y-126500011D01*
X126250499Y-126448500D01*
X126250499Y-126349998D01*
X126250498Y-126349981D01*
X126239999Y-126247203D01*
X126239998Y-126247200D01*
X126230598Y-126218833D01*
X126184814Y-126080666D01*
X126092712Y-125931344D01*
X126092707Y-125931339D01*
X126089209Y-125926915D01*
X126063066Y-125862121D01*
X126076103Y-125793478D01*
X126089209Y-125773085D01*
X126092703Y-125768664D01*
X126092712Y-125768656D01*
X126184814Y-125619334D01*
X126239999Y-125452797D01*
X126250500Y-125350009D01*
X126250499Y-124349992D01*
X126249827Y-124343418D01*
X126239999Y-124247203D01*
X126239998Y-124247200D01*
X126227565Y-124209681D01*
X126184814Y-124080666D01*
X126092712Y-123931344D01*
X125968656Y-123807288D01*
X125878825Y-123751880D01*
X125836403Y-123725714D01*
X125789679Y-123673766D01*
X125777500Y-123620175D01*
X125777500Y-117961281D01*
X125797185Y-117894242D01*
X125813819Y-117873600D01*
X132823600Y-110863819D01*
X132884923Y-110830334D01*
X132911281Y-110827500D01*
X133060255Y-110827500D01*
X133127294Y-110847185D01*
X133173049Y-110899989D01*
X133179470Y-110917386D01*
X133181089Y-110923044D01*
X133181090Y-110923045D01*
X133181091Y-110923049D01*
X133275302Y-111103407D01*
X133275304Y-111103409D01*
X133388015Y-111241639D01*
X133415124Y-111306036D01*
X133403115Y-111374865D01*
X133388015Y-111398361D01*
X133275304Y-111536590D01*
X133181089Y-111716954D01*
X133161228Y-111786368D01*
X133131734Y-111889448D01*
X133125114Y-111912583D01*
X133125113Y-111912586D01*
X133114500Y-112031966D01*
X133114500Y-113148028D01*
X133114501Y-113148034D01*
X133125113Y-113267415D01*
X133181089Y-113463045D01*
X133181090Y-113463048D01*
X133181091Y-113463049D01*
X133275302Y-113643407D01*
X133320939Y-113699376D01*
X133388015Y-113781639D01*
X133415124Y-113846036D01*
X133403115Y-113914865D01*
X133388015Y-113938361D01*
X133276310Y-114075357D01*
X133275302Y-114076593D01*
X133238574Y-114146905D01*
X133181089Y-114256954D01*
X133140165Y-114399980D01*
X133126590Y-114447426D01*
X133125114Y-114452583D01*
X133125113Y-114452586D01*
X133114500Y-114571966D01*
X133114500Y-115688028D01*
X133114500Y-115688033D01*
X133114501Y-115688036D01*
X133115565Y-115700000D01*
X133125113Y-115807415D01*
X133181089Y-116003045D01*
X133181090Y-116003048D01*
X133181091Y-116003049D01*
X133275302Y-116183407D01*
X133275304Y-116183409D01*
X133388015Y-116321639D01*
X133415124Y-116386036D01*
X133403115Y-116454865D01*
X133388015Y-116478361D01*
X133369106Y-116501552D01*
X133275302Y-116616593D01*
X133274732Y-116617685D01*
X133181089Y-116796954D01*
X133125114Y-116992583D01*
X133125113Y-116992586D01*
X133114500Y-117111966D01*
X133114500Y-118228028D01*
X133114501Y-118228034D01*
X133125113Y-118347415D01*
X133181089Y-118543045D01*
X133181090Y-118543048D01*
X133181091Y-118543049D01*
X133275302Y-118723407D01*
X133312748Y-118769331D01*
X133388015Y-118861639D01*
X133415124Y-118926036D01*
X133403115Y-118994865D01*
X133388015Y-119018361D01*
X133342652Y-119073995D01*
X133275302Y-119156593D01*
X133252367Y-119200500D01*
X133181089Y-119336954D01*
X133125114Y-119532583D01*
X133125113Y-119532586D01*
X133114500Y-119651966D01*
X133114500Y-120768028D01*
X133114500Y-120768033D01*
X133114501Y-120768036D01*
X133116571Y-120791330D01*
X133125113Y-120887415D01*
X133181089Y-121083045D01*
X133181090Y-121083048D01*
X133181091Y-121083049D01*
X133275302Y-121263407D01*
X133275304Y-121263409D01*
X133403890Y-121421109D01*
X133477230Y-121480909D01*
X133561593Y-121549698D01*
X133741951Y-121643909D01*
X133937582Y-121699886D01*
X134056963Y-121710500D01*
X136173036Y-121710499D01*
X136292418Y-121699886D01*
X136488049Y-121643909D01*
X136668407Y-121549698D01*
X136826109Y-121421109D01*
X136954698Y-121263407D01*
X137048909Y-121083049D01*
X137104886Y-120887418D01*
X137115500Y-120768037D01*
X137115500Y-120499986D01*
X143800001Y-120499986D01*
X143810494Y-120602697D01*
X143865641Y-120769119D01*
X143865643Y-120769124D01*
X143957684Y-120918345D01*
X144081654Y-121042315D01*
X144230875Y-121134356D01*
X144230880Y-121134358D01*
X144397302Y-121189505D01*
X144397309Y-121189506D01*
X144500019Y-121199999D01*
X144749999Y-121199999D01*
X144750000Y-121199998D01*
X144750000Y-120350000D01*
X143800001Y-120350000D01*
X143800001Y-120499986D01*
X137115500Y-120499986D01*
X137115499Y-119651964D01*
X137104886Y-119532582D01*
X137048909Y-119336951D01*
X136954698Y-119156593D01*
X136841983Y-119018359D01*
X136814875Y-118953965D01*
X136826884Y-118885135D01*
X136841981Y-118861642D01*
X136954698Y-118723407D01*
X137048909Y-118543049D01*
X137104886Y-118347418D01*
X137115500Y-118228037D01*
X137115499Y-117111964D01*
X137104886Y-116992582D01*
X137049782Y-116800001D01*
X137048910Y-116796954D01*
X137048909Y-116796953D01*
X137048909Y-116796951D01*
X136954698Y-116616593D01*
X136841983Y-116478359D01*
X136814875Y-116413965D01*
X136826884Y-116345135D01*
X136841981Y-116321642D01*
X136954698Y-116183407D01*
X137048909Y-116003049D01*
X137104886Y-115807418D01*
X137115500Y-115688037D01*
X137115499Y-114571964D01*
X137104886Y-114452582D01*
X137048909Y-114256951D01*
X136954698Y-114076593D01*
X136841983Y-113938359D01*
X136814875Y-113873965D01*
X136826884Y-113805135D01*
X136841981Y-113781642D01*
X136954698Y-113643407D01*
X137048909Y-113463049D01*
X137048911Y-113463040D01*
X137051325Y-113458420D01*
X137099811Y-113408113D01*
X137167799Y-113392005D01*
X137226331Y-113410293D01*
X137305869Y-113459353D01*
X137305880Y-113459358D01*
X137472302Y-113514505D01*
X137472309Y-113514506D01*
X137575019Y-113524999D01*
X137849999Y-113524999D01*
X138350000Y-113524999D01*
X138624972Y-113524999D01*
X138624986Y-113524998D01*
X138727697Y-113514505D01*
X138894119Y-113459358D01*
X138894124Y-113459356D01*
X139043343Y-113367316D01*
X139048084Y-113363568D01*
X139112877Y-113337424D01*
X139181520Y-113350460D01*
X139201916Y-113363568D01*
X139206656Y-113367316D01*
X139355875Y-113459356D01*
X139355880Y-113459358D01*
X139522302Y-113514505D01*
X139522309Y-113514506D01*
X139625019Y-113524999D01*
X139899999Y-113524999D01*
X140400000Y-113524999D01*
X140674972Y-113524999D01*
X140674986Y-113524998D01*
X140777697Y-113514505D01*
X140944119Y-113459358D01*
X140944124Y-113459356D01*
X141093345Y-113367315D01*
X141217315Y-113243345D01*
X141309356Y-113094124D01*
X141309358Y-113094119D01*
X141364505Y-112927697D01*
X141364506Y-112927690D01*
X141374999Y-112824986D01*
X141375000Y-112824973D01*
X141375000Y-112687500D01*
X140400000Y-112687500D01*
X140400000Y-113524999D01*
X139899999Y-113524999D01*
X139900000Y-113524998D01*
X139900000Y-112687500D01*
X138350000Y-112687500D01*
X138350000Y-113524999D01*
X137849999Y-113524999D01*
X137850000Y-113524998D01*
X137850000Y-112311500D01*
X137869685Y-112244461D01*
X137922489Y-112198706D01*
X137974000Y-112187500D01*
X141374999Y-112187500D01*
X141374999Y-112050028D01*
X141374998Y-112050013D01*
X141364505Y-111947302D01*
X141309358Y-111780880D01*
X141309356Y-111780875D01*
X141217315Y-111631654D01*
X141093344Y-111507683D01*
X141093341Y-111507681D01*
X141090339Y-111505829D01*
X141088713Y-111504021D01*
X141087677Y-111503202D01*
X141087817Y-111503024D01*
X141043617Y-111453880D01*
X141032397Y-111384917D01*
X141060243Y-111320836D01*
X141090344Y-111294754D01*
X141093656Y-111292712D01*
X141217712Y-111168656D01*
X141309814Y-111019334D01*
X141364999Y-110852797D01*
X141375500Y-110750009D01*
X141375499Y-109974992D01*
X141372363Y-109944297D01*
X141364999Y-109872203D01*
X141364998Y-109872200D01*
X141360731Y-109859323D01*
X141309814Y-109705666D01*
X141217712Y-109556344D01*
X141093656Y-109432288D01*
X140983583Y-109364395D01*
X140944336Y-109340187D01*
X140944331Y-109340185D01*
X140920270Y-109332212D01*
X140777797Y-109285001D01*
X140777795Y-109285000D01*
X140675010Y-109274500D01*
X139624998Y-109274500D01*
X139624980Y-109274501D01*
X139522203Y-109285000D01*
X139522200Y-109285001D01*
X139355668Y-109340185D01*
X139355663Y-109340187D01*
X139206342Y-109432289D01*
X139201909Y-109435795D01*
X139137113Y-109461934D01*
X139068471Y-109448892D01*
X139048091Y-109435795D01*
X139043657Y-109432289D01*
X139043656Y-109432288D01*
X138933583Y-109364395D01*
X138894336Y-109340187D01*
X138894331Y-109340185D01*
X138870270Y-109332212D01*
X138727797Y-109285001D01*
X138727795Y-109285000D01*
X138625010Y-109274500D01*
X137574998Y-109274500D01*
X137574980Y-109274501D01*
X137472203Y-109285000D01*
X137472200Y-109285001D01*
X137305668Y-109340185D01*
X137305656Y-109340191D01*
X137266414Y-109364395D01*
X137199021Y-109382834D01*
X137132358Y-109361910D01*
X137087590Y-109308267D01*
X137082109Y-109292980D01*
X137048909Y-109176951D01*
X136954698Y-108996593D01*
X136841661Y-108857964D01*
X136814552Y-108793568D01*
X136826561Y-108724738D01*
X136841662Y-108701241D01*
X136954278Y-108563130D01*
X137048442Y-108382861D01*
X137104390Y-108187328D01*
X137104391Y-108187325D01*
X137114999Y-108068000D01*
X137115000Y-108067998D01*
X137115000Y-106952002D01*
X137114999Y-106952001D01*
X137105231Y-106842129D01*
X137118901Y-106773609D01*
X137167446Y-106723358D01*
X137235452Y-106707329D01*
X137263339Y-106712071D01*
X137386233Y-106747775D01*
X137386236Y-106747775D01*
X137386238Y-106747776D01*
X137420850Y-106750500D01*
X137420858Y-106750500D01*
X139324142Y-106750500D01*
X139324150Y-106750500D01*
X139358762Y-106747776D01*
X139358764Y-106747775D01*
X139358766Y-106747775D01*
X139442809Y-106723358D01*
X139506886Y-106704742D01*
X139639654Y-106626223D01*
X139657065Y-106608811D01*
X139718386Y-106575325D01*
X139788078Y-106580308D01*
G37*
%TD.AperFunction*%
%TA.AperFunction,Conductor*%
G36*
X113055334Y-113808548D02*
G01*
X113111267Y-113850420D01*
X113135684Y-113915884D01*
X113136000Y-113924730D01*
X113136000Y-121274251D01*
X113174435Y-121417695D01*
X113174436Y-121417698D01*
X113199185Y-121460565D01*
X113248687Y-121546304D01*
X113248689Y-121546306D01*
X113360761Y-121658378D01*
X113360767Y-121658383D01*
X115613181Y-123910797D01*
X115646666Y-123972120D01*
X115649500Y-123998478D01*
X115649500Y-124215701D01*
X115652401Y-124252567D01*
X115652402Y-124252573D01*
X115698254Y-124410393D01*
X115698256Y-124410399D01*
X115699426Y-124412377D01*
X115699869Y-124414126D01*
X115701353Y-124417554D01*
X115700799Y-124417793D01*
X115716603Y-124480102D01*
X115701249Y-124532395D01*
X115701817Y-124532641D01*
X115699827Y-124537239D01*
X115699428Y-124538599D01*
X115698722Y-124539791D01*
X115698717Y-124539803D01*
X115687133Y-124579675D01*
X115649525Y-124638560D01*
X115586052Y-124667765D01*
X115516866Y-124658018D01*
X115480376Y-124632759D01*
X112550319Y-121702702D01*
X112516834Y-121641379D01*
X112514000Y-121615021D01*
X112514000Y-114142396D01*
X112533685Y-114075357D01*
X112586489Y-114029602D01*
X112598996Y-114024690D01*
X112719334Y-113984814D01*
X112868656Y-113892712D01*
X112924319Y-113837049D01*
X112985642Y-113803564D01*
X113055334Y-113808548D01*
G37*
%TD.AperFunction*%
%TA.AperFunction,Conductor*%
G36*
X124184608Y-103297185D02*
G01*
X124230363Y-103349989D01*
X124240307Y-103419147D01*
X124229951Y-103453905D01*
X124211098Y-103494335D01*
X124211094Y-103494344D01*
X124149938Y-103722586D01*
X124149936Y-103722596D01*
X124129341Y-103957999D01*
X124129341Y-103958000D01*
X124149936Y-104193403D01*
X124149938Y-104193413D01*
X124211094Y-104421655D01*
X124211096Y-104421659D01*
X124211097Y-104421663D01*
X124294358Y-104600217D01*
X124310965Y-104635830D01*
X124310967Y-104635834D01*
X124388350Y-104746347D01*
X124446501Y-104829396D01*
X124446506Y-104829402D01*
X124613597Y-104996493D01*
X124613603Y-104996498D01*
X124799158Y-105126425D01*
X124842783Y-105181002D01*
X124849977Y-105250500D01*
X124818454Y-105312855D01*
X124799158Y-105329575D01*
X124613597Y-105459505D01*
X124446505Y-105626597D01*
X124310965Y-105820169D01*
X124310964Y-105820171D01*
X124211098Y-106034335D01*
X124211094Y-106034344D01*
X124149938Y-106262586D01*
X124149936Y-106262596D01*
X124129341Y-106497999D01*
X124129341Y-106498000D01*
X124149936Y-106733403D01*
X124149938Y-106733413D01*
X124211094Y-106961655D01*
X124211096Y-106961659D01*
X124211097Y-106961663D01*
X124264558Y-107076310D01*
X124310965Y-107175830D01*
X124310967Y-107175834D01*
X124369462Y-107259373D01*
X124446501Y-107369396D01*
X124446506Y-107369402D01*
X124613597Y-107536493D01*
X124613603Y-107536498D01*
X124799158Y-107666425D01*
X124842783Y-107721002D01*
X124849977Y-107790500D01*
X124818454Y-107852855D01*
X124799158Y-107869575D01*
X124613597Y-107999505D01*
X124446505Y-108166597D01*
X124310965Y-108360169D01*
X124310964Y-108360171D01*
X124211098Y-108574335D01*
X124211094Y-108574344D01*
X124149938Y-108802586D01*
X124149936Y-108802596D01*
X124129341Y-109037999D01*
X124129341Y-109038000D01*
X124149936Y-109273403D01*
X124149938Y-109273413D01*
X124211094Y-109501655D01*
X124211096Y-109501659D01*
X124211097Y-109501663D01*
X124294358Y-109680217D01*
X124310965Y-109715830D01*
X124310967Y-109715834D01*
X124396430Y-109837887D01*
X124446505Y-109909401D01*
X124613599Y-110076495D01*
X124675279Y-110119684D01*
X124807165Y-110212032D01*
X124807167Y-110212033D01*
X124807170Y-110212035D01*
X125021337Y-110311903D01*
X125021343Y-110311904D01*
X125021344Y-110311905D01*
X125073008Y-110325748D01*
X125249592Y-110373063D01*
X125437918Y-110389539D01*
X125484999Y-110393659D01*
X125485000Y-110393659D01*
X125485001Y-110393659D01*
X125524234Y-110390226D01*
X125720408Y-110373063D01*
X125948663Y-110311903D01*
X126162830Y-110212035D01*
X126356401Y-110076495D01*
X126523495Y-109909401D01*
X126653425Y-109723842D01*
X126708002Y-109680217D01*
X126777500Y-109673023D01*
X126839855Y-109704546D01*
X126856575Y-109723842D01*
X126986500Y-109909395D01*
X126986505Y-109909401D01*
X127153599Y-110076495D01*
X127215279Y-110119684D01*
X127347165Y-110212032D01*
X127347167Y-110212033D01*
X127347170Y-110212035D01*
X127561337Y-110311903D01*
X127561343Y-110311904D01*
X127561344Y-110311905D01*
X127613008Y-110325748D01*
X127789592Y-110373063D01*
X127977918Y-110389539D01*
X128024999Y-110393659D01*
X128025000Y-110393659D01*
X128025001Y-110393659D01*
X128064234Y-110390226D01*
X128260408Y-110373063D01*
X128488663Y-110311903D01*
X128702830Y-110212035D01*
X128896401Y-110076495D01*
X129063495Y-109909401D01*
X129199035Y-109715830D01*
X129298903Y-109501663D01*
X129360063Y-109273408D01*
X129380659Y-109038000D01*
X129360063Y-108802592D01*
X129298903Y-108574337D01*
X129199035Y-108360171D01*
X129193425Y-108352158D01*
X129063494Y-108166597D01*
X128896402Y-107999506D01*
X128896401Y-107999505D01*
X128710405Y-107869269D01*
X128666781Y-107814692D01*
X128659588Y-107745193D01*
X128691110Y-107682839D01*
X128710405Y-107666119D01*
X128786373Y-107612925D01*
X128025000Y-106851553D01*
X127263625Y-107612925D01*
X127339594Y-107666119D01*
X127383219Y-107720696D01*
X127390413Y-107790194D01*
X127358890Y-107852549D01*
X127339595Y-107869269D01*
X127153594Y-107999508D01*
X126986505Y-108166597D01*
X126856575Y-108352158D01*
X126801998Y-108395783D01*
X126732500Y-108402977D01*
X126670145Y-108371454D01*
X126653425Y-108352158D01*
X126523494Y-108166597D01*
X126356402Y-107999506D01*
X126356396Y-107999501D01*
X126170842Y-107869575D01*
X126127217Y-107814998D01*
X126120023Y-107745500D01*
X126151546Y-107683145D01*
X126170842Y-107666425D01*
X126323315Y-107559662D01*
X126356401Y-107536495D01*
X126523495Y-107369401D01*
X126653732Y-107183403D01*
X126708307Y-107139780D01*
X126777805Y-107132586D01*
X126840160Y-107164109D01*
X126856880Y-107183405D01*
X126910073Y-107259373D01*
X127671447Y-106498000D01*
X127671447Y-106497999D01*
X128378553Y-106497999D01*
X128378553Y-106498001D01*
X129139925Y-107259373D01*
X129139926Y-107259373D01*
X129198598Y-107175582D01*
X129198600Y-107175578D01*
X129298429Y-106961492D01*
X129298433Y-106961483D01*
X129359567Y-106733326D01*
X129359569Y-106733315D01*
X129380157Y-106498001D01*
X129380157Y-106497998D01*
X129359569Y-106262684D01*
X129359567Y-106262673D01*
X129298433Y-106034516D01*
X129298429Y-106034507D01*
X129198600Y-105820423D01*
X129198599Y-105820421D01*
X129139925Y-105736626D01*
X129139925Y-105736625D01*
X128378553Y-106497999D01*
X127671447Y-106497999D01*
X126910073Y-105736626D01*
X126856881Y-105812594D01*
X126802304Y-105856219D01*
X126732806Y-105863413D01*
X126670451Y-105831891D01*
X126653730Y-105812594D01*
X126523494Y-105626597D01*
X126356402Y-105459506D01*
X126356396Y-105459501D01*
X126170842Y-105329575D01*
X126127217Y-105274998D01*
X126120023Y-105205500D01*
X126151546Y-105143145D01*
X126170842Y-105126425D01*
X126226797Y-105087245D01*
X126356401Y-104996495D01*
X126523495Y-104829401D01*
X126653425Y-104643842D01*
X126708002Y-104600217D01*
X126777500Y-104593023D01*
X126839855Y-104624546D01*
X126856575Y-104643842D01*
X126986500Y-104829395D01*
X126986505Y-104829401D01*
X127153599Y-104996495D01*
X127283205Y-105087246D01*
X127339594Y-105126730D01*
X127383218Y-105181307D01*
X127390411Y-105250806D01*
X127358889Y-105313160D01*
X127339593Y-105329880D01*
X127263626Y-105383072D01*
X127263625Y-105383072D01*
X128025000Y-106144447D01*
X128025001Y-106144447D01*
X128786373Y-105383073D01*
X128786373Y-105383072D01*
X128710405Y-105329880D01*
X128666780Y-105275304D01*
X128659586Y-105205805D01*
X128691108Y-105143451D01*
X128710399Y-105126734D01*
X128896401Y-104996495D01*
X129063495Y-104829401D01*
X129199035Y-104635830D01*
X129298903Y-104421663D01*
X129360063Y-104193408D01*
X129380659Y-103958000D01*
X129360063Y-103722592D01*
X129298903Y-103494337D01*
X129280048Y-103453904D01*
X129269557Y-103384827D01*
X129298077Y-103321043D01*
X129356553Y-103282804D01*
X129392431Y-103277500D01*
X130338719Y-103277500D01*
X130405758Y-103297185D01*
X130426400Y-103313819D01*
X130636181Y-103523600D01*
X130669666Y-103584923D01*
X130672500Y-103611281D01*
X130672500Y-109011807D01*
X130696612Y-109133027D01*
X130696614Y-109133035D01*
X130730062Y-109213785D01*
X130743915Y-109247230D01*
X130743916Y-109247232D01*
X130743917Y-109247233D01*
X130762136Y-109274500D01*
X130787521Y-109312490D01*
X130787521Y-109312491D01*
X130812590Y-109350010D01*
X131599899Y-110137319D01*
X131633384Y-110198642D01*
X131628400Y-110268334D01*
X131599899Y-110312681D01*
X128143925Y-113768656D01*
X124749992Y-117162589D01*
X124703145Y-117209436D01*
X124662589Y-117249992D01*
X124593916Y-117352769D01*
X124580061Y-117386214D01*
X124580062Y-117386215D01*
X124546614Y-117466963D01*
X124537173Y-117514426D01*
X124522621Y-117587589D01*
X124522620Y-117587594D01*
X124522500Y-117588194D01*
X124522500Y-123620175D01*
X124502815Y-123687214D01*
X124463597Y-123725714D01*
X124331342Y-123807289D01*
X124237681Y-123900951D01*
X124176358Y-123934436D01*
X124106666Y-123929452D01*
X124062319Y-123900951D01*
X123968657Y-123807289D01*
X123968656Y-123807288D01*
X123875888Y-123750069D01*
X123819336Y-123715187D01*
X123819331Y-123715185D01*
X123777498Y-123701323D01*
X123652797Y-123660001D01*
X123652795Y-123660000D01*
X123550010Y-123649500D01*
X122749998Y-123649500D01*
X122749980Y-123649501D01*
X122647203Y-123660000D01*
X122647200Y-123660001D01*
X122480668Y-123715185D01*
X122480663Y-123715187D01*
X122331344Y-123807287D01*
X122301756Y-123836876D01*
X122240432Y-123870360D01*
X122170741Y-123865374D01*
X122148985Y-123854735D01*
X122044334Y-123790186D01*
X121877797Y-123735001D01*
X121877795Y-123735000D01*
X121775016Y-123724500D01*
X121775009Y-123724500D01*
X121635592Y-123724500D01*
X121568553Y-123704815D01*
X121522798Y-123652011D01*
X121512854Y-123582853D01*
X121537022Y-123526942D01*
X121536773Y-123526786D01*
X121537787Y-123525170D01*
X121538645Y-123523188D01*
X121540478Y-123520889D01*
X121630452Y-123377697D01*
X121630454Y-123377694D01*
X121630454Y-123377692D01*
X121630456Y-123377690D01*
X121686313Y-123218059D01*
X121686313Y-123218058D01*
X121686314Y-123218056D01*
X121705249Y-123050002D01*
X121705249Y-123049997D01*
X121686314Y-122881943D01*
X121630454Y-122722305D01*
X121630452Y-122722302D01*
X121540481Y-122579115D01*
X121540476Y-122579109D01*
X121420890Y-122459523D01*
X121420884Y-122459518D01*
X121277697Y-122369547D01*
X121277694Y-122369545D01*
X121118056Y-122313685D01*
X120950003Y-122294751D01*
X120949997Y-122294751D01*
X120781943Y-122313685D01*
X120622305Y-122369545D01*
X120622302Y-122369547D01*
X120479115Y-122459518D01*
X120479109Y-122459523D01*
X120359523Y-122579109D01*
X120359518Y-122579115D01*
X120269547Y-122722302D01*
X120269544Y-122722307D01*
X120213687Y-122881941D01*
X120204988Y-122959138D01*
X120177920Y-123023551D01*
X120169449Y-123032933D01*
X119984881Y-123217501D01*
X119923558Y-123250986D01*
X119862605Y-123248896D01*
X119702573Y-123202402D01*
X119702567Y-123202401D01*
X119665701Y-123199500D01*
X119665694Y-123199500D01*
X118838000Y-123199500D01*
X118770961Y-123179815D01*
X118725206Y-123127011D01*
X118714000Y-123075500D01*
X118714000Y-121834499D01*
X118733685Y-121767460D01*
X118786489Y-121721705D01*
X118838000Y-121710499D01*
X119508028Y-121710499D01*
X119508036Y-121710499D01*
X119627418Y-121699886D01*
X119823049Y-121643909D01*
X120003407Y-121549698D01*
X120161109Y-121421109D01*
X120289698Y-121263407D01*
X120383909Y-121083049D01*
X120439886Y-120887418D01*
X120450500Y-120768037D01*
X120450499Y-119651964D01*
X120439886Y-119532582D01*
X120383909Y-119336951D01*
X120289698Y-119156593D01*
X120176983Y-119018359D01*
X120149875Y-118953965D01*
X120161884Y-118885135D01*
X120176981Y-118861642D01*
X120289698Y-118723407D01*
X120383909Y-118543049D01*
X120439886Y-118347418D01*
X120450500Y-118228037D01*
X120450499Y-117111964D01*
X120439886Y-116992582D01*
X120384782Y-116800001D01*
X120383910Y-116796954D01*
X120383909Y-116796953D01*
X120383909Y-116796951D01*
X120289698Y-116616593D01*
X120176983Y-116478359D01*
X120149875Y-116413965D01*
X120161884Y-116345135D01*
X120176981Y-116321642D01*
X120289698Y-116183407D01*
X120383909Y-116003049D01*
X120439886Y-115807418D01*
X120450500Y-115688037D01*
X120450499Y-114571964D01*
X120439886Y-114452582D01*
X120383909Y-114256951D01*
X120289698Y-114076593D01*
X120176983Y-113938359D01*
X120149875Y-113873965D01*
X120161884Y-113805135D01*
X120176981Y-113781642D01*
X120289698Y-113643407D01*
X120383909Y-113463049D01*
X120439886Y-113267418D01*
X120450500Y-113148037D01*
X120450499Y-112963356D01*
X120470183Y-112896319D01*
X120522987Y-112850564D01*
X120592145Y-112840620D01*
X120655701Y-112869645D01*
X120679493Y-112897386D01*
X120724853Y-112969576D01*
X120848424Y-113093147D01*
X120996394Y-113186122D01*
X121161343Y-113243841D01*
X121161349Y-113243841D01*
X121161351Y-113243842D01*
X121202750Y-113248506D01*
X121291442Y-113258499D01*
X121291445Y-113258500D01*
X121291448Y-113258500D01*
X123328555Y-113258500D01*
X123328556Y-113258499D01*
X123458657Y-113243841D01*
X123623606Y-113186122D01*
X123771576Y-113093147D01*
X123895147Y-112969576D01*
X123988122Y-112821606D01*
X124045841Y-112656657D01*
X124060500Y-112526552D01*
X124060500Y-111889448D01*
X124045841Y-111759343D01*
X123988122Y-111594394D01*
X123895147Y-111446424D01*
X123791550Y-111342827D01*
X123758065Y-111281504D01*
X123763049Y-111211812D01*
X123791550Y-111167464D01*
X123894754Y-111064260D01*
X123987669Y-110916386D01*
X124045351Y-110751539D01*
X124059999Y-110621530D01*
X124060000Y-110621526D01*
X124060000Y-109984473D01*
X124059999Y-109984469D01*
X124045351Y-109854460D01*
X123987669Y-109689613D01*
X123894753Y-109541737D01*
X123771262Y-109418246D01*
X123634339Y-109332212D01*
X122397680Y-110568871D01*
X122336357Y-110602356D01*
X122266665Y-110597372D01*
X122222318Y-110568871D01*
X120985659Y-109332212D01*
X120848738Y-109418245D01*
X120725246Y-109541737D01*
X120679493Y-109614554D01*
X120627158Y-109660845D01*
X120558105Y-109671493D01*
X120494256Y-109643118D01*
X120455884Y-109584729D01*
X120450499Y-109548582D01*
X120450499Y-109491971D01*
X120450499Y-109491964D01*
X120439886Y-109372582D01*
X120405669Y-109253000D01*
X121613552Y-109253000D01*
X122310000Y-109949447D01*
X123006447Y-109253000D01*
X121613552Y-109253000D01*
X120405669Y-109253000D01*
X120383909Y-109176951D01*
X120289698Y-108996593D01*
X120176983Y-108858359D01*
X120149875Y-108793965D01*
X120161884Y-108725135D01*
X120176981Y-108701642D01*
X120289698Y-108563407D01*
X120383909Y-108383049D01*
X120439886Y-108187418D01*
X120450500Y-108068037D01*
X120450499Y-106951964D01*
X120439886Y-106832582D01*
X120383909Y-106636951D01*
X120289698Y-106456593D01*
X120176983Y-106318359D01*
X120149875Y-106253965D01*
X120161884Y-106185135D01*
X120176981Y-106161642D01*
X120289698Y-106023407D01*
X120383909Y-105843049D01*
X120439886Y-105647418D01*
X120450500Y-105528037D01*
X120450499Y-104411964D01*
X120439886Y-104292582D01*
X120383909Y-104096951D01*
X120289698Y-103916593D01*
X120185360Y-103788632D01*
X120161109Y-103758890D01*
X120013110Y-103638214D01*
X120003407Y-103630302D01*
X119823049Y-103536091D01*
X119823042Y-103536089D01*
X119801535Y-103529935D01*
X119769314Y-103520715D01*
X119710278Y-103483349D01*
X119680814Y-103419995D01*
X119690279Y-103350770D01*
X119735668Y-103297650D01*
X119802570Y-103277503D01*
X119803427Y-103277500D01*
X124117569Y-103277500D01*
X124184608Y-103297185D01*
G37*
%TD.AperFunction*%
%TA.AperFunction,Conductor*%
G36*
X116392540Y-107683685D02*
G01*
X116438295Y-107736489D01*
X116449501Y-107788000D01*
X116449501Y-108068034D01*
X116460113Y-108187415D01*
X116516089Y-108383045D01*
X116516090Y-108383048D01*
X116516091Y-108383049D01*
X116610302Y-108563407D01*
X116619220Y-108574344D01*
X116723015Y-108701639D01*
X116750124Y-108766036D01*
X116738115Y-108834865D01*
X116723015Y-108858361D01*
X116610307Y-108996587D01*
X116610302Y-108996593D01*
X116588673Y-109038000D01*
X116516089Y-109176954D01*
X116488178Y-109274501D01*
X116467387Y-109347166D01*
X116460114Y-109372583D01*
X116460113Y-109372586D01*
X116454494Y-109435795D01*
X116451038Y-109474670D01*
X116449500Y-109491966D01*
X116449500Y-110608028D01*
X116449501Y-110608034D01*
X116460113Y-110727415D01*
X116516089Y-110923045D01*
X116516090Y-110923048D01*
X116516091Y-110923049D01*
X116610302Y-111103407D01*
X116610304Y-111103409D01*
X116723015Y-111241639D01*
X116750124Y-111306036D01*
X116738115Y-111374865D01*
X116723015Y-111398361D01*
X116610304Y-111536590D01*
X116516089Y-111716954D01*
X116496228Y-111786368D01*
X116466734Y-111889448D01*
X116460114Y-111912583D01*
X116460113Y-111912586D01*
X116449500Y-112031966D01*
X116449500Y-113148028D01*
X116449501Y-113148034D01*
X116460113Y-113267415D01*
X116516089Y-113463045D01*
X116516090Y-113463048D01*
X116516091Y-113463049D01*
X116610302Y-113643407D01*
X116655939Y-113699376D01*
X116723015Y-113781639D01*
X116750124Y-113846036D01*
X116738115Y-113914865D01*
X116723015Y-113938361D01*
X116611310Y-114075357D01*
X116610302Y-114076593D01*
X116573574Y-114146905D01*
X116516089Y-114256954D01*
X116475165Y-114399980D01*
X116461590Y-114447426D01*
X116460114Y-114452583D01*
X116460113Y-114452586D01*
X116449500Y-114571966D01*
X116449500Y-115688028D01*
X116449500Y-115688033D01*
X116449501Y-115688036D01*
X116450565Y-115700000D01*
X116460113Y-115807415D01*
X116516089Y-116003045D01*
X116516090Y-116003048D01*
X116516091Y-116003049D01*
X116610302Y-116183407D01*
X116610304Y-116183409D01*
X116723015Y-116321639D01*
X116750124Y-116386036D01*
X116738115Y-116454865D01*
X116723015Y-116478361D01*
X116704106Y-116501552D01*
X116610302Y-116616593D01*
X116609732Y-116617685D01*
X116516089Y-116796954D01*
X116460114Y-116992583D01*
X116460113Y-116992586D01*
X116449500Y-117111966D01*
X116449500Y-118228028D01*
X116449501Y-118228034D01*
X116460113Y-118347415D01*
X116516089Y-118543045D01*
X116516090Y-118543048D01*
X116516091Y-118543049D01*
X116610302Y-118723407D01*
X116647748Y-118769331D01*
X116723015Y-118861639D01*
X116750124Y-118926036D01*
X116738115Y-118994865D01*
X116723015Y-119018361D01*
X116677652Y-119073995D01*
X116610302Y-119156593D01*
X116587367Y-119200500D01*
X116516089Y-119336954D01*
X116460114Y-119532583D01*
X116460113Y-119532586D01*
X116449500Y-119651966D01*
X116449500Y-120768028D01*
X116449500Y-120768033D01*
X116449501Y-120768036D01*
X116451571Y-120791330D01*
X116460113Y-120887415D01*
X116516089Y-121083045D01*
X116516090Y-121083048D01*
X116516091Y-121083049D01*
X116610302Y-121263407D01*
X116610304Y-121263409D01*
X116738890Y-121421109D01*
X116812230Y-121480909D01*
X116896593Y-121549698D01*
X117076951Y-121643909D01*
X117272582Y-121699886D01*
X117391963Y-121710500D01*
X117462000Y-121710499D01*
X117529038Y-121730183D01*
X117574794Y-121782986D01*
X117586000Y-121834499D01*
X117586000Y-123083277D01*
X117566315Y-123150316D01*
X117513511Y-123196071D01*
X117444353Y-123206015D01*
X117427937Y-123202469D01*
X117427567Y-123202401D01*
X117390701Y-123199500D01*
X117390694Y-123199500D01*
X116548478Y-123199500D01*
X116481439Y-123179815D01*
X116460797Y-123163181D01*
X114300319Y-121002703D01*
X114266834Y-120941380D01*
X114264000Y-120915022D01*
X114264000Y-110934255D01*
X114264001Y-110934242D01*
X114264001Y-110775750D01*
X114264001Y-110775748D01*
X114225565Y-110632304D01*
X114219342Y-110621526D01*
X114151315Y-110503699D01*
X114151310Y-110503693D01*
X113671840Y-110024223D01*
X113186817Y-109539201D01*
X113153333Y-109477879D01*
X113150499Y-109451529D01*
X113150499Y-108699992D01*
X113146932Y-108665077D01*
X113139999Y-108597203D01*
X113139998Y-108597200D01*
X113124192Y-108549500D01*
X113084814Y-108430666D01*
X112992712Y-108281344D01*
X112899049Y-108187681D01*
X112865564Y-108126358D01*
X112870548Y-108056666D01*
X112899049Y-108012319D01*
X112920692Y-107990676D01*
X112992712Y-107918656D01*
X113084814Y-107769334D01*
X113091553Y-107748995D01*
X113131326Y-107691551D01*
X113195842Y-107664728D01*
X113209259Y-107664000D01*
X116325501Y-107664000D01*
X116392540Y-107683685D01*
G37*
%TD.AperFunction*%
%TA.AperFunction,Conductor*%
G36*
X106849266Y-108050863D02*
G01*
X106905199Y-108092735D01*
X106929616Y-108158199D01*
X106923638Y-108206048D01*
X106910001Y-108247200D01*
X106910000Y-108247204D01*
X106899500Y-108349983D01*
X106899500Y-108349996D01*
X106899501Y-109350000D01*
X106899501Y-109350019D01*
X106910000Y-109452796D01*
X106910001Y-109452799D01*
X106965185Y-109619331D01*
X106965187Y-109619336D01*
X107057289Y-109768657D01*
X107060795Y-109773091D01*
X107086934Y-109837887D01*
X107073892Y-109906529D01*
X107060795Y-109926909D01*
X107057289Y-109931342D01*
X106965187Y-110080663D01*
X106965185Y-110080668D01*
X106946413Y-110137319D01*
X106911843Y-110241646D01*
X106910001Y-110247204D01*
X106910000Y-110247205D01*
X106907202Y-110274602D01*
X106880806Y-110339294D01*
X106823626Y-110379445D01*
X106783844Y-110386000D01*
X106407308Y-110386000D01*
X106340269Y-110366315D01*
X106319631Y-110349685D01*
X106251865Y-110281919D01*
X106110398Y-110198256D01*
X106110397Y-110198255D01*
X106110396Y-110198255D01*
X106110393Y-110198254D01*
X105952573Y-110152402D01*
X105952567Y-110152401D01*
X105915701Y-110149500D01*
X105915694Y-110149500D01*
X104947478Y-110149500D01*
X104880439Y-110129815D01*
X104834684Y-110077011D01*
X104824740Y-110007853D01*
X104853765Y-109944297D01*
X104859797Y-109937819D01*
X105785813Y-109011803D01*
X106718253Y-108079362D01*
X106779574Y-108045879D01*
X106849266Y-108050863D01*
G37*
%TD.AperFunction*%
%TA.AperFunction,Conductor*%
G36*
X110668834Y-107081294D02*
G01*
X110724767Y-107123166D01*
X110749184Y-107188630D01*
X110749500Y-107197476D01*
X110749500Y-107500000D01*
X110749502Y-107500021D01*
X110755594Y-107559662D01*
X110742824Y-107628354D01*
X110694943Y-107679238D01*
X110627152Y-107696158D01*
X110593233Y-107689968D01*
X110502799Y-107660001D01*
X110502795Y-107660000D01*
X110400016Y-107649500D01*
X110279205Y-107649500D01*
X110212166Y-107629815D01*
X110166411Y-107577011D01*
X110156467Y-107507853D01*
X110185492Y-107444297D01*
X110217207Y-107418112D01*
X110246304Y-107401313D01*
X110351313Y-107296304D01*
X110351313Y-107296302D01*
X110361517Y-107286099D01*
X110361521Y-107286094D01*
X110537821Y-107109793D01*
X110599142Y-107076310D01*
X110668834Y-107081294D01*
G37*
%TD.AperFunction*%
%TA.AperFunction,Conductor*%
G36*
X117163612Y-103297185D02*
G01*
X117209367Y-103349989D01*
X117219311Y-103419147D01*
X117190286Y-103482703D01*
X117131508Y-103520477D01*
X117130734Y-103520701D01*
X117120605Y-103523600D01*
X117076953Y-103536090D01*
X117076951Y-103536090D01*
X117076951Y-103536091D01*
X116896593Y-103630302D01*
X116896591Y-103630303D01*
X116896590Y-103630304D01*
X116738890Y-103758890D01*
X116610304Y-103916590D01*
X116610302Y-103916593D01*
X116588673Y-103958000D01*
X116516089Y-104096954D01*
X116460114Y-104292583D01*
X116460113Y-104292586D01*
X116449500Y-104411966D01*
X116449500Y-105528028D01*
X116449501Y-105528034D01*
X116460113Y-105647415D01*
X116516089Y-105843045D01*
X116516090Y-105843048D01*
X116516091Y-105843049D01*
X116610302Y-106023407D01*
X116644368Y-106065186D01*
X116723015Y-106161639D01*
X116750124Y-106226036D01*
X116738115Y-106294865D01*
X116723015Y-106318361D01*
X116610301Y-106456594D01*
X116603605Y-106469413D01*
X116555118Y-106519720D01*
X116493697Y-106536000D01*
X113209259Y-106536000D01*
X113142220Y-106516315D01*
X113096465Y-106463511D01*
X113091553Y-106451004D01*
X113091386Y-106450500D01*
X113084814Y-106430666D01*
X112992712Y-106281344D01*
X112868656Y-106157288D01*
X112719334Y-106065186D01*
X112552797Y-106010001D01*
X112552795Y-106010000D01*
X112450016Y-105999500D01*
X112450009Y-105999500D01*
X111947477Y-105999500D01*
X111880438Y-105979815D01*
X111834683Y-105927011D01*
X111824739Y-105857853D01*
X111853764Y-105794297D01*
X111859796Y-105787819D01*
X111860797Y-105786818D01*
X111922120Y-105753333D01*
X111948478Y-105750499D01*
X112700002Y-105750499D01*
X112700008Y-105750499D01*
X112802797Y-105739999D01*
X112969334Y-105684814D01*
X113118656Y-105592712D01*
X113118664Y-105592703D01*
X113123085Y-105589209D01*
X113187879Y-105563066D01*
X113256522Y-105576103D01*
X113276915Y-105589209D01*
X113281339Y-105592707D01*
X113281344Y-105592712D01*
X113430666Y-105684814D01*
X113597203Y-105739999D01*
X113699991Y-105750500D01*
X114700008Y-105750499D01*
X114700016Y-105750498D01*
X114700019Y-105750498D01*
X114756302Y-105744748D01*
X114802797Y-105739999D01*
X114969334Y-105684814D01*
X115118656Y-105592712D01*
X115242712Y-105468656D01*
X115334814Y-105319334D01*
X115389999Y-105152797D01*
X115400500Y-105050009D01*
X115400499Y-104249992D01*
X115393413Y-104180629D01*
X115389999Y-104147203D01*
X115389998Y-104147200D01*
X115334814Y-103980666D01*
X115242712Y-103831344D01*
X115149049Y-103737681D01*
X115115564Y-103676358D01*
X115120548Y-103606666D01*
X115149049Y-103562319D01*
X115190891Y-103520477D01*
X115242712Y-103468656D01*
X115324285Y-103336403D01*
X115376233Y-103289679D01*
X115429824Y-103277500D01*
X117096573Y-103277500D01*
X117163612Y-103297185D01*
G37*
%TD.AperFunction*%
%TD*%
M02*
