%TF.GenerationSoftware,KiCad,Pcbnew,8.0.4*%
%TF.CreationDate,2025-01-29T17:32:31-05:00*%
%TF.ProjectId,EauRouge,45617552-6f75-4676-952e-6b696361645f,rev?*%
%TF.SameCoordinates,Original*%
%TF.FileFunction,Copper,L3,Inr*%
%TF.FilePolarity,Positive*%
%FSLAX46Y46*%
G04 Gerber Fmt 4.6, Leading zero omitted, Abs format (unit mm)*
G04 Created by KiCad (PCBNEW 8.0.4) date 2025-01-29 17:32:31*
%MOMM*%
%LPD*%
G01*
G04 APERTURE LIST*
%TA.AperFunction,ComponentPad*%
%ADD10R,1.700000X1.700000*%
%TD*%
%TA.AperFunction,ComponentPad*%
%ADD11O,1.700000X1.700000*%
%TD*%
%TA.AperFunction,ComponentPad*%
%ADD12C,1.400000*%
%TD*%
%TA.AperFunction,ComponentPad*%
%ADD13R,3.500000X3.500000*%
%TD*%
%TA.AperFunction,ComponentPad*%
%ADD14C,3.500000*%
%TD*%
%TA.AperFunction,ComponentPad*%
%ADD15R,2.000000X2.000000*%
%TD*%
%TA.AperFunction,ComponentPad*%
%ADD16C,2.000000*%
%TD*%
%TA.AperFunction,ViaPad*%
%ADD17C,0.500000*%
%TD*%
%TA.AperFunction,ViaPad*%
%ADD18C,0.600000*%
%TD*%
G04 APERTURE END LIST*
D10*
%TO.N,/BUFF_SERVO_PWM1*%
%TO.C,J4*%
X145825000Y-122825000D03*
D11*
%TO.N,+5V*%
X145825000Y-125365000D03*
%TO.N,GND*%
X145825000Y-127905000D03*
%TD*%
D12*
%TO.N,*%
%TO.C,J1*%
X103475000Y-135900000D03*
X103475000Y-124900000D03*
D13*
%TO.N,-BATT*%
X113475000Y-127900000D03*
D14*
%TO.N,+BATT*%
X113475000Y-132900000D03*
%TD*%
D15*
%TO.N,+12V*%
%TO.C,J3*%
X133450000Y-145350000D03*
D16*
%TO.N,SOLENOID-*%
X136950000Y-145350000D03*
%TD*%
D10*
%TO.N,/BUFF_SERVO_PWM2*%
%TO.C,J5*%
X145825000Y-132225000D03*
D11*
%TO.N,+5V*%
X145825000Y-134765000D03*
%TO.N,GND*%
X145825000Y-137305000D03*
%TD*%
D17*
%TO.N,GND*%
X140150000Y-118850000D03*
X122400000Y-137300000D03*
X136850000Y-128800000D03*
X115450000Y-111850000D03*
X133450000Y-147150000D03*
X130900000Y-110150000D03*
X133550000Y-100900000D03*
X125700000Y-149150000D03*
X124200000Y-137050000D03*
X122850000Y-144800000D03*
X122500000Y-107800000D03*
X126800000Y-107750000D03*
X130100000Y-103900000D03*
X106800000Y-143050000D03*
X100950000Y-133250000D03*
X109550000Y-106050000D03*
X148500000Y-103050000D03*
X128600000Y-142700000D03*
D18*
X112850000Y-114450000D03*
D17*
X115400000Y-124200000D03*
X116200000Y-103650000D03*
X101900000Y-111650000D03*
X131600000Y-145350000D03*
X127100000Y-142700000D03*
X148600000Y-146450000D03*
X120250000Y-149100000D03*
X124350000Y-144850000D03*
X144650000Y-130000000D03*
X123150000Y-137150000D03*
X136850000Y-127800000D03*
X111350000Y-147650000D03*
X149230585Y-124751255D03*
X141650000Y-104900000D03*
X126850000Y-110800000D03*
X127100000Y-137200000D03*
X149150000Y-112500000D03*
X120000000Y-137200000D03*
X143200000Y-134200000D03*
X101000000Y-124600000D03*
X112900000Y-116200000D03*
X111050000Y-116200000D03*
X135350000Y-149150000D03*
X106700000Y-113050000D03*
X141450000Y-132900000D03*
X130000000Y-139950000D03*
X136850000Y-132200000D03*
X101000000Y-119150000D03*
X138100000Y-113900000D03*
X112950000Y-121300000D03*
D18*
X115400000Y-114350000D03*
D17*
X128600000Y-144950000D03*
X143850000Y-139400000D03*
X120200000Y-133050000D03*
X131950000Y-128950000D03*
X103800000Y-134250000D03*
X139900000Y-141550000D03*
X116650000Y-149150000D03*
X106300000Y-109600000D03*
X100850000Y-107850000D03*
X122800000Y-142750000D03*
X132000000Y-132350000D03*
X138900000Y-138350000D03*
X121800000Y-122150000D03*
X132000000Y-133700000D03*
X137600000Y-147450000D03*
X138000000Y-108100000D03*
X126550000Y-128150000D03*
X128200000Y-132600000D03*
X123400000Y-117850000D03*
X108900000Y-116250000D03*
D18*
X111250000Y-114250000D03*
D17*
X104900000Y-128400000D03*
X136850000Y-126750000D03*
X136900000Y-129750000D03*
X102100000Y-147600000D03*
X109800000Y-136350000D03*
X142700000Y-149150000D03*
X142750000Y-142650000D03*
X114550000Y-141600000D03*
X137200000Y-142950000D03*
X127100000Y-144900000D03*
X132600000Y-107650000D03*
X134600000Y-138700000D03*
X126250000Y-137050000D03*
X120300000Y-147850000D03*
X135215000Y-107660000D03*
X133450000Y-143500000D03*
X100950000Y-141000000D03*
X113000000Y-125250000D03*
X126300000Y-118150000D03*
X102750000Y-137800000D03*
X107400000Y-106150000D03*
X147500000Y-114750000D03*
D18*
X131600000Y-116900000D03*
D17*
X106900000Y-121550000D03*
X108150000Y-100900000D03*
X136800000Y-133400000D03*
X141950000Y-126750000D03*
X124350000Y-142750000D03*
X115500000Y-116200000D03*
X142750000Y-100900000D03*
X129750000Y-121650000D03*
X115800000Y-134950000D03*
X121900000Y-113800000D03*
X149200000Y-130200000D03*
X102200000Y-102000000D03*
X126800000Y-105200000D03*
X119350000Y-126950000D03*
X122400000Y-103650000D03*
X113150000Y-112050000D03*
X149250000Y-138450000D03*
X111000000Y-119850000D03*
X124850000Y-100900000D03*
X136850000Y-130850000D03*
X116200000Y-100900000D03*
X125250000Y-137200000D03*
X117250000Y-122600000D03*
X102000000Y-115150000D03*
D18*
X113150000Y-105750000D03*
D17*
X118450000Y-145700000D03*
X142350000Y-111800000D03*
D18*
X119150000Y-140700000D03*
D17*
X116650000Y-147800000D03*
X110400000Y-107350000D03*
X114300000Y-109650000D03*
X133000000Y-111350000D03*
X128250000Y-137100000D03*
X126650000Y-124800000D03*
%TO.N,/MCU/CHIP_EN*%
X110200000Y-104650000D03*
X125485000Y-106498000D03*
%TO.N,/BUFF_SERVO_PWM2*%
X110000000Y-121250000D03*
X119087500Y-125900000D03*
%TO.N,/SOLENOID_DRIVE*%
X146100000Y-141050000D03*
X118450000Y-112590000D03*
%TO.N,/Power/EN*%
X130225000Y-136400000D03*
X117150000Y-138800000D03*
%TO.N,/SCL*%
X114200000Y-104650000D03*
X118450000Y-117670000D03*
X105150000Y-114700000D03*
%TO.N,/SDA*%
X118450000Y-115130000D03*
X105150000Y-113450000D03*
%TO.N,/BUFF_SERVO_PWM1*%
X120950000Y-123050000D03*
X110000000Y-110800000D03*
%TO.N,/MCU/ESP32_PWM2*%
X111950000Y-110950000D03*
X118450000Y-110050000D03*
%TO.N,/MCU/VIN_LED_CONTROL*%
X118150000Y-127000000D03*
X111650000Y-141050000D03*
%TD*%
%TA.AperFunction,Conductor*%
%TO.N,GND*%
G36*
X145002702Y-100250618D02*
G01*
X145015967Y-100251197D01*
X145408558Y-100268337D01*
X145419293Y-100269277D01*
X145819386Y-100321950D01*
X145830010Y-100323823D01*
X146223993Y-100411167D01*
X146234405Y-100413956D01*
X146619279Y-100535307D01*
X146629414Y-100538996D01*
X147002232Y-100693423D01*
X147012024Y-100697989D01*
X147060519Y-100723234D01*
X147369942Y-100884309D01*
X147379310Y-100889717D01*
X147719638Y-101106530D01*
X147728499Y-101112735D01*
X148048627Y-101358378D01*
X148056914Y-101365332D01*
X148354412Y-101637938D01*
X148362061Y-101645587D01*
X148634667Y-101943085D01*
X148641621Y-101951372D01*
X148887264Y-102271500D01*
X148893469Y-102280361D01*
X149110282Y-102620689D01*
X149115690Y-102630057D01*
X149302007Y-102987969D01*
X149306579Y-102997773D01*
X149460997Y-103370570D01*
X149464697Y-103380735D01*
X149586037Y-103765575D01*
X149588837Y-103776025D01*
X149676173Y-104169977D01*
X149678051Y-104180629D01*
X149730720Y-104580683D01*
X149731663Y-104591460D01*
X149747324Y-104950172D01*
X149749382Y-104997297D01*
X149749500Y-105002706D01*
X149749500Y-144997293D01*
X149749382Y-145002702D01*
X149731663Y-145408539D01*
X149730720Y-145419316D01*
X149678051Y-145819370D01*
X149676173Y-145830022D01*
X149588837Y-146223974D01*
X149586037Y-146234424D01*
X149464697Y-146619264D01*
X149460997Y-146629429D01*
X149306579Y-147002226D01*
X149302007Y-147012030D01*
X149115690Y-147369942D01*
X149110282Y-147379310D01*
X148893469Y-147719638D01*
X148887264Y-147728499D01*
X148641621Y-148048627D01*
X148634667Y-148056914D01*
X148362061Y-148354412D01*
X148354412Y-148362061D01*
X148056914Y-148634667D01*
X148048627Y-148641621D01*
X147728499Y-148887264D01*
X147719638Y-148893469D01*
X147379310Y-149110282D01*
X147369942Y-149115690D01*
X147012030Y-149302007D01*
X147002226Y-149306579D01*
X146629429Y-149460997D01*
X146619264Y-149464697D01*
X146234424Y-149586037D01*
X146223974Y-149588837D01*
X145830022Y-149676173D01*
X145819370Y-149678051D01*
X145419316Y-149730720D01*
X145408539Y-149731663D01*
X145002703Y-149749382D01*
X144997294Y-149749500D01*
X105002706Y-149749500D01*
X104997297Y-149749382D01*
X104591460Y-149731663D01*
X104580685Y-149730720D01*
X104380656Y-149704385D01*
X104180629Y-149678051D01*
X104169977Y-149676173D01*
X103915393Y-149619733D01*
X103776022Y-149588836D01*
X103765579Y-149586038D01*
X103380733Y-149464696D01*
X103370570Y-149460997D01*
X102997773Y-149306579D01*
X102987969Y-149302007D01*
X102630057Y-149115690D01*
X102620689Y-149110282D01*
X102280361Y-148893469D01*
X102271500Y-148887264D01*
X101951372Y-148641621D01*
X101943085Y-148634667D01*
X101645587Y-148362061D01*
X101637938Y-148354412D01*
X101365332Y-148056914D01*
X101358378Y-148048627D01*
X101112735Y-147728499D01*
X101106530Y-147719638D01*
X100889717Y-147379310D01*
X100884309Y-147369942D01*
X100807680Y-147222738D01*
X100697989Y-147012024D01*
X100693420Y-147002226D01*
X100630573Y-146850500D01*
X100538996Y-146629414D01*
X100535307Y-146619279D01*
X100413956Y-146234405D01*
X100411167Y-146223993D01*
X100334620Y-145878711D01*
X102149500Y-145878711D01*
X102149500Y-146121288D01*
X102169707Y-146274782D01*
X102181162Y-146361789D01*
X102190831Y-146397873D01*
X102243947Y-146596104D01*
X102336773Y-146820205D01*
X102336777Y-146820214D01*
X102354262Y-146850498D01*
X102458064Y-147030289D01*
X102458066Y-147030292D01*
X102458067Y-147030293D01*
X102605733Y-147222736D01*
X102605739Y-147222743D01*
X102777256Y-147394260D01*
X102777262Y-147394265D01*
X102969711Y-147541936D01*
X103179788Y-147663224D01*
X103403900Y-147756054D01*
X103638211Y-147818838D01*
X103818586Y-147842584D01*
X103878711Y-147850500D01*
X103878712Y-147850500D01*
X104121289Y-147850500D01*
X104169388Y-147844167D01*
X104361789Y-147818838D01*
X104596100Y-147756054D01*
X104820212Y-147663224D01*
X105030289Y-147541936D01*
X105222738Y-147394265D01*
X105394265Y-147222738D01*
X105541936Y-147030289D01*
X105663224Y-146820212D01*
X105756054Y-146596100D01*
X105818838Y-146361789D01*
X105850500Y-146121288D01*
X105850500Y-145878712D01*
X105818838Y-145638211D01*
X105756054Y-145403900D01*
X105663224Y-145179788D01*
X105541936Y-144969711D01*
X105394265Y-144777262D01*
X105394260Y-144777256D01*
X105222743Y-144605739D01*
X105222736Y-144605733D01*
X105030293Y-144458067D01*
X105030292Y-144458066D01*
X105030289Y-144458064D01*
X104820212Y-144336776D01*
X104820205Y-144336773D01*
X104736582Y-144302135D01*
X131949500Y-144302135D01*
X131949500Y-146397870D01*
X131949501Y-146397876D01*
X131955908Y-146457483D01*
X132006202Y-146592328D01*
X132006206Y-146592335D01*
X132092452Y-146707544D01*
X132092455Y-146707547D01*
X132207664Y-146793793D01*
X132207671Y-146793797D01*
X132342517Y-146844091D01*
X132342516Y-146844091D01*
X132349444Y-146844835D01*
X132402127Y-146850500D01*
X134497872Y-146850499D01*
X134557483Y-146844091D01*
X134692331Y-146793796D01*
X134807546Y-146707546D01*
X134893796Y-146592331D01*
X134944091Y-146457483D01*
X134950500Y-146397873D01*
X134950499Y-145349994D01*
X135444357Y-145349994D01*
X135444357Y-145350005D01*
X135464890Y-145597812D01*
X135464892Y-145597824D01*
X135525936Y-145838881D01*
X135625826Y-146066606D01*
X135761833Y-146274782D01*
X135761836Y-146274785D01*
X135930256Y-146457738D01*
X136126491Y-146610474D01*
X136345190Y-146728828D01*
X136580386Y-146809571D01*
X136825665Y-146850500D01*
X137074335Y-146850500D01*
X137319614Y-146809571D01*
X137554810Y-146728828D01*
X137773509Y-146610474D01*
X137969744Y-146457738D01*
X138138164Y-146274785D01*
X138274173Y-146066607D01*
X138356592Y-145878711D01*
X144149500Y-145878711D01*
X144149500Y-146121288D01*
X144169707Y-146274782D01*
X144181162Y-146361789D01*
X144190831Y-146397873D01*
X144243947Y-146596104D01*
X144336773Y-146820205D01*
X144336777Y-146820214D01*
X144354262Y-146850498D01*
X144458064Y-147030289D01*
X144458066Y-147030292D01*
X144458067Y-147030293D01*
X144605733Y-147222736D01*
X144605739Y-147222743D01*
X144777256Y-147394260D01*
X144777262Y-147394265D01*
X144969711Y-147541936D01*
X145179788Y-147663224D01*
X145403900Y-147756054D01*
X145638211Y-147818838D01*
X145818586Y-147842584D01*
X145878711Y-147850500D01*
X145878712Y-147850500D01*
X146121289Y-147850500D01*
X146169388Y-147844167D01*
X146361789Y-147818838D01*
X146596100Y-147756054D01*
X146820212Y-147663224D01*
X147030289Y-147541936D01*
X147222738Y-147394265D01*
X147394265Y-147222738D01*
X147541936Y-147030289D01*
X147663224Y-146820212D01*
X147756054Y-146596100D01*
X147818838Y-146361789D01*
X147850500Y-146121288D01*
X147850500Y-145878712D01*
X147818838Y-145638211D01*
X147756054Y-145403900D01*
X147663224Y-145179788D01*
X147541936Y-144969711D01*
X147394265Y-144777262D01*
X147394260Y-144777256D01*
X147222743Y-144605739D01*
X147222736Y-144605733D01*
X147030293Y-144458067D01*
X147030292Y-144458066D01*
X147030289Y-144458064D01*
X146820212Y-144336776D01*
X146820205Y-144336773D01*
X146596104Y-144243947D01*
X146361785Y-144181161D01*
X146121289Y-144149500D01*
X146121288Y-144149500D01*
X145878712Y-144149500D01*
X145878711Y-144149500D01*
X145638214Y-144181161D01*
X145403895Y-144243947D01*
X145179794Y-144336773D01*
X145179785Y-144336777D01*
X144969706Y-144458067D01*
X144777263Y-144605733D01*
X144777256Y-144605739D01*
X144605739Y-144777256D01*
X144605733Y-144777263D01*
X144458067Y-144969706D01*
X144336777Y-145179785D01*
X144336773Y-145179794D01*
X144243947Y-145403895D01*
X144181161Y-145638214D01*
X144149500Y-145878711D01*
X138356592Y-145878711D01*
X138374063Y-145838881D01*
X138435108Y-145597821D01*
X138435109Y-145597812D01*
X138455643Y-145350005D01*
X138455643Y-145349994D01*
X138435109Y-145102187D01*
X138435107Y-145102175D01*
X138374063Y-144861118D01*
X138274173Y-144633393D01*
X138138166Y-144425217D01*
X138056747Y-144336773D01*
X137969744Y-144242262D01*
X137773509Y-144089526D01*
X137773507Y-144089525D01*
X137773506Y-144089524D01*
X137554811Y-143971172D01*
X137554802Y-143971169D01*
X137319616Y-143890429D01*
X137074335Y-143849500D01*
X136825665Y-143849500D01*
X136580383Y-143890429D01*
X136345197Y-143971169D01*
X136345188Y-143971172D01*
X136126493Y-144089524D01*
X135930257Y-144242261D01*
X135761833Y-144425217D01*
X135625826Y-144633393D01*
X135525936Y-144861118D01*
X135464892Y-145102175D01*
X135464890Y-145102187D01*
X135444357Y-145349994D01*
X134950499Y-145349994D01*
X134950499Y-144302128D01*
X134944091Y-144242517D01*
X134893796Y-144107669D01*
X134893795Y-144107668D01*
X134893793Y-144107664D01*
X134807547Y-143992455D01*
X134807544Y-143992452D01*
X134692335Y-143906206D01*
X134692328Y-143906202D01*
X134557482Y-143855908D01*
X134557483Y-143855908D01*
X134497883Y-143849501D01*
X134497881Y-143849500D01*
X134497873Y-143849500D01*
X134497864Y-143849500D01*
X132402129Y-143849500D01*
X132402123Y-143849501D01*
X132342516Y-143855908D01*
X132207671Y-143906202D01*
X132207664Y-143906206D01*
X132092455Y-143992452D01*
X132092452Y-143992455D01*
X132006206Y-144107664D01*
X132006202Y-144107671D01*
X131955908Y-144242517D01*
X131949501Y-144302116D01*
X131949501Y-144302123D01*
X131949500Y-144302135D01*
X104736582Y-144302135D01*
X104596104Y-144243947D01*
X104361785Y-144181161D01*
X104121289Y-144149500D01*
X104121288Y-144149500D01*
X103878712Y-144149500D01*
X103878711Y-144149500D01*
X103638214Y-144181161D01*
X103403895Y-144243947D01*
X103179794Y-144336773D01*
X103179785Y-144336777D01*
X102969706Y-144458067D01*
X102777263Y-144605733D01*
X102777256Y-144605739D01*
X102605739Y-144777256D01*
X102605733Y-144777263D01*
X102458067Y-144969706D01*
X102336777Y-145179785D01*
X102336773Y-145179794D01*
X102243947Y-145403895D01*
X102181161Y-145638214D01*
X102149500Y-145878711D01*
X100334620Y-145878711D01*
X100323823Y-145830010D01*
X100321950Y-145819386D01*
X100269277Y-145419293D01*
X100268337Y-145408558D01*
X100250618Y-145002701D01*
X100250500Y-144997293D01*
X100250500Y-141049997D01*
X110894751Y-141049997D01*
X110894751Y-141050002D01*
X110913685Y-141218056D01*
X110969545Y-141377694D01*
X110969547Y-141377697D01*
X111059518Y-141520884D01*
X111059523Y-141520890D01*
X111179109Y-141640476D01*
X111179115Y-141640481D01*
X111322302Y-141730452D01*
X111322305Y-141730454D01*
X111322309Y-141730455D01*
X111322310Y-141730456D01*
X111394913Y-141755860D01*
X111481943Y-141786314D01*
X111649997Y-141805249D01*
X111650000Y-141805249D01*
X111650003Y-141805249D01*
X111818056Y-141786314D01*
X111818059Y-141786313D01*
X111977690Y-141730456D01*
X111977692Y-141730454D01*
X111977694Y-141730454D01*
X111977697Y-141730452D01*
X112120884Y-141640481D01*
X112120885Y-141640480D01*
X112120890Y-141640477D01*
X112240477Y-141520890D01*
X112330452Y-141377697D01*
X112330454Y-141377694D01*
X112330454Y-141377692D01*
X112330456Y-141377690D01*
X112386313Y-141218059D01*
X112386313Y-141218058D01*
X112386314Y-141218056D01*
X112405249Y-141050002D01*
X112405249Y-141049997D01*
X145344751Y-141049997D01*
X145344751Y-141050002D01*
X145363685Y-141218056D01*
X145419545Y-141377694D01*
X145419547Y-141377697D01*
X145509518Y-141520884D01*
X145509523Y-141520890D01*
X145629109Y-141640476D01*
X145629115Y-141640481D01*
X145772302Y-141730452D01*
X145772305Y-141730454D01*
X145772309Y-141730455D01*
X145772310Y-141730456D01*
X145844913Y-141755860D01*
X145931943Y-141786314D01*
X146099997Y-141805249D01*
X146100000Y-141805249D01*
X146100003Y-141805249D01*
X146268056Y-141786314D01*
X146268059Y-141786313D01*
X146427690Y-141730456D01*
X146427692Y-141730454D01*
X146427694Y-141730454D01*
X146427697Y-141730452D01*
X146570884Y-141640481D01*
X146570885Y-141640480D01*
X146570890Y-141640477D01*
X146690477Y-141520890D01*
X146780452Y-141377697D01*
X146780454Y-141377694D01*
X146780454Y-141377692D01*
X146780456Y-141377690D01*
X146836313Y-141218059D01*
X146836313Y-141218058D01*
X146836314Y-141218056D01*
X146855249Y-141050002D01*
X146855249Y-141049997D01*
X146836314Y-140881943D01*
X146780454Y-140722305D01*
X146780452Y-140722302D01*
X146690481Y-140579115D01*
X146690476Y-140579109D01*
X146570890Y-140459523D01*
X146570884Y-140459518D01*
X146427697Y-140369547D01*
X146427694Y-140369545D01*
X146268056Y-140313685D01*
X146100003Y-140294751D01*
X146099997Y-140294751D01*
X145931943Y-140313685D01*
X145772305Y-140369545D01*
X145772302Y-140369547D01*
X145629115Y-140459518D01*
X145629109Y-140459523D01*
X145509523Y-140579109D01*
X145509518Y-140579115D01*
X145419547Y-140722302D01*
X145419545Y-140722305D01*
X145363685Y-140881943D01*
X145344751Y-141049997D01*
X112405249Y-141049997D01*
X112386314Y-140881943D01*
X112330454Y-140722305D01*
X112330452Y-140722302D01*
X112240481Y-140579115D01*
X112240476Y-140579109D01*
X112120890Y-140459523D01*
X112120884Y-140459518D01*
X111977697Y-140369547D01*
X111977694Y-140369545D01*
X111818056Y-140313685D01*
X111650003Y-140294751D01*
X111649997Y-140294751D01*
X111481943Y-140313685D01*
X111322305Y-140369545D01*
X111322302Y-140369547D01*
X111179115Y-140459518D01*
X111179109Y-140459523D01*
X111059523Y-140579109D01*
X111059518Y-140579115D01*
X110969547Y-140722302D01*
X110969545Y-140722305D01*
X110913685Y-140881943D01*
X110894751Y-141049997D01*
X100250500Y-141049997D01*
X100250500Y-138799997D01*
X116394751Y-138799997D01*
X116394751Y-138800002D01*
X116413685Y-138968056D01*
X116469545Y-139127694D01*
X116469547Y-139127697D01*
X116559518Y-139270884D01*
X116559523Y-139270890D01*
X116679109Y-139390476D01*
X116679115Y-139390481D01*
X116822302Y-139480452D01*
X116822305Y-139480454D01*
X116822309Y-139480455D01*
X116822310Y-139480456D01*
X116894913Y-139505860D01*
X116981943Y-139536314D01*
X117149997Y-139555249D01*
X117150000Y-139555249D01*
X117150003Y-139555249D01*
X117318056Y-139536314D01*
X117318059Y-139536313D01*
X117477690Y-139480456D01*
X117477692Y-139480454D01*
X117477694Y-139480454D01*
X117477697Y-139480452D01*
X117620884Y-139390481D01*
X117620885Y-139390480D01*
X117620890Y-139390477D01*
X117740477Y-139270890D01*
X117830452Y-139127697D01*
X117830454Y-139127694D01*
X117830454Y-139127692D01*
X117830456Y-139127690D01*
X117886313Y-138968059D01*
X117886313Y-138968058D01*
X117886314Y-138968056D01*
X117905249Y-138800002D01*
X117905249Y-138799997D01*
X117886314Y-138631943D01*
X117830454Y-138472305D01*
X117830452Y-138472302D01*
X117740481Y-138329115D01*
X117740476Y-138329109D01*
X117620890Y-138209523D01*
X117620884Y-138209518D01*
X117477697Y-138119547D01*
X117477694Y-138119545D01*
X117318056Y-138063685D01*
X117150003Y-138044751D01*
X117149997Y-138044751D01*
X116981943Y-138063685D01*
X116822305Y-138119545D01*
X116822302Y-138119547D01*
X116679115Y-138209518D01*
X116679109Y-138209523D01*
X116559523Y-138329109D01*
X116559518Y-138329115D01*
X116469547Y-138472302D01*
X116469545Y-138472305D01*
X116413685Y-138631943D01*
X116394751Y-138799997D01*
X100250500Y-138799997D01*
X100250500Y-135899999D01*
X102269357Y-135899999D01*
X102269357Y-135900000D01*
X102289884Y-136121535D01*
X102289885Y-136121537D01*
X102350769Y-136335523D01*
X102350775Y-136335538D01*
X102449938Y-136534683D01*
X102449943Y-136534691D01*
X102584020Y-136712238D01*
X102748437Y-136862123D01*
X102748439Y-136862125D01*
X102937595Y-136979245D01*
X102937596Y-136979245D01*
X102937599Y-136979247D01*
X103145060Y-137059618D01*
X103363757Y-137100500D01*
X103363759Y-137100500D01*
X103586241Y-137100500D01*
X103586243Y-137100500D01*
X103804940Y-137059618D01*
X104012401Y-136979247D01*
X104201562Y-136862124D01*
X104365981Y-136712236D01*
X104500058Y-136534689D01*
X104567127Y-136399997D01*
X129469751Y-136399997D01*
X129469751Y-136400002D01*
X129488685Y-136568056D01*
X129544545Y-136727694D01*
X129544547Y-136727697D01*
X129634518Y-136870884D01*
X129634523Y-136870890D01*
X129754109Y-136990476D01*
X129754115Y-136990481D01*
X129897302Y-137080452D01*
X129897305Y-137080454D01*
X129897309Y-137080455D01*
X129897310Y-137080456D01*
X129954593Y-137100500D01*
X130056943Y-137136314D01*
X130224997Y-137155249D01*
X130225000Y-137155249D01*
X130225003Y-137155249D01*
X130393056Y-137136314D01*
X130393059Y-137136313D01*
X130552690Y-137080456D01*
X130552692Y-137080454D01*
X130552694Y-137080454D01*
X130552697Y-137080452D01*
X130695884Y-136990481D01*
X130695885Y-136990480D01*
X130695890Y-136990477D01*
X130815477Y-136870890D01*
X130815481Y-136870884D01*
X130905452Y-136727697D01*
X130905454Y-136727694D01*
X130905454Y-136727692D01*
X130905456Y-136727690D01*
X130961313Y-136568059D01*
X130961313Y-136568058D01*
X130961314Y-136568056D01*
X130980249Y-136400002D01*
X130980249Y-136399997D01*
X130961314Y-136231943D01*
X130905454Y-136072305D01*
X130905452Y-136072302D01*
X130815481Y-135929115D01*
X130815476Y-135929109D01*
X130695890Y-135809523D01*
X130695884Y-135809518D01*
X130552697Y-135719547D01*
X130552694Y-135719545D01*
X130393056Y-135663685D01*
X130225003Y-135644751D01*
X130224997Y-135644751D01*
X130056943Y-135663685D01*
X129897305Y-135719545D01*
X129897302Y-135719547D01*
X129754115Y-135809518D01*
X129754109Y-135809523D01*
X129634523Y-135929109D01*
X129634518Y-135929115D01*
X129544547Y-136072302D01*
X129544545Y-136072305D01*
X129488685Y-136231943D01*
X129469751Y-136399997D01*
X104567127Y-136399997D01*
X104599229Y-136335528D01*
X104660115Y-136121536D01*
X104680643Y-135900000D01*
X104671700Y-135803493D01*
X104660115Y-135678464D01*
X104660114Y-135678462D01*
X104655910Y-135663687D01*
X104599229Y-135464472D01*
X104599224Y-135464461D01*
X104500061Y-135265316D01*
X104500056Y-135265308D01*
X104365979Y-135087761D01*
X104201562Y-134937876D01*
X104201560Y-134937874D01*
X104012404Y-134820754D01*
X104012398Y-134820752D01*
X103804940Y-134740382D01*
X103586243Y-134699500D01*
X103363757Y-134699500D01*
X103145060Y-134740382D01*
X103081514Y-134765000D01*
X102937601Y-134820752D01*
X102937595Y-134820754D01*
X102748439Y-134937874D01*
X102748437Y-134937876D01*
X102584020Y-135087761D01*
X102449943Y-135265308D01*
X102449938Y-135265316D01*
X102350775Y-135464461D01*
X102350769Y-135464476D01*
X102289885Y-135678462D01*
X102289884Y-135678464D01*
X102269357Y-135899999D01*
X100250500Y-135899999D01*
X100250500Y-132899992D01*
X111219671Y-132899992D01*
X111219671Y-132900007D01*
X111238964Y-133194363D01*
X111238965Y-133194373D01*
X111238966Y-133194380D01*
X111238968Y-133194390D01*
X111296518Y-133483716D01*
X111296521Y-133483730D01*
X111391349Y-133763080D01*
X111521825Y-134027660D01*
X111521829Y-134027667D01*
X111685725Y-134272955D01*
X111880241Y-134494758D01*
X112102044Y-134689274D01*
X112298818Y-134820754D01*
X112347335Y-134853172D01*
X112611923Y-134983652D01*
X112891278Y-135078481D01*
X113180620Y-135136034D01*
X113208888Y-135137886D01*
X113474993Y-135155329D01*
X113475000Y-135155329D01*
X113475007Y-135155329D01*
X113710675Y-135139881D01*
X113769380Y-135136034D01*
X114058722Y-135078481D01*
X114338077Y-134983652D01*
X114602665Y-134853172D01*
X114734625Y-134764999D01*
X144469341Y-134764999D01*
X144469341Y-134765000D01*
X144489936Y-135000403D01*
X144489938Y-135000413D01*
X144551094Y-135228655D01*
X144551096Y-135228659D01*
X144551097Y-135228663D01*
X144568189Y-135265316D01*
X144650965Y-135442830D01*
X144650967Y-135442834D01*
X144786501Y-135636395D01*
X144786506Y-135636402D01*
X144953597Y-135803493D01*
X144953603Y-135803498D01*
X144962208Y-135809523D01*
X145132994Y-135929109D01*
X145139594Y-135933730D01*
X145183219Y-135988307D01*
X145190413Y-136057805D01*
X145158890Y-136120160D01*
X145139595Y-136136880D01*
X144953922Y-136266890D01*
X144953920Y-136266891D01*
X144786891Y-136433920D01*
X144786886Y-136433926D01*
X144651400Y-136627420D01*
X144651399Y-136627422D01*
X144551570Y-136841507D01*
X144551567Y-136841513D01*
X144494364Y-137054999D01*
X144494364Y-137055000D01*
X145391988Y-137055000D01*
X145359075Y-137112007D01*
X145325000Y-137239174D01*
X145325000Y-137370826D01*
X145359075Y-137497993D01*
X145391988Y-137555000D01*
X144494364Y-137555000D01*
X144551567Y-137768486D01*
X144551570Y-137768492D01*
X144651399Y-137982578D01*
X144786894Y-138176082D01*
X144953917Y-138343105D01*
X145147421Y-138478600D01*
X145361507Y-138578429D01*
X145361516Y-138578433D01*
X145575000Y-138635634D01*
X145575000Y-137738012D01*
X145632007Y-137770925D01*
X145759174Y-137805000D01*
X145890826Y-137805000D01*
X146017993Y-137770925D01*
X146075000Y-137738012D01*
X146075000Y-138635633D01*
X146288483Y-138578433D01*
X146288492Y-138578429D01*
X146502578Y-138478600D01*
X146696082Y-138343105D01*
X146863105Y-138176082D01*
X146998600Y-137982578D01*
X147098429Y-137768492D01*
X147098432Y-137768486D01*
X147155636Y-137555000D01*
X146258012Y-137555000D01*
X146290925Y-137497993D01*
X146325000Y-137370826D01*
X146325000Y-137239174D01*
X146290925Y-137112007D01*
X146258012Y-137055000D01*
X147155636Y-137055000D01*
X147155635Y-137054999D01*
X147098432Y-136841513D01*
X147098429Y-136841507D01*
X146998600Y-136627422D01*
X146998599Y-136627420D01*
X146863113Y-136433926D01*
X146863108Y-136433920D01*
X146696078Y-136266890D01*
X146510405Y-136136879D01*
X146466780Y-136082302D01*
X146459588Y-136012804D01*
X146491110Y-135950449D01*
X146510406Y-135933730D01*
X146517004Y-135929110D01*
X146696401Y-135803495D01*
X146863495Y-135636401D01*
X146999035Y-135442830D01*
X147098903Y-135228663D01*
X147160063Y-135000408D01*
X147180659Y-134765000D01*
X147160063Y-134529592D01*
X147098903Y-134301337D01*
X146999035Y-134087171D01*
X146863495Y-133893599D01*
X146741567Y-133771671D01*
X146708084Y-133710351D01*
X146713068Y-133640659D01*
X146754939Y-133584725D01*
X146785915Y-133567810D01*
X146917331Y-133518796D01*
X147032546Y-133432546D01*
X147118796Y-133317331D01*
X147169091Y-133182483D01*
X147175500Y-133122873D01*
X147175499Y-131327128D01*
X147169091Y-131267517D01*
X147118796Y-131132669D01*
X147118795Y-131132668D01*
X147118793Y-131132664D01*
X147032547Y-131017455D01*
X147032544Y-131017452D01*
X146917335Y-130931206D01*
X146917328Y-130931202D01*
X146782482Y-130880908D01*
X146782483Y-130880908D01*
X146722883Y-130874501D01*
X146722881Y-130874500D01*
X146722873Y-130874500D01*
X146722864Y-130874500D01*
X144927129Y-130874500D01*
X144927123Y-130874501D01*
X144867516Y-130880908D01*
X144732671Y-130931202D01*
X144732664Y-130931206D01*
X144617455Y-131017452D01*
X144617452Y-131017455D01*
X144531206Y-131132664D01*
X144531202Y-131132671D01*
X144480908Y-131267517D01*
X144474501Y-131327116D01*
X144474501Y-131327123D01*
X144474500Y-131327135D01*
X144474500Y-133122870D01*
X144474501Y-133122876D01*
X144480908Y-133182483D01*
X144531202Y-133317328D01*
X144531206Y-133317335D01*
X144617452Y-133432544D01*
X144617455Y-133432547D01*
X144732664Y-133518793D01*
X144732671Y-133518797D01*
X144864081Y-133567810D01*
X144920015Y-133609681D01*
X144944432Y-133675145D01*
X144929580Y-133743418D01*
X144908430Y-133771673D01*
X144786503Y-133893600D01*
X144650965Y-134087169D01*
X144650964Y-134087171D01*
X144551098Y-134301335D01*
X144551094Y-134301344D01*
X144489938Y-134529586D01*
X144489936Y-134529596D01*
X144469341Y-134764999D01*
X114734625Y-134764999D01*
X114847957Y-134689273D01*
X115069758Y-134494758D01*
X115264273Y-134272957D01*
X115428172Y-134027665D01*
X115558652Y-133763077D01*
X115653481Y-133483722D01*
X115711034Y-133194380D01*
X115715721Y-133122870D01*
X115730329Y-132900007D01*
X115730329Y-132899992D01*
X115711035Y-132605636D01*
X115711034Y-132605620D01*
X115653481Y-132316278D01*
X115558652Y-132036923D01*
X115428172Y-131772336D01*
X115264273Y-131527043D01*
X115088958Y-131327135D01*
X115069758Y-131305241D01*
X114847955Y-131110725D01*
X114602667Y-130946829D01*
X114602660Y-130946825D01*
X114338080Y-130816349D01*
X114058730Y-130721521D01*
X114058724Y-130721519D01*
X114058722Y-130721519D01*
X113769380Y-130663966D01*
X113769373Y-130663965D01*
X113769363Y-130663964D01*
X113475007Y-130644671D01*
X113474993Y-130644671D01*
X113180636Y-130663964D01*
X113180624Y-130663965D01*
X113180620Y-130663966D01*
X113180612Y-130663967D01*
X113180609Y-130663968D01*
X112891283Y-130721518D01*
X112891269Y-130721521D01*
X112611919Y-130816349D01*
X112347334Y-130946828D01*
X112102041Y-131110728D01*
X111880241Y-131305241D01*
X111685728Y-131527041D01*
X111521828Y-131772334D01*
X111391349Y-132036919D01*
X111296521Y-132316269D01*
X111296518Y-132316283D01*
X111238968Y-132605609D01*
X111238964Y-132605636D01*
X111219671Y-132899992D01*
X100250500Y-132899992D01*
X100250500Y-126102135D01*
X111224500Y-126102135D01*
X111224500Y-129697870D01*
X111224501Y-129697876D01*
X111230908Y-129757483D01*
X111281202Y-129892328D01*
X111281206Y-129892335D01*
X111367452Y-130007544D01*
X111367455Y-130007547D01*
X111482664Y-130093793D01*
X111482671Y-130093797D01*
X111617517Y-130144091D01*
X111617516Y-130144091D01*
X111624444Y-130144835D01*
X111677127Y-130150500D01*
X115272872Y-130150499D01*
X115332483Y-130144091D01*
X115467331Y-130093796D01*
X115582546Y-130007546D01*
X115668796Y-129892331D01*
X115719091Y-129757483D01*
X115725500Y-129697873D01*
X115725499Y-126999997D01*
X117394751Y-126999997D01*
X117394751Y-127000002D01*
X117413685Y-127168056D01*
X117469545Y-127327694D01*
X117469547Y-127327697D01*
X117559518Y-127470884D01*
X117559523Y-127470890D01*
X117679109Y-127590476D01*
X117679115Y-127590481D01*
X117822302Y-127680452D01*
X117822305Y-127680454D01*
X117822309Y-127680455D01*
X117822310Y-127680456D01*
X117894913Y-127705860D01*
X117981943Y-127736314D01*
X118149997Y-127755249D01*
X118150000Y-127755249D01*
X118150003Y-127755249D01*
X118318056Y-127736314D01*
X118318059Y-127736313D01*
X118477690Y-127680456D01*
X118477692Y-127680454D01*
X118477694Y-127680454D01*
X118477697Y-127680452D01*
X118620884Y-127590481D01*
X118620885Y-127590480D01*
X118620890Y-127590477D01*
X118740477Y-127470890D01*
X118830452Y-127327697D01*
X118830454Y-127327694D01*
X118830454Y-127327692D01*
X118830456Y-127327690D01*
X118886313Y-127168059D01*
X118886313Y-127168058D01*
X118886314Y-127168056D01*
X118905249Y-127000002D01*
X118905249Y-126999997D01*
X118886313Y-126831943D01*
X118886313Y-126831941D01*
X118878869Y-126810669D01*
X118875307Y-126740892D01*
X118910035Y-126680264D01*
X118972028Y-126648036D01*
X119009795Y-126646494D01*
X119087497Y-126655249D01*
X119087500Y-126655249D01*
X119087503Y-126655249D01*
X119255556Y-126636314D01*
X119255559Y-126636313D01*
X119415190Y-126580456D01*
X119415192Y-126580454D01*
X119415194Y-126580454D01*
X119415197Y-126580452D01*
X119558384Y-126490481D01*
X119558385Y-126490480D01*
X119558390Y-126490477D01*
X119677977Y-126370890D01*
X119710238Y-126319547D01*
X119767952Y-126227697D01*
X119767954Y-126227694D01*
X119767954Y-126227692D01*
X119767956Y-126227690D01*
X119823813Y-126068059D01*
X119823813Y-126068058D01*
X119823814Y-126068056D01*
X119842749Y-125900002D01*
X119842749Y-125899997D01*
X119823814Y-125731943D01*
X119793360Y-125644913D01*
X119767956Y-125572310D01*
X119767955Y-125572309D01*
X119767954Y-125572305D01*
X119767952Y-125572302D01*
X119677981Y-125429115D01*
X119677976Y-125429109D01*
X119613866Y-125364999D01*
X144469341Y-125364999D01*
X144469341Y-125365000D01*
X144489936Y-125600403D01*
X144489938Y-125600413D01*
X144551094Y-125828655D01*
X144551096Y-125828659D01*
X144551097Y-125828663D01*
X144587939Y-125907671D01*
X144650965Y-126042830D01*
X144650967Y-126042834D01*
X144759281Y-126197521D01*
X144780410Y-126227697D01*
X144786501Y-126236395D01*
X144786506Y-126236402D01*
X144953597Y-126403493D01*
X144953603Y-126403498D01*
X144962208Y-126409523D01*
X145132994Y-126529109D01*
X145139594Y-126533730D01*
X145183219Y-126588307D01*
X145190413Y-126657805D01*
X145158890Y-126720160D01*
X145139595Y-126736880D01*
X144953922Y-126866890D01*
X144953920Y-126866891D01*
X144786891Y-127033920D01*
X144786886Y-127033926D01*
X144651400Y-127227420D01*
X144651399Y-127227422D01*
X144551570Y-127441507D01*
X144551567Y-127441513D01*
X144494364Y-127654999D01*
X144494364Y-127655000D01*
X145391988Y-127655000D01*
X145359075Y-127712007D01*
X145325000Y-127839174D01*
X145325000Y-127970826D01*
X145359075Y-128097993D01*
X145391988Y-128155000D01*
X144494364Y-128155000D01*
X144551567Y-128368486D01*
X144551570Y-128368492D01*
X144651399Y-128582578D01*
X144786894Y-128776082D01*
X144953917Y-128943105D01*
X145147421Y-129078600D01*
X145361507Y-129178429D01*
X145361516Y-129178433D01*
X145575000Y-129235634D01*
X145575000Y-128338012D01*
X145632007Y-128370925D01*
X145759174Y-128405000D01*
X145890826Y-128405000D01*
X146017993Y-128370925D01*
X146075000Y-128338012D01*
X146075000Y-129235633D01*
X146288483Y-129178433D01*
X146288492Y-129178429D01*
X146502578Y-129078600D01*
X146696082Y-128943105D01*
X146863105Y-128776082D01*
X146998600Y-128582578D01*
X147098429Y-128368492D01*
X147098432Y-128368486D01*
X147155636Y-128155000D01*
X146258012Y-128155000D01*
X146290925Y-128097993D01*
X146325000Y-127970826D01*
X146325000Y-127839174D01*
X146290925Y-127712007D01*
X146258012Y-127655000D01*
X147155636Y-127655000D01*
X147155635Y-127654999D01*
X147098432Y-127441513D01*
X147098429Y-127441507D01*
X146998600Y-127227422D01*
X146998599Y-127227420D01*
X146863113Y-127033926D01*
X146863108Y-127033920D01*
X146696078Y-126866890D01*
X146510405Y-126736879D01*
X146466780Y-126682302D01*
X146459588Y-126612804D01*
X146491110Y-126550449D01*
X146510406Y-126533730D01*
X146517004Y-126529110D01*
X146696401Y-126403495D01*
X146863495Y-126236401D01*
X146999035Y-126042830D01*
X147098903Y-125828663D01*
X147160063Y-125600408D01*
X147180659Y-125365000D01*
X147178080Y-125335528D01*
X147160063Y-125129596D01*
X147160063Y-125129592D01*
X147098903Y-124901337D01*
X146999035Y-124687171D01*
X146992938Y-124678464D01*
X146863496Y-124493600D01*
X146834357Y-124464461D01*
X146741567Y-124371671D01*
X146708084Y-124310351D01*
X146713068Y-124240659D01*
X146754939Y-124184725D01*
X146785915Y-124167810D01*
X146917331Y-124118796D01*
X147032546Y-124032546D01*
X147118796Y-123917331D01*
X147169091Y-123782483D01*
X147175500Y-123722873D01*
X147175499Y-121927128D01*
X147169091Y-121867517D01*
X147159007Y-121840481D01*
X147118797Y-121732671D01*
X147118793Y-121732664D01*
X147032547Y-121617455D01*
X147032544Y-121617452D01*
X146917335Y-121531206D01*
X146917328Y-121531202D01*
X146782482Y-121480908D01*
X146782483Y-121480908D01*
X146722883Y-121474501D01*
X146722881Y-121474500D01*
X146722873Y-121474500D01*
X146722864Y-121474500D01*
X144927129Y-121474500D01*
X144927123Y-121474501D01*
X144867516Y-121480908D01*
X144732671Y-121531202D01*
X144732664Y-121531206D01*
X144617455Y-121617452D01*
X144617452Y-121617455D01*
X144531206Y-121732664D01*
X144531202Y-121732671D01*
X144480908Y-121867517D01*
X144474501Y-121927116D01*
X144474501Y-121927123D01*
X144474500Y-121927135D01*
X144474500Y-123722870D01*
X144474501Y-123722876D01*
X144480908Y-123782483D01*
X144531202Y-123917328D01*
X144531206Y-123917335D01*
X144617452Y-124032544D01*
X144617455Y-124032547D01*
X144732664Y-124118793D01*
X144732671Y-124118797D01*
X144864081Y-124167810D01*
X144920015Y-124209681D01*
X144944432Y-124275145D01*
X144929580Y-124343418D01*
X144908430Y-124371673D01*
X144786503Y-124493600D01*
X144650965Y-124687169D01*
X144650964Y-124687171D01*
X144557401Y-124887816D01*
X144551721Y-124900000D01*
X144551098Y-124901335D01*
X144551094Y-124901344D01*
X144489938Y-125129586D01*
X144489936Y-125129596D01*
X144469341Y-125364999D01*
X119613866Y-125364999D01*
X119558390Y-125309523D01*
X119558384Y-125309518D01*
X119415197Y-125219547D01*
X119415194Y-125219545D01*
X119255556Y-125163685D01*
X119087503Y-125144751D01*
X119087497Y-125144751D01*
X118919443Y-125163685D01*
X118759805Y-125219545D01*
X118759802Y-125219547D01*
X118616615Y-125309518D01*
X118616609Y-125309523D01*
X118497023Y-125429109D01*
X118497018Y-125429115D01*
X118407047Y-125572302D01*
X118407045Y-125572305D01*
X118351185Y-125731943D01*
X118332251Y-125899997D01*
X118332251Y-125900002D01*
X118351186Y-126068057D01*
X118358630Y-126089331D01*
X118362191Y-126159109D01*
X118327462Y-126219737D01*
X118265469Y-126251964D01*
X118227706Y-126253505D01*
X118150005Y-126244751D01*
X118149997Y-126244751D01*
X117981943Y-126263685D01*
X117822305Y-126319545D01*
X117822302Y-126319547D01*
X117679115Y-126409518D01*
X117679109Y-126409523D01*
X117559523Y-126529109D01*
X117559518Y-126529115D01*
X117469547Y-126672302D01*
X117469545Y-126672305D01*
X117413685Y-126831943D01*
X117394751Y-126999997D01*
X115725499Y-126999997D01*
X115725499Y-126102128D01*
X115719091Y-126042517D01*
X115668796Y-125907669D01*
X115668795Y-125907668D01*
X115668793Y-125907664D01*
X115582547Y-125792455D01*
X115582544Y-125792452D01*
X115467335Y-125706206D01*
X115467328Y-125706202D01*
X115332482Y-125655908D01*
X115332483Y-125655908D01*
X115272883Y-125649501D01*
X115272881Y-125649500D01*
X115272873Y-125649500D01*
X115272864Y-125649500D01*
X111677129Y-125649500D01*
X111677123Y-125649501D01*
X111617516Y-125655908D01*
X111482671Y-125706202D01*
X111482664Y-125706206D01*
X111367455Y-125792452D01*
X111367452Y-125792455D01*
X111281206Y-125907664D01*
X111281202Y-125907671D01*
X111230908Y-126042517D01*
X111224675Y-126100500D01*
X111224501Y-126102123D01*
X111224500Y-126102135D01*
X100250500Y-126102135D01*
X100250500Y-124899999D01*
X102269357Y-124899999D01*
X102269357Y-124900000D01*
X102289884Y-125121535D01*
X102289885Y-125121537D01*
X102350769Y-125335523D01*
X102350775Y-125335538D01*
X102449938Y-125534683D01*
X102449943Y-125534691D01*
X102584020Y-125712238D01*
X102748437Y-125862123D01*
X102748439Y-125862125D01*
X102937595Y-125979245D01*
X102937596Y-125979245D01*
X102937599Y-125979247D01*
X103145060Y-126059618D01*
X103363757Y-126100500D01*
X103363759Y-126100500D01*
X103586241Y-126100500D01*
X103586243Y-126100500D01*
X103804940Y-126059618D01*
X104012401Y-125979247D01*
X104201562Y-125862124D01*
X104341282Y-125734751D01*
X104365979Y-125712238D01*
X104370535Y-125706206D01*
X104500058Y-125534689D01*
X104599229Y-125335528D01*
X104660115Y-125121536D01*
X104680643Y-124900000D01*
X104660115Y-124678464D01*
X104599229Y-124464472D01*
X104553021Y-124371674D01*
X104500061Y-124265316D01*
X104500056Y-124265308D01*
X104365979Y-124087761D01*
X104201562Y-123937876D01*
X104201560Y-123937874D01*
X104012404Y-123820754D01*
X104012398Y-123820752D01*
X103804940Y-123740382D01*
X103586243Y-123699500D01*
X103363757Y-123699500D01*
X103145060Y-123740382D01*
X103036388Y-123782482D01*
X102937601Y-123820752D01*
X102937595Y-123820754D01*
X102748439Y-123937874D01*
X102748437Y-123937876D01*
X102584020Y-124087761D01*
X102449943Y-124265308D01*
X102449938Y-124265316D01*
X102350775Y-124464461D01*
X102350769Y-124464476D01*
X102289885Y-124678462D01*
X102289884Y-124678464D01*
X102269357Y-124899999D01*
X100250500Y-124899999D01*
X100250500Y-123049997D01*
X120194751Y-123049997D01*
X120194751Y-123050002D01*
X120213685Y-123218056D01*
X120269545Y-123377694D01*
X120269547Y-123377697D01*
X120359518Y-123520884D01*
X120359523Y-123520890D01*
X120479109Y-123640476D01*
X120479115Y-123640481D01*
X120622302Y-123730452D01*
X120622305Y-123730454D01*
X120622309Y-123730455D01*
X120622310Y-123730456D01*
X120650677Y-123740382D01*
X120781943Y-123786314D01*
X120949997Y-123805249D01*
X120950000Y-123805249D01*
X120950003Y-123805249D01*
X121118056Y-123786314D01*
X121118059Y-123786313D01*
X121277690Y-123730456D01*
X121277692Y-123730454D01*
X121277694Y-123730454D01*
X121277697Y-123730452D01*
X121420884Y-123640481D01*
X121420885Y-123640480D01*
X121420890Y-123640477D01*
X121540477Y-123520890D01*
X121630452Y-123377697D01*
X121630454Y-123377694D01*
X121630454Y-123377692D01*
X121630456Y-123377690D01*
X121686313Y-123218059D01*
X121686313Y-123218058D01*
X121686314Y-123218056D01*
X121705249Y-123050002D01*
X121705249Y-123049997D01*
X121686314Y-122881943D01*
X121630454Y-122722305D01*
X121630452Y-122722302D01*
X121540481Y-122579115D01*
X121540476Y-122579109D01*
X121420890Y-122459523D01*
X121420884Y-122459518D01*
X121277697Y-122369547D01*
X121277694Y-122369545D01*
X121118056Y-122313685D01*
X120950003Y-122294751D01*
X120949997Y-122294751D01*
X120781943Y-122313685D01*
X120622305Y-122369545D01*
X120622302Y-122369547D01*
X120479115Y-122459518D01*
X120479109Y-122459523D01*
X120359523Y-122579109D01*
X120359518Y-122579115D01*
X120269547Y-122722302D01*
X120269545Y-122722305D01*
X120213685Y-122881943D01*
X120194751Y-123049997D01*
X100250500Y-123049997D01*
X100250500Y-121249997D01*
X109244751Y-121249997D01*
X109244751Y-121250002D01*
X109263685Y-121418056D01*
X109319545Y-121577694D01*
X109319547Y-121577697D01*
X109409518Y-121720884D01*
X109409523Y-121720890D01*
X109529109Y-121840476D01*
X109529115Y-121840481D01*
X109672302Y-121930452D01*
X109672305Y-121930454D01*
X109672309Y-121930455D01*
X109672310Y-121930456D01*
X109744913Y-121955860D01*
X109831943Y-121986314D01*
X109999997Y-122005249D01*
X110000000Y-122005249D01*
X110000003Y-122005249D01*
X110168056Y-121986314D01*
X110168059Y-121986313D01*
X110327690Y-121930456D01*
X110327692Y-121930454D01*
X110327694Y-121930454D01*
X110327697Y-121930452D01*
X110470884Y-121840481D01*
X110470885Y-121840480D01*
X110470890Y-121840477D01*
X110590477Y-121720890D01*
X110655470Y-121617455D01*
X110680452Y-121577697D01*
X110680454Y-121577694D01*
X110680454Y-121577692D01*
X110680456Y-121577690D01*
X110736313Y-121418059D01*
X110736313Y-121418058D01*
X110736314Y-121418056D01*
X110755249Y-121250002D01*
X110755249Y-121249997D01*
X110736314Y-121081943D01*
X110680454Y-120922305D01*
X110680452Y-120922302D01*
X110590481Y-120779115D01*
X110590476Y-120779109D01*
X110470890Y-120659523D01*
X110470884Y-120659518D01*
X110327697Y-120569547D01*
X110327694Y-120569545D01*
X110168056Y-120513685D01*
X110000003Y-120494751D01*
X109999997Y-120494751D01*
X109831943Y-120513685D01*
X109672305Y-120569545D01*
X109672302Y-120569547D01*
X109529115Y-120659518D01*
X109529109Y-120659523D01*
X109409523Y-120779109D01*
X109409518Y-120779115D01*
X109319547Y-120922302D01*
X109319545Y-120922305D01*
X109263685Y-121081943D01*
X109244751Y-121249997D01*
X100250500Y-121249997D01*
X100250500Y-117669997D01*
X117694751Y-117669997D01*
X117694751Y-117670002D01*
X117713685Y-117838056D01*
X117769545Y-117997694D01*
X117769547Y-117997697D01*
X117859518Y-118140884D01*
X117859523Y-118140890D01*
X117979109Y-118260476D01*
X117979115Y-118260481D01*
X118122302Y-118350452D01*
X118122305Y-118350454D01*
X118122309Y-118350455D01*
X118122310Y-118350456D01*
X118194913Y-118375860D01*
X118281943Y-118406314D01*
X118449997Y-118425249D01*
X118450000Y-118425249D01*
X118450003Y-118425249D01*
X118618056Y-118406314D01*
X118618059Y-118406313D01*
X118777690Y-118350456D01*
X118777692Y-118350454D01*
X118777694Y-118350454D01*
X118777697Y-118350452D01*
X118920884Y-118260481D01*
X118920885Y-118260480D01*
X118920890Y-118260477D01*
X119040477Y-118140890D01*
X119130452Y-117997697D01*
X119130454Y-117997694D01*
X119130454Y-117997692D01*
X119130456Y-117997690D01*
X119186313Y-117838059D01*
X119186313Y-117838058D01*
X119186314Y-117838056D01*
X119205249Y-117670002D01*
X119205249Y-117669997D01*
X119186314Y-117501943D01*
X119130454Y-117342305D01*
X119130452Y-117342302D01*
X119040481Y-117199115D01*
X119040476Y-117199109D01*
X118920890Y-117079523D01*
X118920884Y-117079518D01*
X118777697Y-116989547D01*
X118777694Y-116989545D01*
X118618056Y-116933685D01*
X118450003Y-116914751D01*
X118449997Y-116914751D01*
X118281943Y-116933685D01*
X118122305Y-116989545D01*
X118122302Y-116989547D01*
X117979115Y-117079518D01*
X117979109Y-117079523D01*
X117859523Y-117199109D01*
X117859518Y-117199115D01*
X117769547Y-117342302D01*
X117769545Y-117342305D01*
X117713685Y-117501943D01*
X117694751Y-117669997D01*
X100250500Y-117669997D01*
X100250500Y-113449997D01*
X104394751Y-113449997D01*
X104394751Y-113450002D01*
X104413685Y-113618056D01*
X104469545Y-113777694D01*
X104469547Y-113777697D01*
X104559518Y-113920884D01*
X104559523Y-113920890D01*
X104625952Y-113987319D01*
X104659437Y-114048642D01*
X104654453Y-114118334D01*
X104625952Y-114162681D01*
X104559523Y-114229109D01*
X104559518Y-114229115D01*
X104469547Y-114372302D01*
X104469545Y-114372305D01*
X104413685Y-114531943D01*
X104394751Y-114699997D01*
X104394751Y-114700002D01*
X104413685Y-114868056D01*
X104469545Y-115027694D01*
X104469547Y-115027697D01*
X104559518Y-115170884D01*
X104559523Y-115170890D01*
X104679109Y-115290476D01*
X104679115Y-115290481D01*
X104822302Y-115380452D01*
X104822305Y-115380454D01*
X104822309Y-115380455D01*
X104822310Y-115380456D01*
X104894913Y-115405860D01*
X104981943Y-115436314D01*
X105149997Y-115455249D01*
X105150000Y-115455249D01*
X105150003Y-115455249D01*
X105318056Y-115436314D01*
X105318059Y-115436313D01*
X105477690Y-115380456D01*
X105477692Y-115380454D01*
X105477694Y-115380454D01*
X105477697Y-115380452D01*
X105620884Y-115290481D01*
X105620885Y-115290480D01*
X105620890Y-115290477D01*
X105740477Y-115170890D01*
X105766172Y-115129997D01*
X117694751Y-115129997D01*
X117694751Y-115130002D01*
X117713685Y-115298056D01*
X117769545Y-115457694D01*
X117769547Y-115457697D01*
X117859518Y-115600884D01*
X117859523Y-115600890D01*
X117979109Y-115720476D01*
X117979115Y-115720481D01*
X118122302Y-115810452D01*
X118122305Y-115810454D01*
X118122309Y-115810455D01*
X118122310Y-115810456D01*
X118194913Y-115835860D01*
X118281943Y-115866314D01*
X118449997Y-115885249D01*
X118450000Y-115885249D01*
X118450003Y-115885249D01*
X118618056Y-115866314D01*
X118618059Y-115866313D01*
X118777690Y-115810456D01*
X118777692Y-115810454D01*
X118777694Y-115810454D01*
X118777697Y-115810452D01*
X118920884Y-115720481D01*
X118920885Y-115720480D01*
X118920890Y-115720477D01*
X119040477Y-115600890D01*
X119130452Y-115457697D01*
X119130454Y-115457694D01*
X119130454Y-115457692D01*
X119130456Y-115457690D01*
X119186313Y-115298059D01*
X119186313Y-115298058D01*
X119186314Y-115298056D01*
X119205249Y-115130002D01*
X119205249Y-115129997D01*
X119186314Y-114961943D01*
X119130454Y-114802305D01*
X119130452Y-114802302D01*
X119040481Y-114659115D01*
X119040476Y-114659109D01*
X118920890Y-114539523D01*
X118920884Y-114539518D01*
X118777697Y-114449547D01*
X118777694Y-114449545D01*
X118618056Y-114393685D01*
X118450003Y-114374751D01*
X118449997Y-114374751D01*
X118281943Y-114393685D01*
X118122305Y-114449545D01*
X118122302Y-114449547D01*
X117979115Y-114539518D01*
X117979109Y-114539523D01*
X117859523Y-114659109D01*
X117859518Y-114659115D01*
X117769547Y-114802302D01*
X117769545Y-114802305D01*
X117713685Y-114961943D01*
X117694751Y-115129997D01*
X105766172Y-115129997D01*
X105830452Y-115027697D01*
X105830454Y-115027694D01*
X105830454Y-115027692D01*
X105830456Y-115027690D01*
X105886313Y-114868059D01*
X105886313Y-114868058D01*
X105886314Y-114868056D01*
X105905249Y-114700002D01*
X105905249Y-114699997D01*
X105886314Y-114531943D01*
X105830454Y-114372305D01*
X105830452Y-114372302D01*
X105740481Y-114229115D01*
X105740476Y-114229109D01*
X105674048Y-114162681D01*
X105640563Y-114101358D01*
X105645547Y-114031666D01*
X105674048Y-113987319D01*
X105740477Y-113920890D01*
X105830452Y-113777697D01*
X105830454Y-113777694D01*
X105830454Y-113777692D01*
X105830456Y-113777690D01*
X105886313Y-113618059D01*
X105886313Y-113618058D01*
X105886314Y-113618056D01*
X105905249Y-113450002D01*
X105905249Y-113449997D01*
X105886314Y-113281943D01*
X105830454Y-113122305D01*
X105830452Y-113122302D01*
X105740481Y-112979115D01*
X105740476Y-112979109D01*
X105620890Y-112859523D01*
X105620884Y-112859518D01*
X105477697Y-112769547D01*
X105477694Y-112769545D01*
X105318056Y-112713685D01*
X105150003Y-112694751D01*
X105149997Y-112694751D01*
X104981943Y-112713685D01*
X104822305Y-112769545D01*
X104822302Y-112769547D01*
X104679115Y-112859518D01*
X104679109Y-112859523D01*
X104559523Y-112979109D01*
X104559518Y-112979115D01*
X104469547Y-113122302D01*
X104469545Y-113122305D01*
X104413685Y-113281943D01*
X104394751Y-113449997D01*
X100250500Y-113449997D01*
X100250500Y-112589997D01*
X117694751Y-112589997D01*
X117694751Y-112590002D01*
X117713685Y-112758056D01*
X117769545Y-112917694D01*
X117769547Y-112917697D01*
X117859518Y-113060884D01*
X117859523Y-113060890D01*
X117979109Y-113180476D01*
X117979115Y-113180481D01*
X118122302Y-113270452D01*
X118122305Y-113270454D01*
X118122309Y-113270455D01*
X118122310Y-113270456D01*
X118194913Y-113295860D01*
X118281943Y-113326314D01*
X118449997Y-113345249D01*
X118450000Y-113345249D01*
X118450003Y-113345249D01*
X118618056Y-113326314D01*
X118618059Y-113326313D01*
X118777690Y-113270456D01*
X118777692Y-113270454D01*
X118777694Y-113270454D01*
X118777697Y-113270452D01*
X118920884Y-113180481D01*
X118920885Y-113180480D01*
X118920890Y-113180477D01*
X119040477Y-113060890D01*
X119130452Y-112917697D01*
X119130454Y-112917694D01*
X119130454Y-112917692D01*
X119130456Y-112917690D01*
X119186313Y-112758059D01*
X119186313Y-112758058D01*
X119186314Y-112758056D01*
X119205249Y-112590002D01*
X119205249Y-112589997D01*
X119186314Y-112421943D01*
X119130454Y-112262305D01*
X119130452Y-112262302D01*
X119040481Y-112119115D01*
X119040476Y-112119109D01*
X118920890Y-111999523D01*
X118920884Y-111999518D01*
X118777697Y-111909547D01*
X118777694Y-111909545D01*
X118618056Y-111853685D01*
X118450003Y-111834751D01*
X118449997Y-111834751D01*
X118281943Y-111853685D01*
X118122305Y-111909545D01*
X118122302Y-111909547D01*
X117979115Y-111999518D01*
X117979109Y-111999523D01*
X117859523Y-112119109D01*
X117859518Y-112119115D01*
X117769547Y-112262302D01*
X117769545Y-112262305D01*
X117713685Y-112421943D01*
X117694751Y-112589997D01*
X100250500Y-112589997D01*
X100250500Y-110799997D01*
X109244751Y-110799997D01*
X109244751Y-110800002D01*
X109263685Y-110968056D01*
X109319545Y-111127694D01*
X109319547Y-111127697D01*
X109409518Y-111270884D01*
X109409523Y-111270890D01*
X109529109Y-111390476D01*
X109529115Y-111390481D01*
X109672302Y-111480452D01*
X109672305Y-111480454D01*
X109672309Y-111480455D01*
X109672310Y-111480456D01*
X109744913Y-111505860D01*
X109831943Y-111536314D01*
X109999997Y-111555249D01*
X110000000Y-111555249D01*
X110000003Y-111555249D01*
X110168056Y-111536314D01*
X110168059Y-111536313D01*
X110327690Y-111480456D01*
X110327692Y-111480454D01*
X110327694Y-111480454D01*
X110327697Y-111480452D01*
X110470884Y-111390481D01*
X110470885Y-111390480D01*
X110470890Y-111390477D01*
X110590477Y-111270890D01*
X110680452Y-111127697D01*
X110680454Y-111127694D01*
X110680454Y-111127692D01*
X110680456Y-111127690D01*
X110736313Y-110968059D01*
X110736313Y-110968058D01*
X110736314Y-110968056D01*
X110738349Y-110949997D01*
X111194751Y-110949997D01*
X111194751Y-110950002D01*
X111213685Y-111118056D01*
X111269545Y-111277694D01*
X111269547Y-111277697D01*
X111359518Y-111420884D01*
X111359523Y-111420890D01*
X111479109Y-111540476D01*
X111479115Y-111540481D01*
X111622302Y-111630452D01*
X111622305Y-111630454D01*
X111622309Y-111630455D01*
X111622310Y-111630456D01*
X111694913Y-111655860D01*
X111781943Y-111686314D01*
X111949997Y-111705249D01*
X111950000Y-111705249D01*
X111950003Y-111705249D01*
X112118056Y-111686314D01*
X112118059Y-111686313D01*
X112277690Y-111630456D01*
X112277692Y-111630454D01*
X112277694Y-111630454D01*
X112277697Y-111630452D01*
X112420884Y-111540481D01*
X112420885Y-111540480D01*
X112420890Y-111540477D01*
X112540477Y-111420890D01*
X112540481Y-111420884D01*
X112630452Y-111277697D01*
X112630454Y-111277694D01*
X112630454Y-111277692D01*
X112630456Y-111277690D01*
X112686313Y-111118059D01*
X112686313Y-111118058D01*
X112686314Y-111118056D01*
X112705249Y-110950002D01*
X112705249Y-110949997D01*
X112686314Y-110781943D01*
X112636813Y-110640477D01*
X112630456Y-110622310D01*
X112630455Y-110622309D01*
X112630454Y-110622305D01*
X112630452Y-110622302D01*
X112540481Y-110479115D01*
X112540476Y-110479109D01*
X112420890Y-110359523D01*
X112420884Y-110359518D01*
X112277697Y-110269547D01*
X112277694Y-110269545D01*
X112118056Y-110213685D01*
X111950003Y-110194751D01*
X111949997Y-110194751D01*
X111781943Y-110213685D01*
X111622305Y-110269545D01*
X111622302Y-110269547D01*
X111479115Y-110359518D01*
X111479109Y-110359523D01*
X111359523Y-110479109D01*
X111359518Y-110479115D01*
X111269547Y-110622302D01*
X111269545Y-110622305D01*
X111213685Y-110781943D01*
X111194751Y-110949997D01*
X110738349Y-110949997D01*
X110755249Y-110800002D01*
X110755249Y-110799997D01*
X110736314Y-110631943D01*
X110680454Y-110472305D01*
X110680452Y-110472302D01*
X110590481Y-110329115D01*
X110590476Y-110329109D01*
X110470890Y-110209523D01*
X110470884Y-110209518D01*
X110327697Y-110119547D01*
X110327694Y-110119545D01*
X110168056Y-110063685D01*
X110046565Y-110049997D01*
X117694751Y-110049997D01*
X117694751Y-110050002D01*
X117713685Y-110218056D01*
X117769545Y-110377694D01*
X117769547Y-110377697D01*
X117859518Y-110520884D01*
X117859523Y-110520890D01*
X117979109Y-110640476D01*
X117979115Y-110640481D01*
X118122302Y-110730452D01*
X118122305Y-110730454D01*
X118122309Y-110730455D01*
X118122310Y-110730456D01*
X118194913Y-110755860D01*
X118281943Y-110786314D01*
X118449997Y-110805249D01*
X118450000Y-110805249D01*
X118450003Y-110805249D01*
X118618056Y-110786314D01*
X118630548Y-110781943D01*
X118777690Y-110730456D01*
X118777692Y-110730454D01*
X118777694Y-110730454D01*
X118777697Y-110730452D01*
X118920884Y-110640481D01*
X118920885Y-110640480D01*
X118920890Y-110640477D01*
X119040477Y-110520890D01*
X119066726Y-110479115D01*
X119130452Y-110377697D01*
X119130454Y-110377694D01*
X119130454Y-110377692D01*
X119130456Y-110377690D01*
X119186313Y-110218059D01*
X119186313Y-110218058D01*
X119186314Y-110218056D01*
X119205249Y-110050002D01*
X119205249Y-110049997D01*
X119186314Y-109881943D01*
X119130454Y-109722305D01*
X119130452Y-109722302D01*
X119040481Y-109579115D01*
X119040476Y-109579109D01*
X118920890Y-109459523D01*
X118920884Y-109459518D01*
X118777697Y-109369547D01*
X118777694Y-109369545D01*
X118618056Y-109313685D01*
X118450003Y-109294751D01*
X118449997Y-109294751D01*
X118281943Y-109313685D01*
X118122305Y-109369545D01*
X118122302Y-109369547D01*
X117979115Y-109459518D01*
X117979109Y-109459523D01*
X117859523Y-109579109D01*
X117859518Y-109579115D01*
X117769547Y-109722302D01*
X117769545Y-109722305D01*
X117713685Y-109881943D01*
X117694751Y-110049997D01*
X110046565Y-110049997D01*
X110000003Y-110044751D01*
X109999997Y-110044751D01*
X109831943Y-110063685D01*
X109672305Y-110119545D01*
X109672302Y-110119547D01*
X109529115Y-110209518D01*
X109529109Y-110209523D01*
X109409523Y-110329109D01*
X109409518Y-110329115D01*
X109319547Y-110472302D01*
X109319545Y-110472305D01*
X109263685Y-110631943D01*
X109244751Y-110799997D01*
X100250500Y-110799997D01*
X100250500Y-106497997D01*
X124729751Y-106497997D01*
X124729751Y-106498002D01*
X124748685Y-106666056D01*
X124804545Y-106825694D01*
X124804547Y-106825697D01*
X124894518Y-106968884D01*
X124894523Y-106968890D01*
X125014109Y-107088476D01*
X125014115Y-107088481D01*
X125157302Y-107178452D01*
X125157305Y-107178454D01*
X125157309Y-107178455D01*
X125157310Y-107178456D01*
X125229913Y-107203860D01*
X125316943Y-107234314D01*
X125484997Y-107253249D01*
X125485000Y-107253249D01*
X125485003Y-107253249D01*
X125653056Y-107234314D01*
X125653059Y-107234313D01*
X125812690Y-107178456D01*
X125812692Y-107178454D01*
X125812694Y-107178454D01*
X125812697Y-107178452D01*
X125955884Y-107088481D01*
X125955885Y-107088480D01*
X125955890Y-107088477D01*
X126075477Y-106968890D01*
X126165452Y-106825697D01*
X126165454Y-106825694D01*
X126165454Y-106825692D01*
X126165456Y-106825690D01*
X126221313Y-106666059D01*
X126221313Y-106666058D01*
X126221314Y-106666056D01*
X126240249Y-106498002D01*
X126240249Y-106497997D01*
X126221314Y-106329943D01*
X126165454Y-106170305D01*
X126165452Y-106170302D01*
X126075481Y-106027115D01*
X126075476Y-106027109D01*
X125955890Y-105907523D01*
X125955884Y-105907518D01*
X125812697Y-105817547D01*
X125812694Y-105817545D01*
X125653056Y-105761685D01*
X125485003Y-105742751D01*
X125484997Y-105742751D01*
X125316943Y-105761685D01*
X125157305Y-105817545D01*
X125157302Y-105817547D01*
X125014115Y-105907518D01*
X125014109Y-105907523D01*
X124894523Y-106027109D01*
X124894518Y-106027115D01*
X124804547Y-106170302D01*
X124804545Y-106170305D01*
X124748685Y-106329943D01*
X124729751Y-106497997D01*
X100250500Y-106497997D01*
X100250500Y-105002706D01*
X100250618Y-104997298D01*
X100251474Y-104977690D01*
X100268337Y-104591439D01*
X100269276Y-104580708D01*
X100321951Y-104180609D01*
X100323823Y-104169993D01*
X100388398Y-103878711D01*
X102149500Y-103878711D01*
X102149500Y-104121288D01*
X102181161Y-104361785D01*
X102243947Y-104596104D01*
X102321295Y-104782838D01*
X102336776Y-104820212D01*
X102458064Y-105030289D01*
X102458066Y-105030292D01*
X102458067Y-105030293D01*
X102605733Y-105222736D01*
X102605739Y-105222743D01*
X102777256Y-105394260D01*
X102777263Y-105394266D01*
X102890321Y-105481018D01*
X102969711Y-105541936D01*
X103179788Y-105663224D01*
X103403900Y-105756054D01*
X103638211Y-105818838D01*
X103818586Y-105842584D01*
X103878711Y-105850500D01*
X103878712Y-105850500D01*
X104121289Y-105850500D01*
X104169388Y-105844167D01*
X104361789Y-105818838D01*
X104596100Y-105756054D01*
X104820212Y-105663224D01*
X105030289Y-105541936D01*
X105222738Y-105394265D01*
X105394265Y-105222738D01*
X105541936Y-105030289D01*
X105663224Y-104820212D01*
X105733729Y-104649997D01*
X109444751Y-104649997D01*
X109444751Y-104650002D01*
X109463685Y-104818056D01*
X109519545Y-104977694D01*
X109519547Y-104977697D01*
X109609518Y-105120884D01*
X109609523Y-105120890D01*
X109729109Y-105240476D01*
X109729115Y-105240481D01*
X109872302Y-105330452D01*
X109872305Y-105330454D01*
X109872309Y-105330455D01*
X109872310Y-105330456D01*
X109944913Y-105355860D01*
X110031943Y-105386314D01*
X110199997Y-105405249D01*
X110200000Y-105405249D01*
X110200003Y-105405249D01*
X110368056Y-105386314D01*
X110368059Y-105386313D01*
X110527690Y-105330456D01*
X110527692Y-105330454D01*
X110527694Y-105330454D01*
X110527697Y-105330452D01*
X110670884Y-105240481D01*
X110670885Y-105240480D01*
X110670890Y-105240477D01*
X110790477Y-105120890D01*
X110790481Y-105120884D01*
X110880452Y-104977697D01*
X110880454Y-104977694D01*
X110880454Y-104977692D01*
X110880456Y-104977690D01*
X110936313Y-104818059D01*
X110936313Y-104818058D01*
X110936314Y-104818056D01*
X110955249Y-104650002D01*
X110955249Y-104649997D01*
X113444751Y-104649997D01*
X113444751Y-104650002D01*
X113463685Y-104818056D01*
X113519545Y-104977694D01*
X113519547Y-104977697D01*
X113609518Y-105120884D01*
X113609523Y-105120890D01*
X113729109Y-105240476D01*
X113729115Y-105240481D01*
X113872302Y-105330452D01*
X113872305Y-105330454D01*
X113872309Y-105330455D01*
X113872310Y-105330456D01*
X113944913Y-105355860D01*
X114031943Y-105386314D01*
X114199997Y-105405249D01*
X114200000Y-105405249D01*
X114200003Y-105405249D01*
X114368056Y-105386314D01*
X114368059Y-105386313D01*
X114527690Y-105330456D01*
X114527692Y-105330454D01*
X114527694Y-105330454D01*
X114527697Y-105330452D01*
X114670884Y-105240481D01*
X114670885Y-105240480D01*
X114670890Y-105240477D01*
X114790477Y-105120890D01*
X114790481Y-105120884D01*
X114880452Y-104977697D01*
X114880454Y-104977694D01*
X114880454Y-104977692D01*
X114880456Y-104977690D01*
X114936313Y-104818059D01*
X114936313Y-104818058D01*
X114936314Y-104818056D01*
X114955249Y-104650002D01*
X114955249Y-104649997D01*
X114936314Y-104481943D01*
X114880454Y-104322305D01*
X114880452Y-104322302D01*
X114790481Y-104179115D01*
X114790476Y-104179109D01*
X114670890Y-104059523D01*
X114670884Y-104059518D01*
X114527697Y-103969547D01*
X114527694Y-103969545D01*
X114368056Y-103913685D01*
X114200003Y-103894751D01*
X114199997Y-103894751D01*
X114031943Y-103913685D01*
X113872305Y-103969545D01*
X113872302Y-103969547D01*
X113729115Y-104059518D01*
X113729109Y-104059523D01*
X113609523Y-104179109D01*
X113609518Y-104179115D01*
X113519547Y-104322302D01*
X113519545Y-104322305D01*
X113463685Y-104481943D01*
X113444751Y-104649997D01*
X110955249Y-104649997D01*
X110936314Y-104481943D01*
X110880454Y-104322305D01*
X110880452Y-104322302D01*
X110790481Y-104179115D01*
X110790476Y-104179109D01*
X110670890Y-104059523D01*
X110670884Y-104059518D01*
X110527697Y-103969547D01*
X110527694Y-103969545D01*
X110368056Y-103913685D01*
X110200003Y-103894751D01*
X110199997Y-103894751D01*
X110031943Y-103913685D01*
X109872305Y-103969545D01*
X109872302Y-103969547D01*
X109729115Y-104059518D01*
X109729109Y-104059523D01*
X109609523Y-104179109D01*
X109609518Y-104179115D01*
X109519547Y-104322302D01*
X109519545Y-104322305D01*
X109463685Y-104481943D01*
X109444751Y-104649997D01*
X105733729Y-104649997D01*
X105756054Y-104596100D01*
X105818838Y-104361789D01*
X105850500Y-104121288D01*
X105850500Y-103878712D01*
X105850500Y-103878711D01*
X144149500Y-103878711D01*
X144149500Y-104121288D01*
X144181161Y-104361785D01*
X144243947Y-104596104D01*
X144321295Y-104782838D01*
X144336776Y-104820212D01*
X144458064Y-105030289D01*
X144458066Y-105030292D01*
X144458067Y-105030293D01*
X144605733Y-105222736D01*
X144605739Y-105222743D01*
X144777256Y-105394260D01*
X144777263Y-105394266D01*
X144890321Y-105481018D01*
X144969711Y-105541936D01*
X145179788Y-105663224D01*
X145403900Y-105756054D01*
X145638211Y-105818838D01*
X145818586Y-105842584D01*
X145878711Y-105850500D01*
X145878712Y-105850500D01*
X146121289Y-105850500D01*
X146169388Y-105844167D01*
X146361789Y-105818838D01*
X146596100Y-105756054D01*
X146820212Y-105663224D01*
X147030289Y-105541936D01*
X147222738Y-105394265D01*
X147394265Y-105222738D01*
X147541936Y-105030289D01*
X147663224Y-104820212D01*
X147756054Y-104596100D01*
X147818838Y-104361789D01*
X147850500Y-104121288D01*
X147850500Y-103878712D01*
X147818838Y-103638211D01*
X147756054Y-103403900D01*
X147663224Y-103179788D01*
X147541936Y-102969711D01*
X147394265Y-102777262D01*
X147394260Y-102777256D01*
X147222743Y-102605739D01*
X147222736Y-102605733D01*
X147030293Y-102458067D01*
X147030292Y-102458066D01*
X147030289Y-102458064D01*
X146820212Y-102336776D01*
X146755690Y-102310050D01*
X146596104Y-102243947D01*
X146361785Y-102181161D01*
X146121289Y-102149500D01*
X146121288Y-102149500D01*
X145878712Y-102149500D01*
X145878711Y-102149500D01*
X145638214Y-102181161D01*
X145403895Y-102243947D01*
X145179794Y-102336773D01*
X145179785Y-102336777D01*
X144969706Y-102458067D01*
X144777263Y-102605733D01*
X144777256Y-102605739D01*
X144605739Y-102777256D01*
X144605733Y-102777263D01*
X144458067Y-102969706D01*
X144336777Y-103179785D01*
X144336773Y-103179794D01*
X144243947Y-103403895D01*
X144181161Y-103638214D01*
X144149500Y-103878711D01*
X105850500Y-103878711D01*
X105818838Y-103638211D01*
X105756054Y-103403900D01*
X105663224Y-103179788D01*
X105541936Y-102969711D01*
X105394265Y-102777262D01*
X105394260Y-102777256D01*
X105222743Y-102605739D01*
X105222736Y-102605733D01*
X105030293Y-102458067D01*
X105030292Y-102458066D01*
X105030289Y-102458064D01*
X104820212Y-102336776D01*
X104755690Y-102310050D01*
X104596104Y-102243947D01*
X104361785Y-102181161D01*
X104121289Y-102149500D01*
X104121288Y-102149500D01*
X103878712Y-102149500D01*
X103878711Y-102149500D01*
X103638214Y-102181161D01*
X103403895Y-102243947D01*
X103179794Y-102336773D01*
X103179785Y-102336777D01*
X102969706Y-102458067D01*
X102777263Y-102605733D01*
X102777256Y-102605739D01*
X102605739Y-102777256D01*
X102605733Y-102777263D01*
X102458067Y-102969706D01*
X102336777Y-103179785D01*
X102336773Y-103179794D01*
X102243947Y-103403895D01*
X102181161Y-103638214D01*
X102149500Y-103878711D01*
X100388398Y-103878711D01*
X100411168Y-103776000D01*
X100413955Y-103765600D01*
X100535309Y-103380713D01*
X100538993Y-103370592D01*
X100693426Y-102997758D01*
X100697984Y-102987984D01*
X100884315Y-102630045D01*
X100889710Y-102620700D01*
X101106537Y-102280350D01*
X101112727Y-102271511D01*
X101358385Y-101951363D01*
X101365323Y-101943094D01*
X101637949Y-101645575D01*
X101645575Y-101637949D01*
X101943094Y-101365323D01*
X101951363Y-101358385D01*
X102271511Y-101112727D01*
X102280350Y-101106537D01*
X102620700Y-100889710D01*
X102630045Y-100884315D01*
X102987984Y-100697984D01*
X102997758Y-100693426D01*
X103370592Y-100538993D01*
X103380713Y-100535309D01*
X103765600Y-100413955D01*
X103776000Y-100411168D01*
X104169993Y-100323823D01*
X104180609Y-100321951D01*
X104580708Y-100269276D01*
X104591439Y-100268337D01*
X104984636Y-100251170D01*
X104997298Y-100250618D01*
X105002706Y-100250500D01*
X105044170Y-100250500D01*
X144955830Y-100250500D01*
X144997294Y-100250500D01*
X145002702Y-100250618D01*
G37*
%TD.AperFunction*%
%TD*%
M02*
