%TF.GenerationSoftware,KiCad,Pcbnew,8.0.4*%
%TF.CreationDate,2025-01-29T17:32:31-05:00*%
%TF.ProjectId,EauRouge,45617552-6f75-4676-952e-6b696361645f,rev?*%
%TF.SameCoordinates,Original*%
%TF.FileFunction,Legend,Top*%
%TF.FilePolarity,Positive*%
%FSLAX46Y46*%
G04 Gerber Fmt 4.6, Leading zero omitted, Abs format (unit mm)*
G04 Created by KiCad (PCBNEW 8.0.4) date 2025-01-29 17:32:31*
%MOMM*%
%LPD*%
G01*
G04 APERTURE LIST*
G04 Aperture macros list*
%AMRoundRect*
0 Rectangle with rounded corners*
0 $1 Rounding radius*
0 $2 $3 $4 $5 $6 $7 $8 $9 X,Y pos of 4 corners*
0 Add a 4 corners polygon primitive as box body*
4,1,4,$2,$3,$4,$5,$6,$7,$8,$9,$2,$3,0*
0 Add four circle primitives for the rounded corners*
1,1,$1+$1,$2,$3*
1,1,$1+$1,$4,$5*
1,1,$1+$1,$6,$7*
1,1,$1+$1,$8,$9*
0 Add four rect primitives between the rounded corners*
20,1,$1+$1,$2,$3,$4,$5,0*
20,1,$1+$1,$4,$5,$6,$7,0*
20,1,$1+$1,$6,$7,$8,$9,0*
20,1,$1+$1,$8,$9,$2,$3,0*%
G04 Aperture macros list end*
%ADD10C,0.200000*%
%ADD11C,0.300000*%
%ADD12C,0.400000*%
%ADD13C,0.120000*%
%ADD14C,0.100000*%
%ADD15C,0.127000*%
%ADD16RoundRect,0.270833X-0.379167X-0.479167X0.379167X-0.479167X0.379167X0.479167X-0.379167X0.479167X0*%
%ADD17RoundRect,0.271277X-0.366223X-0.503723X0.366223X-0.503723X0.366223X0.503723X-0.366223X0.503723X0*%
%ADD18RoundRect,0.271277X0.366223X0.503723X-0.366223X0.503723X-0.366223X-0.503723X0.366223X-0.503723X0*%
%ADD19RoundRect,0.271277X-0.503723X0.366223X-0.503723X-0.366223X0.503723X-0.366223X0.503723X0.366223X0*%
%ADD20RoundRect,0.270833X-0.479167X0.379167X-0.479167X-0.379167X0.479167X-0.379167X0.479167X0.379167X0*%
%ADD21RoundRect,0.271277X0.503723X-0.366223X0.503723X0.366223X-0.503723X0.366223X-0.503723X-0.366223X0*%
%ADD22RoundRect,0.120000X-0.930000X-0.480000X0.930000X-0.480000X0.930000X0.480000X-0.930000X0.480000X0*%
%ADD23RoundRect,0.090000X-0.360000X-0.360000X0.360000X-0.360000X0.360000X0.360000X-0.360000X0.360000X0*%
%ADD24RoundRect,0.281250X-0.618750X1.318750X-0.618750X-1.318750X0.618750X-1.318750X0.618750X1.318750X0*%
%ADD25RoundRect,0.270833X0.479167X-0.379167X0.479167X0.379167X-0.479167X0.379167X-0.479167X-0.379167X0*%
%ADD26RoundRect,0.277778X0.722222X-1.197222X0.722222X1.197222X-0.722222X1.197222X-0.722222X-1.197222X0*%
%ADD27RoundRect,0.550000X-1.050000X-0.550000X1.050000X-0.550000X1.050000X0.550000X-1.050000X0.550000X0*%
%ADD28RoundRect,0.325000X1.025000X0.325000X-1.025000X0.325000X-1.025000X-0.325000X1.025000X-0.325000X0*%
%ADD29C,1.900000*%
%ADD30C,3.200000*%
%ADD31RoundRect,0.271739X-0.478261X0.353261X-0.478261X-0.353261X0.478261X-0.353261X0.478261X0.353261X0*%
%ADD32R,1.700000X1.700000*%
%ADD33O,1.700000X1.700000*%
%ADD34RoundRect,0.318182X-0.381818X-0.431818X0.381818X-0.431818X0.381818X0.431818X-0.381818X0.431818X0*%
%ADD35RoundRect,0.425000X-0.425000X0.675000X-0.425000X-0.675000X0.425000X-0.675000X0.425000X0.675000X0*%
%ADD36RoundRect,0.550000X-1.450000X0.550000X-1.450000X-0.550000X1.450000X-0.550000X1.450000X0.550000X0*%
%ADD37C,1.400000*%
%ADD38R,3.500000X3.500000*%
%ADD39C,3.500000*%
%ADD40RoundRect,0.270833X0.379167X0.479167X-0.379167X0.479167X-0.379167X-0.479167X0.379167X-0.479167X0*%
%ADD41RoundRect,0.225000X0.275000X0.225000X-0.275000X0.225000X-0.275000X-0.225000X0.275000X-0.225000X0*%
%ADD42RoundRect,0.197500X-0.197500X0.652500X-0.197500X-0.652500X0.197500X-0.652500X0.197500X0.652500X0*%
%ADD43RoundRect,0.262500X0.412500X0.262500X-0.412500X0.262500X-0.412500X-0.262500X0.412500X-0.262500X0*%
%ADD44RoundRect,0.185000X-0.735000X0.185000X-0.735000X-0.185000X0.735000X-0.185000X0.735000X0.185000X0*%
%ADD45RoundRect,0.285000X-1.135000X0.285000X-1.135000X-0.285000X1.135000X-0.285000X1.135000X0.285000X0*%
%ADD46RoundRect,0.100000X2.000000X-0.800000X2.000000X0.800000X-2.000000X0.800000X-2.000000X-0.800000X0*%
%ADD47R,2.000000X2.000000*%
%ADD48C,2.000000*%
%ADD49RoundRect,0.271739X0.353261X0.478261X-0.353261X0.478261X-0.353261X-0.478261X0.353261X-0.478261X0*%
%ADD50RoundRect,0.185000X-0.547500X-0.185000X0.547500X-0.185000X0.547500X0.185000X-0.547500X0.185000X0*%
G04 APERTURE END LIST*
D10*
G36*
X102998987Y-141578430D02*
G01*
X103018439Y-141597882D01*
X103048244Y-141657492D01*
X103048244Y-141753135D01*
X103018439Y-141812743D01*
X102993770Y-141837413D01*
X102934161Y-141867219D01*
X102676816Y-141867219D01*
X102676816Y-141543409D01*
X102893922Y-141543409D01*
X102998987Y-141578430D01*
G37*
G36*
X102946151Y-141097024D02*
G01*
X102970820Y-141121692D01*
X103000625Y-141181302D01*
X103000625Y-141229326D01*
X102970820Y-141288935D01*
X102946151Y-141313603D01*
X102886542Y-141343409D01*
X102676816Y-141343409D01*
X102676816Y-141067219D01*
X102886542Y-141067219D01*
X102946151Y-141097024D01*
G37*
G36*
X103866645Y-141581504D02*
G01*
X103667940Y-141581504D01*
X103767292Y-141283446D01*
X103866645Y-141581504D01*
G37*
G36*
X105071720Y-142178330D02*
G01*
X101366490Y-142178330D01*
X101366490Y-140979726D01*
X101477601Y-140979726D01*
X101481948Y-140998842D01*
X101815281Y-141998841D01*
X101823272Y-142016742D01*
X101827955Y-142022141D01*
X101831150Y-142028531D01*
X101840621Y-142036746D01*
X101848837Y-142046218D01*
X101855225Y-142049412D01*
X101860626Y-142054096D01*
X101872527Y-142058063D01*
X101883736Y-142063667D01*
X101890860Y-142064173D01*
X101897642Y-142066434D01*
X101910151Y-142065544D01*
X101922656Y-142066434D01*
X101929434Y-142064174D01*
X101936562Y-142063668D01*
X101947778Y-142058059D01*
X101959672Y-142054095D01*
X101965069Y-142049414D01*
X101971461Y-142046218D01*
X101979679Y-142036742D01*
X101989148Y-142028530D01*
X101992341Y-142022143D01*
X101997026Y-142016742D01*
X102005017Y-141998842D01*
X102338350Y-140998842D01*
X102342697Y-140979727D01*
X102341808Y-140967219D01*
X102476816Y-140967219D01*
X102476816Y-141967219D01*
X102478737Y-141986728D01*
X102493669Y-142022776D01*
X102521259Y-142050366D01*
X102557307Y-142065298D01*
X102576816Y-142067219D01*
X102957768Y-142067219D01*
X102977277Y-142065298D01*
X102980597Y-142063922D01*
X102984181Y-142063668D01*
X103002489Y-142056662D01*
X103097727Y-142009043D01*
X103106122Y-142003758D01*
X103108564Y-142002747D01*
X103111311Y-142000491D01*
X103114317Y-141998600D01*
X103116047Y-141996605D01*
X103123717Y-141990310D01*
X103159314Y-141954712D01*
X103334744Y-141954712D01*
X103337510Y-141993632D01*
X103354960Y-142028531D01*
X103384436Y-142054096D01*
X103421452Y-142066434D01*
X103460372Y-142063668D01*
X103495271Y-142046218D01*
X103520836Y-142016742D01*
X103528827Y-141998842D01*
X103601273Y-141781504D01*
X103933311Y-141781504D01*
X104005757Y-141998841D01*
X104013748Y-142016742D01*
X104039313Y-142046218D01*
X104074212Y-142063667D01*
X104113132Y-142066434D01*
X104150148Y-142054095D01*
X104179624Y-142028530D01*
X104197074Y-141993631D01*
X104199840Y-141954711D01*
X104195493Y-141935596D01*
X103866198Y-140947710D01*
X104193023Y-140947710D01*
X104193023Y-140986728D01*
X104207955Y-141022776D01*
X104235545Y-141050366D01*
X104271593Y-141065298D01*
X104291102Y-141067219D01*
X104476816Y-141067219D01*
X104476816Y-141967219D01*
X104478737Y-141986728D01*
X104493669Y-142022776D01*
X104521259Y-142050366D01*
X104557307Y-142065298D01*
X104596325Y-142065298D01*
X104632373Y-142050366D01*
X104659963Y-142022776D01*
X104674895Y-141986728D01*
X104676816Y-141967219D01*
X104676816Y-141067219D01*
X104862530Y-141067219D01*
X104882039Y-141065298D01*
X104918087Y-141050366D01*
X104945677Y-141022776D01*
X104960609Y-140986728D01*
X104960609Y-140947710D01*
X104945677Y-140911662D01*
X104918087Y-140884072D01*
X104882039Y-140869140D01*
X104862530Y-140867219D01*
X104291102Y-140867219D01*
X104271593Y-140869140D01*
X104235545Y-140884072D01*
X104207955Y-140911662D01*
X104193023Y-140947710D01*
X103866198Y-140947710D01*
X103862160Y-140935596D01*
X103854169Y-140917696D01*
X103849484Y-140912294D01*
X103846291Y-140905908D01*
X103836822Y-140897695D01*
X103828604Y-140888220D01*
X103822212Y-140885023D01*
X103816815Y-140880343D01*
X103804921Y-140876378D01*
X103793705Y-140870770D01*
X103786577Y-140870263D01*
X103779799Y-140868004D01*
X103767294Y-140868893D01*
X103754785Y-140868004D01*
X103748003Y-140870264D01*
X103740879Y-140870771D01*
X103729670Y-140876374D01*
X103717769Y-140880342D01*
X103712368Y-140885025D01*
X103705980Y-140888220D01*
X103697764Y-140897691D01*
X103688293Y-140905907D01*
X103685098Y-140912296D01*
X103680415Y-140917696D01*
X103672424Y-140935597D01*
X103339091Y-141935596D01*
X103334744Y-141954712D01*
X103159314Y-141954712D01*
X103171336Y-141942690D01*
X103177628Y-141935023D01*
X103179625Y-141933292D01*
X103181518Y-141930284D01*
X103183773Y-141927537D01*
X103184784Y-141925095D01*
X103190068Y-141916701D01*
X103237687Y-141821464D01*
X103244693Y-141803155D01*
X103244947Y-141799571D01*
X103246323Y-141796251D01*
X103248244Y-141776742D01*
X103248244Y-141633885D01*
X103246323Y-141614376D01*
X103244947Y-141611055D01*
X103244693Y-141607472D01*
X103237687Y-141589163D01*
X103190068Y-141493926D01*
X103184782Y-141485529D01*
X103183772Y-141483089D01*
X103181518Y-141480343D01*
X103179625Y-141477335D01*
X103177627Y-141475602D01*
X103171335Y-141467936D01*
X103123717Y-141420317D01*
X103122928Y-141419669D01*
X103123716Y-141418882D01*
X103130008Y-141411215D01*
X103132006Y-141409483D01*
X103133899Y-141406474D01*
X103136153Y-141403729D01*
X103137163Y-141401288D01*
X103142449Y-141392892D01*
X103190068Y-141297655D01*
X103197074Y-141279346D01*
X103197328Y-141275762D01*
X103198704Y-141272442D01*
X103200625Y-141252933D01*
X103200625Y-141157695D01*
X103198704Y-141138186D01*
X103197328Y-141134865D01*
X103197074Y-141131282D01*
X103190068Y-141112973D01*
X103142449Y-141017736D01*
X103137163Y-141009339D01*
X103136153Y-141006899D01*
X103133899Y-141004153D01*
X103132006Y-141001145D01*
X103130008Y-140999412D01*
X103123716Y-140991746D01*
X103076098Y-140944127D01*
X103068427Y-140937832D01*
X103066698Y-140935838D01*
X103063690Y-140933944D01*
X103060944Y-140931691D01*
X103058504Y-140930680D01*
X103050108Y-140925395D01*
X102954870Y-140877776D01*
X102936562Y-140870770D01*
X102932978Y-140870515D01*
X102929658Y-140869140D01*
X102910149Y-140867219D01*
X102576816Y-140867219D01*
X102557307Y-140869140D01*
X102521259Y-140884072D01*
X102493669Y-140911662D01*
X102478737Y-140947710D01*
X102476816Y-140967219D01*
X102341808Y-140967219D01*
X102339931Y-140940807D01*
X102322481Y-140905908D01*
X102293005Y-140880343D01*
X102255989Y-140868004D01*
X102217069Y-140870771D01*
X102182170Y-140888220D01*
X102156605Y-140917696D01*
X102148614Y-140935597D01*
X101910149Y-141650991D01*
X101671684Y-140935596D01*
X101663693Y-140917696D01*
X101638128Y-140888220D01*
X101603229Y-140870770D01*
X101564309Y-140868004D01*
X101527293Y-140880342D01*
X101497817Y-140905907D01*
X101480367Y-140940806D01*
X101477601Y-140979726D01*
X101366490Y-140979726D01*
X101366490Y-140756108D01*
X105071720Y-140756108D01*
X105071720Y-142178330D01*
G37*
G36*
X138625896Y-133149127D02*
G01*
X138453949Y-133149127D01*
X138453949Y-132955931D01*
X138625896Y-132955931D01*
X138625896Y-133149127D01*
G37*
G36*
X139470000Y-133149127D02*
G01*
X138735317Y-133149127D01*
X138735317Y-132955931D01*
X139470000Y-132955931D01*
X139470000Y-133149127D01*
G37*
G36*
X138735317Y-132844556D02*
G01*
X138735317Y-132737578D01*
X138679874Y-132737578D01*
X138626470Y-132735670D01*
X138574537Y-132728343D01*
X138541388Y-132718039D01*
X138499989Y-132690256D01*
X138468941Y-132649237D01*
X138467138Y-132645987D01*
X138448478Y-132598567D01*
X138439697Y-132546710D01*
X138438318Y-132512875D01*
X138440607Y-132461741D01*
X138447477Y-132411228D01*
X138458926Y-132361334D01*
X138461765Y-132351430D01*
X138589993Y-132377564D01*
X138581105Y-132428217D01*
X138579002Y-132466224D01*
X138589853Y-132514149D01*
X138600006Y-132526308D01*
X138646908Y-132542617D01*
X138680362Y-132544382D01*
X138735317Y-132544382D01*
X138735317Y-132400279D01*
X138876001Y-132400279D01*
X138876001Y-132544382D01*
X139470000Y-132544382D01*
X139470000Y-132737578D01*
X138876001Y-132737578D01*
X138876001Y-132844556D01*
X138735317Y-132844556D01*
G37*
G36*
X138735317Y-131570830D02*
G01*
X138876001Y-131570830D01*
X138876001Y-131702721D01*
X139194982Y-131702721D01*
X139247690Y-131702363D01*
X139297145Y-131700485D01*
X139308066Y-131699057D01*
X139334689Y-131681716D01*
X139344947Y-131649232D01*
X139336174Y-131600977D01*
X139326385Y-131571563D01*
X139460230Y-131554954D01*
X139474692Y-131603377D01*
X139483150Y-131655956D01*
X139485631Y-131707362D01*
X139481113Y-131757065D01*
X139467557Y-131801639D01*
X139440862Y-131845260D01*
X139420907Y-131863189D01*
X139374670Y-131883680D01*
X139343482Y-131890300D01*
X139291153Y-131894879D01*
X139240525Y-131896191D01*
X139203531Y-131896406D01*
X138876001Y-131896406D01*
X138876001Y-131985066D01*
X138735317Y-131985066D01*
X138735317Y-131896406D01*
X138594633Y-131896406D01*
X138485212Y-131702721D01*
X138735317Y-131702721D01*
X138735317Y-131570830D01*
G37*
G36*
X138453949Y-131246964D02*
G01*
X138823733Y-131246964D01*
X138788373Y-131210688D01*
X138756366Y-131165111D01*
X138734317Y-131116027D01*
X138722226Y-131063437D01*
X138719685Y-131023726D01*
X138723797Y-130971727D01*
X138736132Y-130924081D01*
X138744598Y-130903558D01*
X138770959Y-130859208D01*
X138805703Y-130824679D01*
X138808101Y-130822958D01*
X138851516Y-130798978D01*
X138893831Y-130785833D01*
X138944821Y-130778988D01*
X138998856Y-130776299D01*
X139039644Y-130775819D01*
X139470000Y-130775819D01*
X139470000Y-130968771D01*
X139077257Y-130968771D01*
X139024211Y-130969458D01*
X138972886Y-130972249D01*
X138929002Y-130979762D01*
X138887672Y-131007222D01*
X138878932Y-131018597D01*
X138861838Y-131065814D01*
X138860369Y-131088206D01*
X138867943Y-131139091D01*
X138884305Y-131174180D01*
X138918609Y-131210355D01*
X138955868Y-131229623D01*
X139006545Y-131241477D01*
X139058694Y-131246134D01*
X139097529Y-131246964D01*
X139470000Y-131246964D01*
X139470000Y-131439916D01*
X138453949Y-131439916D01*
X138453949Y-131246964D01*
G37*
G36*
X138625896Y-130584577D02*
G01*
X138453949Y-130584577D01*
X138453949Y-130391381D01*
X138625896Y-130391381D01*
X138625896Y-130584577D01*
G37*
G36*
X139470000Y-130584577D02*
G01*
X138735317Y-130584577D01*
X138735317Y-130391381D01*
X139470000Y-130391381D01*
X139470000Y-130584577D01*
G37*
G36*
X139266789Y-130263642D02*
G01*
X139235526Y-130069958D01*
X139282787Y-130051212D01*
X139317103Y-130019888D01*
X139337986Y-129974459D01*
X139344838Y-129922286D01*
X139344947Y-129913886D01*
X139341066Y-129863019D01*
X139325299Y-129814021D01*
X139317348Y-129801290D01*
X139273724Y-129776286D01*
X139265812Y-129775889D01*
X139229420Y-129789567D01*
X139208484Y-129836686D01*
X139204019Y-129854291D01*
X139191273Y-129909994D01*
X139178801Y-129960354D01*
X139163598Y-130015790D01*
X139148824Y-130062878D01*
X139128862Y-130114777D01*
X139109741Y-130150314D01*
X139077165Y-130188141D01*
X139033584Y-130217778D01*
X138982661Y-130233736D01*
X138944633Y-130236775D01*
X138893467Y-130230864D01*
X138847132Y-130213128D01*
X138805626Y-130183568D01*
X138784654Y-130162037D01*
X138756230Y-130119402D01*
X138738021Y-130073655D01*
X138726030Y-130020032D01*
X138720701Y-129967799D01*
X138719685Y-129929762D01*
X138721489Y-129876322D01*
X138728150Y-129820812D01*
X138739721Y-129772664D01*
X138758955Y-129726655D01*
X138770976Y-129707257D01*
X138803730Y-129669791D01*
X138844289Y-129639551D01*
X138892654Y-129616537D01*
X138922896Y-129606873D01*
X138954159Y-129789078D01*
X138907703Y-129810405D01*
X138884549Y-129833531D01*
X138864998Y-129878885D01*
X138860369Y-129926343D01*
X138863358Y-129977416D01*
X138876638Y-130026601D01*
X138881618Y-130035519D01*
X138920942Y-130057501D01*
X138955868Y-130038206D01*
X138975790Y-129990842D01*
X138989903Y-129941780D01*
X139003879Y-129885727D01*
X139010334Y-129857955D01*
X139023999Y-129803424D01*
X139038796Y-129755419D01*
X139057493Y-129707661D01*
X139080749Y-129663956D01*
X139096308Y-129642533D01*
X139136587Y-129608186D01*
X139186563Y-129588096D01*
X139240411Y-129582205D01*
X139294675Y-129588831D01*
X139344533Y-129608712D01*
X139385154Y-129637509D01*
X139413335Y-129665980D01*
X139441505Y-129706477D01*
X139462756Y-129754664D01*
X139475464Y-129802088D01*
X139483089Y-129855162D01*
X139485631Y-129913886D01*
X139483562Y-129967659D01*
X139477353Y-130017052D01*
X139464880Y-130069143D01*
X139446773Y-130115273D01*
X139426769Y-130150069D01*
X139394696Y-130189682D01*
X139357342Y-130221816D01*
X139314707Y-130246469D01*
X139266789Y-130263642D01*
G37*
G36*
X138812530Y-128257899D02*
G01*
X138862218Y-128267116D01*
X138910264Y-128284857D01*
X138918255Y-128288939D01*
X138961703Y-128316760D01*
X139000168Y-128352635D01*
X139017173Y-128374424D01*
X139042354Y-128416817D01*
X139060547Y-128463193D01*
X139064801Y-128479937D01*
X139072400Y-128531795D01*
X139076453Y-128582453D01*
X139078521Y-128633465D01*
X139079211Y-128690718D01*
X139079211Y-128823342D01*
X139470000Y-128823342D01*
X139470000Y-129026796D01*
X138453949Y-129026796D01*
X138453949Y-128725157D01*
X138625896Y-128725157D01*
X138625896Y-128823342D01*
X138907264Y-128823342D01*
X138907264Y-128711967D01*
X138906302Y-128656860D01*
X138902921Y-128606761D01*
X138893740Y-128556635D01*
X138891877Y-128551256D01*
X138865468Y-128507445D01*
X138843028Y-128487752D01*
X138797309Y-128468022D01*
X138765847Y-128464794D01*
X138716571Y-128472854D01*
X138676699Y-128497034D01*
X138646774Y-128536183D01*
X138632735Y-128578855D01*
X138627826Y-128629126D01*
X138626223Y-128680589D01*
X138625896Y-128725157D01*
X138453949Y-128725157D01*
X138453949Y-128700488D01*
X138454319Y-128645641D01*
X138455739Y-128588167D01*
X138458741Y-128532619D01*
X138464730Y-128479403D01*
X138469092Y-128458688D01*
X138485944Y-128412156D01*
X138511218Y-128370108D01*
X138544917Y-128332541D01*
X138567278Y-128313607D01*
X138613365Y-128285389D01*
X138660202Y-128268060D01*
X138712565Y-128258027D01*
X138762916Y-128255233D01*
X138812530Y-128257899D01*
G37*
G36*
X139079211Y-127449476D02*
G01*
X139141737Y-127252372D01*
X139191698Y-127268036D01*
X139237474Y-127286633D01*
X139286878Y-127312822D01*
X139330255Y-127343236D01*
X139367605Y-127377875D01*
X139389155Y-127403314D01*
X139416630Y-127444791D01*
X139438420Y-127490268D01*
X139454525Y-127539748D01*
X139464947Y-127593228D01*
X139469684Y-127650710D01*
X139470000Y-127670760D01*
X139467878Y-127719777D01*
X139459258Y-127777913D01*
X139444007Y-127832567D01*
X139422125Y-127883739D01*
X139393613Y-127931428D01*
X139358469Y-127975635D01*
X139334200Y-128000488D01*
X139289330Y-128037640D01*
X139239595Y-128068494D01*
X139184993Y-128093052D01*
X139137808Y-128108165D01*
X139087509Y-128119247D01*
X139034097Y-128126300D01*
X138977570Y-128129322D01*
X138962951Y-128129448D01*
X138902410Y-128127422D01*
X138845348Y-128121342D01*
X138791768Y-128111210D01*
X138741667Y-128097025D01*
X138695047Y-128078787D01*
X138641667Y-128050290D01*
X138593725Y-128015460D01*
X138576071Y-127999755D01*
X138536386Y-127957158D01*
X138503428Y-127910578D01*
X138477195Y-127860014D01*
X138457689Y-127805468D01*
X138444909Y-127746938D01*
X138439528Y-127697246D01*
X138438318Y-127658304D01*
X138441144Y-127602225D01*
X138449623Y-127549544D01*
X138463756Y-127500263D01*
X138483541Y-127454380D01*
X138508979Y-127411896D01*
X138540070Y-127372812D01*
X138554089Y-127358129D01*
X138592130Y-127325950D01*
X138637620Y-127298046D01*
X138683535Y-127277135D01*
X138735153Y-127259497D01*
X138750949Y-127255059D01*
X138782212Y-127456315D01*
X138731425Y-127473162D01*
X138688545Y-127499186D01*
X138656427Y-127530809D01*
X138630145Y-127572652D01*
X138614773Y-127620267D01*
X138610265Y-127668562D01*
X138615241Y-127721868D01*
X138630170Y-127769923D01*
X138655053Y-127812726D01*
X138689888Y-127850279D01*
X138735882Y-127880733D01*
X138786270Y-127900242D01*
X138836994Y-127911663D01*
X138894673Y-127918188D01*
X138948053Y-127919888D01*
X139004546Y-127918212D01*
X139055720Y-127913185D01*
X139110108Y-127902730D01*
X139156836Y-127887448D01*
X139201672Y-127863521D01*
X139217697Y-127851256D01*
X139252852Y-127814360D01*
X139277964Y-127772304D01*
X139293030Y-127725089D01*
X139298053Y-127672714D01*
X139291819Y-127619650D01*
X139273117Y-127571953D01*
X139245296Y-127533251D01*
X139206408Y-127499988D01*
X139161294Y-127475556D01*
X139113147Y-127458219D01*
X139079211Y-127449476D01*
G37*
G36*
X139228539Y-126243752D02*
G01*
X139278650Y-126257250D01*
X139311486Y-126271249D01*
X139356537Y-126298508D01*
X139394238Y-126332294D01*
X139415289Y-126358443D01*
X139440225Y-126403483D01*
X139455720Y-126451166D01*
X139463161Y-126494731D01*
X139466393Y-126546628D01*
X139467969Y-126597324D01*
X139469023Y-126651718D01*
X139469690Y-126704760D01*
X139470000Y-126739951D01*
X139470000Y-127082868D01*
X138453949Y-127082868D01*
X138453949Y-126762909D01*
X138625896Y-126762909D01*
X138625896Y-126879658D01*
X138860369Y-126879658D01*
X138860369Y-126746301D01*
X138860247Y-126715526D01*
X139032316Y-126715526D01*
X139032316Y-126879658D01*
X139298053Y-126879658D01*
X139298053Y-126691346D01*
X139297671Y-126641414D01*
X139295900Y-126589158D01*
X139291946Y-126551884D01*
X139274109Y-126503964D01*
X139252379Y-126478122D01*
X139207387Y-126454262D01*
X139167871Y-126449546D01*
X139119616Y-126457295D01*
X139092156Y-126471528D01*
X139058486Y-126508794D01*
X139046727Y-126535031D01*
X139037397Y-126584850D01*
X139033724Y-126638184D01*
X139032443Y-126690325D01*
X139032316Y-126715526D01*
X138860247Y-126715526D01*
X138860156Y-126692568D01*
X138859287Y-126641200D01*
X138856950Y-126598778D01*
X138843516Y-126549585D01*
X138820558Y-126516713D01*
X138778167Y-126491629D01*
X138741423Y-126486671D01*
X138691731Y-126495798D01*
X138664975Y-126512561D01*
X138637307Y-126554444D01*
X138629316Y-126589009D01*
X138626861Y-126642303D01*
X138626110Y-126698185D01*
X138625900Y-126754044D01*
X138625896Y-126762909D01*
X138453949Y-126762909D01*
X138453949Y-126680355D01*
X138454440Y-126631013D01*
X138456203Y-126581748D01*
X138460210Y-126530858D01*
X138464207Y-126502302D01*
X138477224Y-126453182D01*
X138498749Y-126408830D01*
X138506461Y-126397034D01*
X138538572Y-126359420D01*
X138578910Y-126327791D01*
X138591946Y-126319853D01*
X138637385Y-126299769D01*
X138687176Y-126289925D01*
X138711625Y-126288834D01*
X138763832Y-126294192D01*
X138812742Y-126310266D01*
X138843517Y-126326936D01*
X138884355Y-126359325D01*
X138916744Y-126399339D01*
X138933642Y-126430251D01*
X138951749Y-126381837D01*
X138978893Y-126335975D01*
X139013430Y-126298460D01*
X139025233Y-126288834D01*
X139067904Y-126262688D01*
X139115012Y-126246225D01*
X139166555Y-126239446D01*
X139177397Y-126239253D01*
X139228539Y-126243752D01*
G37*
G36*
X139470000Y-125550000D02*
G01*
X138735317Y-125780809D01*
X138735317Y-125593230D01*
X139216720Y-125456454D01*
X138735317Y-125330669D01*
X138735317Y-125144556D01*
X139216720Y-125022923D01*
X138735317Y-124883705D01*
X138735317Y-124693196D01*
X139470000Y-124927669D01*
X139470000Y-125113049D01*
X138997390Y-125238834D01*
X139470000Y-125362421D01*
X139470000Y-125550000D01*
G37*
G36*
X139470000Y-124154396D02*
G01*
X139422292Y-124169607D01*
X139410404Y-124172958D01*
X139386713Y-124179797D01*
X139420395Y-124217945D01*
X139448978Y-124261442D01*
X139460963Y-124285799D01*
X139476934Y-124332731D01*
X139484764Y-124382244D01*
X139485631Y-124405966D01*
X139481754Y-124459287D01*
X139468122Y-124512157D01*
X139444676Y-124557493D01*
X139423593Y-124583531D01*
X139386089Y-124614936D01*
X139338299Y-124637777D01*
X139289783Y-124647484D01*
X139266545Y-124648499D01*
X139217802Y-124643622D01*
X139170357Y-124627460D01*
X139154682Y-124618946D01*
X139115953Y-124588552D01*
X139086107Y-124549088D01*
X139079211Y-124536147D01*
X139060538Y-124489585D01*
X139046394Y-124440655D01*
X139034765Y-124388747D01*
X139033538Y-124382519D01*
X139022386Y-124327294D01*
X139010071Y-124273912D01*
X138996764Y-124226264D01*
X138985422Y-124194940D01*
X139126106Y-124194940D01*
X139138989Y-124242873D01*
X139150175Y-124293008D01*
X139154193Y-124312421D01*
X139165218Y-124361085D01*
X139181048Y-124408377D01*
X139185945Y-124417445D01*
X139223039Y-124449979D01*
X139250425Y-124455303D01*
X139298523Y-124440988D01*
X139317103Y-124425017D01*
X139341032Y-124380767D01*
X139344947Y-124348080D01*
X139336826Y-124297034D01*
X139314461Y-124251396D01*
X139312463Y-124248429D01*
X139277124Y-124214121D01*
X139251891Y-124202512D01*
X139202814Y-124195835D01*
X139162498Y-124194940D01*
X139126106Y-124194940D01*
X138985422Y-124194940D01*
X138965638Y-124194940D01*
X138916912Y-124201840D01*
X138884549Y-124222540D01*
X138864998Y-124268770D01*
X138860393Y-124321384D01*
X138860369Y-124326099D01*
X138866938Y-124376966D01*
X138881130Y-124406699D01*
X138919388Y-124438431D01*
X138954159Y-124453349D01*
X138922896Y-124628471D01*
X138874474Y-124611038D01*
X138828029Y-124585077D01*
X138790085Y-124552391D01*
X138769511Y-124526866D01*
X138745425Y-124480674D01*
X138730633Y-124430337D01*
X138722800Y-124379130D01*
X138719880Y-124329917D01*
X138719685Y-124312421D01*
X138721158Y-124259061D01*
X138726447Y-124205835D01*
X138736996Y-124155846D01*
X138750460Y-124120202D01*
X138775877Y-124078047D01*
X138811433Y-124042237D01*
X138828618Y-124031297D01*
X138875135Y-124015521D01*
X138924673Y-124008467D01*
X138979250Y-124005635D01*
X139002274Y-124005408D01*
X139228932Y-124007606D01*
X139279318Y-124006872D01*
X139329987Y-124003980D01*
X139371570Y-123998325D01*
X139419136Y-123985013D01*
X139466724Y-123965214D01*
X139470000Y-123963642D01*
X139470000Y-124154396D01*
G37*
G36*
X139266789Y-123886950D02*
G01*
X139235526Y-123693265D01*
X139282787Y-123674520D01*
X139317103Y-123643196D01*
X139337986Y-123597766D01*
X139344838Y-123545594D01*
X139344947Y-123537194D01*
X139341066Y-123486327D01*
X139325299Y-123437329D01*
X139317348Y-123424598D01*
X139273724Y-123399594D01*
X139265812Y-123399197D01*
X139229420Y-123412875D01*
X139208484Y-123459993D01*
X139204019Y-123477599D01*
X139191273Y-123533302D01*
X139178801Y-123583661D01*
X139163598Y-123639098D01*
X139148824Y-123686186D01*
X139128862Y-123738085D01*
X139109741Y-123773621D01*
X139077165Y-123811448D01*
X139033584Y-123841085D01*
X138982661Y-123857044D01*
X138944633Y-123860083D01*
X138893467Y-123854171D01*
X138847132Y-123836436D01*
X138805626Y-123806876D01*
X138784654Y-123785345D01*
X138756230Y-123742709D01*
X138738021Y-123696963D01*
X138726030Y-123643340D01*
X138720701Y-123591107D01*
X138719685Y-123553070D01*
X138721489Y-123499629D01*
X138728150Y-123444119D01*
X138739721Y-123395972D01*
X138758955Y-123349963D01*
X138770976Y-123330565D01*
X138803730Y-123293099D01*
X138844289Y-123262859D01*
X138892654Y-123239845D01*
X138922896Y-123230181D01*
X138954159Y-123412386D01*
X138907703Y-123433713D01*
X138884549Y-123456838D01*
X138864998Y-123502193D01*
X138860369Y-123549651D01*
X138863358Y-123600724D01*
X138876638Y-123649908D01*
X138881618Y-123658827D01*
X138920942Y-123680809D01*
X138955868Y-123661514D01*
X138975790Y-123614150D01*
X138989903Y-123565087D01*
X139003879Y-123509035D01*
X139010334Y-123481263D01*
X139023999Y-123426732D01*
X139038796Y-123378726D01*
X139057493Y-123330968D01*
X139080749Y-123287264D01*
X139096308Y-123265840D01*
X139136587Y-123231494D01*
X139186563Y-123211404D01*
X139240411Y-123205512D01*
X139294675Y-123212139D01*
X139344533Y-123232019D01*
X139385154Y-123260817D01*
X139413335Y-123289288D01*
X139441505Y-123329785D01*
X139462756Y-123377972D01*
X139475464Y-123425396D01*
X139483089Y-123478470D01*
X139485631Y-123537194D01*
X139483562Y-123590967D01*
X139477353Y-123640360D01*
X139464880Y-123692451D01*
X139446773Y-123738581D01*
X139426769Y-123773377D01*
X139394696Y-123812990D01*
X139357342Y-123845123D01*
X139314707Y-123869777D01*
X139266789Y-123886950D01*
G37*
G36*
X139470000Y-122208269D02*
G01*
X139422292Y-122223480D01*
X139410404Y-122226831D01*
X139386713Y-122233670D01*
X139420395Y-122271818D01*
X139448978Y-122315315D01*
X139460963Y-122339672D01*
X139476934Y-122386604D01*
X139484764Y-122436117D01*
X139485631Y-122459839D01*
X139481754Y-122513160D01*
X139468122Y-122566030D01*
X139444676Y-122611366D01*
X139423593Y-122637404D01*
X139386089Y-122668809D01*
X139338299Y-122691650D01*
X139289783Y-122701357D01*
X139266545Y-122702372D01*
X139217802Y-122697495D01*
X139170357Y-122681333D01*
X139154682Y-122672819D01*
X139115953Y-122642425D01*
X139086107Y-122602961D01*
X139079211Y-122590020D01*
X139060538Y-122543458D01*
X139046394Y-122494528D01*
X139034765Y-122442620D01*
X139033538Y-122436392D01*
X139022386Y-122381167D01*
X139010071Y-122327785D01*
X138996764Y-122280137D01*
X138985422Y-122248813D01*
X139126106Y-122248813D01*
X139138989Y-122296746D01*
X139150175Y-122346880D01*
X139154193Y-122366294D01*
X139165218Y-122414958D01*
X139181048Y-122462250D01*
X139185945Y-122471318D01*
X139223039Y-122503852D01*
X139250425Y-122509176D01*
X139298523Y-122494861D01*
X139317103Y-122478890D01*
X139341032Y-122434640D01*
X139344947Y-122401953D01*
X139336826Y-122350907D01*
X139314461Y-122305269D01*
X139312463Y-122302302D01*
X139277124Y-122267994D01*
X139251891Y-122256385D01*
X139202814Y-122249708D01*
X139162498Y-122248813D01*
X139126106Y-122248813D01*
X138985422Y-122248813D01*
X138965638Y-122248813D01*
X138916912Y-122255713D01*
X138884549Y-122276413D01*
X138864998Y-122322643D01*
X138860393Y-122375257D01*
X138860369Y-122379972D01*
X138866938Y-122430839D01*
X138881130Y-122460572D01*
X138919388Y-122492304D01*
X138954159Y-122507222D01*
X138922896Y-122682344D01*
X138874474Y-122664911D01*
X138828029Y-122638950D01*
X138790085Y-122606264D01*
X138769511Y-122580739D01*
X138745425Y-122534547D01*
X138730633Y-122484210D01*
X138722800Y-122433003D01*
X138719880Y-122383790D01*
X138719685Y-122366294D01*
X138721158Y-122312934D01*
X138726447Y-122259708D01*
X138736996Y-122209719D01*
X138750460Y-122174075D01*
X138775877Y-122131920D01*
X138811433Y-122096110D01*
X138828618Y-122085170D01*
X138875135Y-122069394D01*
X138924673Y-122062340D01*
X138979250Y-122059508D01*
X139002274Y-122059281D01*
X139228932Y-122061479D01*
X139279318Y-122060745D01*
X139329987Y-122057853D01*
X139371570Y-122052198D01*
X139419136Y-122038886D01*
X139466724Y-122019087D01*
X139470000Y-122017515D01*
X139470000Y-122208269D01*
G37*
G36*
X139470000Y-121209316D02*
G01*
X139470000Y-121402267D01*
X139090690Y-121402267D01*
X139035797Y-121403046D01*
X138986741Y-121405783D01*
X138937160Y-121413957D01*
X138934863Y-121414724D01*
X138892156Y-121440354D01*
X138879909Y-121454780D01*
X138861915Y-121500609D01*
X138860369Y-121521702D01*
X138868297Y-121572197D01*
X138888457Y-121611828D01*
X138923280Y-121647097D01*
X138962707Y-121666538D01*
X139013153Y-121676026D01*
X139063237Y-121679762D01*
X139118169Y-121681136D01*
X139133433Y-121681193D01*
X139470000Y-121681193D01*
X139470000Y-121874145D01*
X138735317Y-121874145D01*
X138735317Y-121694870D01*
X138842540Y-121694870D01*
X138800788Y-121657324D01*
X138767675Y-121616308D01*
X138743201Y-121571824D01*
X138727364Y-121523870D01*
X138720165Y-121472447D01*
X138719685Y-121454535D01*
X138723515Y-121404396D01*
X138736204Y-121354548D01*
X138742889Y-121337787D01*
X138767432Y-121293788D01*
X138801995Y-121257676D01*
X138845478Y-121232431D01*
X138883572Y-121220062D01*
X138934856Y-121212349D01*
X138988403Y-121209578D01*
X139013998Y-121209316D01*
X139470000Y-121209316D01*
G37*
G36*
X139470000Y-120626308D02*
G01*
X138453949Y-120626308D01*
X138453949Y-119936078D01*
X138625896Y-119936078D01*
X138625896Y-120423098D01*
X138860369Y-120423098D01*
X138860369Y-120002756D01*
X139032316Y-120002756D01*
X139032316Y-120423098D01*
X139470000Y-120423098D01*
X139470000Y-120626308D01*
G37*
G36*
X139470000Y-119321563D02*
G01*
X139470000Y-119514515D01*
X138734829Y-119514515D01*
X138772638Y-119555504D01*
X138806567Y-119599156D01*
X138836615Y-119645470D01*
X138862781Y-119694445D01*
X138885067Y-119746082D01*
X138891632Y-119763886D01*
X138704054Y-119763886D01*
X138684696Y-119715429D01*
X138660013Y-119669615D01*
X138632299Y-119627140D01*
X138612219Y-119599755D01*
X138576864Y-119558906D01*
X138538702Y-119525017D01*
X138497730Y-119498089D01*
X138453949Y-119478122D01*
X138453949Y-119321563D01*
X139470000Y-119321563D01*
G37*
G36*
X138938527Y-117970655D02*
G01*
X138969790Y-118160921D01*
X138922102Y-118176613D01*
X138887969Y-118204640D01*
X138865652Y-118249248D01*
X138860369Y-118292812D01*
X138867857Y-118342763D01*
X138892867Y-118387653D01*
X138913614Y-118407850D01*
X138958676Y-118432324D01*
X139008125Y-118444792D01*
X139061583Y-118450165D01*
X139091667Y-118450837D01*
X139140832Y-118449308D01*
X139190962Y-118443662D01*
X139238723Y-118432114D01*
X139284128Y-118410036D01*
X139287794Y-118407362D01*
X139322622Y-118370382D01*
X139341375Y-118325021D01*
X139344947Y-118290125D01*
X139337070Y-118240177D01*
X139313440Y-118200244D01*
X139273637Y-118171833D01*
X139227344Y-118155673D01*
X139204263Y-118150662D01*
X139235526Y-117961130D01*
X139286804Y-117976654D01*
X139332285Y-117997368D01*
X139377164Y-118027394D01*
X139414472Y-118064199D01*
X139422616Y-118074459D01*
X139450185Y-118119918D01*
X139467847Y-118165556D01*
X139479477Y-118216663D01*
X139485077Y-118273240D01*
X139485631Y-118299162D01*
X139482068Y-118356879D01*
X139471377Y-118410045D01*
X139453560Y-118458659D01*
X139428616Y-118502723D01*
X139396544Y-118542236D01*
X139384270Y-118554396D01*
X139343438Y-118586685D01*
X139297144Y-118612293D01*
X139245390Y-118631221D01*
X139188174Y-118643468D01*
X139136322Y-118648571D01*
X139103391Y-118649406D01*
X139048643Y-118647075D01*
X138997818Y-118640080D01*
X138942008Y-118625532D01*
X138891847Y-118604268D01*
X138847337Y-118576290D01*
X138820802Y-118553907D01*
X138786438Y-118515725D01*
X138759184Y-118472803D01*
X138739040Y-118425142D01*
X138726005Y-118372740D01*
X138720080Y-118315599D01*
X138719685Y-118295498D01*
X138722280Y-118239868D01*
X138730064Y-118189450D01*
X138745314Y-118138213D01*
X138767341Y-118093783D01*
X138773907Y-118083740D01*
X138808752Y-118042998D01*
X138847251Y-118012655D01*
X138892833Y-117987838D01*
X138938527Y-117970655D01*
G37*
G36*
X139470000Y-117384961D02*
G01*
X139422292Y-117400172D01*
X139410404Y-117403524D01*
X139386713Y-117410362D01*
X139420395Y-117448510D01*
X139448978Y-117492007D01*
X139460963Y-117516364D01*
X139476934Y-117563297D01*
X139484764Y-117612809D01*
X139485631Y-117636531D01*
X139481754Y-117689853D01*
X139468122Y-117742723D01*
X139444676Y-117788058D01*
X139423593Y-117814096D01*
X139386089Y-117845502D01*
X139338299Y-117868342D01*
X139289783Y-117878049D01*
X139266545Y-117879064D01*
X139217802Y-117874187D01*
X139170357Y-117858025D01*
X139154682Y-117849511D01*
X139115953Y-117819117D01*
X139086107Y-117779654D01*
X139079211Y-117766713D01*
X139060538Y-117720150D01*
X139046394Y-117671220D01*
X139034765Y-117619312D01*
X139033538Y-117613084D01*
X139022386Y-117557859D01*
X139010071Y-117504477D01*
X138996764Y-117456830D01*
X138985422Y-117425505D01*
X139126106Y-117425505D01*
X139138989Y-117473438D01*
X139150175Y-117523573D01*
X139154193Y-117542986D01*
X139165218Y-117591651D01*
X139181048Y-117638942D01*
X139185945Y-117648011D01*
X139223039Y-117680545D01*
X139250425Y-117685868D01*
X139298523Y-117671553D01*
X139317103Y-117655582D01*
X139341032Y-117611332D01*
X139344947Y-117578646D01*
X139336826Y-117527599D01*
X139314461Y-117481961D01*
X139312463Y-117478995D01*
X139277124Y-117444686D01*
X139251891Y-117433077D01*
X139202814Y-117426400D01*
X139162498Y-117425505D01*
X139126106Y-117425505D01*
X138985422Y-117425505D01*
X138965638Y-117425505D01*
X138916912Y-117432405D01*
X138884549Y-117453105D01*
X138864998Y-117499335D01*
X138860393Y-117551949D01*
X138860369Y-117556664D01*
X138866938Y-117607531D01*
X138881130Y-117637264D01*
X138919388Y-117668996D01*
X138954159Y-117683914D01*
X138922896Y-117859036D01*
X138874474Y-117841604D01*
X138828029Y-117815642D01*
X138790085Y-117782957D01*
X138769511Y-117757431D01*
X138745425Y-117711240D01*
X138730633Y-117660903D01*
X138722800Y-117609695D01*
X138719880Y-117560482D01*
X138719685Y-117542986D01*
X138721158Y-117489627D01*
X138726447Y-117436401D01*
X138736996Y-117386411D01*
X138750460Y-117350767D01*
X138775877Y-117308612D01*
X138811433Y-117272802D01*
X138828618Y-117261863D01*
X138875135Y-117246086D01*
X138924673Y-117239032D01*
X138979250Y-117236201D01*
X139002274Y-117235973D01*
X139228932Y-117238171D01*
X139279318Y-117237437D01*
X139329987Y-117234546D01*
X139371570Y-117228890D01*
X139419136Y-117215579D01*
X139466724Y-117195779D01*
X139470000Y-117194207D01*
X139470000Y-117384961D01*
G37*
G36*
X139470000Y-116864724D02*
G01*
X139470000Y-117057676D01*
X138735317Y-117057676D01*
X138735317Y-116878401D01*
X138839120Y-116878401D01*
X138798109Y-116850609D01*
X138759558Y-116817190D01*
X138742644Y-116795847D01*
X138723475Y-116748521D01*
X138719685Y-116712072D01*
X138725250Y-116663300D01*
X138741942Y-116615901D01*
X138759253Y-116585066D01*
X138939016Y-116644905D01*
X138916225Y-116689144D01*
X138907264Y-116735519D01*
X138916731Y-116783474D01*
X138929246Y-116804396D01*
X138970557Y-116834831D01*
X139008625Y-116848604D01*
X139062781Y-116857782D01*
X139112721Y-116861638D01*
X139165108Y-116863716D01*
X139215520Y-116864582D01*
X139248715Y-116864724D01*
X139470000Y-116864724D01*
G37*
G36*
X140305896Y-133149127D02*
G01*
X140133949Y-133149127D01*
X140133949Y-132955931D01*
X140305896Y-132955931D01*
X140305896Y-133149127D01*
G37*
G36*
X141150000Y-133149127D02*
G01*
X140415317Y-133149127D01*
X140415317Y-132955931D01*
X141150000Y-132955931D01*
X141150000Y-133149127D01*
G37*
G36*
X140415317Y-132425680D02*
G01*
X140556001Y-132425680D01*
X140556001Y-132557571D01*
X140874982Y-132557571D01*
X140927690Y-132557213D01*
X140977145Y-132555335D01*
X140988066Y-132553907D01*
X141014689Y-132536566D01*
X141024947Y-132504082D01*
X141016174Y-132455827D01*
X141006385Y-132426413D01*
X141140230Y-132409804D01*
X141154692Y-132458227D01*
X141163150Y-132510806D01*
X141165631Y-132562212D01*
X141161113Y-132611915D01*
X141147557Y-132656489D01*
X141120862Y-132700110D01*
X141100907Y-132718039D01*
X141054670Y-132738530D01*
X141023482Y-132745150D01*
X140971153Y-132749729D01*
X140920525Y-132751041D01*
X140883531Y-132751256D01*
X140556001Y-132751256D01*
X140556001Y-132839916D01*
X140415317Y-132839916D01*
X140415317Y-132751256D01*
X140274633Y-132751256D01*
X140165212Y-132557571D01*
X140415317Y-132557571D01*
X140415317Y-132425680D01*
G37*
G36*
X140493475Y-132295498D02*
G01*
X140305163Y-132331891D01*
X140133949Y-132331891D01*
X140133949Y-132121842D01*
X140305163Y-132121842D01*
X140493475Y-132153349D01*
X140493475Y-132295498D01*
G37*
G36*
X141150000Y-131472156D02*
G01*
X141042777Y-131472156D01*
X141081954Y-131504789D01*
X141116003Y-131544735D01*
X141135589Y-131577669D01*
X141153896Y-131623418D01*
X141164193Y-131673291D01*
X141165631Y-131700279D01*
X141160769Y-131753580D01*
X141146183Y-131803422D01*
X141121873Y-131849804D01*
X141087840Y-131892727D01*
X141064026Y-131915701D01*
X141023008Y-131946163D01*
X140976339Y-131970323D01*
X140924020Y-131988181D01*
X140876106Y-131998248D01*
X140824267Y-132003937D01*
X140779972Y-132005338D01*
X140723917Y-132003209D01*
X140672228Y-131996823D01*
X140615963Y-131983539D01*
X140565982Y-131964125D01*
X140522288Y-131938580D01*
X140496650Y-131918143D01*
X140458868Y-131877703D01*
X140430366Y-131832892D01*
X140411143Y-131783710D01*
X140401201Y-131730156D01*
X140399685Y-131697592D01*
X140404439Y-131646789D01*
X140540369Y-131646789D01*
X140548441Y-131695138D01*
X140575402Y-131740462D01*
X140597766Y-131761828D01*
X140643755Y-131788249D01*
X140691342Y-131801708D01*
X140741168Y-131807509D01*
X140768736Y-131808234D01*
X140819034Y-131806691D01*
X140868589Y-131801150D01*
X140918639Y-131788556D01*
X140945812Y-131775994D01*
X140987544Y-131743188D01*
X141015596Y-131698672D01*
X141024870Y-131650539D01*
X141024947Y-131645324D01*
X141015152Y-131594611D01*
X140985766Y-131550429D01*
X140965596Y-131532240D01*
X140922753Y-131507510D01*
X140874365Y-131493084D01*
X140823536Y-131486490D01*
X140788032Y-131485345D01*
X140733966Y-131487519D01*
X140680820Y-131495327D01*
X140632052Y-131510899D01*
X140598499Y-131530774D01*
X140563076Y-131568269D01*
X140543151Y-131617028D01*
X140540369Y-131646789D01*
X140404439Y-131646789D01*
X140404547Y-131645635D01*
X140419133Y-131596833D01*
X140443443Y-131551187D01*
X140477477Y-131508697D01*
X140501290Y-131485833D01*
X140133949Y-131485833D01*
X140133949Y-131292882D01*
X141150000Y-131292882D01*
X141150000Y-131472156D01*
G37*
G36*
X141150000Y-130054815D02*
G01*
X141150000Y-130247766D01*
X140770690Y-130247766D01*
X140715797Y-130248545D01*
X140666741Y-130251282D01*
X140617160Y-130259456D01*
X140614863Y-130260223D01*
X140572156Y-130285853D01*
X140559909Y-130300279D01*
X140541915Y-130346108D01*
X140540369Y-130367201D01*
X140548297Y-130417696D01*
X140568457Y-130457327D01*
X140603280Y-130492596D01*
X140642707Y-130512037D01*
X140693153Y-130521525D01*
X140743237Y-130525261D01*
X140798169Y-130526635D01*
X140813433Y-130526692D01*
X141150000Y-130526692D01*
X141150000Y-130719644D01*
X140415317Y-130719644D01*
X140415317Y-130540369D01*
X140522540Y-130540369D01*
X140480788Y-130502823D01*
X140447675Y-130461807D01*
X140423201Y-130417322D01*
X140407364Y-130369369D01*
X140400165Y-130317946D01*
X140399685Y-130300034D01*
X140403515Y-130249895D01*
X140416204Y-130200047D01*
X140422889Y-130183286D01*
X140447432Y-130139287D01*
X140481995Y-130103175D01*
X140525478Y-130077930D01*
X140563572Y-130065561D01*
X140614856Y-130057848D01*
X140668403Y-130055077D01*
X140693998Y-130054815D01*
X141150000Y-130054815D01*
G37*
G36*
X140837369Y-129238311D02*
G01*
X140837369Y-129721912D01*
X140889070Y-129716516D01*
X140937015Y-129700939D01*
X140975610Y-129675261D01*
X141007554Y-129635317D01*
X141023213Y-129588118D01*
X141024947Y-129563886D01*
X141017112Y-129515310D01*
X141002721Y-129487927D01*
X140964348Y-129455069D01*
X140931158Y-129441032D01*
X140962421Y-129248569D01*
X141009163Y-129269818D01*
X141054668Y-129300146D01*
X141092677Y-129337275D01*
X141113852Y-129365806D01*
X141138882Y-129413919D01*
X141154254Y-129462038D01*
X141163153Y-129515196D01*
X141165631Y-129565840D01*
X141162584Y-129622954D01*
X141153443Y-129675225D01*
X141138207Y-129722654D01*
X141111881Y-129773178D01*
X141076778Y-129816730D01*
X141040823Y-129847697D01*
X140994511Y-129875771D01*
X140943196Y-129896951D01*
X140895231Y-129909616D01*
X140843591Y-129917215D01*
X140788276Y-129919748D01*
X140733269Y-129917435D01*
X140682126Y-129910494D01*
X140625854Y-129896057D01*
X140575147Y-129874956D01*
X140530004Y-129847193D01*
X140503000Y-129824982D01*
X140467889Y-129787676D01*
X140440043Y-129746832D01*
X140419461Y-129702450D01*
X140406143Y-129654531D01*
X140400089Y-129603074D01*
X140399685Y-129585136D01*
X140400299Y-129573656D01*
X140540369Y-129573656D01*
X140549205Y-129624633D01*
X140575712Y-129667289D01*
X140586531Y-129677948D01*
X140629678Y-129704552D01*
X140679166Y-129716803D01*
X140712316Y-129718492D01*
X140712316Y-129430041D01*
X140663611Y-129435103D01*
X140615617Y-129451314D01*
X140584333Y-129473272D01*
X140554280Y-129512802D01*
X140540756Y-129562730D01*
X140540369Y-129573656D01*
X140400299Y-129573656D01*
X140402315Y-129535978D01*
X140412413Y-129481413D01*
X140430084Y-129431673D01*
X140455329Y-129386759D01*
X140488147Y-129346671D01*
X140507397Y-129328436D01*
X140551815Y-129296543D01*
X140604288Y-129271570D01*
X140654169Y-129256046D01*
X140709642Y-129245328D01*
X140770709Y-129239416D01*
X140823589Y-129238147D01*
X140837369Y-129238311D01*
G37*
G36*
X140837369Y-128459665D02*
G01*
X140837369Y-128943265D01*
X140889070Y-128937870D01*
X140937015Y-128922293D01*
X140975610Y-128896615D01*
X141007554Y-128856671D01*
X141023213Y-128809472D01*
X141024947Y-128785240D01*
X141017112Y-128736663D01*
X141002721Y-128709281D01*
X140964348Y-128676422D01*
X140931158Y-128662386D01*
X140962421Y-128469923D01*
X141009163Y-128491172D01*
X141054668Y-128521500D01*
X141092677Y-128558629D01*
X141113852Y-128587159D01*
X141138882Y-128635273D01*
X141154254Y-128683392D01*
X141163153Y-128736549D01*
X141165631Y-128787194D01*
X141162584Y-128844307D01*
X141153443Y-128896579D01*
X141138207Y-128944008D01*
X141111881Y-128994532D01*
X141076778Y-129038084D01*
X141040823Y-129069050D01*
X140994511Y-129097125D01*
X140943196Y-129118304D01*
X140895231Y-129130970D01*
X140843591Y-129138569D01*
X140788276Y-129141102D01*
X140733269Y-129138788D01*
X140682126Y-129131848D01*
X140625854Y-129117411D01*
X140575147Y-129096310D01*
X140530004Y-129068547D01*
X140503000Y-129046336D01*
X140467889Y-129009030D01*
X140440043Y-128968186D01*
X140419461Y-128923804D01*
X140406143Y-128875885D01*
X140400089Y-128824428D01*
X140399685Y-128806489D01*
X140400299Y-128795010D01*
X140540369Y-128795010D01*
X140549205Y-128845987D01*
X140575712Y-128888643D01*
X140586531Y-128899302D01*
X140629678Y-128925906D01*
X140679166Y-128938156D01*
X140712316Y-128939846D01*
X140712316Y-128651395D01*
X140663611Y-128656457D01*
X140615617Y-128672668D01*
X140584333Y-128694626D01*
X140554280Y-128734156D01*
X140540756Y-128784084D01*
X140540369Y-128795010D01*
X140400299Y-128795010D01*
X140402315Y-128757332D01*
X140412413Y-128702767D01*
X140430084Y-128653027D01*
X140455329Y-128608113D01*
X140488147Y-128568025D01*
X140507397Y-128549790D01*
X140551815Y-128517896D01*
X140604288Y-128492924D01*
X140654169Y-128477400D01*
X140709642Y-128466682D01*
X140770709Y-128460770D01*
X140823589Y-128459501D01*
X140837369Y-128459665D01*
G37*
G36*
X141150000Y-127816329D02*
G01*
X141042777Y-127816329D01*
X141081954Y-127848962D01*
X141116003Y-127888908D01*
X141135589Y-127921842D01*
X141153896Y-127967592D01*
X141164193Y-128017464D01*
X141165631Y-128044452D01*
X141160769Y-128097753D01*
X141146183Y-128147595D01*
X141121873Y-128193977D01*
X141087840Y-128236900D01*
X141064026Y-128259874D01*
X141023008Y-128290337D01*
X140976339Y-128314497D01*
X140924020Y-128332354D01*
X140876106Y-128342421D01*
X140824267Y-128348110D01*
X140779972Y-128349511D01*
X140723917Y-128347382D01*
X140672228Y-128340996D01*
X140615963Y-128327712D01*
X140565982Y-128308298D01*
X140522288Y-128282753D01*
X140496650Y-128262316D01*
X140458868Y-128221876D01*
X140430366Y-128177065D01*
X140411143Y-128127883D01*
X140401201Y-128074329D01*
X140399685Y-128041765D01*
X140404439Y-127990963D01*
X140540369Y-127990963D01*
X140548441Y-128039311D01*
X140575402Y-128084635D01*
X140597766Y-128106001D01*
X140643755Y-128132422D01*
X140691342Y-128145881D01*
X140741168Y-128151682D01*
X140768736Y-128152407D01*
X140819034Y-128150864D01*
X140868589Y-128145323D01*
X140918639Y-128132729D01*
X140945812Y-128120167D01*
X140987544Y-128087361D01*
X141015596Y-128042845D01*
X141024870Y-127994712D01*
X141024947Y-127989497D01*
X141015152Y-127938784D01*
X140985766Y-127894602D01*
X140965596Y-127876413D01*
X140922753Y-127851683D01*
X140874365Y-127837257D01*
X140823536Y-127830663D01*
X140788032Y-127829518D01*
X140733966Y-127831692D01*
X140680820Y-127839500D01*
X140632052Y-127855072D01*
X140598499Y-127874947D01*
X140563076Y-127912442D01*
X140543151Y-127961201D01*
X140540369Y-127990963D01*
X140404439Y-127990963D01*
X140404547Y-127989808D01*
X140419133Y-127941006D01*
X140443443Y-127895360D01*
X140477477Y-127852870D01*
X140501290Y-127830006D01*
X140133949Y-127830006D01*
X140133949Y-127637055D01*
X141150000Y-127637055D01*
X141150000Y-127816329D01*
G37*
G36*
X141150000Y-126619295D02*
G01*
X141102292Y-126634506D01*
X141090404Y-126637857D01*
X141066713Y-126644696D01*
X141100395Y-126682844D01*
X141128978Y-126726341D01*
X141140963Y-126750697D01*
X141156934Y-126797630D01*
X141164764Y-126847143D01*
X141165631Y-126870865D01*
X141161754Y-126924186D01*
X141148122Y-126977056D01*
X141124676Y-127022392D01*
X141103593Y-127048429D01*
X141066089Y-127079835D01*
X141018299Y-127102676D01*
X140969783Y-127112383D01*
X140946545Y-127113398D01*
X140897802Y-127108521D01*
X140850357Y-127092358D01*
X140834682Y-127083845D01*
X140795953Y-127053451D01*
X140766107Y-127013987D01*
X140759211Y-127001046D01*
X140740538Y-126954484D01*
X140726394Y-126905554D01*
X140714765Y-126853645D01*
X140713538Y-126847418D01*
X140702386Y-126792193D01*
X140690071Y-126738811D01*
X140676764Y-126691163D01*
X140665422Y-126659839D01*
X140806106Y-126659839D01*
X140818989Y-126707772D01*
X140830175Y-126757906D01*
X140834193Y-126777320D01*
X140845218Y-126825984D01*
X140861048Y-126873276D01*
X140865945Y-126882344D01*
X140903039Y-126914878D01*
X140930425Y-126920202D01*
X140978523Y-126905887D01*
X140997103Y-126889916D01*
X141021032Y-126845666D01*
X141024947Y-126812979D01*
X141016826Y-126761933D01*
X140994461Y-126716294D01*
X140992463Y-126713328D01*
X140957124Y-126679020D01*
X140931891Y-126667411D01*
X140882814Y-126660734D01*
X140842498Y-126659839D01*
X140806106Y-126659839D01*
X140665422Y-126659839D01*
X140645638Y-126659839D01*
X140596912Y-126666739D01*
X140564549Y-126687438D01*
X140544998Y-126733669D01*
X140540393Y-126786282D01*
X140540369Y-126790997D01*
X140546938Y-126841865D01*
X140561130Y-126871598D01*
X140599388Y-126903330D01*
X140634159Y-126918248D01*
X140602896Y-127093370D01*
X140554474Y-127075937D01*
X140508029Y-127049975D01*
X140470085Y-127017290D01*
X140449511Y-126991765D01*
X140425425Y-126945573D01*
X140410633Y-126895236D01*
X140402800Y-126844029D01*
X140399880Y-126794816D01*
X140399685Y-126777320D01*
X140401158Y-126723960D01*
X140406447Y-126670734D01*
X140416996Y-126620745D01*
X140430460Y-126585101D01*
X140455877Y-126542946D01*
X140491433Y-126507136D01*
X140508618Y-126496196D01*
X140555135Y-126480420D01*
X140604673Y-126473366D01*
X140659250Y-126470534D01*
X140682274Y-126470307D01*
X140908932Y-126472505D01*
X140959318Y-126471771D01*
X141009987Y-126468879D01*
X141051570Y-126463224D01*
X141099136Y-126449912D01*
X141146724Y-126430113D01*
X141150000Y-126428541D01*
X141150000Y-126619295D01*
G37*
G36*
X140946789Y-125963014D02*
G01*
X140915526Y-125769330D01*
X140962787Y-125750584D01*
X140997103Y-125719260D01*
X141017986Y-125673831D01*
X141024838Y-125621658D01*
X141024947Y-125613258D01*
X141021066Y-125562391D01*
X141005299Y-125513393D01*
X140997348Y-125500662D01*
X140953724Y-125475658D01*
X140945812Y-125475261D01*
X140909420Y-125488939D01*
X140888484Y-125536058D01*
X140884019Y-125553663D01*
X140871273Y-125609366D01*
X140858801Y-125659726D01*
X140843598Y-125715162D01*
X140828824Y-125762250D01*
X140808862Y-125814149D01*
X140789741Y-125849685D01*
X140757165Y-125887513D01*
X140713584Y-125917149D01*
X140662661Y-125933108D01*
X140624633Y-125936147D01*
X140573467Y-125930236D01*
X140527132Y-125912500D01*
X140485626Y-125882940D01*
X140464654Y-125861409D01*
X140436230Y-125818773D01*
X140418021Y-125773027D01*
X140406030Y-125719404D01*
X140400701Y-125667171D01*
X140399685Y-125629134D01*
X140401489Y-125575694D01*
X140408150Y-125520184D01*
X140419721Y-125472036D01*
X140438955Y-125426027D01*
X140450976Y-125406629D01*
X140483730Y-125369163D01*
X140524289Y-125338923D01*
X140572654Y-125315909D01*
X140602896Y-125306245D01*
X140634159Y-125488450D01*
X140587703Y-125509777D01*
X140564549Y-125532903D01*
X140544998Y-125578257D01*
X140540369Y-125625715D01*
X140543358Y-125676788D01*
X140556638Y-125725973D01*
X140561618Y-125734891D01*
X140600942Y-125756873D01*
X140635868Y-125737578D01*
X140655790Y-125690214D01*
X140669903Y-125641152D01*
X140683879Y-125585099D01*
X140690334Y-125557327D01*
X140703999Y-125502796D01*
X140718796Y-125454791D01*
X140737493Y-125407033D01*
X140760749Y-125363328D01*
X140776308Y-125341905D01*
X140816587Y-125307558D01*
X140866563Y-125287468D01*
X140920411Y-125281577D01*
X140974675Y-125288203D01*
X141024533Y-125308084D01*
X141065154Y-125336881D01*
X141093335Y-125365352D01*
X141121505Y-125405849D01*
X141142756Y-125454036D01*
X141155464Y-125501460D01*
X141163089Y-125554534D01*
X141165631Y-125613258D01*
X141163562Y-125667031D01*
X141157353Y-125716424D01*
X141144880Y-125768515D01*
X141126773Y-125814645D01*
X141106769Y-125849441D01*
X141074696Y-125889054D01*
X141037342Y-125921188D01*
X140994707Y-125945841D01*
X140946789Y-125963014D01*
G37*
G36*
X141150000Y-124673168D02*
G01*
X141102292Y-124688379D01*
X141090404Y-124691730D01*
X141066713Y-124698569D01*
X141100395Y-124736717D01*
X141128978Y-124780214D01*
X141140963Y-124804570D01*
X141156934Y-124851503D01*
X141164764Y-124901016D01*
X141165631Y-124924738D01*
X141161754Y-124978059D01*
X141148122Y-125030929D01*
X141124676Y-125076265D01*
X141103593Y-125102302D01*
X141066089Y-125133708D01*
X141018299Y-125156549D01*
X140969783Y-125166256D01*
X140946545Y-125167271D01*
X140897802Y-125162393D01*
X140850357Y-125146231D01*
X140834682Y-125137718D01*
X140795953Y-125107324D01*
X140766107Y-125067860D01*
X140759211Y-125054919D01*
X140740538Y-125008357D01*
X140726394Y-124959427D01*
X140714765Y-124907518D01*
X140713538Y-124901290D01*
X140702386Y-124846066D01*
X140690071Y-124792684D01*
X140676764Y-124745036D01*
X140665422Y-124713712D01*
X140806106Y-124713712D01*
X140818989Y-124761645D01*
X140830175Y-124811779D01*
X140834193Y-124831193D01*
X140845218Y-124879857D01*
X140861048Y-124927149D01*
X140865945Y-124936217D01*
X140903039Y-124968751D01*
X140930425Y-124974075D01*
X140978523Y-124959760D01*
X140997103Y-124943789D01*
X141021032Y-124899539D01*
X141024947Y-124866852D01*
X141016826Y-124815806D01*
X140994461Y-124770167D01*
X140992463Y-124767201D01*
X140957124Y-124732893D01*
X140931891Y-124721284D01*
X140882814Y-124714607D01*
X140842498Y-124713712D01*
X140806106Y-124713712D01*
X140665422Y-124713712D01*
X140645638Y-124713712D01*
X140596912Y-124720612D01*
X140564549Y-124741311D01*
X140544998Y-124787542D01*
X140540393Y-124840155D01*
X140540369Y-124844870D01*
X140546938Y-124895738D01*
X140561130Y-124925471D01*
X140599388Y-124957203D01*
X140634159Y-124972121D01*
X140602896Y-125147243D01*
X140554474Y-125129810D01*
X140508029Y-125103848D01*
X140470085Y-125071163D01*
X140449511Y-125045638D01*
X140425425Y-124999446D01*
X140410633Y-124949109D01*
X140402800Y-124897902D01*
X140399880Y-124848689D01*
X140399685Y-124831193D01*
X140401158Y-124777833D01*
X140406447Y-124724607D01*
X140416996Y-124674618D01*
X140430460Y-124638974D01*
X140455877Y-124596819D01*
X140491433Y-124561009D01*
X140508618Y-124550069D01*
X140555135Y-124534293D01*
X140604673Y-124527239D01*
X140659250Y-124524407D01*
X140682274Y-124524180D01*
X140908932Y-124526378D01*
X140959318Y-124525644D01*
X141009987Y-124522752D01*
X141051570Y-124517096D01*
X141099136Y-124503785D01*
X141146724Y-124483986D01*
X141150000Y-124482414D01*
X141150000Y-124673168D01*
G37*
G36*
X140415317Y-124422086D02*
G01*
X140415317Y-124315108D01*
X140359874Y-124315108D01*
X140306470Y-124313200D01*
X140254537Y-124305872D01*
X140221388Y-124295568D01*
X140179989Y-124267786D01*
X140148941Y-124226766D01*
X140147138Y-124223517D01*
X140128478Y-124176097D01*
X140119697Y-124124239D01*
X140118318Y-124090404D01*
X140120607Y-124039271D01*
X140127477Y-123988757D01*
X140138926Y-123938864D01*
X140141765Y-123928960D01*
X140269993Y-123955094D01*
X140261105Y-124005746D01*
X140259002Y-124043754D01*
X140269853Y-124091679D01*
X140280006Y-124103838D01*
X140326908Y-124120147D01*
X140360362Y-124121912D01*
X140415317Y-124121912D01*
X140415317Y-123977808D01*
X140556001Y-123977808D01*
X140556001Y-124121912D01*
X141150000Y-124121912D01*
X141150000Y-124315108D01*
X140556001Y-124315108D01*
X140556001Y-124422086D01*
X140415317Y-124422086D01*
G37*
G36*
X140837369Y-123246545D02*
G01*
X140837369Y-123730146D01*
X140889070Y-123724751D01*
X140937015Y-123709174D01*
X140975610Y-123683496D01*
X141007554Y-123643552D01*
X141023213Y-123596352D01*
X141024947Y-123572121D01*
X141017112Y-123523544D01*
X141002721Y-123496161D01*
X140964348Y-123463303D01*
X140931158Y-123449267D01*
X140962421Y-123256803D01*
X141009163Y-123278053D01*
X141054668Y-123308381D01*
X141092677Y-123345509D01*
X141113852Y-123374040D01*
X141138882Y-123422153D01*
X141154254Y-123470273D01*
X141163153Y-123523430D01*
X141165631Y-123574075D01*
X141162584Y-123631188D01*
X141153443Y-123683459D01*
X141138207Y-123730889D01*
X141111881Y-123781413D01*
X141076778Y-123824964D01*
X141040823Y-123855931D01*
X140994511Y-123884006D01*
X140943196Y-123905185D01*
X140895231Y-123917850D01*
X140843591Y-123925450D01*
X140788276Y-123927983D01*
X140733269Y-123925669D01*
X140682126Y-123918728D01*
X140625854Y-123904291D01*
X140575147Y-123883191D01*
X140530004Y-123855427D01*
X140503000Y-123833217D01*
X140467889Y-123795910D01*
X140440043Y-123755066D01*
X140419461Y-123710685D01*
X140406143Y-123662766D01*
X140400089Y-123611309D01*
X140399685Y-123593370D01*
X140400299Y-123581891D01*
X140540369Y-123581891D01*
X140549205Y-123632868D01*
X140575712Y-123675523D01*
X140586531Y-123686182D01*
X140629678Y-123712787D01*
X140679166Y-123725037D01*
X140712316Y-123726727D01*
X140712316Y-123438276D01*
X140663611Y-123443337D01*
X140615617Y-123459549D01*
X140584333Y-123481507D01*
X140554280Y-123521037D01*
X140540756Y-123570965D01*
X140540369Y-123581891D01*
X140400299Y-123581891D01*
X140402315Y-123544213D01*
X140412413Y-123489647D01*
X140430084Y-123439908D01*
X140455329Y-123394994D01*
X140488147Y-123354905D01*
X140507397Y-123336671D01*
X140551815Y-123304777D01*
X140604288Y-123279804D01*
X140654169Y-123264280D01*
X140709642Y-123253562D01*
X140770709Y-123247651D01*
X140823589Y-123246382D01*
X140837369Y-123246545D01*
G37*
G36*
X140415317Y-122758548D02*
G01*
X140556001Y-122758548D01*
X140556001Y-122890439D01*
X140874982Y-122890439D01*
X140927690Y-122890081D01*
X140977145Y-122888203D01*
X140988066Y-122886775D01*
X141014689Y-122869434D01*
X141024947Y-122836950D01*
X141016174Y-122788695D01*
X141006385Y-122759281D01*
X141140230Y-122742672D01*
X141154692Y-122791095D01*
X141163150Y-122843674D01*
X141165631Y-122895080D01*
X141161113Y-122944783D01*
X141147557Y-122989357D01*
X141120862Y-123032978D01*
X141100907Y-123050907D01*
X141054670Y-123071398D01*
X141023482Y-123078018D01*
X140971153Y-123082597D01*
X140920525Y-123083909D01*
X140883531Y-123084124D01*
X140556001Y-123084124D01*
X140556001Y-123172784D01*
X140415317Y-123172784D01*
X140415317Y-123084124D01*
X140274633Y-123084124D01*
X140165212Y-122890439D01*
X140415317Y-122890439D01*
X140415317Y-122758548D01*
G37*
G36*
X140415317Y-122718492D02*
G01*
X140415317Y-122513084D01*
X140935554Y-122338450D01*
X140415317Y-122168213D01*
X140415317Y-121968178D01*
X141123377Y-122225854D01*
X141258688Y-122271772D01*
X141303701Y-122292048D01*
X141348089Y-122317467D01*
X141352233Y-122320376D01*
X141389288Y-122353455D01*
X141404501Y-122373133D01*
X141427000Y-122418238D01*
X141435764Y-122446650D01*
X141444530Y-122496273D01*
X141446999Y-122545324D01*
X141444637Y-122597048D01*
X141437553Y-122647806D01*
X141436252Y-122654501D01*
X141296301Y-122671598D01*
X141304398Y-122623349D01*
X141306315Y-122589776D01*
X141299019Y-122540967D01*
X141272468Y-122498975D01*
X141262107Y-122490369D01*
X141219011Y-122464891D01*
X141170704Y-122446507D01*
X141150000Y-122440788D01*
X140415317Y-122718492D01*
G37*
G36*
X140618527Y-120823412D02*
G01*
X140649790Y-121013677D01*
X140602102Y-121029370D01*
X140567969Y-121057397D01*
X140545652Y-121102004D01*
X140540369Y-121145568D01*
X140547857Y-121195520D01*
X140572867Y-121240409D01*
X140593614Y-121260607D01*
X140638676Y-121285081D01*
X140688125Y-121297548D01*
X140741583Y-121302922D01*
X140771667Y-121303593D01*
X140820832Y-121302065D01*
X140870962Y-121296418D01*
X140918723Y-121284870D01*
X140964128Y-121262793D01*
X140967794Y-121260118D01*
X141002622Y-121223138D01*
X141021375Y-121177778D01*
X141024947Y-121142882D01*
X141017070Y-121092934D01*
X140993440Y-121053000D01*
X140953637Y-121024589D01*
X140907344Y-121008429D01*
X140884263Y-121003419D01*
X140915526Y-120813886D01*
X140966804Y-120829411D01*
X141012285Y-120850124D01*
X141057164Y-120880151D01*
X141094472Y-120916955D01*
X141102616Y-120927215D01*
X141130185Y-120972675D01*
X141147847Y-121018312D01*
X141159477Y-121069420D01*
X141165077Y-121125997D01*
X141165631Y-121151919D01*
X141162068Y-121209635D01*
X141151377Y-121262801D01*
X141133560Y-121311416D01*
X141108616Y-121355480D01*
X141076544Y-121394993D01*
X141064270Y-121407152D01*
X141023438Y-121439441D01*
X140977144Y-121465049D01*
X140925390Y-121483977D01*
X140868174Y-121496225D01*
X140816322Y-121501328D01*
X140783391Y-121502163D01*
X140728643Y-121499831D01*
X140677818Y-121492837D01*
X140622008Y-121478288D01*
X140571847Y-121457025D01*
X140527337Y-121429046D01*
X140500802Y-121406664D01*
X140466438Y-121368482D01*
X140439184Y-121325560D01*
X140419040Y-121277898D01*
X140406005Y-121225497D01*
X140400080Y-121168355D01*
X140399685Y-121148255D01*
X140402280Y-121092625D01*
X140410064Y-121042207D01*
X140425314Y-120990969D01*
X140447341Y-120946540D01*
X140453907Y-120936496D01*
X140488752Y-120895755D01*
X140527251Y-120865411D01*
X140572833Y-120840594D01*
X140618527Y-120823412D01*
G37*
G36*
X141150000Y-120237718D02*
G01*
X141102292Y-120252929D01*
X141090404Y-120256280D01*
X141066713Y-120263119D01*
X141100395Y-120301267D01*
X141128978Y-120344764D01*
X141140963Y-120369120D01*
X141156934Y-120416053D01*
X141164764Y-120465566D01*
X141165631Y-120489288D01*
X141161754Y-120542609D01*
X141148122Y-120595479D01*
X141124676Y-120640815D01*
X141103593Y-120666852D01*
X141066089Y-120698258D01*
X141018299Y-120721098D01*
X140969783Y-120730806D01*
X140946545Y-120731821D01*
X140897802Y-120726943D01*
X140850357Y-120710781D01*
X140834682Y-120702267D01*
X140795953Y-120671874D01*
X140766107Y-120632410D01*
X140759211Y-120619469D01*
X140740538Y-120572907D01*
X140726394Y-120523977D01*
X140714765Y-120472068D01*
X140713538Y-120465840D01*
X140702386Y-120410616D01*
X140690071Y-120357233D01*
X140676764Y-120309586D01*
X140665422Y-120278262D01*
X140806106Y-120278262D01*
X140818989Y-120326195D01*
X140830175Y-120376329D01*
X140834193Y-120395743D01*
X140845218Y-120444407D01*
X140861048Y-120491699D01*
X140865945Y-120500767D01*
X140903039Y-120533301D01*
X140930425Y-120538625D01*
X140978523Y-120524310D01*
X140997103Y-120508339D01*
X141021032Y-120464089D01*
X141024947Y-120431402D01*
X141016826Y-120380355D01*
X140994461Y-120334717D01*
X140992463Y-120331751D01*
X140957124Y-120297443D01*
X140931891Y-120285833D01*
X140882814Y-120279157D01*
X140842498Y-120278262D01*
X140806106Y-120278262D01*
X140665422Y-120278262D01*
X140645638Y-120278262D01*
X140596912Y-120285162D01*
X140564549Y-120305861D01*
X140544998Y-120352092D01*
X140540393Y-120404705D01*
X140540369Y-120409420D01*
X140546938Y-120460288D01*
X140561130Y-120490020D01*
X140599388Y-120521753D01*
X140634159Y-120536671D01*
X140602896Y-120711793D01*
X140554474Y-120694360D01*
X140508029Y-120668398D01*
X140470085Y-120635713D01*
X140449511Y-120610188D01*
X140425425Y-120563996D01*
X140410633Y-120513659D01*
X140402800Y-120462452D01*
X140399880Y-120413238D01*
X140399685Y-120395743D01*
X140401158Y-120342383D01*
X140406447Y-120289157D01*
X140416996Y-120239168D01*
X140430460Y-120203524D01*
X140455877Y-120161369D01*
X140491433Y-120125559D01*
X140508618Y-120114619D01*
X140555135Y-120098843D01*
X140604673Y-120091789D01*
X140659250Y-120088957D01*
X140682274Y-120088729D01*
X140908932Y-120090928D01*
X140959318Y-120090193D01*
X141009987Y-120087302D01*
X141051570Y-120081646D01*
X141099136Y-120068335D01*
X141146724Y-120048536D01*
X141150000Y-120046964D01*
X141150000Y-120237718D01*
G37*
G36*
X141150000Y-119717480D02*
G01*
X141150000Y-119910432D01*
X140415317Y-119910432D01*
X140415317Y-119731158D01*
X140519120Y-119731158D01*
X140478109Y-119703366D01*
X140439558Y-119669946D01*
X140422644Y-119648604D01*
X140403475Y-119601278D01*
X140399685Y-119564829D01*
X140405250Y-119516056D01*
X140421942Y-119468658D01*
X140439253Y-119437822D01*
X140619016Y-119497662D01*
X140596225Y-119541901D01*
X140587264Y-119588276D01*
X140596731Y-119636231D01*
X140609246Y-119657152D01*
X140650557Y-119687587D01*
X140688625Y-119701360D01*
X140742781Y-119710538D01*
X140792721Y-119714395D01*
X140845108Y-119716473D01*
X140895520Y-119717339D01*
X140928715Y-119717480D01*
X141150000Y-119717480D01*
G37*
G36*
X142517369Y-132523866D02*
G01*
X142517369Y-133007466D01*
X142569070Y-133002071D01*
X142617015Y-132986494D01*
X142655610Y-132960816D01*
X142687554Y-132920872D01*
X142703213Y-132873673D01*
X142704947Y-132849441D01*
X142697112Y-132800864D01*
X142682721Y-132773482D01*
X142644348Y-132740623D01*
X142611158Y-132726587D01*
X142642421Y-132534124D01*
X142689163Y-132555373D01*
X142734668Y-132585701D01*
X142772677Y-132622830D01*
X142793852Y-132651360D01*
X142818882Y-132699473D01*
X142834254Y-132747593D01*
X142843153Y-132800750D01*
X142845631Y-132851395D01*
X142842584Y-132908508D01*
X142833443Y-132960780D01*
X142818207Y-133008209D01*
X142791881Y-133058733D01*
X142756778Y-133102285D01*
X142720823Y-133133251D01*
X142674511Y-133161326D01*
X142623196Y-133182505D01*
X142575231Y-133195171D01*
X142523591Y-133202770D01*
X142468276Y-133205303D01*
X142413269Y-133202989D01*
X142362126Y-133196049D01*
X142305854Y-133181612D01*
X142255147Y-133160511D01*
X142210004Y-133132748D01*
X142183000Y-133110537D01*
X142147889Y-133073231D01*
X142120043Y-133032387D01*
X142099461Y-132988005D01*
X142086143Y-132940086D01*
X142080089Y-132888629D01*
X142079685Y-132870690D01*
X142080299Y-132859211D01*
X142220369Y-132859211D01*
X142229205Y-132910188D01*
X142255712Y-132952844D01*
X142266531Y-132963503D01*
X142309678Y-132990107D01*
X142359166Y-133002357D01*
X142392316Y-133004047D01*
X142392316Y-132715596D01*
X142343611Y-132720658D01*
X142295617Y-132736869D01*
X142264333Y-132758827D01*
X142234280Y-132798357D01*
X142220756Y-132848285D01*
X142220369Y-132859211D01*
X142080299Y-132859211D01*
X142082315Y-132821533D01*
X142092413Y-132766968D01*
X142110084Y-132717228D01*
X142135329Y-132672314D01*
X142168147Y-132632226D01*
X142187397Y-132613991D01*
X142231815Y-132582097D01*
X142284288Y-132557125D01*
X142334169Y-132541601D01*
X142389642Y-132530883D01*
X142450709Y-132524971D01*
X142503589Y-132523702D01*
X142517369Y-132523866D01*
G37*
G36*
X142830000Y-132169713D02*
G01*
X142095317Y-132463782D01*
X142095317Y-132261060D01*
X142470230Y-132123796D01*
X142595526Y-132083984D01*
X142548586Y-132068719D01*
X142532512Y-132063956D01*
X142485846Y-132048844D01*
X142470230Y-132043440D01*
X142095317Y-131904710D01*
X142095317Y-131706140D01*
X142830000Y-131996057D01*
X142830000Y-132169713D01*
G37*
G36*
X142517369Y-130966573D02*
G01*
X142517369Y-131450174D01*
X142569070Y-131444779D01*
X142617015Y-131429202D01*
X142655610Y-131403524D01*
X142687554Y-131363580D01*
X142703213Y-131316380D01*
X142704947Y-131292149D01*
X142697112Y-131243572D01*
X142682721Y-131216189D01*
X142644348Y-131183331D01*
X142611158Y-131169295D01*
X142642421Y-130976831D01*
X142689163Y-130998080D01*
X142734668Y-131028409D01*
X142772677Y-131065537D01*
X142793852Y-131094068D01*
X142818882Y-131142181D01*
X142834254Y-131190301D01*
X142843153Y-131243458D01*
X142845631Y-131294103D01*
X142842584Y-131351216D01*
X142833443Y-131403487D01*
X142818207Y-131450917D01*
X142791881Y-131501441D01*
X142756778Y-131544992D01*
X142720823Y-131575959D01*
X142674511Y-131604034D01*
X142623196Y-131625213D01*
X142575231Y-131637878D01*
X142523591Y-131645478D01*
X142468276Y-131648011D01*
X142413269Y-131645697D01*
X142362126Y-131638756D01*
X142305854Y-131624319D01*
X142255147Y-131603219D01*
X142210004Y-131575455D01*
X142183000Y-131553244D01*
X142147889Y-131515938D01*
X142120043Y-131475094D01*
X142099461Y-131430713D01*
X142086143Y-131382793D01*
X142080089Y-131331336D01*
X142079685Y-131313398D01*
X142080299Y-131301919D01*
X142220369Y-131301919D01*
X142229205Y-131352896D01*
X142255712Y-131395551D01*
X142266531Y-131406210D01*
X142309678Y-131432815D01*
X142359166Y-131445065D01*
X142392316Y-131446755D01*
X142392316Y-131158304D01*
X142343611Y-131163365D01*
X142295617Y-131179577D01*
X142264333Y-131201535D01*
X142234280Y-131241065D01*
X142220756Y-131290993D01*
X142220369Y-131301919D01*
X142080299Y-131301919D01*
X142082315Y-131264241D01*
X142092413Y-131209675D01*
X142110084Y-131159935D01*
X142135329Y-131115021D01*
X142168147Y-131074933D01*
X142187397Y-131056699D01*
X142231815Y-131024805D01*
X142284288Y-130999832D01*
X142334169Y-130984308D01*
X142389642Y-130973590D01*
X142450709Y-130967679D01*
X142503589Y-130966410D01*
X142517369Y-130966573D01*
G37*
G36*
X142830000Y-130628297D02*
G01*
X142830000Y-130821249D01*
X142095317Y-130821249D01*
X142095317Y-130641974D01*
X142199120Y-130641974D01*
X142158109Y-130614182D01*
X142119558Y-130580762D01*
X142102644Y-130559420D01*
X142083475Y-130512094D01*
X142079685Y-130475645D01*
X142085250Y-130426873D01*
X142101942Y-130379474D01*
X142119253Y-130348639D01*
X142299016Y-130408478D01*
X142276225Y-130452717D01*
X142267264Y-130499092D01*
X142276731Y-130547047D01*
X142289246Y-130567969D01*
X142330557Y-130598404D01*
X142368625Y-130612177D01*
X142422781Y-130621354D01*
X142472721Y-130625211D01*
X142525108Y-130627289D01*
X142575520Y-130628155D01*
X142608715Y-130628297D01*
X142830000Y-130628297D01*
G37*
G36*
X142095317Y-130360362D02*
G01*
X142095317Y-130154954D01*
X142615554Y-129980321D01*
X142095317Y-129810083D01*
X142095317Y-129610048D01*
X142803377Y-129867725D01*
X142938688Y-129913642D01*
X142983701Y-129933918D01*
X143028089Y-129959338D01*
X143032233Y-129962247D01*
X143069288Y-129995325D01*
X143084501Y-130015003D01*
X143107000Y-130060108D01*
X143115764Y-130088520D01*
X143124530Y-130138143D01*
X143126999Y-130187194D01*
X143124637Y-130238918D01*
X143117553Y-130289676D01*
X143116252Y-130296371D01*
X142976301Y-130313468D01*
X142984398Y-130265219D01*
X142986315Y-130231646D01*
X142979019Y-130182838D01*
X142952468Y-130140845D01*
X142942107Y-130132240D01*
X142899011Y-130106761D01*
X142850704Y-130088377D01*
X142830000Y-130082658D01*
X142095317Y-130360362D01*
G37*
G36*
X142095317Y-128766922D02*
G01*
X142236001Y-128766922D01*
X142236001Y-128898813D01*
X142554982Y-128898813D01*
X142607690Y-128898455D01*
X142657145Y-128896577D01*
X142668066Y-128895150D01*
X142694689Y-128877808D01*
X142704947Y-128845324D01*
X142696174Y-128797069D01*
X142686385Y-128767655D01*
X142820230Y-128751046D01*
X142834692Y-128799469D01*
X142843150Y-128852048D01*
X142845631Y-128903454D01*
X142841113Y-128953157D01*
X142827557Y-128997732D01*
X142800862Y-129041352D01*
X142780907Y-129059281D01*
X142734670Y-129079772D01*
X142703482Y-129086392D01*
X142651153Y-129090971D01*
X142600525Y-129092283D01*
X142563531Y-129092498D01*
X142236001Y-129092498D01*
X142236001Y-129181158D01*
X142095317Y-129181158D01*
X142095317Y-129092498D01*
X141954633Y-129092498D01*
X141845212Y-128898813D01*
X142095317Y-128898813D01*
X142095317Y-128766922D01*
G37*
G36*
X141985896Y-128635519D02*
G01*
X141813949Y-128635519D01*
X141813949Y-128442323D01*
X141985896Y-128442323D01*
X141985896Y-128635519D01*
G37*
G36*
X142830000Y-128635519D02*
G01*
X142095317Y-128635519D01*
X142095317Y-128442323D01*
X142830000Y-128442323D01*
X142830000Y-128635519D01*
G37*
G36*
X142095317Y-128261095D02*
G01*
X142095317Y-128083042D01*
X142194968Y-128083042D01*
X142155790Y-128045951D01*
X142124718Y-128006300D01*
X142098712Y-127956807D01*
X142083738Y-127903832D01*
X142079685Y-127855652D01*
X142083567Y-127805689D01*
X142096531Y-127757454D01*
X142107285Y-127734019D01*
X142136644Y-127692479D01*
X142173617Y-127660268D01*
X142190327Y-127649511D01*
X142152546Y-127612359D01*
X142122733Y-127573078D01*
X142107285Y-127545708D01*
X142089415Y-127499253D01*
X142080656Y-127450379D01*
X142079685Y-127427006D01*
X142083582Y-127374676D01*
X142096719Y-127324238D01*
X142112658Y-127290963D01*
X142144329Y-127250392D01*
X142186158Y-127219174D01*
X142208890Y-127207920D01*
X142256586Y-127194953D01*
X142306331Y-127189476D01*
X142360809Y-127187892D01*
X142830000Y-127187892D01*
X142830000Y-127381088D01*
X142405261Y-127381088D01*
X142354840Y-127382340D01*
X142305596Y-127387425D01*
X142262379Y-127401116D01*
X142229600Y-127437605D01*
X142220369Y-127483426D01*
X142230196Y-127532294D01*
X142245526Y-127559874D01*
X142281324Y-127593731D01*
X142319532Y-127611409D01*
X142368334Y-127621530D01*
X142418547Y-127625804D01*
X142473161Y-127627041D01*
X142830000Y-127627041D01*
X142830000Y-127819993D01*
X142422602Y-127819993D01*
X142373189Y-127820634D01*
X142320949Y-127823609D01*
X142282651Y-127830251D01*
X142240959Y-127855734D01*
X142235757Y-127862247D01*
X142220745Y-127909645D01*
X142220369Y-127920865D01*
X142229066Y-127970756D01*
X142245038Y-128001221D01*
X142281705Y-128036506D01*
X142315624Y-128052512D01*
X142367656Y-128063030D01*
X142419076Y-128066937D01*
X142468764Y-128067899D01*
X142830000Y-128067899D01*
X142830000Y-128261095D01*
X142095317Y-128261095D01*
G37*
G36*
X142517369Y-126376762D02*
G01*
X142517369Y-126860362D01*
X142569070Y-126854967D01*
X142617015Y-126839390D01*
X142655610Y-126813712D01*
X142687554Y-126773768D01*
X142703213Y-126726569D01*
X142704947Y-126702337D01*
X142697112Y-126653760D01*
X142682721Y-126626378D01*
X142644348Y-126593519D01*
X142611158Y-126579483D01*
X142642421Y-126387020D01*
X142689163Y-126408269D01*
X142734668Y-126438597D01*
X142772677Y-126475726D01*
X142793852Y-126504256D01*
X142818882Y-126552370D01*
X142834254Y-126600489D01*
X142843153Y-126653646D01*
X142845631Y-126704291D01*
X142842584Y-126761404D01*
X142833443Y-126813676D01*
X142818207Y-126861105D01*
X142791881Y-126911629D01*
X142756778Y-126955181D01*
X142720823Y-126986147D01*
X142674511Y-127014222D01*
X142623196Y-127035401D01*
X142575231Y-127048067D01*
X142523591Y-127055666D01*
X142468276Y-127058199D01*
X142413269Y-127055885D01*
X142362126Y-127048945D01*
X142305854Y-127034508D01*
X142255147Y-127013407D01*
X142210004Y-126985644D01*
X142183000Y-126963433D01*
X142147889Y-126926127D01*
X142120043Y-126885283D01*
X142099461Y-126840901D01*
X142086143Y-126792982D01*
X142080089Y-126741525D01*
X142079685Y-126723586D01*
X142080299Y-126712107D01*
X142220369Y-126712107D01*
X142229205Y-126763084D01*
X142255712Y-126805740D01*
X142266531Y-126816399D01*
X142309678Y-126843003D01*
X142359166Y-126855253D01*
X142392316Y-126856943D01*
X142392316Y-126568492D01*
X142343611Y-126573554D01*
X142295617Y-126589765D01*
X142264333Y-126611723D01*
X142234280Y-126651253D01*
X142220756Y-126701181D01*
X142220369Y-126712107D01*
X142080299Y-126712107D01*
X142082315Y-126674429D01*
X142092413Y-126619864D01*
X142110084Y-126570124D01*
X142135329Y-126525210D01*
X142168147Y-126485122D01*
X142187397Y-126466887D01*
X142231815Y-126434993D01*
X142284288Y-126410021D01*
X142334169Y-126394497D01*
X142389642Y-126383779D01*
X142450709Y-126377867D01*
X142503589Y-126376598D01*
X142517369Y-126376762D01*
G37*
G36*
X141985896Y-125834542D02*
G01*
X141813949Y-125834542D01*
X141813949Y-125641346D01*
X141985896Y-125641346D01*
X141985896Y-125834542D01*
G37*
G36*
X142830000Y-125834542D02*
G01*
X142095317Y-125834542D01*
X142095317Y-125641346D01*
X142830000Y-125641346D01*
X142830000Y-125834542D01*
G37*
G36*
X142095317Y-125111095D02*
G01*
X142236001Y-125111095D01*
X142236001Y-125242986D01*
X142554982Y-125242986D01*
X142607690Y-125242628D01*
X142657145Y-125240750D01*
X142668066Y-125239323D01*
X142694689Y-125221981D01*
X142704947Y-125189497D01*
X142696174Y-125141242D01*
X142686385Y-125111828D01*
X142820230Y-125095219D01*
X142834692Y-125143642D01*
X142843150Y-125196221D01*
X142845631Y-125247627D01*
X142841113Y-125297330D01*
X142827557Y-125341905D01*
X142800862Y-125385525D01*
X142780907Y-125403454D01*
X142734670Y-125423945D01*
X142703482Y-125430565D01*
X142651153Y-125435144D01*
X142600525Y-125436456D01*
X142563531Y-125436671D01*
X142236001Y-125436671D01*
X142236001Y-125525331D01*
X142095317Y-125525331D01*
X142095317Y-125436671D01*
X141954633Y-125436671D01*
X141845212Y-125242986D01*
X142095317Y-125242986D01*
X142095317Y-125111095D01*
G37*
G36*
X142095317Y-124256245D02*
G01*
X142236001Y-124256245D01*
X142236001Y-124388136D01*
X142554982Y-124388136D01*
X142607690Y-124387778D01*
X142657145Y-124385900D01*
X142668066Y-124384473D01*
X142694689Y-124367131D01*
X142704947Y-124334647D01*
X142696174Y-124286392D01*
X142686385Y-124256978D01*
X142820230Y-124240369D01*
X142834692Y-124288792D01*
X142843150Y-124341371D01*
X142845631Y-124392777D01*
X142841113Y-124442480D01*
X142827557Y-124487055D01*
X142800862Y-124530675D01*
X142780907Y-124548604D01*
X142734670Y-124569095D01*
X142703482Y-124575715D01*
X142651153Y-124580294D01*
X142600525Y-124581606D01*
X142563531Y-124581821D01*
X142236001Y-124581821D01*
X142236001Y-124670481D01*
X142095317Y-124670481D01*
X142095317Y-124581821D01*
X141954633Y-124581821D01*
X141845212Y-124388136D01*
X142095317Y-124388136D01*
X142095317Y-124256245D01*
G37*
G36*
X142830000Y-123939951D02*
G01*
X142830000Y-124132903D01*
X142095317Y-124132903D01*
X142095317Y-123953628D01*
X142199120Y-123953628D01*
X142158109Y-123925836D01*
X142119558Y-123892416D01*
X142102644Y-123871074D01*
X142083475Y-123823748D01*
X142079685Y-123787299D01*
X142085250Y-123738527D01*
X142101942Y-123691128D01*
X142119253Y-123660293D01*
X142299016Y-123720132D01*
X142276225Y-123764371D01*
X142267264Y-123810746D01*
X142276731Y-123858701D01*
X142289246Y-123879623D01*
X142330557Y-123910058D01*
X142368625Y-123923831D01*
X142422781Y-123933008D01*
X142472721Y-123936865D01*
X142525108Y-123938943D01*
X142575520Y-123939809D01*
X142608715Y-123939951D01*
X142830000Y-123939951D01*
G37*
G36*
X141985896Y-123580669D02*
G01*
X141813949Y-123580669D01*
X141813949Y-123387473D01*
X141985896Y-123387473D01*
X141985896Y-123580669D01*
G37*
G36*
X142830000Y-123580669D02*
G01*
X142095317Y-123580669D01*
X142095317Y-123387473D01*
X142830000Y-123387473D01*
X142830000Y-123580669D01*
G37*
G36*
X142517369Y-122566573D02*
G01*
X142517369Y-123050174D01*
X142569070Y-123044779D01*
X142617015Y-123029202D01*
X142655610Y-123003524D01*
X142687554Y-122963580D01*
X142703213Y-122916380D01*
X142704947Y-122892149D01*
X142697112Y-122843572D01*
X142682721Y-122816189D01*
X142644348Y-122783331D01*
X142611158Y-122769295D01*
X142642421Y-122576831D01*
X142689163Y-122598080D01*
X142734668Y-122628409D01*
X142772677Y-122665537D01*
X142793852Y-122694068D01*
X142818882Y-122742181D01*
X142834254Y-122790301D01*
X142843153Y-122843458D01*
X142845631Y-122894103D01*
X142842584Y-122951216D01*
X142833443Y-123003487D01*
X142818207Y-123050917D01*
X142791881Y-123101441D01*
X142756778Y-123144992D01*
X142720823Y-123175959D01*
X142674511Y-123204034D01*
X142623196Y-123225213D01*
X142575231Y-123237878D01*
X142523591Y-123245478D01*
X142468276Y-123248011D01*
X142413269Y-123245697D01*
X142362126Y-123238756D01*
X142305854Y-123224319D01*
X142255147Y-123203219D01*
X142210004Y-123175455D01*
X142183000Y-123153244D01*
X142147889Y-123115938D01*
X142120043Y-123075094D01*
X142099461Y-123030713D01*
X142086143Y-122982793D01*
X142080089Y-122931336D01*
X142079685Y-122913398D01*
X142080299Y-122901919D01*
X142220369Y-122901919D01*
X142229205Y-122952896D01*
X142255712Y-122995551D01*
X142266531Y-123006210D01*
X142309678Y-123032815D01*
X142359166Y-123045065D01*
X142392316Y-123046755D01*
X142392316Y-122758304D01*
X142343611Y-122763365D01*
X142295617Y-122779577D01*
X142264333Y-122801535D01*
X142234280Y-122841065D01*
X142220756Y-122890993D01*
X142220369Y-122901919D01*
X142080299Y-122901919D01*
X142082315Y-122864241D01*
X142092413Y-122809675D01*
X142110084Y-122759935D01*
X142135329Y-122715021D01*
X142168147Y-122674933D01*
X142187397Y-122656699D01*
X142231815Y-122624805D01*
X142284288Y-122599832D01*
X142334169Y-122584308D01*
X142389642Y-122573590D01*
X142450709Y-122567679D01*
X142503589Y-122566410D01*
X142517369Y-122566573D01*
G37*
G36*
X142626789Y-122481088D02*
G01*
X142595526Y-122287404D01*
X142642787Y-122268658D01*
X142677103Y-122237334D01*
X142697986Y-122191905D01*
X142704838Y-122139732D01*
X142704947Y-122131332D01*
X142701066Y-122080465D01*
X142685299Y-122031467D01*
X142677348Y-122018736D01*
X142633724Y-121993732D01*
X142625812Y-121993335D01*
X142589420Y-122007013D01*
X142568484Y-122054132D01*
X142564019Y-122071737D01*
X142551273Y-122127440D01*
X142538801Y-122177800D01*
X142523598Y-122233236D01*
X142508824Y-122280324D01*
X142488862Y-122332223D01*
X142469741Y-122367759D01*
X142437165Y-122405587D01*
X142393584Y-122435223D01*
X142342661Y-122451182D01*
X142304633Y-122454221D01*
X142253467Y-122448309D01*
X142207132Y-122430574D01*
X142165626Y-122401014D01*
X142144654Y-122379483D01*
X142116230Y-122336847D01*
X142098021Y-122291101D01*
X142086030Y-122237478D01*
X142080701Y-122185245D01*
X142079685Y-122147208D01*
X142081489Y-122093768D01*
X142088150Y-122038257D01*
X142099721Y-121990110D01*
X142118955Y-121944101D01*
X142130976Y-121924703D01*
X142163730Y-121887237D01*
X142204289Y-121856997D01*
X142252654Y-121833983D01*
X142282896Y-121824319D01*
X142314159Y-122006524D01*
X142267703Y-122027851D01*
X142244549Y-122050976D01*
X142224998Y-122096331D01*
X142220369Y-122143789D01*
X142223358Y-122194862D01*
X142236638Y-122244047D01*
X142241618Y-122252965D01*
X142280942Y-122274947D01*
X142315868Y-122255652D01*
X142335790Y-122208288D01*
X142349903Y-122159226D01*
X142363879Y-122103173D01*
X142370334Y-122075401D01*
X142383999Y-122020870D01*
X142398796Y-121972865D01*
X142417493Y-121925106D01*
X142440749Y-121881402D01*
X142456308Y-121859979D01*
X142496587Y-121825632D01*
X142546563Y-121805542D01*
X142600411Y-121799651D01*
X142654675Y-121806277D01*
X142704533Y-121826158D01*
X142745154Y-121854955D01*
X142773335Y-121883426D01*
X142801505Y-121923923D01*
X142822756Y-121972110D01*
X142835464Y-122019534D01*
X142843089Y-122072608D01*
X142845631Y-122131332D01*
X142843562Y-122185105D01*
X142837353Y-122234498D01*
X142824880Y-122286589D01*
X142806773Y-122332719D01*
X142786769Y-122367515D01*
X142754696Y-122407128D01*
X142717342Y-122439262D01*
X142674707Y-122463915D01*
X142626789Y-122481088D01*
G37*
G36*
X142095317Y-120911095D02*
G01*
X142236001Y-120911095D01*
X142236001Y-121042986D01*
X142554982Y-121042986D01*
X142607690Y-121042628D01*
X142657145Y-121040750D01*
X142668066Y-121039323D01*
X142694689Y-121021981D01*
X142704947Y-120989497D01*
X142696174Y-120941242D01*
X142686385Y-120911828D01*
X142820230Y-120895219D01*
X142834692Y-120943642D01*
X142843150Y-120996221D01*
X142845631Y-121047627D01*
X142841113Y-121097330D01*
X142827557Y-121141905D01*
X142800862Y-121185525D01*
X142780907Y-121203454D01*
X142734670Y-121223945D01*
X142703482Y-121230565D01*
X142651153Y-121235144D01*
X142600525Y-121236456D01*
X142563531Y-121236671D01*
X142236001Y-121236671D01*
X142236001Y-121325331D01*
X142095317Y-121325331D01*
X142095317Y-121236671D01*
X141954633Y-121236671D01*
X141845212Y-121042986D01*
X142095317Y-121042986D01*
X142095317Y-120911095D01*
G37*
G36*
X142511223Y-120074000D02*
G01*
X142568192Y-120084029D01*
X142621178Y-120101580D01*
X142670179Y-120126653D01*
X142715196Y-120159248D01*
X142736210Y-120178367D01*
X142773396Y-120220332D01*
X142802889Y-120266179D01*
X142824687Y-120315908D01*
X142838792Y-120369517D01*
X142845204Y-120427008D01*
X142845631Y-120447034D01*
X142842792Y-120496646D01*
X142834274Y-120545097D01*
X142820077Y-120592389D01*
X142800202Y-120638520D01*
X142774724Y-120681232D01*
X142739749Y-120722787D01*
X142698088Y-120757464D01*
X142666601Y-120776762D01*
X142620241Y-120797492D01*
X142569087Y-120812299D01*
X142520396Y-120820397D01*
X142468034Y-120823960D01*
X142452400Y-120824145D01*
X142398497Y-120820397D01*
X142345599Y-120809152D01*
X142299422Y-120792864D01*
X142265310Y-120776762D01*
X142222797Y-120750597D01*
X142181355Y-120715250D01*
X142146676Y-120673643D01*
X142127313Y-120642428D01*
X142106476Y-120597701D01*
X142091592Y-120550471D01*
X142082662Y-120500737D01*
X142079685Y-120448499D01*
X142079723Y-120447766D01*
X142220369Y-120447766D01*
X142227758Y-120496824D01*
X142252670Y-120543891D01*
X142282896Y-120574773D01*
X142327212Y-120601949D01*
X142376315Y-120617803D01*
X142427293Y-120625050D01*
X142462658Y-120626308D01*
X142517964Y-120623087D01*
X142566400Y-120613424D01*
X142612680Y-120594853D01*
X142642665Y-120574773D01*
X142678125Y-120536514D01*
X142700021Y-120488326D01*
X142704947Y-120447766D01*
X142697588Y-120398766D01*
X142672772Y-120351894D01*
X142642665Y-120321249D01*
X142598077Y-120294201D01*
X142548525Y-120278423D01*
X142496986Y-120271210D01*
X142461193Y-120269958D01*
X142406543Y-120273163D01*
X142358611Y-120282780D01*
X142312715Y-120301263D01*
X142282896Y-120321249D01*
X142247297Y-120359229D01*
X142225315Y-120407246D01*
X142220369Y-120447766D01*
X142079723Y-120447766D01*
X142082321Y-120398211D01*
X142092442Y-120341722D01*
X142110153Y-120289441D01*
X142135455Y-120241367D01*
X142168348Y-120197501D01*
X142187641Y-120177145D01*
X142230133Y-120141204D01*
X142276644Y-120112700D01*
X142327174Y-120091631D01*
X142381722Y-120077998D01*
X142430249Y-120072318D01*
X142460704Y-120071388D01*
X142511223Y-120074000D01*
G37*
G36*
X142513906Y-118831840D02*
G01*
X142565310Y-118838387D01*
X142621721Y-118852006D01*
X142672380Y-118871910D01*
X142717285Y-118898099D01*
X142744026Y-118919050D01*
X142778556Y-118953821D01*
X142809811Y-118997772D01*
X142831343Y-119045370D01*
X142843150Y-119096614D01*
X142845631Y-119135450D01*
X142841050Y-119186133D01*
X142825973Y-119235767D01*
X142821695Y-119245115D01*
X142793993Y-119289053D01*
X142759829Y-119328276D01*
X142739141Y-119348429D01*
X143111367Y-119348429D01*
X143111367Y-119541381D01*
X142095317Y-119541381D01*
X142095317Y-119361374D01*
X142202540Y-119361374D01*
X142161356Y-119328885D01*
X142129493Y-119291596D01*
X142113635Y-119266608D01*
X142092947Y-119219908D01*
X142085499Y-119186252D01*
X142220369Y-119186252D01*
X142228510Y-119235975D01*
X142252930Y-119278896D01*
X142278255Y-119303733D01*
X142324660Y-119330293D01*
X142372460Y-119343823D01*
X142422377Y-119349654D01*
X142449958Y-119350383D01*
X142503758Y-119348058D01*
X142557259Y-119339704D01*
X142607265Y-119323043D01*
X142642665Y-119301779D01*
X142678125Y-119265685D01*
X142700021Y-119220582D01*
X142704947Y-119182833D01*
X142695515Y-119131850D01*
X142667217Y-119088446D01*
X142647794Y-119070969D01*
X142604918Y-119047399D01*
X142554094Y-119033650D01*
X142499185Y-119027364D01*
X142460216Y-119026273D01*
X142409910Y-119028482D01*
X142359802Y-119036416D01*
X142312846Y-119052239D01*
X142279476Y-119072435D01*
X142243458Y-119109964D01*
X142223198Y-119157598D01*
X142220369Y-119186252D01*
X142085499Y-119186252D01*
X142081807Y-119169567D01*
X142079685Y-119133984D01*
X142084477Y-119080254D01*
X142098853Y-119030193D01*
X142122812Y-118983803D01*
X142156355Y-118941082D01*
X142179825Y-118918318D01*
X142220059Y-118888187D01*
X142265841Y-118864290D01*
X142317169Y-118846628D01*
X142374044Y-118835199D01*
X142425677Y-118830437D01*
X142458506Y-118829658D01*
X142513906Y-118831840D01*
G37*
G36*
X142511223Y-117975465D02*
G01*
X142568192Y-117985495D01*
X142621178Y-118003046D01*
X142670179Y-118028119D01*
X142715196Y-118060714D01*
X142736210Y-118079832D01*
X142773396Y-118121798D01*
X142802889Y-118167645D01*
X142824687Y-118217373D01*
X142838792Y-118270983D01*
X142845204Y-118328473D01*
X142845631Y-118348499D01*
X142842792Y-118398111D01*
X142834274Y-118446563D01*
X142820077Y-118493854D01*
X142800202Y-118539986D01*
X142774724Y-118582698D01*
X142739749Y-118624253D01*
X142698088Y-118658930D01*
X142666601Y-118678227D01*
X142620241Y-118698957D01*
X142569087Y-118713764D01*
X142520396Y-118721862D01*
X142468034Y-118725425D01*
X142452400Y-118725610D01*
X142398497Y-118721862D01*
X142345599Y-118710618D01*
X142299422Y-118694330D01*
X142265310Y-118678227D01*
X142222797Y-118652062D01*
X142181355Y-118616715D01*
X142146676Y-118575109D01*
X142127313Y-118543893D01*
X142106476Y-118499166D01*
X142091592Y-118451936D01*
X142082662Y-118402202D01*
X142079685Y-118349965D01*
X142079723Y-118349232D01*
X142220369Y-118349232D01*
X142227758Y-118398290D01*
X142252670Y-118445356D01*
X142282896Y-118476238D01*
X142327212Y-118503415D01*
X142376315Y-118519268D01*
X142427293Y-118526515D01*
X142462658Y-118527773D01*
X142517964Y-118524552D01*
X142566400Y-118514890D01*
X142612680Y-118496319D01*
X142642665Y-118476238D01*
X142678125Y-118437979D01*
X142700021Y-118389791D01*
X142704947Y-118349232D01*
X142697588Y-118300232D01*
X142672772Y-118253360D01*
X142642665Y-118222714D01*
X142598077Y-118195666D01*
X142548525Y-118179888D01*
X142496986Y-118172675D01*
X142461193Y-118171423D01*
X142406543Y-118174629D01*
X142358611Y-118184246D01*
X142312715Y-118202729D01*
X142282896Y-118222714D01*
X142247297Y-118260695D01*
X142225315Y-118308711D01*
X142220369Y-118349232D01*
X142079723Y-118349232D01*
X142082321Y-118299677D01*
X142092442Y-118243188D01*
X142110153Y-118190906D01*
X142135455Y-118142833D01*
X142168348Y-118098966D01*
X142187641Y-118078611D01*
X142230133Y-118042670D01*
X142276644Y-118014165D01*
X142327174Y-117993096D01*
X142381722Y-117979463D01*
X142430249Y-117973783D01*
X142460704Y-117972854D01*
X142511223Y-117975465D01*
G37*
G36*
X142830000Y-117690265D02*
G01*
X142095317Y-117921074D01*
X142095317Y-117733496D01*
X142576720Y-117596720D01*
X142095317Y-117470935D01*
X142095317Y-117284822D01*
X142576720Y-117163189D01*
X142095317Y-117023970D01*
X142095317Y-116833461D01*
X142830000Y-117067934D01*
X142830000Y-117253314D01*
X142357390Y-117379099D01*
X142830000Y-117502686D01*
X142830000Y-117690265D01*
G37*
G36*
X142517369Y-116112700D02*
G01*
X142517369Y-116596301D01*
X142569070Y-116590906D01*
X142617015Y-116575329D01*
X142655610Y-116549651D01*
X142687554Y-116509707D01*
X142703213Y-116462507D01*
X142704947Y-116438276D01*
X142697112Y-116389699D01*
X142682721Y-116362316D01*
X142644348Y-116329458D01*
X142611158Y-116315422D01*
X142642421Y-116122958D01*
X142689163Y-116144207D01*
X142734668Y-116174536D01*
X142772677Y-116211664D01*
X142793852Y-116240195D01*
X142818882Y-116288308D01*
X142834254Y-116336428D01*
X142843153Y-116389585D01*
X142845631Y-116440230D01*
X142842584Y-116497343D01*
X142833443Y-116549614D01*
X142818207Y-116597044D01*
X142791881Y-116647568D01*
X142756778Y-116691119D01*
X142720823Y-116722086D01*
X142674511Y-116750161D01*
X142623196Y-116771340D01*
X142575231Y-116784005D01*
X142523591Y-116791605D01*
X142468276Y-116794138D01*
X142413269Y-116791824D01*
X142362126Y-116784883D01*
X142305854Y-116770446D01*
X142255147Y-116749346D01*
X142210004Y-116721582D01*
X142183000Y-116699371D01*
X142147889Y-116662065D01*
X142120043Y-116621221D01*
X142099461Y-116576840D01*
X142086143Y-116528920D01*
X142080089Y-116477463D01*
X142079685Y-116459525D01*
X142080299Y-116448046D01*
X142220369Y-116448046D01*
X142229205Y-116499023D01*
X142255712Y-116541678D01*
X142266531Y-116552337D01*
X142309678Y-116578942D01*
X142359166Y-116591192D01*
X142392316Y-116592882D01*
X142392316Y-116304431D01*
X142343611Y-116309492D01*
X142295617Y-116325704D01*
X142264333Y-116347662D01*
X142234280Y-116387192D01*
X142220756Y-116437120D01*
X142220369Y-116448046D01*
X142080299Y-116448046D01*
X142082315Y-116410368D01*
X142092413Y-116355802D01*
X142110084Y-116306062D01*
X142135329Y-116261148D01*
X142168147Y-116221060D01*
X142187397Y-116202826D01*
X142231815Y-116170932D01*
X142284288Y-116145959D01*
X142334169Y-116130435D01*
X142389642Y-116119717D01*
X142450709Y-116113806D01*
X142503589Y-116112537D01*
X142517369Y-116112700D01*
G37*
G36*
X142830000Y-115774424D02*
G01*
X142830000Y-115967376D01*
X142095317Y-115967376D01*
X142095317Y-115788101D01*
X142199120Y-115788101D01*
X142158109Y-115760309D01*
X142119558Y-115726889D01*
X142102644Y-115705547D01*
X142083475Y-115658221D01*
X142079685Y-115621772D01*
X142085250Y-115573000D01*
X142101942Y-115525601D01*
X142119253Y-115494766D01*
X142299016Y-115554605D01*
X142276225Y-115598844D01*
X142267264Y-115645219D01*
X142276731Y-115693174D01*
X142289246Y-115714096D01*
X142330557Y-115744531D01*
X142368625Y-115758304D01*
X142422781Y-115767481D01*
X142472721Y-115771338D01*
X142525108Y-115773416D01*
X142575520Y-115774282D01*
X142608715Y-115774424D01*
X142830000Y-115774424D01*
G37*
G36*
X142830000Y-114546127D02*
G01*
X142720823Y-114546127D01*
X142761066Y-114579523D01*
X142794233Y-114619995D01*
X142812414Y-114650907D01*
X142831326Y-114696299D01*
X142843004Y-114747859D01*
X142845631Y-114787927D01*
X142841063Y-114840786D01*
X142827359Y-114889456D01*
X142813147Y-114919574D01*
X142782440Y-114961682D01*
X142743107Y-114993148D01*
X142722044Y-115004082D01*
X142671612Y-115020007D01*
X142619982Y-115027664D01*
X142566051Y-115030190D01*
X142559623Y-115030216D01*
X142095317Y-115030216D01*
X142095317Y-114837264D01*
X142436524Y-114837264D01*
X142490975Y-114836895D01*
X142543735Y-114835531D01*
X142594534Y-114832300D01*
X142628499Y-114826762D01*
X142671613Y-114802355D01*
X142684431Y-114787927D01*
X142702944Y-114741928D01*
X142704947Y-114716364D01*
X142697158Y-114666838D01*
X142677348Y-114627948D01*
X142642125Y-114591592D01*
X142608960Y-114574214D01*
X142556070Y-114564884D01*
X142504089Y-114561507D01*
X142446458Y-114560029D01*
X142408436Y-114559804D01*
X142095317Y-114559804D01*
X142095317Y-114366852D01*
X142830000Y-114366852D01*
X142830000Y-114546127D01*
G37*
G36*
X142513906Y-113467290D02*
G01*
X142565310Y-113473837D01*
X142621721Y-113487456D01*
X142672380Y-113507360D01*
X142717285Y-113533549D01*
X142744026Y-113554501D01*
X142778556Y-113589271D01*
X142809811Y-113633222D01*
X142831343Y-113680820D01*
X142843150Y-113732064D01*
X142845631Y-113770900D01*
X142841050Y-113821583D01*
X142825973Y-113871217D01*
X142821695Y-113880565D01*
X142793993Y-113924503D01*
X142759829Y-113963727D01*
X142739141Y-113983879D01*
X143111367Y-113983879D01*
X143111367Y-114176831D01*
X142095317Y-114176831D01*
X142095317Y-113996824D01*
X142202540Y-113996824D01*
X142161356Y-113964335D01*
X142129493Y-113927046D01*
X142113635Y-113902058D01*
X142092947Y-113855358D01*
X142085499Y-113821702D01*
X142220369Y-113821702D01*
X142228510Y-113871425D01*
X142252930Y-113914347D01*
X142278255Y-113939183D01*
X142324660Y-113965743D01*
X142372460Y-113979273D01*
X142422377Y-113985105D01*
X142449958Y-113985833D01*
X142503758Y-113983508D01*
X142557259Y-113975154D01*
X142607265Y-113958493D01*
X142642665Y-113937229D01*
X142678125Y-113901135D01*
X142700021Y-113856032D01*
X142704947Y-113818283D01*
X142695515Y-113767300D01*
X142667217Y-113723896D01*
X142647794Y-113706420D01*
X142604918Y-113682849D01*
X142554094Y-113669100D01*
X142499185Y-113662814D01*
X142460216Y-113661723D01*
X142409910Y-113663932D01*
X142359802Y-113671866D01*
X142312846Y-113687689D01*
X142279476Y-113707885D01*
X142243458Y-113745414D01*
X142223198Y-113793048D01*
X142220369Y-113821702D01*
X142085499Y-113821702D01*
X142081807Y-113805017D01*
X142079685Y-113769434D01*
X142084477Y-113715704D01*
X142098853Y-113665643D01*
X142122812Y-113619253D01*
X142156355Y-113576532D01*
X142179825Y-113553768D01*
X142220059Y-113523637D01*
X142265841Y-113499741D01*
X142317169Y-113482078D01*
X142374044Y-113470649D01*
X142425677Y-113465887D01*
X142458506Y-113465108D01*
X142513906Y-113467290D01*
G37*
G36*
X109688729Y-148351997D02*
G01*
X109687656Y-148400376D01*
X109679644Y-148459269D01*
X109665713Y-148489549D01*
X109624542Y-148531956D01*
X109620983Y-148534354D01*
X109566217Y-148561191D01*
X109504961Y-148570937D01*
X109465737Y-148566238D01*
X109412637Y-148537524D01*
X109393472Y-148515228D01*
X109376294Y-148457510D01*
X109382682Y-148424647D01*
X109421723Y-148380134D01*
X109432605Y-148374258D01*
X109489355Y-148355262D01*
X109547752Y-148342032D01*
X109571049Y-148337210D01*
X109631210Y-148323787D01*
X109688729Y-148308327D01*
X109688729Y-148351997D01*
G37*
G36*
X112929295Y-147709706D02*
G01*
X112983370Y-147734161D01*
X113016683Y-147779735D01*
X113037592Y-147837622D01*
X113044863Y-147871072D01*
X113052218Y-147929810D01*
X113056459Y-147994458D01*
X113058465Y-148059717D01*
X113058988Y-148121041D01*
X113058612Y-148170821D01*
X113056641Y-148238450D01*
X113052979Y-148297629D01*
X113046572Y-148355992D01*
X113034954Y-148414133D01*
X113019402Y-148458701D01*
X112983956Y-148507336D01*
X112966847Y-148518748D01*
X112908925Y-148533421D01*
X112888537Y-148531827D01*
X112834187Y-148507922D01*
X112801111Y-148462677D01*
X112780258Y-148405047D01*
X112772987Y-148371487D01*
X112765632Y-148312603D01*
X112761390Y-148247826D01*
X112759384Y-148182457D01*
X112758862Y-148121041D01*
X112759238Y-148071317D01*
X112761209Y-148003702D01*
X112764870Y-147944454D01*
X112771278Y-147885906D01*
X112782896Y-147827364D01*
X112798448Y-147782796D01*
X112833893Y-147734161D01*
X112851003Y-147722748D01*
X112908925Y-147708076D01*
X112929295Y-147709706D01*
G37*
G36*
X115335405Y-148873090D02*
G01*
X108045389Y-148873090D01*
X108045389Y-148345842D01*
X108178722Y-148345842D01*
X108182411Y-148415206D01*
X108192818Y-148477995D01*
X108209944Y-148534210D01*
X108238414Y-148591485D01*
X108276029Y-148639813D01*
X108315095Y-148673779D01*
X108368017Y-148704523D01*
X108428849Y-148725703D01*
X108487286Y-148736244D01*
X108551535Y-148739757D01*
X108615380Y-148736686D01*
X108681408Y-148725654D01*
X108740035Y-148706598D01*
X108797145Y-148675570D01*
X108824862Y-148654397D01*
X108867646Y-148611128D01*
X108901297Y-148561228D01*
X108925812Y-148504698D01*
X108932958Y-148476854D01*
X109144459Y-148476854D01*
X109145677Y-148504739D01*
X109157326Y-148562959D01*
X109184734Y-148620307D01*
X109222421Y-148665312D01*
X109253666Y-148690612D01*
X109308069Y-148718747D01*
X109371513Y-148735105D01*
X109435498Y-148739757D01*
X109463965Y-148738717D01*
X109523380Y-148729321D01*
X109579699Y-148710155D01*
X109608927Y-148695774D01*
X109661124Y-148661474D01*
X109706901Y-148621055D01*
X109715108Y-148649485D01*
X109719129Y-148663751D01*
X109737383Y-148721000D01*
X109966287Y-148721000D01*
X109964401Y-148717069D01*
X109940642Y-148659963D01*
X109924668Y-148602884D01*
X109917881Y-148552985D01*
X109914412Y-148492182D01*
X109913531Y-148431718D01*
X109916168Y-148159729D01*
X109915895Y-148132100D01*
X109912497Y-148066608D01*
X109904033Y-148007162D01*
X109885101Y-147951341D01*
X109871973Y-147930720D01*
X109829001Y-147888052D01*
X109778415Y-147857552D01*
X109735642Y-147841396D01*
X109726094Y-147839381D01*
X110138332Y-147839381D01*
X110138332Y-148721000D01*
X110369874Y-148721000D01*
X110369874Y-148317120D01*
X110369943Y-148298802D01*
X110371591Y-148232884D01*
X110376073Y-148172784D01*
X110387459Y-148112249D01*
X110410789Y-148064936D01*
X110453112Y-148023149D01*
X110500669Y-147998956D01*
X110561263Y-147989443D01*
X110586574Y-147991298D01*
X110641570Y-148012891D01*
X110658880Y-148027587D01*
X110689637Y-148078836D01*
X110690556Y-148081592D01*
X110700366Y-148141090D01*
X110703650Y-148199956D01*
X110704584Y-148265829D01*
X110704584Y-148721000D01*
X110936127Y-148721000D01*
X111553084Y-148721000D01*
X112365240Y-148721000D01*
X112365240Y-148495905D01*
X111905087Y-148495905D01*
X111916189Y-148478291D01*
X111952568Y-148432011D01*
X111958769Y-148425214D01*
X112001953Y-148382186D01*
X112047379Y-148339476D01*
X112091493Y-148298948D01*
X112111453Y-148280566D01*
X112158888Y-148235576D01*
X112202181Y-148191969D01*
X112243314Y-148145368D01*
X112262931Y-148118697D01*
X112516475Y-148118697D01*
X112516486Y-148121041D01*
X112516581Y-148140306D01*
X112518161Y-148202635D01*
X112523217Y-148279915D01*
X112531643Y-148350537D01*
X112543440Y-148414499D01*
X112562926Y-148485089D01*
X112587678Y-148545274D01*
X112624333Y-148603763D01*
X112638119Y-148620231D01*
X112682677Y-148663260D01*
X112732036Y-148696728D01*
X112786197Y-148720633D01*
X112845160Y-148734976D01*
X112908925Y-148739757D01*
X112961814Y-148736731D01*
X113020314Y-148725108D01*
X113030576Y-148721000D01*
X113421835Y-148721000D01*
X114233991Y-148721000D01*
X114233991Y-148495905D01*
X113773838Y-148495905D01*
X113784940Y-148478291D01*
X113821318Y-148432011D01*
X113827520Y-148425214D01*
X113870704Y-148382186D01*
X113881302Y-148372221D01*
X114389330Y-148372221D01*
X114397816Y-148423120D01*
X114413478Y-148479778D01*
X114439304Y-148539784D01*
X114473264Y-148593227D01*
X114515359Y-148640106D01*
X114549841Y-148668814D01*
X114603190Y-148700831D01*
X114662457Y-148723311D01*
X114727643Y-148736254D01*
X114788227Y-148739757D01*
X114839184Y-148737271D01*
X114898848Y-148727168D01*
X114964533Y-148704788D01*
X115023767Y-148671218D01*
X115076551Y-148626457D01*
X115115610Y-148580609D01*
X115135875Y-148550952D01*
X115164836Y-148496671D01*
X115185523Y-148439362D01*
X115197935Y-148379022D01*
X115202072Y-148315654D01*
X115199453Y-148261598D01*
X115189396Y-148201038D01*
X115168131Y-148136323D01*
X115136599Y-148078004D01*
X115094801Y-148026080D01*
X115067319Y-147999908D01*
X115015677Y-147962503D01*
X114959519Y-147935786D01*
X114898846Y-147919755D01*
X114833656Y-147914412D01*
X114788432Y-147917797D01*
X114728998Y-147932841D01*
X114675387Y-147957203D01*
X114711730Y-147745591D01*
X115148436Y-147745591D01*
X115148436Y-147520497D01*
X114536168Y-147520497D01*
X114417466Y-148185521D01*
X114605338Y-148214538D01*
X114620356Y-148197776D01*
X114667574Y-148157385D01*
X114723845Y-148129907D01*
X114784124Y-148120748D01*
X114803656Y-148121531D01*
X114864588Y-148136606D01*
X114913963Y-148170867D01*
X114935762Y-148198930D01*
X114957901Y-148257973D01*
X114963789Y-148320930D01*
X114960638Y-148370920D01*
X114946017Y-148428710D01*
X114913377Y-148480665D01*
X114900495Y-148493029D01*
X114849853Y-148523323D01*
X114790572Y-148533421D01*
X114786629Y-148533372D01*
X114727443Y-148519193D01*
X114678611Y-148483009D01*
X114659176Y-148459115D01*
X114632907Y-148405661D01*
X114619993Y-148345842D01*
X114389330Y-148372221D01*
X113881302Y-148372221D01*
X113916129Y-148339476D01*
X113960244Y-148298948D01*
X113980204Y-148280566D01*
X114027639Y-148235576D01*
X114070932Y-148191969D01*
X114112065Y-148145368D01*
X114144986Y-148100610D01*
X114177919Y-148047480D01*
X114204682Y-147991495D01*
X114217505Y-147954236D01*
X114229870Y-147896561D01*
X114233991Y-147836743D01*
X114233592Y-147819048D01*
X114225900Y-147760022D01*
X114205122Y-147698092D01*
X114171559Y-147642062D01*
X114131702Y-147597873D01*
X114090655Y-147565203D01*
X114035968Y-147535630D01*
X113973960Y-147515258D01*
X113914983Y-147505119D01*
X113850628Y-147501739D01*
X113810662Y-147503090D01*
X113744799Y-147511956D01*
X113684125Y-147529096D01*
X113628641Y-147554511D01*
X113578346Y-147588201D01*
X113571636Y-147593696D01*
X113529491Y-147638301D01*
X113495789Y-147693650D01*
X113473622Y-147749642D01*
X113457658Y-147813526D01*
X113449092Y-147872793D01*
X113680048Y-147895654D01*
X113683035Y-147865549D01*
X113697385Y-147804742D01*
X113729581Y-147751453D01*
X113732284Y-147748784D01*
X113783484Y-147717607D01*
X113845059Y-147708076D01*
X113906797Y-147717156D01*
X113959951Y-147749401D01*
X113964990Y-147754706D01*
X113993603Y-147807114D01*
X114001570Y-147867517D01*
X113999284Y-147897991D01*
X113982908Y-147955033D01*
X113953796Y-148008201D01*
X113939751Y-148026512D01*
X113899539Y-148070977D01*
X113854992Y-148115786D01*
X113807567Y-148161316D01*
X113761528Y-148204279D01*
X113714885Y-148247945D01*
X113662236Y-148299424D01*
X113615869Y-148347453D01*
X113575785Y-148392034D01*
X113535978Y-148440978D01*
X113500969Y-148491802D01*
X113471294Y-148546683D01*
X113448213Y-148603177D01*
X113431727Y-148661282D01*
X113421835Y-148721000D01*
X113030576Y-148721000D01*
X113081713Y-148700530D01*
X113135734Y-148664087D01*
X113182379Y-148615780D01*
X113216576Y-148563979D01*
X113244976Y-148502733D01*
X113263523Y-148446936D01*
X113278361Y-148385094D01*
X113289489Y-148317207D01*
X113296908Y-148243274D01*
X113300038Y-148183858D01*
X113301081Y-148121041D01*
X113300621Y-148078722D01*
X113298205Y-148018110D01*
X113291761Y-147942648D01*
X113281636Y-147873305D01*
X113267828Y-147810079D01*
X113245391Y-147739652D01*
X113217201Y-147678784D01*
X113183258Y-147627475D01*
X113143430Y-147584745D01*
X113090192Y-147546066D01*
X113029660Y-147519421D01*
X112971972Y-147506160D01*
X112908925Y-147501739D01*
X112855951Y-147504766D01*
X112797369Y-147516389D01*
X112735900Y-147540967D01*
X112681836Y-147577409D01*
X112635177Y-147625717D01*
X112600981Y-147677474D01*
X112572581Y-147738591D01*
X112554033Y-147794224D01*
X112539196Y-147855846D01*
X112528067Y-147923459D01*
X112520649Y-147997061D01*
X112517519Y-148056194D01*
X112516475Y-148118697D01*
X112262931Y-148118697D01*
X112276235Y-148100610D01*
X112309168Y-148047480D01*
X112335931Y-147991495D01*
X112348754Y-147954236D01*
X112361119Y-147896561D01*
X112365240Y-147836743D01*
X112364841Y-147819048D01*
X112357149Y-147760022D01*
X112336372Y-147698092D01*
X112302808Y-147642062D01*
X112262951Y-147597873D01*
X112221904Y-147565203D01*
X112167217Y-147535630D01*
X112105209Y-147515258D01*
X112046232Y-147505119D01*
X111981877Y-147501739D01*
X111941911Y-147503090D01*
X111876048Y-147511956D01*
X111815374Y-147529096D01*
X111759890Y-147554511D01*
X111709595Y-147588201D01*
X111702885Y-147593696D01*
X111660740Y-147638301D01*
X111627038Y-147693650D01*
X111604871Y-147749642D01*
X111588907Y-147813526D01*
X111580341Y-147872793D01*
X111811297Y-147895654D01*
X111814284Y-147865549D01*
X111828634Y-147804742D01*
X111860830Y-147751453D01*
X111863534Y-147748784D01*
X111914733Y-147717607D01*
X111976308Y-147708076D01*
X112038046Y-147717156D01*
X112091200Y-147749401D01*
X112096240Y-147754706D01*
X112124853Y-147807114D01*
X112132819Y-147867517D01*
X112130533Y-147897991D01*
X112114157Y-147955033D01*
X112085045Y-148008201D01*
X112071000Y-148026512D01*
X112030789Y-148070977D01*
X111986242Y-148115786D01*
X111938816Y-148161316D01*
X111892777Y-148204279D01*
X111846134Y-148247945D01*
X111793485Y-148299424D01*
X111747118Y-148347453D01*
X111707034Y-148392034D01*
X111667227Y-148440978D01*
X111632219Y-148491802D01*
X111602543Y-148546683D01*
X111579462Y-148603177D01*
X111562976Y-148661282D01*
X111553084Y-148721000D01*
X110936127Y-148721000D01*
X110936127Y-148173798D01*
X110935812Y-148143083D01*
X110932487Y-148078828D01*
X110923230Y-148017287D01*
X110908388Y-147971574D01*
X110878094Y-147919394D01*
X110834760Y-147877919D01*
X110781960Y-147848466D01*
X110761848Y-147840445D01*
X110702029Y-147825218D01*
X110641863Y-147820623D01*
X110620369Y-147821199D01*
X110558661Y-147829837D01*
X110501117Y-147848841D01*
X110447735Y-147878211D01*
X110398517Y-147917946D01*
X110353461Y-147968048D01*
X110353461Y-147839381D01*
X110138332Y-147839381D01*
X109726094Y-147839381D01*
X109675655Y-147828737D01*
X109611784Y-147822390D01*
X109547752Y-147820623D01*
X109526758Y-147820856D01*
X109467702Y-147824360D01*
X109406253Y-147833760D01*
X109345849Y-147851511D01*
X109290418Y-147880413D01*
X109259788Y-147905102D01*
X109220566Y-147950635D01*
X109189412Y-148006369D01*
X109168492Y-148064475D01*
X109378639Y-148101990D01*
X109396540Y-148060266D01*
X109434619Y-148014356D01*
X109470298Y-147997326D01*
X109531339Y-147989443D01*
X109536997Y-147989472D01*
X109600133Y-147994997D01*
X109655610Y-148018459D01*
X109680450Y-148057294D01*
X109688729Y-148115766D01*
X109688729Y-148139506D01*
X109651140Y-148153117D01*
X109593964Y-148169085D01*
X109529905Y-148183863D01*
X109463635Y-148197245D01*
X109456162Y-148198718D01*
X109393871Y-148212673D01*
X109335156Y-148229645D01*
X109279281Y-148252053D01*
X109263751Y-148260328D01*
X109216395Y-148296144D01*
X109179923Y-148342618D01*
X109169706Y-148361429D01*
X109150312Y-148418362D01*
X109146395Y-148457510D01*
X109144459Y-148476854D01*
X108932958Y-148476854D01*
X108937353Y-148459727D01*
X108946395Y-148398668D01*
X108950928Y-148335090D01*
X108952191Y-148272277D01*
X108952191Y-147501739D01*
X108708925Y-147501739D01*
X108708925Y-148291034D01*
X108708892Y-148300205D01*
X108706235Y-148366457D01*
X108696939Y-148431498D01*
X108674926Y-148486526D01*
X108668187Y-148494907D01*
X108618059Y-148525682D01*
X108559741Y-148533421D01*
X108540164Y-148532432D01*
X108481812Y-148513390D01*
X108439281Y-148470113D01*
X108428806Y-148448944D01*
X108414252Y-148389606D01*
X108408799Y-148327085D01*
X108178722Y-148345842D01*
X108045389Y-148345842D01*
X108045389Y-147368406D01*
X115335405Y-147368406D01*
X115335405Y-148873090D01*
G37*
G36*
X106146605Y-117252240D02*
G01*
X106213678Y-117319313D01*
X106249130Y-117390218D01*
X106291101Y-117558099D01*
X106291101Y-117676337D01*
X106249130Y-117844218D01*
X106213677Y-117915124D01*
X106146606Y-117982197D01*
X106041541Y-118017219D01*
X105919673Y-118017219D01*
X105919673Y-117217219D01*
X106041541Y-117217219D01*
X106146605Y-117252240D01*
G37*
G36*
X107792689Y-118328330D02*
G01*
X105608562Y-118328330D01*
X105608562Y-117117219D01*
X105719673Y-117117219D01*
X105719673Y-118117219D01*
X105721594Y-118136728D01*
X105736526Y-118172776D01*
X105764116Y-118200366D01*
X105800164Y-118215298D01*
X105819673Y-118217219D01*
X106057768Y-118217219D01*
X106067641Y-118216246D01*
X106070275Y-118216434D01*
X106073738Y-118215646D01*
X106077277Y-118215298D01*
X106079719Y-118214286D01*
X106089391Y-118212087D01*
X106232247Y-118164468D01*
X106250148Y-118156477D01*
X106252863Y-118154122D01*
X106256183Y-118152747D01*
X106271336Y-118140310D01*
X106313936Y-118097710D01*
X106626356Y-118097710D01*
X106626356Y-118136728D01*
X106641288Y-118172776D01*
X106668878Y-118200366D01*
X106704926Y-118215298D01*
X106724435Y-118217219D01*
X106819673Y-118217219D01*
X106829546Y-118216246D01*
X106832180Y-118216434D01*
X106835643Y-118215646D01*
X106839182Y-118215298D01*
X106841624Y-118214286D01*
X106851296Y-118212087D01*
X106994152Y-118164468D01*
X107012053Y-118156477D01*
X107014768Y-118154122D01*
X107018088Y-118152747D01*
X107033241Y-118140310D01*
X107128479Y-118045071D01*
X107140916Y-118029918D01*
X107142291Y-118026598D01*
X107144645Y-118023884D01*
X107152636Y-118005984D01*
X107200255Y-117863127D01*
X107202454Y-117853454D01*
X107203466Y-117851013D01*
X107203814Y-117847475D01*
X107204602Y-117844012D01*
X107204414Y-117841377D01*
X107205387Y-117831504D01*
X107205387Y-117117219D01*
X107481578Y-117117219D01*
X107481578Y-118117219D01*
X107483499Y-118136728D01*
X107498431Y-118172776D01*
X107526021Y-118200366D01*
X107562069Y-118215298D01*
X107601087Y-118215298D01*
X107637135Y-118200366D01*
X107664725Y-118172776D01*
X107679657Y-118136728D01*
X107681578Y-118117219D01*
X107681578Y-117117219D01*
X107679657Y-117097710D01*
X107664725Y-117061662D01*
X107637135Y-117034072D01*
X107601087Y-117019140D01*
X107562069Y-117019140D01*
X107526021Y-117034072D01*
X107498431Y-117061662D01*
X107483499Y-117097710D01*
X107481578Y-117117219D01*
X107205387Y-117117219D01*
X107203466Y-117097710D01*
X107188534Y-117061662D01*
X107160944Y-117034072D01*
X107124896Y-117019140D01*
X107085878Y-117019140D01*
X107049830Y-117034072D01*
X107022240Y-117061662D01*
X107007308Y-117097710D01*
X107005387Y-117117219D01*
X107005387Y-117815277D01*
X106970365Y-117920341D01*
X106908511Y-117982197D01*
X106803446Y-118017219D01*
X106724435Y-118017219D01*
X106704926Y-118019140D01*
X106668878Y-118034072D01*
X106641288Y-118061662D01*
X106626356Y-118097710D01*
X106313936Y-118097710D01*
X106366574Y-118045071D01*
X106372866Y-118037404D01*
X106374863Y-118035673D01*
X106376756Y-118032665D01*
X106379011Y-118029918D01*
X106380022Y-118027476D01*
X106385306Y-118019082D01*
X106432925Y-117923845D01*
X106433471Y-117922416D01*
X106433901Y-117921837D01*
X106436822Y-117913660D01*
X106439931Y-117905536D01*
X106439982Y-117904815D01*
X106440496Y-117903377D01*
X106488115Y-117712901D01*
X106488615Y-117709519D01*
X106489180Y-117708156D01*
X106489903Y-117700805D01*
X106490983Y-117693508D01*
X106490765Y-117692049D01*
X106491101Y-117688647D01*
X106491101Y-117545790D01*
X106490765Y-117542387D01*
X106490983Y-117540929D01*
X106489903Y-117533631D01*
X106489180Y-117526281D01*
X106488615Y-117524917D01*
X106488115Y-117521536D01*
X106440496Y-117331060D01*
X106439982Y-117329621D01*
X106439931Y-117328901D01*
X106436822Y-117320776D01*
X106433901Y-117312600D01*
X106433471Y-117312020D01*
X106432925Y-117310592D01*
X106385306Y-117215355D01*
X106380019Y-117206956D01*
X106379010Y-117204519D01*
X106376758Y-117201775D01*
X106374863Y-117198764D01*
X106372865Y-117197031D01*
X106366574Y-117189365D01*
X106271336Y-117094127D01*
X106256182Y-117081691D01*
X106252863Y-117080316D01*
X106250148Y-117077961D01*
X106232247Y-117069970D01*
X106089391Y-117022351D01*
X106079719Y-117020151D01*
X106077277Y-117019140D01*
X106073738Y-117018791D01*
X106070275Y-117018004D01*
X106067641Y-117018191D01*
X106057768Y-117017219D01*
X105819673Y-117017219D01*
X105800164Y-117019140D01*
X105764116Y-117034072D01*
X105736526Y-117061662D01*
X105721594Y-117097710D01*
X105719673Y-117117219D01*
X105608562Y-117117219D01*
X105608562Y-116906108D01*
X107792689Y-116906108D01*
X107792689Y-118328330D01*
G37*
G36*
X130508570Y-149578330D02*
G01*
X127611728Y-149578330D01*
X127611728Y-148640426D01*
X127722839Y-148640426D01*
X127725605Y-148679346D01*
X127743054Y-148714245D01*
X127772531Y-148739809D01*
X127809547Y-148752148D01*
X127848467Y-148749382D01*
X127866775Y-148742376D01*
X127962013Y-148694757D01*
X127970409Y-148689471D01*
X127972849Y-148688461D01*
X127975595Y-148686207D01*
X127978603Y-148684314D01*
X127980332Y-148682319D01*
X127988003Y-148676025D01*
X128007768Y-148656260D01*
X128007768Y-149267219D01*
X127822054Y-149267219D01*
X127802545Y-149269140D01*
X127766497Y-149284072D01*
X127738907Y-149311662D01*
X127723975Y-149347710D01*
X127723975Y-149386728D01*
X127738907Y-149422776D01*
X127766497Y-149450366D01*
X127802545Y-149465298D01*
X127822054Y-149467219D01*
X128393482Y-149467219D01*
X128412991Y-149465298D01*
X128449039Y-149450366D01*
X128476629Y-149422776D01*
X128491561Y-149386728D01*
X128491561Y-149347710D01*
X128628737Y-149347710D01*
X128628737Y-149386728D01*
X128643669Y-149422776D01*
X128671259Y-149450366D01*
X128707307Y-149465298D01*
X128726816Y-149467219D01*
X129345863Y-149467219D01*
X129365372Y-149465298D01*
X129401420Y-149450366D01*
X129429010Y-149422776D01*
X129443942Y-149386728D01*
X129443942Y-149347710D01*
X129429010Y-149311662D01*
X129401420Y-149284072D01*
X129365372Y-149269140D01*
X129345863Y-149267219D01*
X128968238Y-149267219D01*
X129368955Y-148866501D01*
X129381391Y-148851347D01*
X129382765Y-148848028D01*
X129385121Y-148845313D01*
X129393112Y-148827413D01*
X129440731Y-148684556D01*
X129442930Y-148674883D01*
X129443942Y-148672442D01*
X129444290Y-148668904D01*
X129445078Y-148665441D01*
X129444890Y-148662806D01*
X129445863Y-148652933D01*
X129445863Y-148557695D01*
X129443942Y-148538186D01*
X129442566Y-148534865D01*
X129442312Y-148531282D01*
X129435306Y-148512973D01*
X129387687Y-148417736D01*
X129382401Y-148409339D01*
X129381391Y-148406899D01*
X129379137Y-148404153D01*
X129377244Y-148401145D01*
X129375246Y-148399412D01*
X129368954Y-148391746D01*
X129356934Y-148379726D01*
X129532363Y-148379726D01*
X129536710Y-148398842D01*
X129870043Y-149398841D01*
X129878034Y-149416742D01*
X129882717Y-149422141D01*
X129885912Y-149428531D01*
X129895383Y-149436746D01*
X129903599Y-149446218D01*
X129909987Y-149449412D01*
X129915388Y-149454096D01*
X129927289Y-149458063D01*
X129938498Y-149463667D01*
X129945622Y-149464173D01*
X129952404Y-149466434D01*
X129964913Y-149465544D01*
X129977418Y-149466434D01*
X129984196Y-149464174D01*
X129991324Y-149463668D01*
X130002540Y-149458059D01*
X130014434Y-149454095D01*
X130019831Y-149449414D01*
X130026223Y-149446218D01*
X130034441Y-149436742D01*
X130043910Y-149428530D01*
X130047103Y-149422143D01*
X130051788Y-149416742D01*
X130059779Y-149398842D01*
X130393112Y-148398842D01*
X130397459Y-148379727D01*
X130394693Y-148340807D01*
X130377243Y-148305908D01*
X130347767Y-148280343D01*
X130310751Y-148268004D01*
X130271831Y-148270771D01*
X130236932Y-148288220D01*
X130211367Y-148317696D01*
X130203376Y-148335597D01*
X129964911Y-149050991D01*
X129726446Y-148335596D01*
X129718455Y-148317696D01*
X129692890Y-148288220D01*
X129657991Y-148270770D01*
X129619071Y-148268004D01*
X129582055Y-148280342D01*
X129552579Y-148305907D01*
X129535129Y-148340806D01*
X129532363Y-148379726D01*
X129356934Y-148379726D01*
X129321336Y-148344127D01*
X129313665Y-148337832D01*
X129311936Y-148335838D01*
X129308928Y-148333944D01*
X129306182Y-148331691D01*
X129303742Y-148330680D01*
X129295346Y-148325395D01*
X129200108Y-148277776D01*
X129181800Y-148270770D01*
X129178216Y-148270515D01*
X129174896Y-148269140D01*
X129155387Y-148267219D01*
X128917292Y-148267219D01*
X128897783Y-148269140D01*
X128894462Y-148270515D01*
X128890879Y-148270770D01*
X128872570Y-148277776D01*
X128777333Y-148325395D01*
X128768936Y-148330680D01*
X128766496Y-148331691D01*
X128763750Y-148333944D01*
X128760742Y-148335838D01*
X128759009Y-148337835D01*
X128751343Y-148344128D01*
X128703724Y-148391746D01*
X128691288Y-148406900D01*
X128676356Y-148442948D01*
X128676356Y-148481966D01*
X128691288Y-148518014D01*
X128718878Y-148545604D01*
X128754926Y-148560536D01*
X128793944Y-148560536D01*
X128829992Y-148545604D01*
X128845146Y-148533168D01*
X128881289Y-148497023D01*
X128940899Y-148467219D01*
X129131780Y-148467219D01*
X129191389Y-148497024D01*
X129216058Y-148521692D01*
X129245863Y-148581302D01*
X129245863Y-148636706D01*
X129210841Y-148741770D01*
X128656105Y-149296508D01*
X128643669Y-149311662D01*
X128628737Y-149347710D01*
X128491561Y-149347710D01*
X128476629Y-149311662D01*
X128449039Y-149284072D01*
X128412991Y-149269140D01*
X128393482Y-149267219D01*
X128207768Y-149267219D01*
X128207768Y-148367219D01*
X128207761Y-148367148D01*
X128207768Y-148367114D01*
X128207747Y-148367012D01*
X128205847Y-148347710D01*
X128202057Y-148338561D01*
X128200116Y-148328854D01*
X128194664Y-148320713D01*
X128190915Y-148311662D01*
X128183915Y-148304662D01*
X128178405Y-148296434D01*
X128170250Y-148290997D01*
X128163325Y-148284072D01*
X128154181Y-148280284D01*
X128145940Y-148274790D01*
X128136326Y-148272888D01*
X128127277Y-148269140D01*
X128117376Y-148269140D01*
X128107664Y-148267219D01*
X128098059Y-148269140D01*
X128088259Y-148269140D01*
X128079110Y-148272929D01*
X128069403Y-148274871D01*
X128061262Y-148280322D01*
X128052211Y-148284072D01*
X128045211Y-148291071D01*
X128036983Y-148296582D01*
X128024694Y-148311588D01*
X128024621Y-148311662D01*
X128024607Y-148311694D01*
X128024563Y-148311749D01*
X127934819Y-148446365D01*
X127858055Y-148523128D01*
X127777333Y-148563490D01*
X127760742Y-148573933D01*
X127735178Y-148603410D01*
X127722839Y-148640426D01*
X127611728Y-148640426D01*
X127611728Y-148156108D01*
X130508570Y-148156108D01*
X130508570Y-149578330D01*
G37*
G36*
X148006189Y-117028330D02*
G01*
X146061410Y-117028330D01*
X146061410Y-116303062D01*
X146172521Y-116303062D01*
X146173975Y-116307880D01*
X146173975Y-116312918D01*
X146179571Y-116326427D01*
X146183792Y-116340417D01*
X146186979Y-116344313D01*
X146188907Y-116348966D01*
X146199243Y-116359302D01*
X146208499Y-116370615D01*
X146212936Y-116372995D01*
X146216497Y-116376556D01*
X146230002Y-116382150D01*
X146242883Y-116389060D01*
X146247892Y-116389560D01*
X146252545Y-116391488D01*
X146267166Y-116391488D01*
X146281707Y-116392942D01*
X146286526Y-116391488D01*
X146291563Y-116391488D01*
X146305072Y-116385891D01*
X146319062Y-116381671D01*
X146322958Y-116378483D01*
X146327611Y-116376556D01*
X146342765Y-116364120D01*
X146378908Y-116327975D01*
X146438518Y-116298171D01*
X146629399Y-116298171D01*
X146689008Y-116327976D01*
X146713677Y-116352644D01*
X146743482Y-116412254D01*
X146743482Y-116603135D01*
X146713677Y-116662743D01*
X146689008Y-116687413D01*
X146629399Y-116717219D01*
X146438518Y-116717219D01*
X146378908Y-116687414D01*
X146342765Y-116651270D01*
X146327612Y-116638833D01*
X146291564Y-116623902D01*
X146252546Y-116623901D01*
X146216497Y-116638832D01*
X146188907Y-116666422D01*
X146173976Y-116702470D01*
X146173975Y-116741488D01*
X146188906Y-116777537D01*
X146201343Y-116792690D01*
X146248961Y-116840310D01*
X146256629Y-116846603D01*
X146258361Y-116848600D01*
X146261369Y-116850493D01*
X146264115Y-116852747D01*
X146266555Y-116853757D01*
X146274952Y-116859043D01*
X146370189Y-116906662D01*
X146388498Y-116913668D01*
X146392081Y-116913922D01*
X146395402Y-116915298D01*
X146414911Y-116917219D01*
X146653006Y-116917219D01*
X146672515Y-116915298D01*
X146675835Y-116913922D01*
X146679419Y-116913668D01*
X146697727Y-116906662D01*
X146792965Y-116859043D01*
X146801360Y-116853758D01*
X146803802Y-116852747D01*
X146806549Y-116850491D01*
X146809555Y-116848600D01*
X146811285Y-116846605D01*
X146818955Y-116840310D01*
X146866574Y-116792690D01*
X146872866Y-116785023D01*
X146874863Y-116783292D01*
X146876756Y-116780284D01*
X146879011Y-116777537D01*
X146880022Y-116775095D01*
X146885306Y-116766701D01*
X146932925Y-116671464D01*
X146939931Y-116653155D01*
X146940185Y-116649571D01*
X146941561Y-116646251D01*
X146943482Y-116626742D01*
X146943482Y-116388647D01*
X146941561Y-116369138D01*
X146940185Y-116365817D01*
X146939931Y-116362234D01*
X146932925Y-116343925D01*
X146885306Y-116248688D01*
X146880020Y-116240291D01*
X146879010Y-116237851D01*
X146876756Y-116235105D01*
X146874863Y-116232097D01*
X146872865Y-116230364D01*
X146866573Y-116222698D01*
X146818955Y-116175079D01*
X146811284Y-116168784D01*
X146809555Y-116166790D01*
X146806547Y-116164896D01*
X146803801Y-116162643D01*
X146801361Y-116161632D01*
X146792965Y-116156347D01*
X146697727Y-116108728D01*
X146679419Y-116101722D01*
X146675835Y-116101467D01*
X146672515Y-116100092D01*
X146653006Y-116098171D01*
X146414911Y-116098171D01*
X146395402Y-116100092D01*
X146392081Y-116101467D01*
X146391744Y-116101491D01*
X146410172Y-115917219D01*
X146795863Y-115917219D01*
X146815372Y-115915298D01*
X146851420Y-115900366D01*
X146879010Y-115872776D01*
X146893942Y-115836728D01*
X146893942Y-115829726D01*
X147029982Y-115829726D01*
X147034329Y-115848842D01*
X147367662Y-116848841D01*
X147375653Y-116866742D01*
X147380336Y-116872141D01*
X147383531Y-116878531D01*
X147393002Y-116886746D01*
X147401218Y-116896218D01*
X147407606Y-116899412D01*
X147413007Y-116904096D01*
X147424908Y-116908063D01*
X147436117Y-116913667D01*
X147443241Y-116914173D01*
X147450023Y-116916434D01*
X147462532Y-116915544D01*
X147475037Y-116916434D01*
X147481815Y-116914174D01*
X147488943Y-116913668D01*
X147500159Y-116908059D01*
X147512053Y-116904095D01*
X147517450Y-116899414D01*
X147523842Y-116896218D01*
X147532060Y-116886742D01*
X147541529Y-116878530D01*
X147544722Y-116872143D01*
X147549407Y-116866742D01*
X147557398Y-116848842D01*
X147890731Y-115848842D01*
X147895078Y-115829727D01*
X147892312Y-115790807D01*
X147874862Y-115755908D01*
X147845386Y-115730343D01*
X147808370Y-115718004D01*
X147769450Y-115720771D01*
X147734551Y-115738220D01*
X147708986Y-115767696D01*
X147700995Y-115785597D01*
X147462530Y-116500991D01*
X147224065Y-115785596D01*
X147216074Y-115767696D01*
X147190509Y-115738220D01*
X147155610Y-115720770D01*
X147116690Y-115718004D01*
X147079674Y-115730342D01*
X147050198Y-115755907D01*
X147032748Y-115790806D01*
X147029982Y-115829726D01*
X146893942Y-115829726D01*
X146893942Y-115797710D01*
X146879010Y-115761662D01*
X146851420Y-115734072D01*
X146815372Y-115719140D01*
X146795863Y-115717219D01*
X146319673Y-115717219D01*
X146312456Y-115717929D01*
X146310020Y-115717686D01*
X146307641Y-115718403D01*
X146300164Y-115719140D01*
X146286654Y-115724736D01*
X146272665Y-115728957D01*
X146268768Y-115732144D01*
X146264116Y-115734072D01*
X146253779Y-115744408D01*
X146242467Y-115753664D01*
X146240086Y-115758101D01*
X146236526Y-115761662D01*
X146230931Y-115775167D01*
X146224022Y-115788048D01*
X146222545Y-115795412D01*
X146221594Y-115797710D01*
X146221594Y-115800160D01*
X146220169Y-115807269D01*
X146172550Y-116283459D01*
X146172521Y-116303062D01*
X146061410Y-116303062D01*
X146061410Y-115606108D01*
X148006189Y-115606108D01*
X148006189Y-117028330D01*
G37*
D11*
G36*
X105293827Y-119917857D02*
G01*
X105384288Y-119963742D01*
X105456287Y-120040217D01*
X105500594Y-120123422D01*
X105533086Y-120226204D01*
X105549701Y-120316139D01*
X105559670Y-120417086D01*
X105562993Y-120529045D01*
X105561759Y-120604281D01*
X105557019Y-120692978D01*
X105546996Y-120794270D01*
X105532135Y-120893205D01*
X105512435Y-120989785D01*
X105504977Y-121019915D01*
X105478171Y-121107855D01*
X105444719Y-121192116D01*
X105404621Y-121272698D01*
X105357877Y-121349602D01*
X105304487Y-121422827D01*
X105246462Y-121487420D01*
X105174169Y-121550481D01*
X105086155Y-121604126D01*
X104994186Y-121636313D01*
X104898262Y-121647042D01*
X104839941Y-121642529D01*
X104756591Y-121612911D01*
X104690495Y-121545214D01*
X104658175Y-121456361D01*
X104649427Y-121358200D01*
X104649427Y-120697866D01*
X104651143Y-120627623D01*
X104658768Y-120537525D01*
X104674637Y-120441026D01*
X104698227Y-120349673D01*
X104723574Y-120281524D01*
X104767909Y-120197119D01*
X104818413Y-120125128D01*
X104879357Y-120055995D01*
X104926694Y-120011793D01*
X105002744Y-119956653D01*
X105088760Y-119917546D01*
X105184905Y-119902562D01*
X105293827Y-119917857D01*
G37*
G36*
X111287656Y-119959802D02*
G01*
X111385492Y-119974305D01*
X111473128Y-120006212D01*
X111550562Y-120055521D01*
X111617796Y-120122235D01*
X111674829Y-120206351D01*
X111702134Y-120257960D01*
X111736266Y-120341789D01*
X111762206Y-120433314D01*
X111779955Y-120532536D01*
X111788488Y-120621101D01*
X111791332Y-120715011D01*
X111790827Y-120756878D01*
X111785147Y-120858585D01*
X111773156Y-120956063D01*
X111754854Y-121049312D01*
X111730240Y-121138332D01*
X111699315Y-121223123D01*
X111662079Y-121303685D01*
X111608541Y-121394496D01*
X111548220Y-121469915D01*
X111481115Y-121529942D01*
X111391635Y-121581658D01*
X111292387Y-121611209D01*
X111202219Y-121618905D01*
X111167254Y-121618114D01*
X111068129Y-121606238D01*
X110977660Y-121580112D01*
X110895846Y-121539736D01*
X110822688Y-121485110D01*
X110758185Y-121416233D01*
X110732258Y-121380315D01*
X110688054Y-121302685D01*
X110654050Y-121217327D01*
X110630248Y-121124241D01*
X110616647Y-121023426D01*
X110613105Y-120933511D01*
X110613536Y-120899070D01*
X110620002Y-120797251D01*
X110634226Y-120697689D01*
X110656210Y-120600383D01*
X110685952Y-120505334D01*
X110723454Y-120412541D01*
X110739157Y-120379671D01*
X110790718Y-120287574D01*
X110848956Y-120205245D01*
X110913872Y-120132685D01*
X110985464Y-120069892D01*
X111063733Y-120016868D01*
X111081979Y-120006497D01*
X111165695Y-119971587D01*
X111252777Y-119958836D01*
X111287656Y-119959802D01*
G37*
G36*
X116063691Y-122156547D02*
G01*
X100878695Y-122156547D01*
X100878695Y-121559115D01*
X101078695Y-121559115D01*
X101086766Y-121603963D01*
X101141975Y-121680145D01*
X101221075Y-121735359D01*
X101314058Y-121779873D01*
X101409302Y-121814983D01*
X101507277Y-121843969D01*
X101600400Y-121866957D01*
X101688669Y-121883948D01*
X101785516Y-121896192D01*
X101875757Y-121900273D01*
X101902745Y-121899943D01*
X101994687Y-121893596D01*
X102082716Y-121879170D01*
X102178529Y-121852792D01*
X102269232Y-121815863D01*
X102282999Y-121809320D01*
X102367134Y-121758710D01*
X102437063Y-121690566D01*
X102479021Y-121611431D01*
X102493007Y-121521306D01*
X102476273Y-121432637D01*
X102434178Y-121353473D01*
X102377702Y-121284447D01*
X102302400Y-121214338D01*
X102225268Y-121155088D01*
X102193791Y-121134317D01*
X102115204Y-121082404D01*
X102036767Y-121030513D01*
X101958480Y-120978643D01*
X101880344Y-120926795D01*
X101802357Y-120874968D01*
X101724521Y-120823162D01*
X101676124Y-120783078D01*
X101606039Y-120715808D01*
X101549178Y-120647959D01*
X101498400Y-120565774D01*
X101466664Y-120482755D01*
X101453705Y-120384844D01*
X101455374Y-120345263D01*
X101474153Y-120250037D01*
X101508894Y-120168885D01*
X101560537Y-120092046D01*
X101581091Y-120068239D01*
X101648038Y-120010871D01*
X101731724Y-119971844D01*
X101825198Y-119958836D01*
X101921566Y-119973874D01*
X101997996Y-120018990D01*
X102054488Y-120094184D01*
X102086334Y-120179821D01*
X102104334Y-120286345D01*
X102108764Y-120386602D01*
X102106531Y-120419439D01*
X102089860Y-120508382D01*
X102082494Y-120541879D01*
X102070956Y-120630601D01*
X102075059Y-120662154D01*
X102122833Y-120739631D01*
X102145760Y-120760016D01*
X102231423Y-120791948D01*
X102243851Y-120791532D01*
X102328069Y-120758285D01*
X102379581Y-120685556D01*
X102384159Y-120675640D01*
X102410153Y-120586668D01*
X102417390Y-120494753D01*
X102404640Y-120419575D01*
X102393214Y-120348238D01*
X102378829Y-120252542D01*
X102366831Y-120159750D01*
X102354013Y-120104191D01*
X102322788Y-120014632D01*
X102280370Y-119934834D01*
X102244225Y-119887614D01*
X102671939Y-119887614D01*
X102680796Y-119979928D01*
X102701706Y-120073716D01*
X102727291Y-120159781D01*
X102760748Y-120255657D01*
X102802078Y-120361341D01*
X102838241Y-120447042D01*
X102878832Y-120538261D01*
X102923852Y-120634997D01*
X102960809Y-120710196D01*
X103008937Y-120797142D01*
X103059212Y-120876253D01*
X103122375Y-120960844D01*
X103188630Y-121034152D01*
X103257976Y-121096177D01*
X103251658Y-121114255D01*
X103220119Y-121204595D01*
X103188666Y-121294850D01*
X103157299Y-121385018D01*
X103152970Y-121396885D01*
X103119235Y-121483658D01*
X103079307Y-121571723D01*
X103031123Y-121652318D01*
X103003708Y-121692623D01*
X102974410Y-121777614D01*
X102988294Y-121843106D01*
X103046950Y-121909505D01*
X103106167Y-121941662D01*
X103194668Y-121956547D01*
X103256052Y-121907555D01*
X103306976Y-121827177D01*
X103354669Y-121735317D01*
X103394497Y-121650346D01*
X103437802Y-121551597D01*
X103484585Y-121439068D01*
X103504124Y-121390294D01*
X104356629Y-121390294D01*
X104358164Y-121478949D01*
X104364058Y-121577826D01*
X104374372Y-121668512D01*
X104391992Y-121763958D01*
X104419497Y-121859387D01*
X104425767Y-121864338D01*
X104507864Y-121900273D01*
X104563547Y-121887735D01*
X104637117Y-121834767D01*
X104652239Y-121842699D01*
X104741606Y-121877180D01*
X104831954Y-121895091D01*
X104920683Y-121900273D01*
X105004696Y-121896115D01*
X105111627Y-121877637D01*
X105212747Y-121844376D01*
X105308056Y-121796332D01*
X105397553Y-121733505D01*
X105481238Y-121655895D01*
X105540189Y-121587986D01*
X105595870Y-121511763D01*
X105648283Y-121427224D01*
X105688824Y-121351926D01*
X105736676Y-121248848D01*
X105777438Y-121142707D01*
X105777687Y-121141899D01*
X106220690Y-121141899D01*
X106221186Y-121188557D01*
X106228618Y-121319643D01*
X106244967Y-121437398D01*
X106270235Y-121541823D01*
X106304421Y-121632917D01*
X106363876Y-121733638D01*
X106439184Y-121810660D01*
X106530347Y-121863984D01*
X106637364Y-121893608D01*
X106728032Y-121900273D01*
X106745432Y-121899998D01*
X106835463Y-121891961D01*
X106931606Y-121875475D01*
X107028173Y-121853836D01*
X107120188Y-121829931D01*
X107136116Y-121825603D01*
X107226709Y-121802522D01*
X107321617Y-121781846D01*
X107415864Y-121766459D01*
X107512344Y-121759589D01*
X107548394Y-121757831D01*
X107584884Y-121755632D01*
X107587806Y-121755582D01*
X107615485Y-121735849D01*
X108439979Y-121735849D01*
X108445345Y-121779409D01*
X108494933Y-121854990D01*
X108539323Y-121882585D01*
X108625945Y-121900273D01*
X108663860Y-121895308D01*
X108751681Y-121874334D01*
X108813517Y-121857671D01*
X108906316Y-121834692D01*
X108999170Y-121814132D01*
X109092077Y-121795990D01*
X109185038Y-121780268D01*
X109278054Y-121766964D01*
X109371123Y-121756079D01*
X109464247Y-121747613D01*
X109557425Y-121741566D01*
X109650656Y-121737937D01*
X109743942Y-121736728D01*
X109776311Y-121739741D01*
X109861765Y-121762227D01*
X109889390Y-121770893D01*
X109976950Y-121787726D01*
X110052568Y-121744202D01*
X110056401Y-121738700D01*
X110084221Y-121654516D01*
X110076893Y-121593685D01*
X110039818Y-121513392D01*
X110009593Y-121480007D01*
X109923754Y-121450085D01*
X109889023Y-121453162D01*
X108855875Y-121604397D01*
X108871659Y-121587516D01*
X108937648Y-121524823D01*
X109024830Y-121445975D01*
X109105520Y-121372484D01*
X109179720Y-121304347D01*
X109247427Y-121241566D01*
X109327606Y-121166189D01*
X109396244Y-121100333D01*
X109465813Y-121031401D01*
X109532916Y-120959889D01*
X109567279Y-120919003D01*
X110323384Y-120919003D01*
X110323757Y-120933511D01*
X110325324Y-120994427D01*
X110333945Y-121091398D01*
X110349463Y-121184261D01*
X110371877Y-121273016D01*
X110401189Y-121357663D01*
X110437397Y-121438203D01*
X110492356Y-121533100D01*
X110544082Y-121604397D01*
X110574209Y-121640226D01*
X110638162Y-121704949D01*
X110707048Y-121760426D01*
X110800091Y-121816769D01*
X110900841Y-121858666D01*
X110986989Y-121881781D01*
X111078069Y-121895650D01*
X111174082Y-121900273D01*
X111274772Y-121894187D01*
X111370655Y-121875928D01*
X111461728Y-121845497D01*
X111547993Y-121802893D01*
X111629450Y-121748117D01*
X111643495Y-121735849D01*
X112314061Y-121735849D01*
X112319428Y-121779409D01*
X112369016Y-121854990D01*
X112413405Y-121882585D01*
X112500027Y-121900273D01*
X112537943Y-121895308D01*
X112625764Y-121874334D01*
X112687600Y-121857671D01*
X112780399Y-121834692D01*
X112873252Y-121814132D01*
X112966159Y-121795990D01*
X113059120Y-121780268D01*
X113152136Y-121766964D01*
X113245205Y-121756079D01*
X113338329Y-121747613D01*
X113431507Y-121741566D01*
X113524739Y-121737937D01*
X113618025Y-121736728D01*
X113650394Y-121739741D01*
X113735847Y-121762227D01*
X113763472Y-121770893D01*
X113851032Y-121787726D01*
X113926650Y-121744202D01*
X113930483Y-121738700D01*
X113958304Y-121654516D01*
X113950975Y-121593685D01*
X113943538Y-121577579D01*
X114197466Y-121577579D01*
X114198241Y-121588107D01*
X114247035Y-121666606D01*
X114318485Y-121721513D01*
X114395743Y-121766623D01*
X114416433Y-121777621D01*
X114504780Y-121820481D01*
X114593806Y-121855377D01*
X114680628Y-121878291D01*
X114765465Y-121890806D01*
X114857369Y-121898126D01*
X114947048Y-121900273D01*
X114990867Y-121899425D01*
X115097711Y-121889881D01*
X115200691Y-121869732D01*
X115299807Y-121838979D01*
X115395058Y-121797621D01*
X115486446Y-121745659D01*
X115573970Y-121683092D01*
X115609054Y-121653164D01*
X115686859Y-121574693D01*
X115750519Y-121491005D01*
X115800032Y-121402101D01*
X115835398Y-121307981D01*
X115856618Y-121208644D01*
X115863691Y-121104090D01*
X115862879Y-121069510D01*
X115850694Y-120971540D01*
X115823888Y-120882225D01*
X115782461Y-120801565D01*
X115726413Y-120729561D01*
X115655743Y-120666212D01*
X115631784Y-120648697D01*
X115555313Y-120602931D01*
X115471949Y-120567336D01*
X115381691Y-120541911D01*
X115284540Y-120526656D01*
X115180495Y-120521571D01*
X115149030Y-120522012D01*
X115054924Y-120528633D01*
X114961250Y-120543197D01*
X114868009Y-120565706D01*
X114775201Y-120596160D01*
X114682826Y-120634558D01*
X114680683Y-120590024D01*
X114679309Y-120499589D01*
X114679492Y-120452778D01*
X114681560Y-120347381D01*
X114685924Y-120258599D01*
X114695892Y-120162218D01*
X114726350Y-120069624D01*
X114785940Y-120051267D01*
X114874150Y-120039701D01*
X114972107Y-120031376D01*
X115054182Y-120024259D01*
X115151511Y-120017794D01*
X115243363Y-120015109D01*
X115296480Y-120016569D01*
X115384926Y-120030057D01*
X115444717Y-120056435D01*
X115511102Y-120071383D01*
X115577048Y-120071383D01*
X115622022Y-119986306D01*
X115646510Y-119897726D01*
X115622880Y-119825296D01*
X115551988Y-119771550D01*
X115479925Y-119744412D01*
X115388443Y-119733741D01*
X115295488Y-119736434D01*
X115201213Y-119743208D01*
X115110796Y-119752296D01*
X115011506Y-119764414D01*
X114921988Y-119776826D01*
X114844898Y-119786389D01*
X114751849Y-119796609D01*
X114707315Y-119755905D01*
X114619518Y-119733741D01*
X114599554Y-119734746D01*
X114512686Y-119762318D01*
X114480896Y-119839744D01*
X114454494Y-119925842D01*
X114433481Y-120020613D01*
X114417855Y-120124057D01*
X114409234Y-120213056D01*
X114404061Y-120307605D01*
X114402337Y-120407705D01*
X114403107Y-120471782D01*
X114405415Y-120562897D01*
X114405415Y-120630195D01*
X114405415Y-120721166D01*
X114404510Y-120739159D01*
X114386510Y-120827119D01*
X114382032Y-120843633D01*
X114364528Y-120929994D01*
X114447328Y-120970983D01*
X114534668Y-120993302D01*
X114609838Y-120962459D01*
X114679309Y-120905814D01*
X114727763Y-120870402D01*
X114809371Y-120833803D01*
X114896929Y-120808214D01*
X114953604Y-120795195D01*
X115045082Y-120780316D01*
X115136092Y-120774802D01*
X115168098Y-120775559D01*
X115258462Y-120786920D01*
X115348914Y-120815530D01*
X115428890Y-120860971D01*
X115451989Y-120879948D01*
X115512576Y-120951801D01*
X115547919Y-121036878D01*
X115558143Y-121124753D01*
X115552991Y-121199159D01*
X115528468Y-121295284D01*
X115483748Y-121382027D01*
X115418833Y-121459387D01*
X115347117Y-121518228D01*
X115261991Y-121568420D01*
X115169334Y-121606285D01*
X115083919Y-121628928D01*
X114992971Y-121642513D01*
X114896489Y-121647042D01*
X114866649Y-121645503D01*
X114777221Y-121625404D01*
X114696015Y-121591648D01*
X114617759Y-121548563D01*
X114531898Y-121500959D01*
X114449139Y-121466337D01*
X114361451Y-121450085D01*
X114314209Y-121453197D01*
X114228854Y-121490425D01*
X114197466Y-121577579D01*
X113943538Y-121577579D01*
X113913900Y-121513392D01*
X113883675Y-121480007D01*
X113797836Y-121450085D01*
X113763105Y-121453162D01*
X112729958Y-121604397D01*
X112745742Y-121587516D01*
X112811730Y-121524823D01*
X112898912Y-121445975D01*
X112979603Y-121372484D01*
X113053802Y-121304347D01*
X113121509Y-121241566D01*
X113201688Y-121166189D01*
X113270327Y-121100333D01*
X113339896Y-121031401D01*
X113406999Y-120959889D01*
X113466710Y-120888842D01*
X113520549Y-120818637D01*
X113583197Y-120726341D01*
X113635404Y-120635542D01*
X113677170Y-120546241D01*
X113708494Y-120458437D01*
X113732966Y-120350788D01*
X113741123Y-120245479D01*
X113738437Y-120190861D01*
X113720811Y-120100073D01*
X113686733Y-120015386D01*
X113636205Y-119936799D01*
X113569225Y-119864314D01*
X113525598Y-119827116D01*
X113445581Y-119773955D01*
X113360894Y-119735982D01*
X113271536Y-119713199D01*
X113177508Y-119705605D01*
X113110759Y-119708309D01*
X113013185Y-119722510D01*
X112918672Y-119748881D01*
X112837229Y-119782541D01*
X112769542Y-119819991D01*
X112692840Y-119873333D01*
X112618578Y-119937067D01*
X112556868Y-119999967D01*
X112496950Y-120070503D01*
X112456352Y-120123837D01*
X112405605Y-120202291D01*
X112361793Y-120291478D01*
X112334559Y-120378139D01*
X112323733Y-120474090D01*
X112331733Y-120506063D01*
X112391437Y-120573448D01*
X112424025Y-120597299D01*
X112506622Y-120627963D01*
X112529263Y-120625841D01*
X112602243Y-120574898D01*
X112638513Y-120492115D01*
X112643294Y-120465950D01*
X112660893Y-120374263D01*
X112679839Y-120282408D01*
X112685013Y-120267478D01*
X112729496Y-120187939D01*
X112793467Y-120119417D01*
X112870202Y-120060831D01*
X112889180Y-120048480D01*
X112972329Y-120002761D01*
X113060394Y-119970888D01*
X113152009Y-119958836D01*
X113180620Y-119959928D01*
X113272643Y-119980953D01*
X113352044Y-120028738D01*
X113371622Y-120046811D01*
X113419587Y-120121211D01*
X113435575Y-120212946D01*
X113427579Y-120305999D01*
X113403590Y-120404634D01*
X113372884Y-120487561D01*
X113331943Y-120574060D01*
X113280766Y-120664130D01*
X113219354Y-120757773D01*
X113166579Y-120830349D01*
X113108046Y-120904935D01*
X113043982Y-120980058D01*
X112977748Y-121053532D01*
X112909343Y-121125358D01*
X112838768Y-121195535D01*
X112766022Y-121264063D01*
X112691105Y-121330943D01*
X112614017Y-121396174D01*
X112534759Y-121459757D01*
X112461621Y-121517129D01*
X112392756Y-121577579D01*
X112338961Y-121647688D01*
X112314061Y-121735849D01*
X111643495Y-121735849D01*
X111706098Y-121681169D01*
X111777937Y-121602048D01*
X111844968Y-121510755D01*
X111898137Y-121423858D01*
X111944216Y-121333746D01*
X111983206Y-121240419D01*
X112015108Y-121143877D01*
X112039920Y-121044121D01*
X112057643Y-120941150D01*
X112068276Y-120834964D01*
X112071821Y-120725563D01*
X112071630Y-120702706D01*
X112067055Y-120612474D01*
X112056380Y-120524152D01*
X112034459Y-120416434D01*
X112003006Y-120311701D01*
X111962021Y-120209951D01*
X111922372Y-120130699D01*
X111876622Y-120053357D01*
X111818858Y-119971853D01*
X111757453Y-119901216D01*
X111692407Y-119841446D01*
X111605980Y-119782015D01*
X111513865Y-119739565D01*
X111416060Y-119714095D01*
X111312568Y-119705605D01*
X111233464Y-119708143D01*
X111143582Y-119718141D01*
X111054061Y-119737698D01*
X111034293Y-119743430D01*
X110938388Y-119780851D01*
X110847378Y-119832869D01*
X110761263Y-119899484D01*
X110695894Y-119963287D01*
X110633658Y-120036431D01*
X110574554Y-120118918D01*
X110518583Y-120210748D01*
X110472833Y-120297885D01*
X110433183Y-120385421D01*
X110399634Y-120473355D01*
X110372184Y-120561688D01*
X110350834Y-120650419D01*
X110335584Y-120739549D01*
X110326434Y-120829077D01*
X110323384Y-120919003D01*
X109567279Y-120919003D01*
X109592628Y-120888842D01*
X109646466Y-120818637D01*
X109709115Y-120726341D01*
X109761322Y-120635542D01*
X109803087Y-120546241D01*
X109834411Y-120458437D01*
X109858883Y-120350788D01*
X109867041Y-120245479D01*
X109864355Y-120190861D01*
X109846728Y-120100073D01*
X109812651Y-120015386D01*
X109762122Y-119936799D01*
X109695143Y-119864314D01*
X109651515Y-119827116D01*
X109571498Y-119773955D01*
X109486811Y-119735982D01*
X109397454Y-119713199D01*
X109303426Y-119705605D01*
X109236677Y-119708309D01*
X109139103Y-119722510D01*
X109044590Y-119748881D01*
X108963147Y-119782541D01*
X108895460Y-119819991D01*
X108818758Y-119873333D01*
X108744496Y-119937067D01*
X108682785Y-119999967D01*
X108622868Y-120070503D01*
X108582270Y-120123837D01*
X108531523Y-120202291D01*
X108487711Y-120291478D01*
X108460477Y-120378139D01*
X108449651Y-120474090D01*
X108457651Y-120506063D01*
X108517355Y-120573448D01*
X108549943Y-120597299D01*
X108632540Y-120627963D01*
X108655181Y-120625841D01*
X108728161Y-120574898D01*
X108764431Y-120492115D01*
X108769212Y-120465950D01*
X108786811Y-120374263D01*
X108805757Y-120282408D01*
X108810931Y-120267478D01*
X108855414Y-120187939D01*
X108919384Y-120119417D01*
X108996120Y-120060831D01*
X109015098Y-120048480D01*
X109098247Y-120002761D01*
X109186312Y-119970888D01*
X109277927Y-119958836D01*
X109306538Y-119959928D01*
X109398561Y-119980953D01*
X109477962Y-120028738D01*
X109497539Y-120046811D01*
X109545505Y-120121211D01*
X109561493Y-120212946D01*
X109553497Y-120305999D01*
X109529508Y-120404634D01*
X109498802Y-120487561D01*
X109457860Y-120574060D01*
X109406684Y-120664130D01*
X109345272Y-120757773D01*
X109292496Y-120830349D01*
X109233963Y-120904935D01*
X109169900Y-120980058D01*
X109103666Y-121053532D01*
X109035261Y-121125358D01*
X108964685Y-121195535D01*
X108891939Y-121264063D01*
X108817022Y-121330943D01*
X108739935Y-121396174D01*
X108660676Y-121459757D01*
X108587539Y-121517129D01*
X108518674Y-121577579D01*
X108464878Y-121647688D01*
X108439979Y-121735849D01*
X107615485Y-121735849D01*
X107660502Y-121703755D01*
X107663164Y-121698814D01*
X107682484Y-121612750D01*
X107664397Y-121587815D01*
X107590218Y-121536385D01*
X107502865Y-121513008D01*
X107405073Y-121506358D01*
X107311212Y-121513228D01*
X107222831Y-121528615D01*
X107135806Y-121549292D01*
X107039734Y-121576700D01*
X106970575Y-121596965D01*
X106882804Y-121619565D01*
X106785474Y-121638730D01*
X106690223Y-121647042D01*
X106599239Y-121620829D01*
X106543100Y-121550744D01*
X106516566Y-121460636D01*
X106514402Y-121445537D01*
X106509362Y-121353389D01*
X106507776Y-121263937D01*
X106507334Y-121165200D01*
X106507358Y-121160714D01*
X106513489Y-121071997D01*
X106534152Y-121033748D01*
X106567124Y-121027154D01*
X106649531Y-121010873D01*
X106739483Y-120992172D01*
X106828709Y-120972639D01*
X106912032Y-120958612D01*
X107004426Y-120947703D01*
X107093370Y-120943623D01*
X107162393Y-120971320D01*
X107175699Y-120969678D01*
X107263070Y-120958570D01*
X107276749Y-120954728D01*
X107310551Y-120872401D01*
X107303596Y-120833897D01*
X107278897Y-120747984D01*
X107249441Y-120734486D01*
X107159783Y-120703046D01*
X107067871Y-120690392D01*
X107009679Y-120694599D01*
X106921147Y-120710756D01*
X106831786Y-120733476D01*
X106776469Y-120747969D01*
X106688302Y-120766751D01*
X106595701Y-120776121D01*
X106535910Y-120711055D01*
X106536453Y-120606716D01*
X106538081Y-120511322D01*
X106541642Y-120404656D01*
X106546899Y-120311965D01*
X106555447Y-120219183D01*
X106570642Y-120126777D01*
X106601856Y-120080175D01*
X106649337Y-120070503D01*
X106756670Y-120044331D01*
X106858192Y-120021649D01*
X106953902Y-120002456D01*
X107043801Y-119986752D01*
X107148002Y-119972031D01*
X107243123Y-119962761D01*
X107345282Y-119958836D01*
X107403314Y-119972904D01*
X107461786Y-119986972D01*
X107497953Y-119985083D01*
X107582192Y-119952851D01*
X107616099Y-119866072D01*
X107592468Y-119793202D01*
X107521577Y-119738138D01*
X107451722Y-119714786D01*
X107361109Y-119705605D01*
X107351088Y-119705662D01*
X107259671Y-119710265D01*
X107163272Y-119720332D01*
X107068455Y-119733449D01*
X106980845Y-119747544D01*
X106885422Y-119764516D01*
X106855087Y-119770329D01*
X106764082Y-119787624D01*
X106673077Y-119804703D01*
X106582072Y-119821566D01*
X106491067Y-119838212D01*
X106400062Y-119854642D01*
X106338736Y-119871243D01*
X106264805Y-119931990D01*
X106242672Y-120022583D01*
X106248827Y-120083692D01*
X106255422Y-120147000D01*
X106252344Y-120196679D01*
X106248511Y-120241175D01*
X106241587Y-120336000D01*
X106235652Y-120438600D01*
X106230706Y-120548976D01*
X106227646Y-120636862D01*
X106225142Y-120729121D01*
X106223194Y-120825754D01*
X106221803Y-120926762D01*
X106220969Y-121032143D01*
X106220690Y-121141899D01*
X105777687Y-121141899D01*
X105811112Y-121033501D01*
X105837696Y-120921233D01*
X105857191Y-120805900D01*
X105867160Y-120717390D01*
X105873142Y-120627156D01*
X105875136Y-120535200D01*
X105873694Y-120466075D01*
X105867289Y-120377612D01*
X105852075Y-120272984D01*
X105828855Y-120174967D01*
X105797627Y-120083562D01*
X105758393Y-119998769D01*
X105711151Y-119920587D01*
X105686483Y-119887740D01*
X105619104Y-119814893D01*
X105543567Y-119755290D01*
X105459873Y-119708933D01*
X105368021Y-119675821D01*
X105268012Y-119655953D01*
X105159846Y-119649331D01*
X105123389Y-119650263D01*
X105020344Y-119664251D01*
X104926788Y-119695024D01*
X104842723Y-119742582D01*
X104768148Y-119806925D01*
X104703063Y-119888054D01*
X104704052Y-119835916D01*
X104657341Y-119760559D01*
X104604502Y-119724978D01*
X104517096Y-119705605D01*
X104503165Y-119706147D01*
X104419497Y-119740336D01*
X104412190Y-119747037D01*
X104378611Y-119831341D01*
X104381688Y-119856840D01*
X104385205Y-119878822D01*
X104385078Y-119928269D01*
X104384299Y-120020522D01*
X104382811Y-120125075D01*
X104381111Y-120217574D01*
X104378957Y-120317946D01*
X104376350Y-120426189D01*
X104373290Y-120542305D01*
X104370697Y-120634558D01*
X104368994Y-120696552D01*
X104368959Y-120697866D01*
X104366644Y-120785853D01*
X104363897Y-120898032D01*
X104361589Y-121002340D01*
X104359720Y-121098775D01*
X104358291Y-121187337D01*
X104357124Y-121286971D01*
X104356629Y-121390294D01*
X103504124Y-121390294D01*
X103517705Y-121356394D01*
X103552371Y-121267596D01*
X103588583Y-121172674D01*
X103631023Y-121061145D01*
X103670967Y-120956379D01*
X103708413Y-120858376D01*
X103743363Y-120767136D01*
X103775815Y-120682659D01*
X103819812Y-120568623D01*
X103858190Y-120469804D01*
X103890951Y-120386201D01*
X103933066Y-120280677D01*
X103967990Y-120199757D01*
X103974094Y-120189302D01*
X104027512Y-120115023D01*
X104084494Y-120047203D01*
X104095117Y-120034937D01*
X104154290Y-119962748D01*
X104205833Y-119888054D01*
X104195555Y-119848925D01*
X104141207Y-119779464D01*
X104105443Y-119756975D01*
X104016789Y-119736819D01*
X103953119Y-119759874D01*
X103887961Y-119820048D01*
X103832137Y-119892672D01*
X103780704Y-119972904D01*
X103752568Y-120022846D01*
X103707731Y-120108237D01*
X103664243Y-120195795D01*
X103624438Y-120278890D01*
X103581391Y-120371195D01*
X103544619Y-120451669D01*
X103536059Y-120470336D01*
X103496103Y-120556563D01*
X103454418Y-120644395D01*
X103409465Y-120734960D01*
X103364808Y-120813930D01*
X103331762Y-120794009D01*
X103269142Y-120726991D01*
X103217649Y-120647170D01*
X103171569Y-120559462D01*
X103131800Y-120472771D01*
X103109879Y-120421254D01*
X103072507Y-120326148D01*
X103043759Y-120241614D01*
X103021120Y-120156353D01*
X103009141Y-120059512D01*
X103017055Y-119989170D01*
X103024968Y-119921466D01*
X103022014Y-119870874D01*
X102993768Y-119781704D01*
X102927308Y-119722680D01*
X102835924Y-119705605D01*
X102742562Y-119727112D01*
X102684911Y-119799631D01*
X102671939Y-119887614D01*
X102244225Y-119887614D01*
X102226761Y-119864798D01*
X102161960Y-119804523D01*
X102120710Y-119774744D01*
X102043067Y-119732186D01*
X101958482Y-119701787D01*
X101866955Y-119683548D01*
X101768485Y-119677468D01*
X101718484Y-119679539D01*
X101623141Y-119696108D01*
X101534011Y-119729245D01*
X101451095Y-119778952D01*
X101374392Y-119845227D01*
X101315219Y-119913113D01*
X101294616Y-119940106D01*
X101240783Y-120023847D01*
X101198913Y-120111730D01*
X101169006Y-120203755D01*
X101151061Y-120299922D01*
X101145080Y-120400231D01*
X101147099Y-120453750D01*
X101160353Y-120543673D01*
X101185976Y-120628841D01*
X101223970Y-120709254D01*
X101274333Y-120784914D01*
X101300553Y-120816918D01*
X101363916Y-120882369D01*
X101431305Y-120941216D01*
X101509843Y-121001536D01*
X101586036Y-121054411D01*
X101669539Y-121107168D01*
X101752988Y-121159924D01*
X101836382Y-121212681D01*
X101919720Y-121265437D01*
X101988746Y-121316929D01*
X102065728Y-121382923D01*
X102125629Y-121449638D01*
X102159323Y-121532297D01*
X102157081Y-121552803D01*
X102095575Y-121618356D01*
X102003689Y-121641551D01*
X101904333Y-121647042D01*
X101886563Y-121646987D01*
X101787212Y-121644328D01*
X101687048Y-121636187D01*
X101593336Y-121620236D01*
X101507341Y-121590329D01*
X101445987Y-121542057D01*
X101375010Y-121487454D01*
X101304202Y-121442644D01*
X101217180Y-121425025D01*
X101199844Y-121425991D01*
X101119581Y-121464593D01*
X101109998Y-121474725D01*
X101078695Y-121559115D01*
X100878695Y-121559115D01*
X100878695Y-119449331D01*
X116063691Y-119449331D01*
X116063691Y-122156547D01*
G37*
G36*
X111813473Y-146053443D02*
G01*
X111899512Y-146075210D01*
X111918785Y-146084237D01*
X111990516Y-146137639D01*
X112006535Y-146155815D01*
X112052066Y-146231721D01*
X112061145Y-146255502D01*
X112075366Y-146345587D01*
X112074251Y-146371580D01*
X112052066Y-146458574D01*
X112042802Y-146477909D01*
X111990516Y-146551337D01*
X111975663Y-146565722D01*
X111899512Y-146613766D01*
X111876286Y-146622502D01*
X111787844Y-146636187D01*
X111761487Y-146635114D01*
X111673538Y-146613766D01*
X111654264Y-146604739D01*
X111582533Y-146551337D01*
X111566728Y-146533161D01*
X111522303Y-146457255D01*
X111512686Y-146429695D01*
X111500321Y-146340751D01*
X111501373Y-146314671D01*
X111522303Y-146229083D01*
X111531252Y-146210196D01*
X111582533Y-146137639D01*
X111597386Y-146123254D01*
X111673538Y-146075210D01*
X111700631Y-146065209D01*
X111787844Y-146052349D01*
X111813473Y-146053443D01*
G37*
G36*
X110164454Y-142943999D02*
G01*
X110252412Y-142959436D01*
X110331326Y-143005928D01*
X110335731Y-143009814D01*
X110393474Y-143082615D01*
X110425848Y-143169033D01*
X109898284Y-143169033D01*
X109899432Y-143162376D01*
X109928399Y-143073852D01*
X109983573Y-143002850D01*
X109987843Y-142999226D01*
X110066552Y-142956883D01*
X110158109Y-142943939D01*
X110164454Y-142943999D01*
G37*
G36*
X115311940Y-147237136D02*
G01*
X107812680Y-147237136D01*
X107812680Y-145517750D01*
X108783803Y-145517750D01*
X109202777Y-145517750D01*
X109202777Y-147009000D01*
X109684180Y-147009000D01*
X110278570Y-147009000D01*
X110728758Y-147009000D01*
X110728758Y-146340311D01*
X111018918Y-146340311D01*
X111018920Y-146340751D01*
X111018966Y-146349686D01*
X111024685Y-146440928D01*
X111039935Y-146527619D01*
X111067718Y-146617722D01*
X111101996Y-146693955D01*
X111148429Y-146770471D01*
X111204006Y-146839300D01*
X111249810Y-146883703D01*
X111325421Y-146940416D01*
X111409316Y-146985259D01*
X111484913Y-147012616D01*
X111573227Y-147031006D01*
X111666944Y-147037136D01*
X111741918Y-147032338D01*
X111838443Y-147009501D01*
X111925123Y-146967856D01*
X112001957Y-146907404D01*
X112059979Y-146840618D01*
X112059979Y-146980863D01*
X112510168Y-146980863D01*
X112510168Y-145714708D01*
X112840775Y-145714708D01*
X112840775Y-147009000D01*
X113290963Y-147009000D01*
X113290963Y-146317890D01*
X113291925Y-146286614D01*
X113308334Y-146197776D01*
X113352512Y-146119614D01*
X113360417Y-146111202D01*
X113438865Y-146063447D01*
X113529686Y-146050151D01*
X113610140Y-146062900D01*
X113678283Y-146105545D01*
X113690715Y-146119734D01*
X113727083Y-146200507D01*
X113737181Y-146264166D01*
X113741151Y-146355699D01*
X113741151Y-147009000D01*
X114191340Y-147009000D01*
X114191340Y-146185999D01*
X114186993Y-146094164D01*
X114171556Y-146002230D01*
X114145281Y-145929774D01*
X114096818Y-145855831D01*
X114079439Y-145836185D01*
X114011470Y-145776511D01*
X113932394Y-145730974D01*
X113881835Y-145711548D01*
X113789364Y-145691818D01*
X113701145Y-145686571D01*
X113662086Y-145687526D01*
X113567867Y-145698951D01*
X113478248Y-145725699D01*
X113425041Y-145753620D01*
X113354747Y-145809241D01*
X113290963Y-145878692D01*
X113290963Y-145714708D01*
X112840775Y-145714708D01*
X112510168Y-145714708D01*
X112510168Y-145686571D01*
X112059979Y-145686571D01*
X112059979Y-145819781D01*
X112019237Y-145780317D01*
X111941757Y-145723916D01*
X111856408Y-145683629D01*
X111763192Y-145659457D01*
X111662108Y-145651400D01*
X111575253Y-145656724D01*
X111485367Y-145674878D01*
X111401403Y-145705915D01*
X111344744Y-145735673D01*
X111267382Y-145789687D01*
X111199170Y-145854952D01*
X111149745Y-145916845D01*
X111103708Y-145992067D01*
X111066399Y-146074771D01*
X111041361Y-146154730D01*
X111024529Y-146245858D01*
X111018918Y-146340311D01*
X110728758Y-146340311D01*
X110728758Y-145714708D01*
X110278570Y-145714708D01*
X110278570Y-147009000D01*
X109684180Y-147009000D01*
X109684180Y-145517750D01*
X110078095Y-145517750D01*
X110078095Y-145208246D01*
X110250433Y-145208246D01*
X110250607Y-145217923D01*
X110270216Y-145306285D01*
X110274057Y-145314840D01*
X110324731Y-145387178D01*
X110331340Y-145393484D01*
X110405185Y-145441693D01*
X110416822Y-145446330D01*
X110503664Y-145461477D01*
X110513415Y-145461303D01*
X110601703Y-145441693D01*
X110607427Y-145439110D01*
X110682156Y-145387178D01*
X110688537Y-145380566D01*
X110736671Y-145306285D01*
X110740286Y-145297579D01*
X110756895Y-145208246D01*
X110756717Y-145198494D01*
X110736671Y-145110207D01*
X110732831Y-145101652D01*
X110682156Y-145029314D01*
X110675622Y-145022933D01*
X110601703Y-144974799D01*
X110593072Y-144971263D01*
X110503664Y-144955015D01*
X110493908Y-144955189D01*
X110405185Y-144974799D01*
X110396709Y-144978639D01*
X110324731Y-145029314D01*
X110318351Y-145035926D01*
X110270216Y-145110207D01*
X110266681Y-145118838D01*
X110250433Y-145208246D01*
X110078095Y-145208246D01*
X110078095Y-145095699D01*
X108783803Y-145095699D01*
X108783803Y-145517750D01*
X107812680Y-145517750D01*
X107812680Y-143762543D01*
X108012680Y-143762543D01*
X108024632Y-143779692D01*
X108087678Y-143857268D01*
X108156197Y-143921234D01*
X108230191Y-143971591D01*
X108326208Y-144014053D01*
X108412245Y-144034468D01*
X108503755Y-144041273D01*
X108516193Y-144041168D01*
X108607184Y-144033704D01*
X108694118Y-144014455D01*
X108781056Y-143982911D01*
X108859861Y-143941036D01*
X108926090Y-143892491D01*
X108990873Y-143826730D01*
X109038316Y-143760263D01*
X109079240Y-143677693D01*
X109090531Y-143644119D01*
X109107816Y-143556353D01*
X109113827Y-143491594D01*
X109116609Y-143401161D01*
X109116609Y-143344009D01*
X109435346Y-143344009D01*
X109435397Y-143353871D01*
X109441580Y-143449234D01*
X109458066Y-143538673D01*
X109488102Y-143630212D01*
X109525411Y-143706419D01*
X109576468Y-143782213D01*
X109638019Y-143849591D01*
X109709388Y-143907774D01*
X109789900Y-143955983D01*
X109871026Y-143991154D01*
X109896816Y-144000111D01*
X109986186Y-144023604D01*
X110080794Y-144037309D01*
X110170419Y-144041273D01*
X110203440Y-144040830D01*
X110297797Y-144034191D01*
X110412632Y-144012944D01*
X110514923Y-143977533D01*
X110604671Y-143927957D01*
X110681875Y-143864216D01*
X110746536Y-143786311D01*
X110798654Y-143694241D01*
X110838228Y-143588007D01*
X110392436Y-143588007D01*
X110343564Y-143643900D01*
X110260225Y-143689969D01*
X110165583Y-143703632D01*
X110099947Y-143699235D01*
X110006141Y-143670384D01*
X109931753Y-143604439D01*
X109895380Y-143517885D01*
X109885534Y-143422264D01*
X110856253Y-143422264D01*
X110856253Y-143373025D01*
X110855832Y-143341017D01*
X110849514Y-143248655D01*
X110833603Y-143152476D01*
X110808333Y-143063080D01*
X110774175Y-142981009D01*
X110726882Y-142900450D01*
X110669407Y-142830073D01*
X110608854Y-142774869D01*
X110533122Y-142724360D01*
X110461018Y-142690708D01*
X111121794Y-142690708D01*
X111121794Y-143985000D01*
X111571982Y-143985000D01*
X111571982Y-143428419D01*
X111572297Y-143406008D01*
X111581489Y-143313573D01*
X111606631Y-143227020D01*
X111652436Y-143151448D01*
X111717203Y-143097382D01*
X111800879Y-143065759D01*
X111893357Y-143056486D01*
X111919935Y-143057200D01*
X112009169Y-143070953D01*
X112092513Y-143102208D01*
X112092513Y-142690708D01*
X112294746Y-142690708D01*
X112294746Y-143985000D01*
X112744934Y-143985000D01*
X112744934Y-143428419D01*
X112745248Y-143406008D01*
X112754441Y-143313573D01*
X112779583Y-143227020D01*
X112825388Y-143151448D01*
X112890154Y-143097382D01*
X112973831Y-143065759D01*
X113066309Y-143056486D01*
X113092886Y-143057200D01*
X113182121Y-143070953D01*
X113265465Y-143102208D01*
X113265465Y-142690708D01*
X113378012Y-142690708D01*
X114003176Y-143809584D01*
X113561780Y-144632145D01*
X114073518Y-144632145D01*
X115111940Y-142690708D01*
X114587453Y-142690708D01*
X114252450Y-143354560D01*
X113907335Y-142690708D01*
X113378012Y-142690708D01*
X113265465Y-142690708D01*
X113265465Y-142662131D01*
X113215786Y-142655537D01*
X113176218Y-142655537D01*
X113098664Y-142660579D01*
X113011526Y-142680438D01*
X112926065Y-142719284D01*
X112862283Y-142764261D01*
X112799660Y-142826232D01*
X112744934Y-142901294D01*
X112744934Y-142690708D01*
X112294746Y-142690708D01*
X112092513Y-142690708D01*
X112092513Y-142662131D01*
X112042834Y-142655537D01*
X112003266Y-142655537D01*
X111925712Y-142660579D01*
X111838574Y-142680438D01*
X111753113Y-142719284D01*
X111689331Y-142764261D01*
X111626709Y-142826232D01*
X111571982Y-142901294D01*
X111571982Y-142690708D01*
X111121794Y-142690708D01*
X110461018Y-142690708D01*
X110447830Y-142684553D01*
X110422980Y-142675596D01*
X110336014Y-142652103D01*
X110242694Y-142638399D01*
X110153273Y-142634434D01*
X110122412Y-142634871D01*
X110033397Y-142641420D01*
X109940772Y-142657915D01*
X109854760Y-142684113D01*
X109775874Y-142719327D01*
X109697926Y-142767683D01*
X109629226Y-142826116D01*
X109575138Y-142887408D01*
X109525262Y-142963754D01*
X109485465Y-143049452D01*
X109476508Y-143074302D01*
X109453015Y-143161268D01*
X109451875Y-143169033D01*
X109439310Y-143254588D01*
X109435346Y-143344009D01*
X109116609Y-143344009D01*
X109116609Y-142071699D01*
X108635206Y-142071699D01*
X108635206Y-143397644D01*
X108635071Y-143411276D01*
X108624252Y-143504754D01*
X108581110Y-143588062D01*
X108496721Y-143619221D01*
X108466331Y-143616034D01*
X108390328Y-143568224D01*
X108358821Y-143516784D01*
X108335374Y-143430617D01*
X108012680Y-143762543D01*
X107812680Y-143762543D01*
X107812680Y-141871699D01*
X115311940Y-141871699D01*
X115311940Y-147237136D01*
G37*
D12*
X113542533Y-124761904D02*
X113542533Y-123238095D01*
X113492533Y-137561904D02*
X113492533Y-136038095D01*
X114254438Y-136799999D02*
X112730628Y-136799999D01*
D13*
%TO.C,R10*%
X108772936Y-112115000D02*
X109227064Y-112115000D01*
X108772936Y-113585000D02*
X109227064Y-113585000D01*
%TO.C,C11*%
X134088748Y-126015000D02*
X134611252Y-126015000D01*
X134088748Y-127485000D02*
X134611252Y-127485000D01*
%TO.C,C17*%
X120411252Y-137915000D02*
X119888748Y-137915000D01*
X120411252Y-139385000D02*
X119888748Y-139385000D01*
%TO.C,C4*%
X139415000Y-111138748D02*
X139415000Y-111661252D01*
X140885000Y-111138748D02*
X140885000Y-111661252D01*
%TO.C,R14*%
X140415000Y-135672936D02*
X140415000Y-136127064D01*
X141885000Y-135672936D02*
X141885000Y-136127064D01*
%TO.C,C15*%
X136415000Y-136161252D02*
X136415000Y-135638748D01*
X137885000Y-136161252D02*
X137885000Y-135638748D01*
%TO.C,D1*%
X137112500Y-104890000D02*
X137112500Y-106510000D01*
X137112500Y-104890000D02*
X140352500Y-104890000D01*
X137112500Y-106510000D02*
X140352500Y-106510000D01*
%TO.C,C18*%
X132538748Y-139265000D02*
X133061252Y-139265000D01*
X132538748Y-140735000D02*
X133061252Y-140735000D01*
%TO.C,R11*%
X111215000Y-111722936D02*
X111215000Y-112177064D01*
X112685000Y-111722936D02*
X112685000Y-112177064D01*
%TO.C,C9*%
X124490000Y-134618748D02*
X124490000Y-135141252D01*
X125960000Y-134618748D02*
X125960000Y-135141252D01*
%TO.C,R19*%
X128760436Y-137765000D02*
X129214564Y-137765000D01*
X128760436Y-139235000D02*
X129214564Y-139235000D01*
%TO.C,C6*%
X115690000Y-143954437D02*
X115690000Y-148410000D01*
X115690000Y-148410000D02*
X117390000Y-148410000D01*
X116754437Y-142890000D02*
X115690000Y-143954437D01*
X116754437Y-142890000D02*
X117390000Y-142890000D01*
X120135000Y-142025000D02*
X120135000Y-142650000D01*
X120145563Y-142890000D02*
X119510000Y-142890000D01*
X120145563Y-142890000D02*
X121210000Y-143954437D01*
X120447500Y-142337500D02*
X119822500Y-142337500D01*
X121210000Y-143954437D02*
X121210000Y-148410000D01*
X121210000Y-148410000D02*
X119510000Y-148410000D01*
%TO.C,R3*%
X109465000Y-103877064D02*
X109465000Y-103422936D01*
X110935000Y-103877064D02*
X110935000Y-103422936D01*
%TO.C,D2*%
X115950000Y-135232500D02*
X115950000Y-128732500D01*
X115950000Y-135232500D02*
X119250000Y-135232500D01*
X119250000Y-135232500D02*
X119250000Y-128732500D01*
%TO.C,C2*%
X139315000Y-103011252D02*
X139315000Y-102488748D01*
X140785000Y-103011252D02*
X140785000Y-102488748D01*
%TO.C,C8*%
X122390000Y-134618748D02*
X122390000Y-135141252D01*
X123860000Y-134618748D02*
X123860000Y-135141252D01*
%TO.C,R9*%
X108772936Y-114165000D02*
X109227064Y-114165000D01*
X108772936Y-115635000D02*
X109227064Y-115635000D01*
D14*
%TO.C,U1*%
X119770000Y-123008000D02*
X133740000Y-123008000D01*
D15*
X122260000Y-102053000D02*
X122263728Y-101042728D01*
X122763728Y-100543000D02*
X130759000Y-100543000D01*
X131259000Y-101043000D02*
X131259000Y-102053000D01*
D14*
X133740000Y-102053000D02*
X117950000Y-102053000D01*
D15*
X122263728Y-101042728D02*
G75*
G02*
X122763728Y-100543001I500018J-291D01*
G01*
X130759000Y-100543000D02*
G75*
G02*
X131259000Y-101043000I0J-500000D01*
G01*
D13*
%TO.C,C1*%
X137265000Y-103011252D02*
X137265000Y-102488748D01*
X138735000Y-103011252D02*
X138735000Y-102488748D01*
%TO.C,D4*%
X146090000Y-117240000D02*
X146090000Y-120100000D01*
X148010000Y-117240000D02*
X146090000Y-117240000D01*
X148010000Y-120100000D02*
X148010000Y-117240000D01*
%TO.C,R12*%
X106672936Y-138615000D02*
X107127064Y-138615000D01*
X106672936Y-140085000D02*
X107127064Y-140085000D01*
%TO.C,J4*%
X144555000Y-121555000D02*
X145825000Y-121555000D01*
X144555000Y-122825000D02*
X144555000Y-121555000D01*
X146867929Y-124985000D02*
X147265000Y-124985000D01*
X146867929Y-125745000D02*
X147265000Y-125745000D01*
X146867929Y-127525000D02*
X147265000Y-127525000D01*
X146867929Y-128285000D02*
X147265000Y-128285000D01*
X146935000Y-122445000D02*
X147265000Y-122445000D01*
X146935000Y-123205000D02*
X147265000Y-123205000D01*
X147265000Y-121495000D02*
X147265000Y-129235000D01*
X147265000Y-124095000D02*
X149925000Y-124095000D01*
X147265000Y-126635000D02*
X149925000Y-126635000D01*
X147265000Y-129235000D02*
X149925000Y-129235000D01*
X149925000Y-121495000D02*
X147265000Y-121495000D01*
X149925000Y-122445000D02*
X155925000Y-122445000D01*
X149925000Y-122505000D02*
X155925000Y-122505000D01*
X149925000Y-122625000D02*
X155925000Y-122625000D01*
X149925000Y-122745000D02*
X155925000Y-122745000D01*
X149925000Y-122865000D02*
X155925000Y-122865000D01*
X149925000Y-122985000D02*
X155925000Y-122985000D01*
X149925000Y-123105000D02*
X155925000Y-123105000D01*
X149925000Y-124985000D02*
X155925000Y-124985000D01*
X149925000Y-127525000D02*
X155925000Y-127525000D01*
X149925000Y-129235000D02*
X149925000Y-121495000D01*
X155925000Y-122445000D02*
X155925000Y-123205000D01*
X155925000Y-123205000D02*
X149925000Y-123205000D01*
X155925000Y-124985000D02*
X155925000Y-125745000D01*
X155925000Y-125745000D02*
X149925000Y-125745000D01*
X155925000Y-127525000D02*
X155925000Y-128285000D01*
X155925000Y-128285000D02*
X149925000Y-128285000D01*
%TO.C,D5*%
X139990000Y-145940000D02*
X139990000Y-148800000D01*
X141910000Y-145940000D02*
X139990000Y-145940000D01*
X141910000Y-148800000D02*
X141910000Y-145940000D01*
%TO.C,D6*%
X134950000Y-138750000D02*
X134950000Y-140950000D01*
X134950000Y-138750000D02*
X138850000Y-138750000D01*
X134950000Y-140950000D02*
X138850000Y-140950000D01*
%TO.C,R8*%
X111215000Y-107872936D02*
X111215000Y-108327064D01*
X112685000Y-107872936D02*
X112685000Y-108327064D01*
%TO.C,C16*%
X120411252Y-139965000D02*
X119888748Y-139965000D01*
X120411252Y-141435000D02*
X119888748Y-141435000D01*
%TO.C,U4*%
X122290000Y-142200000D02*
X122290000Y-145960000D01*
X122290000Y-145960000D02*
X123550000Y-145960000D01*
X129110000Y-140300000D02*
X129110000Y-145960000D01*
X129110000Y-145960000D02*
X127850000Y-145960000D01*
%TO.C,J1*%
X100265000Y-125340000D02*
X102365000Y-125340000D01*
X100265000Y-135460000D02*
X100265000Y-125340000D01*
X100265000Y-135460000D02*
X102365000Y-135460000D01*
X102365000Y-125340000D02*
X102365000Y-124750000D01*
X102365000Y-136050000D02*
X102365000Y-135460000D01*
X104585000Y-125340000D02*
X104585000Y-124750000D01*
X104585000Y-125340000D02*
X109485000Y-125340000D01*
X104585000Y-135460000D02*
X109485000Y-135460000D01*
X104585000Y-136050000D02*
X104585000Y-135460000D01*
X109485000Y-135460000D02*
X109485000Y-125340000D01*
X102365000Y-124750000D02*
G75*
G02*
X104585000Y-124750000I1110000J0D01*
G01*
X104585000Y-136050000D02*
G75*
G02*
X102365000Y-136050000I-1110000J0D01*
G01*
%TO.C,R16*%
X144265000Y-118872936D02*
X144265000Y-119327064D01*
X145735000Y-118872936D02*
X145735000Y-119327064D01*
%TO.C,R18*%
X124972936Y-137765000D02*
X125427064Y-137765000D01*
X124972936Y-139235000D02*
X125427064Y-139235000D01*
%TO.C,R4*%
X124377064Y-124115000D02*
X123922936Y-124115000D01*
X124377064Y-125585000D02*
X123922936Y-125585000D01*
%TO.C,C14*%
X134088748Y-132165000D02*
X134611252Y-132165000D01*
X134088748Y-133635000D02*
X134611252Y-133635000D01*
%TO.C,R21*%
X145327064Y-140315000D02*
X144872936Y-140315000D01*
X145327064Y-141785000D02*
X144872936Y-141785000D01*
%TO.C,Q1*%
X110650000Y-138540000D02*
X109850000Y-138540000D01*
X110650000Y-138540000D02*
X111450000Y-138540000D01*
X110650000Y-141660000D02*
X109850000Y-141660000D01*
X110650000Y-141660000D02*
X112050000Y-141660000D01*
%TO.C,R20*%
X140215000Y-144177064D02*
X140215000Y-143722936D01*
X141685000Y-144177064D02*
X141685000Y-143722936D01*
%TO.C,U3*%
X128615000Y-134150000D02*
X128615000Y-135950000D01*
X131835000Y-135150000D02*
X131835000Y-133050000D01*
X131835000Y-135150000D02*
X131835000Y-135950000D01*
%TO.C,C13*%
X134088748Y-130115000D02*
X134611252Y-130115000D01*
X134088748Y-131585000D02*
X134611252Y-131585000D01*
%TO.C,C3*%
X137365000Y-111138748D02*
X137365000Y-111661252D01*
X138835000Y-111138748D02*
X138835000Y-111661252D01*
%TO.C,Q2*%
X141250000Y-138690000D02*
X140450000Y-138690000D01*
X141250000Y-138690000D02*
X142050000Y-138690000D01*
X141250000Y-141810000D02*
X140450000Y-141810000D01*
X141250000Y-141810000D02*
X142650000Y-141810000D01*
%TO.C,R15*%
X138415000Y-136127064D02*
X138415000Y-135672936D01*
X139885000Y-136127064D02*
X139885000Y-135672936D01*
%TO.C,R17*%
X134415000Y-135722936D02*
X134415000Y-136177064D01*
X135885000Y-135722936D02*
X135885000Y-136177064D01*
%TO.C,C12*%
X134088748Y-128065000D02*
X134611252Y-128065000D01*
X134088748Y-129535000D02*
X134611252Y-129535000D01*
%TO.C,R13*%
X116465000Y-140027064D02*
X116465000Y-139572936D01*
X117935000Y-140027064D02*
X117935000Y-139572936D01*
%TO.C,FL1*%
X124300000Y-127800000D02*
X121300000Y-127800000D01*
X124300000Y-132800000D02*
X121300000Y-132800000D01*
%TO.C,C7*%
X132390000Y-136181252D02*
X132390000Y-135658748D01*
X133860000Y-136181252D02*
X133860000Y-135658748D01*
%TO.C,R7*%
X108772936Y-108115000D02*
X109227064Y-108115000D01*
X108772936Y-109585000D02*
X109227064Y-109585000D01*
%TO.C,J2*%
X100740000Y-109860000D02*
X100740000Y-117040000D01*
X103560000Y-108590000D02*
X105010000Y-108590000D01*
X103560000Y-118310000D02*
X105010000Y-118310000D01*
X105010000Y-108590000D02*
X105010000Y-110390000D01*
X105010000Y-110390000D02*
X106000000Y-110390000D01*
X105010000Y-118310000D02*
X105010000Y-116510000D01*
%TO.C,L1*%
X126850000Y-131650000D02*
X126850000Y-126550000D01*
X131950000Y-131650000D02*
X131950000Y-126550000D01*
%TO.C,R1*%
X111465000Y-103422936D02*
X111465000Y-103877064D01*
X112935000Y-103422936D02*
X112935000Y-103877064D01*
%TO.C,J3*%
X130700000Y-148600000D02*
X130700000Y-149600000D01*
X130700000Y-149600000D02*
X131700000Y-149600000D01*
X131200000Y-141350000D02*
X131200000Y-149100000D01*
X131200000Y-141350000D02*
X139200000Y-141350000D01*
X131200000Y-149100000D02*
X139200000Y-149100000D01*
X139200000Y-141350000D02*
X139200000Y-149100000D01*
%TO.C,R2*%
X113465000Y-103422936D02*
X113465000Y-103877064D01*
X114935000Y-103422936D02*
X114935000Y-103877064D01*
%TO.C,D3*%
X101850000Y-140310000D02*
X104710000Y-140310000D01*
X104710000Y-138390000D02*
X101850000Y-138390000D01*
X104710000Y-140310000D02*
X104710000Y-138390000D01*
%TO.C,R6*%
X108772936Y-110115000D02*
X109227064Y-110115000D01*
X108772936Y-111585000D02*
X109227064Y-111585000D01*
%TO.C,R5*%
X124377064Y-126115000D02*
X123922936Y-126115000D01*
X124377064Y-127585000D02*
X123922936Y-127585000D01*
%TO.C,C10*%
X126590000Y-134618748D02*
X126590000Y-135141252D01*
X128060000Y-134618748D02*
X128060000Y-135141252D01*
%TO.C,U2*%
X117950000Y-123390000D02*
X116550000Y-123390000D01*
X117950000Y-123390000D02*
X118750000Y-123390000D01*
X117950000Y-126510000D02*
X117150000Y-126510000D01*
X117950000Y-126510000D02*
X118750000Y-126510000D01*
%TO.C,C5*%
X120515000Y-125588748D02*
X120515000Y-126111252D01*
X121985000Y-125588748D02*
X121985000Y-126111252D01*
%TO.C,J5*%
X144555000Y-130955000D02*
X145825000Y-130955000D01*
X144555000Y-132225000D02*
X144555000Y-130955000D01*
X146867929Y-134385000D02*
X147265000Y-134385000D01*
X146867929Y-135145000D02*
X147265000Y-135145000D01*
X146867929Y-136925000D02*
X147265000Y-136925000D01*
X146867929Y-137685000D02*
X147265000Y-137685000D01*
X146935000Y-131845000D02*
X147265000Y-131845000D01*
X146935000Y-132605000D02*
X147265000Y-132605000D01*
X147265000Y-130895000D02*
X147265000Y-138635000D01*
X147265000Y-133495000D02*
X149925000Y-133495000D01*
X147265000Y-136035000D02*
X149925000Y-136035000D01*
X147265000Y-138635000D02*
X149925000Y-138635000D01*
X149925000Y-130895000D02*
X147265000Y-130895000D01*
X149925000Y-131845000D02*
X155925000Y-131845000D01*
X149925000Y-131905000D02*
X155925000Y-131905000D01*
X149925000Y-132025000D02*
X155925000Y-132025000D01*
X149925000Y-132145000D02*
X155925000Y-132145000D01*
X149925000Y-132265000D02*
X155925000Y-132265000D01*
X149925000Y-132385000D02*
X155925000Y-132385000D01*
X149925000Y-132505000D02*
X155925000Y-132505000D01*
X149925000Y-134385000D02*
X155925000Y-134385000D01*
X149925000Y-136925000D02*
X155925000Y-136925000D01*
X149925000Y-138635000D02*
X149925000Y-130895000D01*
X155925000Y-131845000D02*
X155925000Y-132605000D01*
X155925000Y-132605000D02*
X149925000Y-132605000D01*
X155925000Y-134385000D02*
X155925000Y-135145000D01*
X155925000Y-135145000D02*
X149925000Y-135145000D01*
X155925000Y-136925000D02*
X155925000Y-137685000D01*
X155925000Y-137685000D02*
X149925000Y-137685000D01*
%TD*%
%LPC*%
D16*
%TO.C,R10*%
X108000000Y-112850000D03*
X110000000Y-112850000D03*
%TD*%
D17*
%TO.C,C11*%
X133312500Y-126750000D03*
X135387500Y-126750000D03*
%TD*%
D18*
%TO.C,C17*%
X121187500Y-138650000D03*
X119112500Y-138650000D03*
%TD*%
D19*
%TO.C,C4*%
X140150000Y-110362500D03*
X140150000Y-112437500D03*
%TD*%
D20*
%TO.C,R14*%
X141150000Y-134900000D03*
X141150000Y-136900000D03*
%TD*%
D21*
%TO.C,C15*%
X137150000Y-136937500D03*
X137150000Y-134862500D03*
%TD*%
D22*
%TO.C,D1*%
X138372500Y-105700000D03*
D23*
X140272500Y-105700000D03*
%TD*%
D17*
%TO.C,C18*%
X131762500Y-140000000D03*
X133837500Y-140000000D03*
%TD*%
D20*
%TO.C,R11*%
X111950000Y-110950000D03*
X111950000Y-112950000D03*
%TD*%
D19*
%TO.C,C9*%
X125225000Y-133842500D03*
X125225000Y-135917500D03*
%TD*%
D16*
%TO.C,R19*%
X127987500Y-138500000D03*
X129987500Y-138500000D03*
%TD*%
D24*
%TO.C,C6*%
X118450000Y-143450000D03*
X118450000Y-147850000D03*
%TD*%
D25*
%TO.C,R3*%
X110200000Y-104650000D03*
X110200000Y-102650000D03*
%TD*%
D26*
%TO.C,D2*%
X117600000Y-133482500D03*
X117600000Y-128982500D03*
%TD*%
D21*
%TO.C,C2*%
X140050000Y-103787500D03*
X140050000Y-101712500D03*
%TD*%
D19*
%TO.C,C8*%
X123125000Y-133842500D03*
X123125000Y-135917500D03*
%TD*%
D16*
%TO.C,R9*%
X108000000Y-114900000D03*
X110000000Y-114900000D03*
%TD*%
D27*
%TO.C,U1*%
X118450000Y-104970000D03*
X118450000Y-107510000D03*
X118450000Y-110050000D03*
X118450000Y-112590000D03*
X118450000Y-115130000D03*
X118450000Y-117670000D03*
X118450000Y-120210000D03*
X135115000Y-120210000D03*
X135115000Y-117670000D03*
X135115000Y-115130000D03*
X135115000Y-112590000D03*
X135115000Y-110050000D03*
X135115000Y-107510000D03*
X135115000Y-104970000D03*
D28*
X122310000Y-112208000D03*
X122310000Y-110303000D03*
D29*
X125485000Y-103958000D03*
X128025000Y-103958000D03*
X125485000Y-106498000D03*
X128025000Y-106498000D03*
X125485000Y-109038000D03*
X128025000Y-109038000D03*
%TD*%
D21*
%TO.C,C1*%
X138000000Y-103787500D03*
X138000000Y-101712500D03*
%TD*%
D30*
%TO.C,H3*%
X146000000Y-104000000D03*
%TD*%
D31*
%TO.C,D4*%
X147050000Y-118075000D03*
X147050000Y-120125000D03*
%TD*%
D16*
%TO.C,R12*%
X105900000Y-139350000D03*
X107900000Y-139350000D03*
%TD*%
D32*
%TO.C,J4*%
X145825000Y-122825000D03*
D33*
X145825000Y-125365000D03*
X145825000Y-127905000D03*
%TD*%
D31*
%TO.C,D5*%
X140950000Y-146775000D03*
X140950000Y-148825000D03*
%TD*%
D34*
%TO.C,D6*%
X135850000Y-139850000D03*
X138550000Y-139850000D03*
%TD*%
D20*
%TO.C,R8*%
X111950000Y-107100000D03*
X111950000Y-109100000D03*
%TD*%
D18*
%TO.C,C16*%
X121187500Y-140700000D03*
X119112500Y-140700000D03*
%TD*%
D35*
%TO.C,U4*%
X128000000Y-140900000D03*
X125700000Y-140900000D03*
D36*
X125700000Y-147200000D03*
D35*
X123400000Y-140900000D03*
%TD*%
D37*
%TO.C,J1*%
X103475000Y-135900000D03*
X103475000Y-124900000D03*
D38*
X113475000Y-127900000D03*
D39*
X113475000Y-132900000D03*
%TD*%
D20*
%TO.C,R16*%
X145000000Y-118100000D03*
X145000000Y-120100000D03*
%TD*%
D16*
%TO.C,R18*%
X124200000Y-138500000D03*
X126200000Y-138500000D03*
%TD*%
D40*
%TO.C,R4*%
X125150000Y-124850000D03*
X123150000Y-124850000D03*
%TD*%
D17*
%TO.C,C14*%
X133312500Y-132900000D03*
X135387500Y-132900000D03*
%TD*%
D40*
%TO.C,R21*%
X146100000Y-141050000D03*
X144100000Y-141050000D03*
%TD*%
D41*
%TO.C,Q1*%
X111650000Y-141050000D03*
X111650000Y-139150000D03*
X109650000Y-140100000D03*
%TD*%
D25*
%TO.C,R20*%
X140950000Y-144950000D03*
X140950000Y-142950000D03*
%TD*%
D42*
%TO.C,U3*%
X131175000Y-133700000D03*
X130225000Y-133700000D03*
X129275000Y-133700000D03*
X129275000Y-136400000D03*
X130225000Y-136400000D03*
X131175000Y-136400000D03*
%TD*%
D17*
%TO.C,C13*%
X133312500Y-130850000D03*
X135387500Y-130850000D03*
%TD*%
D19*
%TO.C,C3*%
X138100000Y-110362500D03*
X138100000Y-112437500D03*
%TD*%
D41*
%TO.C,Q2*%
X142250000Y-141200000D03*
X142250000Y-139300000D03*
X140250000Y-140250000D03*
%TD*%
D25*
%TO.C,R15*%
X139150000Y-136900000D03*
X139150000Y-134900000D03*
%TD*%
D20*
%TO.C,R17*%
X135150000Y-134950000D03*
X135150000Y-136950000D03*
%TD*%
D30*
%TO.C,H2*%
X104000000Y-104000000D03*
%TD*%
D17*
%TO.C,C12*%
X133312500Y-128800000D03*
X135387500Y-128800000D03*
%TD*%
D25*
%TO.C,R13*%
X117200000Y-140800000D03*
X117200000Y-138800000D03*
%TD*%
D43*
%TO.C,FL1*%
X125175000Y-131300000D03*
X125175000Y-129300000D03*
X120425000Y-129300000D03*
X120425000Y-131300000D03*
%TD*%
D21*
%TO.C,C7*%
X133125000Y-136957500D03*
X133125000Y-134882500D03*
%TD*%
D16*
%TO.C,R7*%
X108000000Y-108850000D03*
X110000000Y-108850000D03*
%TD*%
D44*
%TO.C,J2*%
X105150000Y-110950000D03*
X105150000Y-112200000D03*
X105150000Y-113450000D03*
X105150000Y-114700000D03*
X105150000Y-115950000D03*
D45*
X101950000Y-109100000D03*
X101950000Y-117800000D03*
%TD*%
D46*
%TO.C,L1*%
X129400000Y-131000000D03*
X129400000Y-127200000D03*
%TD*%
D20*
%TO.C,R1*%
X112200000Y-102650000D03*
X112200000Y-104650000D03*
%TD*%
D47*
%TO.C,J3*%
X133450000Y-145350000D03*
D48*
X136950000Y-145350000D03*
%TD*%
D20*
%TO.C,R2*%
X114200000Y-102650000D03*
X114200000Y-104650000D03*
%TD*%
D30*
%TO.C,H4*%
X146000000Y-146000000D03*
%TD*%
D49*
%TO.C,D3*%
X103875000Y-139350000D03*
X101825000Y-139350000D03*
%TD*%
D16*
%TO.C,R6*%
X108000000Y-110850000D03*
X110000000Y-110850000D03*
%TD*%
D40*
%TO.C,R5*%
X125150000Y-126850000D03*
X123150000Y-126850000D03*
%TD*%
D30*
%TO.C,H1*%
X104000000Y-146000000D03*
%TD*%
D19*
%TO.C,C10*%
X127325000Y-133842500D03*
X127325000Y-135917500D03*
%TD*%
D50*
%TO.C,U2*%
X116812500Y-124000000D03*
X116812500Y-124950000D03*
X116812500Y-125900000D03*
X119087500Y-125900000D03*
X119087500Y-124950000D03*
X119087500Y-124000000D03*
%TD*%
D19*
%TO.C,C5*%
X121250000Y-124812500D03*
X121250000Y-126887500D03*
%TD*%
D32*
%TO.C,J5*%
X145825000Y-132225000D03*
D33*
X145825000Y-134765000D03*
X145825000Y-137305000D03*
%TD*%
%LPD*%
M02*
